<?xml version="1.0" encoding="UTF-8"?>
<svg width="594px" height="510px" viewBox="0 0 594 510" version="1.1" xmlns="http://www.w3.org/2000/svg" xmlns:xlink="http://www.w3.org/1999/xlink">
    <!-- Generator: Sketch 63 (92445) - https://sketch.com -->
    <title>编组 2</title>
    <desc>Created with Sketch.</desc>
    <defs>
        <linearGradient x1="73.6647139%" y1="-8.84835765%" x2="42.9707341%" y2="92.7239678%" id="linearGradient-1">
            <stop stop-color="#42E8E0" offset="0%"></stop>
            <stop stop-color="#5761D7" offset="100%"></stop>
        </linearGradient>
        <linearGradient x1="89.3919192%" y1="45.0818335%" x2="38.2991919%" y2="53.5705939%" id="linearGradient-2">
            <stop stop-color="#42E8E0" offset="0%"></stop>
            <stop stop-color="#5761D7" offset="100%"></stop>
        </linearGradient>
        <linearGradient x1="89.3919192%" y1="29.2929958%" x2="38.2991919%" y2="65.0333062%" id="linearGradient-3">
            <stop stop-color="#42E8E0" offset="0%"></stop>
            <stop stop-color="#5761D7" offset="100%"></stop>
        </linearGradient>
        <linearGradient x1="89.3919192%" y1="29.4766927%" x2="38.2991919%" y2="64.8999421%" id="linearGradient-4">
            <stop stop-color="#42E8E0" offset="0%"></stop>
            <stop stop-color="#5761D7" offset="100%"></stop>
        </linearGradient>
        <linearGradient x1="89.3919192%" y1="30.083149%" x2="38.2991919%" y2="64.4596541%" id="linearGradient-5">
            <stop stop-color="#42E8E0" offset="0%"></stop>
            <stop stop-color="#5761D7" offset="100%"></stop>
        </linearGradient>
        <linearGradient x1="-3627.3476%" y1="49.9948528%" x2="-3527.3216%" y2="49.9948528%" id="linearGradient-6">
            <stop stop-color="#C0BFF6" offset="0%"></stop>
            <stop stop-color="#C5C4F7" offset="29%"></stop>
            <stop stop-color="#D3D2F9" offset="64%"></stop>
            <stop stop-color="#E9E9FD" offset="100%"></stop>
        </linearGradient>
        <linearGradient x1="-21646.6329%" y1="49.9848286%" x2="-21546.4308%" y2="49.9848286%" id="linearGradient-7">
            <stop stop-color="#5761D7" offset="0%"></stop>
            <stop stop-color="#5C66D9" offset="18%"></stop>
            <stop stop-color="#6A73DF" offset="39%"></stop>
            <stop stop-color="#8289E8" offset="61%"></stop>
            <stop stop-color="#A3A7F5" offset="85%"></stop>
            <stop stop-color="#BCBEFF" offset="100%"></stop>
        </linearGradient>
        <linearGradient x1="-2519.527%" y1="49.9996564%" x2="-2419.53181%" y2="49.9996564%" id="linearGradient-8">
            <stop stop-color="#5761D7" offset="0%"></stop>
            <stop stop-color="#A3A7F5" offset="100%"></stop>
        </linearGradient>
        <linearGradient x1="79.9719233%" y1="74.1223701%" x2="8.48445069%" y2="17.0665377%" id="linearGradient-9">
            <stop stop-color="#C0BFF6" offset="0%"></stop>
            <stop stop-color="#D6D6F6" offset="100%"></stop>
        </linearGradient>
        <linearGradient x1="-9732.84797%" y1="50%" x2="-9632.85584%" y2="50%" id="linearGradient-10">
            <stop stop-color="#C0BFF6" offset="0%"></stop>
            <stop stop-color="#C5C4F7" offset="29%"></stop>
            <stop stop-color="#D3D2F9" offset="64%"></stop>
            <stop stop-color="#E9E9FD" offset="100%"></stop>
        </linearGradient>
        <linearGradient x1="89.3919192%" y1="29.952266%" x2="38.2991919%" y2="64.5546754%" id="linearGradient-11">
            <stop stop-color="#42E8E0" offset="0%"></stop>
            <stop stop-color="#5761D7" offset="100%"></stop>
        </linearGradient>
        <linearGradient x1="130.330146%" y1="80.4599878%" x2="29.8553065%" y2="32.3483138%" id="linearGradient-12">
            <stop stop-color="#5761D7" offset="0%"></stop>
            <stop stop-color="#5C66D9" offset="18%"></stop>
            <stop stop-color="#6A73DF" offset="39%"></stop>
            <stop stop-color="#8289E8" offset="61%"></stop>
            <stop stop-color="#A3A7F5" offset="85%"></stop>
            <stop stop-color="#BCBEFF" offset="100%"></stop>
        </linearGradient>
        <radialGradient cx="-7699.95293%" cy="34.0025353%" fx="-7699.95293%" fy="34.0025353%" r="50.9721535%" gradientTransform="translate(-76.999529,0.340025),scale(0.936606,1.000000),translate(76.999529,-0.340025)" id="radialGradient-13">
            <stop stop-color="#2B237C" offset="0%"></stop>
            <stop stop-color="#180D5B" offset="100%"></stop>
        </radialGradient>
        <linearGradient x1="111.3127%" y1="99.9678846%" x2="-44.8239061%" y2="-27.1749924%" id="linearGradient-14">
            <stop stop-color="#5761D7" offset="0%"></stop>
            <stop stop-color="#5C66D9" offset="18%"></stop>
            <stop stop-color="#6A73DF" offset="39%"></stop>
            <stop stop-color="#8289E8" offset="61%"></stop>
            <stop stop-color="#A3A7F5" offset="80.4713894%"></stop>
            <stop stop-color="#BCBEFF" offset="100%"></stop>
        </linearGradient>
        <linearGradient x1="79.9719233%" y1="100.271301%" x2="6.83200749%" y2="-21.3822269%" id="linearGradient-15">
            <stop stop-color="#C0BFF6" offset="0%"></stop>
            <stop stop-color="#C5C4F7" offset="29%"></stop>
            <stop stop-color="#D3D2F9" offset="64%"></stop>
            <stop stop-color="#E9E9FD" offset="100%"></stop>
        </linearGradient>
        <linearGradient x1="92.6001369%" y1="128.108808%" x2="-14.737644%" y2="-68.6528497%" id="linearGradient-16">
            <stop stop-color="#454BAD" offset="0%"></stop>
            <stop stop-color="#4A4FAD" offset="25%"></stop>
            <stop stop-color="#585DAC" offset="54%"></stop>
            <stop stop-color="#7072AB" offset="85%"></stop>
            <stop stop-color="#7E7FAB" offset="100%"></stop>
        </linearGradient>
        <linearGradient x1="0%" y1="50%" x2="100%" y2="50%" id="linearGradient-17">
            <stop stop-color="#5761D7" offset="0%"></stop>
            <stop stop-color="#5C66D9" offset="18%"></stop>
            <stop stop-color="#6A73DF" offset="39%"></stop>
            <stop stop-color="#8289E8" offset="61%"></stop>
            <stop stop-color="#A3A7F5" offset="85%"></stop>
            <stop stop-color="#BCBEFF" offset="100%"></stop>
        </linearGradient>
        <linearGradient x1="75.5565398%" y1="107.058824%" x2="11.3182007%" y2="-36.3529412%" id="linearGradient-18">
            <stop stop-color="#5761D7" offset="0%"></stop>
            <stop stop-color="#A3A7F5" offset="100%"></stop>
        </linearGradient>
        <linearGradient x1="0%" y1="50.0426257%" x2="100%" y2="50.0426257%" id="linearGradient-19">
            <stop stop-color="#8A90D7" offset="0%"></stop>
            <stop stop-color="#8C92DC" offset="30%"></stop>
            <stop stop-color="#9397EA" offset="66%"></stop>
            <stop stop-color="#9C9EFF" offset="100%"></stop>
        </linearGradient>
        <linearGradient x1="74.2508971%" y1="141.211535%" x2="29.5790684%" y2="-33.977767%" id="linearGradient-20">
            <stop stop-color="#C0BFF6" offset="0%"></stop>
            <stop stop-color="#C5C4F7" offset="29%"></stop>
            <stop stop-color="#D3D2F9" offset="64%"></stop>
            <stop stop-color="#E9E9FD" offset="100%"></stop>
        </linearGradient>
        <linearGradient x1="52.9144855%" y1="91.2566975%" x2="44.472742%" y2="-66.5034785%" id="linearGradient-21">
            <stop stop-color="#5761D7" offset="0%"></stop>
            <stop stop-color="#BCBEFF" offset="100%"></stop>
        </linearGradient>
        <linearGradient x1="65.3987278%" y1="146.951614%" x2="27.6764598%" y2="-91.8393537%" id="linearGradient-22">
            <stop stop-color="#C0BFF6" offset="0%"></stop>
            <stop stop-color="#C5C4F7" offset="29%"></stop>
            <stop stop-color="#D3D2F9" offset="64%"></stop>
            <stop stop-color="#E9E9FD" offset="100%"></stop>
        </linearGradient>
        <linearGradient x1="77.1612923%" y1="148.962841%" x2="40.9015889%" y2="-10.9834353%" id="linearGradient-23">
            <stop stop-color="#5761D7" offset="23%"></stop>
            <stop stop-color="#5C66D9" offset="36%"></stop>
            <stop stop-color="#6A73DF" offset="51%"></stop>
            <stop stop-color="#8289E8" offset="68%"></stop>
            <stop stop-color="#A3A7F5" offset="86%"></stop>
            <stop stop-color="#BCBEFF" offset="97%"></stop>
        </linearGradient>
        <linearGradient x1="67.4022918%" y1="180.699482%" x2="23.8692859%" y2="-146.632124%" id="linearGradient-24">
            <stop stop-color="#454BAD" offset="0%"></stop>
            <stop stop-color="#4A4FAD" offset="25%"></stop>
            <stop stop-color="#585DAC" offset="54%"></stop>
            <stop stop-color="#7072AB" offset="85%"></stop>
            <stop stop-color="#7E7FAB" offset="100%"></stop>
        </linearGradient>
        <linearGradient x1="0%" y1="50%" x2="100%" y2="50%" id="linearGradient-25">
            <stop stop-color="#5761D7" offset="0%"></stop>
            <stop stop-color="#5C66D9" offset="18%"></stop>
            <stop stop-color="#6A73DF" offset="39%"></stop>
            <stop stop-color="#8289E8" offset="61%"></stop>
            <stop stop-color="#A3A7F5" offset="85%"></stop>
            <stop stop-color="#BCBEFF" offset="100%"></stop>
        </linearGradient>
        <linearGradient x1="0.0497265042%" y1="50.0426257%" x2="100%" y2="50.0426257%" id="linearGradient-26">
            <stop stop-color="#8A90D7" offset="0%"></stop>
            <stop stop-color="#8C92DC" offset="30%"></stop>
            <stop stop-color="#9397EA" offset="66%"></stop>
            <stop stop-color="#9C9EFF" offset="100%"></stop>
        </linearGradient>
        <linearGradient x1="64.2108533%" y1="122.394071%" x2="29.5323775%" y2="-52.7952312%" id="linearGradient-27">
            <stop stop-color="#C0BFF6" offset="0%"></stop>
            <stop stop-color="#C5C4F7" offset="29%"></stop>
            <stop stop-color="#D3D2F9" offset="64%"></stop>
            <stop stop-color="#E9E9FD" offset="100%"></stop>
        </linearGradient>
    </defs>
    <g id="页面-1" stroke="none" stroke-width="1" fill="none" fill-rule="evenodd">
        <g id="404" transform="translate(-663.000000, -285.000000)" fill-rule="nonzero">
            <g id="编组-2" transform="translate(663.000000, 285.000000)">
                <path d="M155.874024,385.236096 L154.903656,383.624592 L176.0958,370.90584 C176.505523,370.66668 176.757437,370.227944 176.757437,369.753528 C176.757437,369.279112 176.505523,368.840376 176.0958,368.601216 L155.3022,356.26368 L156.25524,354.652176 L177.04884,366.989712 C178.017546,367.569427 178.609915,368.615945 178.60836,369.744864 C178.624134,370.872992 178.036053,371.923609 177.066168,372.500016 L155.874024,385.236096 Z" id="路径" fill="url(#linearGradient-1)"></path>
                <path d="M198.79548,430.08096 C196.853614,430.081483 194.946306,429.567287 193.267848,428.590752 L155.683416,406.896096 L156.619128,405.284592 L194.20356,426.979248 C197.039689,428.616688 200.533943,428.616688 203.370072,426.979248 L240.521304,405.527184 L241.457016,407.156016 L204.305784,428.60808 C202.628229,429.569569 200.729036,430.077215 198.79548,430.08096 L198.79548,430.08096 Z" id="路径" fill="url(#linearGradient-2)"></path>
                <path d="M135.998808,408.16104 C130.885716,408.274492 125.828205,407.081682 121.304664,404.69544 L121.304664,404.69544 C117.197928,402.338832 114.945288,399.133152 114.945288,395.667552 C114.945288,392.201952 117.197928,389.0136 121.304664,386.656992 C129.414168,381.978432 142.600776,381.961104 150.762264,386.656992 C154.869,389.0136 157.138968,392.21928 157.138968,395.667552 C157.138968,399.115824 154.869,402.338832 150.762264,404.69544 C146.218918,407.095393 141.135488,408.288686 135.998808,408.16104 L135.998808,408.16104 Z M135.998808,384.924192 C131.207632,384.836738 126.472978,385.969716 122.240376,388.216512 C118.774776,390.243888 116.816712,392.860416 116.816712,395.615568 C116.816712,398.37072 118.74012,401.004576 122.240376,403.031952 L122.240376,403.031952 C129.83004,407.415936 142.184904,407.415936 149.75724,403.031952 C153.22284,401.004576 155.198232,398.37072 155.198232,395.615568 C155.198232,392.860416 153.257496,390.243888 149.75724,388.216512 C145.525453,385.967561 140.790232,384.834447 135.998808,384.924192 L135.998808,384.924192 Z M135.998808,402.858672 C133.151926,402.909922 130.340248,402.223419 127.83732,400.865952 C125.639075,400.054177 124.179255,397.958912 124.179255,395.615568 C124.179255,393.272224 125.639075,391.176959 127.83732,390.365184 C132.967758,387.765397 139.029858,387.765397 144.160296,390.365184 C146.358541,391.176959 147.818361,393.272224 147.818361,395.615568 C147.818361,397.958912 146.358541,400.054177 144.160296,400.865952 C141.659575,402.23093 138.847406,402.923524 135.998808,402.876 L135.998808,402.858672 Z M135.998808,390.261216 C133.481371,390.208663 130.992835,390.805434 128.773032,391.994016 C127.154725,392.45966 126.04007,393.940266 126.04007,395.624232 C126.04007,397.308198 127.154725,398.788804 128.773032,399.254448 C133.314238,401.560473 138.683378,401.560473 143.224584,399.254448 C144.842891,398.788804 145.957546,397.308198 145.957546,395.624232 C145.957546,393.940266 144.842891,392.45966 143.224584,391.994016 C141.004781,390.805434 138.516245,390.208663 135.998808,390.261216 L135.998808,390.261216 Z" id="形状" fill="url(#linearGradient-3)"></path>
                <path d="M135.998808,412.354416 C129.089418,412.501635 122.257899,410.87281 116.158248,407.623872 C110.665272,404.452848 107.6502,400.207488 107.6502,395.615568 C107.6502,391.023648 110.665272,386.795616 116.158248,383.624592 C127.092216,377.299872 144.9054,377.299872 155.856696,383.624592 C161.332344,386.795616 164.347416,391.040976 164.347416,395.615568 C164.347416,400.19016 161.332344,404.452848 155.856696,407.623872 C149.746962,410.862639 142.912553,412.490731 135.998808,412.354416 Z M135.998808,380.730816 C129.417023,380.604403 122.911305,382.154804 117.09396,385.236096 C112.207464,388.06056 109.521624,391.751424 109.521624,395.632896 C109.521624,399.514368 112.207464,403.205232 117.09396,406.029696 L117.09396,406.029696 C127.49076,412.042512 144.489528,412.042512 154.920984,406.029696 C159.790152,403.22256 162.475992,399.531696 162.475992,395.632896 C162.475992,391.734096 159.790152,388.077888 154.920984,385.236096 C149.098211,382.152657 142.586352,380.602215 135.998808,380.730816 Z" id="形状" fill="url(#linearGradient-4)"></path>
                <path d="M422.517288,509.425921 C419.396584,509.433204 416.329574,508.614139 413.628024,507.051936 L215.60364,392.687136 C214.492288,392.033313 213.809928,390.840182 213.809928,389.550768 C213.809928,388.261354 214.492288,387.068223 215.60364,386.4144 L339.117624,315.10968 L339.58548,315.386928 L546.031272,434.568912 C547.142624,435.222735 547.824984,436.415866 547.824984,437.70528 C547.824984,438.994694 547.142624,440.187825 546.031272,440.841648 L431.406552,507.01728 C428.70774,508.590064 425.640941,509.421029 422.517288,509.425921 Z M339.117624,317.310336 L216.539352,388.077888 C215.987774,388.383067 215.64544,388.963714 215.64544,389.594088 C215.64544,390.224462 215.987774,390.805109 216.539352,391.110288 L414.563736,505.475088 C419.490153,508.298868 425.544423,508.298868 430.47084,505.475088 L545.1822,439.2648 C545.725895,438.950979 546.057338,438.367639 546.048769,437.739936 C546.048769,437.118407 545.720467,436.543162 545.1822,436.2324 L339.117624,317.310336 Z" id="形状" fill="url(#linearGradient-5)"></path>
                <path d="M338.857704,266.76456 L366.44388,103.1016 L364.225896,102.165888 L367.5702,100.259808 L367.5702,100.259808 C368.390436,99.8066982 369.39974,99.8744367 370.152072,100.433088 L590.633544,227.724576 C592.536717,228.936742 593.63161,231.086714 593.492664,233.338848 L565.767864,398.318736 C565.723065,399.063907 565.279012,399.726673 564.606888,400.051536 L564.606888,400.051536 L561.331896,401.92296 L560.7774,398.89056 L560.968008,398.89056 L341.820792,272.39616 C339.875035,271.204433 338.73785,269.043116 338.857704,266.76456 Z" id="路径" fill="url(#linearGradient-6)"></path>
                <path d="M589.385928,232.212528 L593.00748,230.601024 C593.422141,231.450081 593.584516,232.400274 593.475336,233.338848 L565.750536,398.318736 C565.705737,399.063907 565.261684,399.726673 564.58956,400.051536 L564.58956,400.051536 L561.314568,401.92296 L560.760072,398.89056 L560.95068,398.89056 L549.86076,392.4792 L589.385928,232.212528 Z" id="路径" fill="url(#linearGradient-7)"></path>
                <path d="M338.268552,274.336896 L558.750024,401.645712 C560.482824,402.633408 561.921048,402.061584 562.215624,400.294128 L590.027064,235.31424 C590.15216,233.065436 589.051945,230.924656 587.150616,229.717296 L366.7038,102.425808 C364.971,101.438112 363.550104,102.009936 363.2382,103.760064 L335.5134,268.739952 C335.351264,270.966718 336.404987,273.107302 338.268552,274.336896 L338.268552,274.336896 Z" id="路径" fill="#24126A"></path>
                <g id="编组" opacity="0.51" transform="translate(343.347100, 112.848600)" fill="#453C9E">
                    <polygon id="路径" points="26.198492 0.095304 238.74374 122.8122 212.387852 278.175048 -0.001444 155.56212"></polygon>
                </g>
                <path d="M199.66188,352.45152 L211.70484,358.741584 L332.359704,289.083024 C334.880557,287.92073 337.805696,288.036704 340.226616,289.394928 L548.335896,409.54728 C550.328616,408.438288 559.408488,404.071632 559.408488,404.071632 L554.989848,415.542768 L554.989848,415.542768 C554.76326,416.135582 554.32491,416.623323 553.75956,416.91168 L426.693336,490.278432 C424.161586,491.424343 421.236496,491.302197 418.809096,489.9492 L205.847976,366.989712 C205.068487,366.572373 204.456558,365.899251 204.115176,365.083632 L204.115176,365.083632 L199.66188,352.45152 Z" id="路径" fill="url(#linearGradient-8)"></path>
                <path d="M201.533304,354.3576 L419.866104,480.366816 C422.34637,481.753056 425.338531,481.875316 427.923624,480.696048 L558.160872,405.509856 C560.240232,404.314224 559.893672,402.234864 557.589048,400.848624 L339.342888,274.839408 C336.854173,273.461081 333.860703,273.33903 331.26804,274.510176 L201.030792,349.696368 C198.88212,350.892 199.14204,353.058 201.533304,354.3576 Z" id="路径" fill="url(#linearGradient-9)"></path>
                <path d="M485.608536,453.1272 L485.608536,450.735936 C485.608536,450.510672 485.469912,450.406704 485.296632,450.493344 L476.857896,455.37984 C476.662528,455.51223 476.545653,455.732993 476.545991,455.968992 L476.545991,458.360256 C476.545991,458.58552 476.684616,458.689488 476.857896,458.58552 L485.296632,453.716352 C485.487551,453.580021 485.603113,453.361735 485.608536,453.1272 L485.608536,453.1272 Z" id="路径" fill="#2842A2"></path>
                <path d="M472.976424,460.474272 L472.976424,458.06568 C472.976424,457.840416 472.8378,457.736448 472.66452,457.840416 L464.225784,462.709584 C464.034865,462.845915 463.919303,463.064201 463.91388,463.298736 L463.91388,465.69 C463.91388,465.915264 464.052504,466.019232 464.225784,465.932592 L472.66452,461.063424 C472.855439,460.927093 472.971001,460.708807 472.976424,460.474272 Z" id="路径" fill="#2842A2"></path>
                <path d="M524.12868,398.544 L342.756504,293.830896 C341.551177,293.130848 340.063031,293.130848 338.857704,293.830896 L274.276248,331.190064 C273.843638,331.436683 273.576545,331.896392 273.576545,332.39436 C273.576545,332.892328 273.843638,333.352037 274.276248,333.598656 L455.544456,438.259776 C456.753166,438.970228 458.251874,438.970228 459.460584,438.259776 L524.12868,400.952592 C524.552149,400.699106 524.811364,400.241835 524.811364,399.748296 C524.811364,399.254757 524.552149,398.797486 524.12868,398.544 L524.12868,398.544 Z" id="路径" fill="#ADB1F2"></path>
                <path d="M524.12868,400.952592 L523.470216,401.31648 L342.756504,296.984592 C341.549261,296.291693 340.064947,296.291693 338.857704,296.984592 L274.8654,333.979872 L274.224264,333.598656 C273.791654,333.352037 273.524561,332.892328 273.524561,332.39436 C273.524561,331.896392 273.791654,331.436683 274.224264,331.190064 L338.80572,293.830896 C340.011047,293.130848 341.499193,293.130848 342.70452,293.830896 L524.076696,398.544 C524.5058,398.788219 524.775028,399.239936 524.786009,399.733555 C524.796335,400.227174 524.546847,400.690087 524.12868,400.952592 L524.12868,400.952592 Z" id="路径" fill="#9198DB"></path>
                <polygon id="路径" fill="#24126A" points="333.988536 303.291984 491.517384 394.246656 498.535224 390.209232 340.989048 299.25456"></polygon>
                <polygon id="路径" fill="#24126A" points="316.816488 313.2036 464.572344 398.526672 471.572856 394.47192 323.817 309.166176"></polygon>
                <polygon id="路径" fill="#24126A" points="305.6226 319.666944 479.59572 420.11736 486.61356 416.062608 312.623112 315.62952"></polygon>
                <polygon id="路径" fill="#24126A" points="294.44604 326.11296 468.41916 426.563376 475.419672 422.525952 301.446552 322.075536"></polygon>
                <polygon id="路径" fill="#24126A" points="283.252152 332.576304 457.225272 433.02672 464.243112 428.971968 290.252664 328.53888"></polygon>
                <polygon id="路径" fill="#24126A" points="501.047784 399.739632 508.048296 403.777056 515.048808 399.739632 508.048296 395.702208"></polygon>
                <polygon id="路径" fill="#24126A" points="476.338056 405.30192 490.876248 413.706 497.87676 409.651248 483.338568 401.264496"></polygon>
                <path d="M335.77332,423.877536 L286.873704,395.650224 C286.016774,395.358715 285.440515,394.553996 285.440515,393.64884 C285.440515,392.743684 286.016774,391.938965 286.873704,391.647456 L320.316744,372.344064 C322.494291,371.236013 325.070397,371.236013 327.247944,372.344064 L376.14756,400.571376 C377.00449,400.862885 377.580749,401.667604 377.580749,402.57276 C377.580749,403.477916 377.00449,404.282635 376.14756,404.574144 L342.70452,423.877536 C340.526973,424.985587 337.950867,424.985587 335.77332,423.877536 L335.77332,423.877536 Z" id="路径" fill="url(#linearGradient-10)"></path>
                <path d="M376.14756,402.200208 L327.247944,373.972896 C325.070397,372.864845 322.494291,372.864845 320.316744,373.972896 L286.873704,393.276288 C286.374969,393.552412 285.961447,393.959941 285.678072,394.454592 C285.17556,393.501552 285.556776,392.409888 286.873704,391.647456 L320.316744,372.344064 C322.494291,371.236013 325.070397,371.236013 327.247944,372.344064 L376.14756,400.571376 C377.464488,401.333808 377.88036,402.425472 377.343192,403.39584 C377.066072,402.891995 376.651405,402.477328 376.14756,402.200208 Z" id="路径" fill="#9198DB"></path>
                <g id="编组" opacity="0.11" transform="translate(380.566200, 261.688900)" fill="#24126A">
                    <g id="路径">
                        <polygon points="6.272736 9.788876 164.26944 101.003468 158.014032 104.62502 0.017328 13.3931"></polygon>
                        <polygon points="22.924944 0.171836 173.089392 86.881148 166.833984 90.5027 16.669536 3.793388"></polygon>
                        <polygon points="171.928416 105.422108 181.68408 111.071036 175.428672 114.67526 165.673008 109.04366"></polygon>
                    </g>
                </g>
                <path d="M140.989272,364.14792 C140.114826,364.172809 139.248948,363.969776 138.476712,363.558768 L32.01348,302.096352 C31.2268281,301.705574 30.7202427,300.912368 30.696552,300.03432 C30.7672159,298.992108 31.397349,298.070124 32.342712,297.625728 L54.470568,284.854992 C56.2111582,283.878937 58.317071,283.807879 60.119496,284.664384 L166.582728,346.1268 C167.364121,346.523409 167.868463,347.313104 167.899656,348.188832 C167.821856,349.228557 167.19395,350.147283 166.253496,350.597424 L144.12564,363.36816 C143.163641,363.890914 142.084071,364.159315 140.989272,364.14792 L140.989272,364.14792 Z M139.516392,361.756656 C140.672029,362.246684 141.989079,362.176357 143.08596,361.566048 L165.213816,348.795312 C165.716328,348.500736 165.820296,348.240816 165.820296,348.188832 C165.820296,348.136848 165.820296,348.067536 165.543048,347.928912 L59.079816,286.466496 C57.9241791,285.976468 56.607129,286.046795 55.510248,286.657104 L33.382392,299.42784 C32.87988,299.722416 32.775912,299.982336 32.775912,300.03432 C32.775912,300.086304 32.775912,300.172944 33.05316,300.29424 L139.516392,361.756656 Z" id="形状" fill="url(#linearGradient-11)"></path>
                <path d="M75.281496,249.297936 C78.2216461,251.046876 80.8556738,253.265312 83.079096,255.865248 C86.354088,245.36448 96.335016,242.106816 108.135384,248.934048 C117.891048,254.582976 126.399096,265.672896 130.904376,277.403952 C132.647782,277.512612 134.337749,278.048165 135.825528,278.963472 C142.618534,283.401997 146.896316,290.806097 147.348648,298.908 C147.348648,299.063952 147.348648,299.219904 147.348648,299.375856 C149.453815,299.575876 151.486079,300.251322 153.292152,301.351248 C161.436312,306.064464 168.03828,317.500944 168.03828,326.910048 C168.03828,336.319152 161.436312,340.131312 153.292152,335.435424 L75.316152,290.382624 C65.491176,284.69904 57.502968,270.888624 57.502968,259.538784 C57.502968,248.188944 65.45652,243.614352 75.281496,249.297936 Z" id="路径" fill="url(#linearGradient-12)"></path>
                <path d="M75.281496,249.297936 C76.9603731,250.29074 78.5337854,251.45193 79.977384,252.763536 L88.641384,247.721088 L88.641384,247.721088 C93.423912,244.359456 100.355112,244.49808 108.0834,248.951376 C117.839064,254.600304 126.347112,265.690224 130.852392,277.42128 C132.595798,277.52994 134.285765,278.065493 135.773544,278.9808 C142.581607,283.404217 146.87916,290.802698 147.348648,298.908 C147.348648,299.063952 147.348648,299.219904 147.348648,299.375856 C149.453815,299.575876 151.486079,300.251322 153.292152,301.351248 C161.436312,306.064464 168.03828,317.500944 168.03828,326.910048 C168.03828,331.57128 166.409448,334.8636 163.79292,336.42312 L163.79292,336.42312 L163.79292,336.42312 L163.79292,336.42312 L142.444824,348.829968 L137.783592,326.390208 L75.402792,290.365296 C65.577816,284.681712 57.589608,270.871296 57.589608,259.521456 C57.589608,248.171616 65.45652,243.614352 75.281496,249.297936 Z" id="路径" fill="url(#radialGradient-13)"></path>
                <path d="M40.9374,260.682432 L62.580072,248.102304 L62.580072,248.102304 C65.80308,246.178896 70.291032,246.369504 75.264168,249.297936 C76.9430451,250.29074 78.5164574,251.45193 79.960056,252.763536 L88.624056,247.721088 L88.624056,247.721088 C93.406584,244.359456 100.337784,244.49808 108.066072,248.951376 C117.821736,254.600304 126.329784,265.690224 130.835064,277.42128 C132.57847,277.52994 134.268437,278.065493 135.756216,278.9808 C142.570883,283.40036 146.875241,290.799481 147.348648,298.908 C147.348648,299.063952 147.348648,299.219904 147.348648,299.375856 C149.453815,299.575876 151.486079,300.251322 153.292152,301.351248 C161.436312,306.064464 168.03828,317.500944 168.03828,326.910048 C168.03828,331.57128 166.409448,334.8636 163.79292,336.42312 L163.79292,336.42312 L163.79292,336.42312 L163.79292,336.42312 L142.444824,348.829968 L137.783592,326.390208 L75.402792,290.365296 C67.431912,285.756048 60.69132,275.809776 58.421352,266.106096 L40.9374,260.682432 Z" id="路径" fill="url(#linearGradient-14)"></path>
                <path d="M53.864088,261.722112 C56.7975472,263.487473 59.4299569,265.710397 61.661688,268.306752 C64.919352,257.805984 74.90028,254.54832 86.700648,261.375552 C96.47364,267.007152 104.981688,278.097072 109.46964,289.845456 C111.213046,289.954116 112.903013,290.489669 114.390792,291.404976 C121.206184,295.840814 125.494059,303.264117 125.93124,311.38416 C125.93981,311.534214 125.93981,311.684634 125.93124,311.834688 C128.035683,312.049887 130.065894,312.73057 131.874744,313.827408 C140.018904,318.540624 146.6382,329.977104 146.6382,339.386208 C146.6382,348.795312 140.018904,352.607472 131.874744,347.894256 L53.898744,302.841456 C44.05644,297.157872 36.08556,283.347456 36.08556,271.997616 C36.08556,260.647776 44.021784,256.055856 53.864088,261.722112 Z" id="路径" fill="url(#linearGradient-15)"></path>
                <polygon id="路径" fill="#42E8E0" opacity="0.5" points="397.062456 50.285856 373.738968 36.822 373.738968 31.71024 397.062456 45.156768"></polygon>
                <polygon id="路径" fill="#42E8E0" opacity="0.5" points="409.018776 57.1824 400.614696 52.33056 400.614696 47.2188 409.018776 52.07064"></polygon>
                <polygon id="路径" fill="#42E8E0" opacity="0.5" points="418.271928 62.536752 412.571016 59.244432 412.571016 54.115344 418.271928 57.407664"></polygon>
                <polygon id="路径" fill="#42E8E0" opacity="0.5" points="386.440392 55.848144 373.738968 48.5184 373.738968 43.40664 386.440392 50.736384"></polygon>
                <polygon id="路径" fill="#42E8E0" opacity="0.5" points="405.570504 66.903408 390.00996 57.910176 390.00996 52.781088 405.570504 61.77432"></polygon>
                <polygon id="路径" fill="#42E8E0" opacity="0.5" points="414.840984 72.240432 409.140072 68.948112 409.140072 63.836352 414.840984 67.128672"></polygon>
                <polygon id="路径" fill="#42E8E0" opacity="0.5" points="423.660936 77.334864 417.960024 74.042544 417.960024 68.930784 423.660936 72.205776"></polygon>
                <polygon id="路径" fill="#42E8E0" points="382.940136 65.517168 373.738968 60.2148 373.738968 55.085712 382.940136 60.405408"></polygon>
                <polygon id="路径" fill="#42E8E0" points="389.646072 69.381312 386.492376 67.5792 386.492376 62.450112 389.646072 64.269552"></polygon>
                <polygon id="路径" fill="#42E8E0" opacity="0.5" points="398.899224 74.735664 393.198312 71.443344 393.198312 66.331584 398.899224 69.623904"></polygon>
                <polygon id="路径" fill="#42E8E0" opacity="0.5" points="407.667192 91.49184 373.738968 71.9112 373.738968 66.782112 407.667192 86.362752"></polygon>
                <polygon id="路径" fill="#42E8E0" opacity="0.5" points="419.623512 98.388384 411.23676 93.553872 411.23676 88.424784 419.623512 93.276624"></polygon>
                <polygon id="路径" fill="#42E8E0" opacity="0.5" points="382.940136 88.909968 373.738968 83.6076 373.738968 78.478512 382.940136 83.78088"></polygon>
                <polygon id="路径" fill="#42E8E0" opacity="0.5" points="404.513496 101.3688 386.492376 90.972 386.492376 85.842912 404.513496 96.239712"></polygon>
                <polygon id="路径" fill="#42E8E0" opacity="0.5" points="413.766648 106.705824 408.065736 103.413504 408.065736 98.301744 413.766648 101.594064"></polygon>
                <polygon id="路径" fill="#42E8E0" opacity="0.5" points="392.557176 106.151328 373.738968 95.304 373.738968 90.174912 392.557176 101.039568"></polygon>
                <polygon id="路径" fill="#42E8E0" points="409.711896 116.062944 396.109416 108.21336 396.109416 103.084272 409.711896 110.933856"></polygon>
                <polygon id="路径" fill="#42E8E0" opacity="0.5" points="422.465304 123.427344 413.281464 118.107648 413.281464 112.995888 422.465304 118.298256"></polygon>
                <polygon id="路径" fill="#42E8E0" opacity="0.5" points="380.098344 110.656608 373.738968 106.983072 373.738968 101.871312 380.098344 105.544848"></polygon>
                <polygon id="路径" fill="#42E8E0" opacity="0.5" points="392.054664 117.553152 383.667912 112.71864 383.667912 107.589552 392.054664 112.441392"></polygon>
                <polygon id="路径" fill="#42E8E0" opacity="0.5" points="409.140072 127.430112 395.606904 119.615184 395.606904 114.503424 409.140072 122.301024"></polygon>
                <polygon id="路径" fill="#42E8E0" opacity="0.5" points="393.198312 129.925344 373.738968 118.679472 373.738968 113.567712 393.198312 124.796256"></polygon>
                <polygon id="路径" fill="#42E8E0" opacity="0.5" points="414.996936 142.505472 396.76788 131.970048 396.76788 126.858288 414.996936 137.376384"></polygon>
                <polygon id="路径" fill="#42E8E0" points="424.250088 147.842496 418.549176 144.550176 418.549176 139.438416 424.250088 142.730736"></polygon>
                <polygon id="路径" fill="#42E8E0" opacity="0.5" points="433.139352 152.971584 427.43844 149.679264 427.43844 144.567504 433.139352 147.859824"></polygon>
                <polygon id="路径" fill="#42E8E0" opacity="0.5" points="385.400712 137.116464 373.738968 130.375872 373.738968 125.264112 385.400712 131.987376"></polygon>
                <polygon id="路径" fill="#42E8E0" points="434.144376 71.703264 450.3114 81.025728 450.3114 75.913968 434.144376 66.574176"></polygon>
                <polygon id="路径" fill="#42E8E0" opacity="0.5" points="437.609976 85.392384 450.3114 92.722128 450.3114 87.610368 437.609976 80.263296"></polygon>
                <polygon id="路径" fill="#42E8E0" opacity="0.5" points="441.12756 99.11616 450.3114 104.418528 450.3114 99.306768 441.12756 93.987072"></polygon>
                <polygon id="路径" fill="#42E8E0" opacity="0.5" points="436.951512 108.403968 450.3114 116.114928 450.3114 111.003168 436.951512 103.27488"></polygon>
                <polygon id="路径" fill="#42E8E0" opacity="0.5" points="441.12756 122.50896 450.3114 127.811328 450.3114 122.68224 441.12756 117.379872"></polygon>
                <polygon id="路径" fill="#42E8E0" opacity="0.5" points="438.666984 132.767136 450.3114 139.507728 450.3114 134.37864 438.666984 127.655376"></polygon>
                <polygon id="路径" fill="#42E8E0" opacity="0.5" points="443.969352 147.530592 450.3114 151.204128 450.3114 146.07504 443.969352 142.418832"></polygon>
                <polygon id="路径" fill="#42E8E0" opacity="0.5" points="438.00852 155.796048 450.3114 162.8832 450.3114 157.77144 438.00852 150.66696"></polygon>
                <polygon id="路径" fill="#42E8E0" opacity="0.5" points="438.666984 167.856336 450.3114 174.5796 450.3114 169.46784 438.666984 162.744576"></polygon>
                <polygon id="路径" fill="#42E8E0" opacity="0.5" points="393.926088 142.020288 388.97028 139.161168 388.97028 134.049408 393.926088 136.908528"></polygon>
                <polygon id="路径" fill="#42E8E0" opacity="0.5" points="408.63756 150.528336 397.478328 144.08232 397.478328 138.97056 408.63756 145.399248"></polygon>
                <polygon id="路径" fill="#42E8E0" opacity="0.5" points="487.462632 102.269856 464.139144 88.806 464.139144 83.69424 487.462632 97.158096"></polygon>
                <polygon id="路径" fill="#42E8E0" opacity="0.5" points="499.418952 109.1664 491.014872 104.331888 491.014872 99.2028 499.418952 104.05464"></polygon>
                <polygon id="路径" fill="#42E8E0" points="508.672104 114.520752 502.971192 111.228432 502.971192 106.116672 508.672104 109.408992"></polygon>
                <polygon id="路径" fill="#42E8E0" opacity="0.5" points="476.840568 107.849472 464.139144 100.5024 464.139144 95.39064 476.840568 102.720384"></polygon>
                <polygon id="路径" fill="#42E8E0" opacity="0.5" points="495.97068 118.887408 480.410136 109.894176 480.410136 104.782416 495.97068 113.775648"></polygon>
                <polygon id="路径" fill="#42E8E0" points="505.24116 124.24176 499.540248 120.94944 499.540248 115.820352 505.24116 119.112672"></polygon>
                <polygon id="路径" fill="#42E8E0" opacity="0.5" points="514.061112 129.318864 508.3602 126.026544 508.3602 120.914784 514.061112 124.207104"></polygon>
                <polygon id="路径" fill="#42E8E0" opacity="0.5" points="473.340312 117.501168 464.139144 112.1988 464.139144 107.08704 473.340312 112.389408"></polygon>
                <polygon id="路径" fill="#42E8E0" opacity="0.5" points="480.046248 121.38264 476.892552 119.5632 476.892552 114.45144 480.046248 116.253552"></polygon>
                <polygon id="路径" fill="#42E8E0" opacity="0.5" points="489.2994 126.719664 483.598488 123.444672 483.598488 118.315584 489.2994 121.607904"></polygon>
                <polygon id="路径" fill="#42E8E0" opacity="0.5" points="498.067368 143.47584 464.139144 123.8952 464.139144 118.78344 498.067368 138.36408"></polygon>
                <polygon id="路径" fill="#42E8E0" opacity="0.5" points="510.023688 150.389712 501.636936 145.537872 501.636936 140.426112 510.023688 145.260624"></polygon>
                <polygon id="路径" fill="#42E8E0" opacity="0.5" points="473.340312 140.893968 464.139144 135.5916 464.139144 130.47984 473.340312 135.782208"></polygon>
                <polygon id="路径" fill="#42E8E0" opacity="0.5" points="494.896344 153.3528 476.892552 142.956 476.892552 137.826912 494.896344 148.223712"></polygon>
                <polygon id="路径" fill="#42E8E0" opacity="0.5" points="504.166824 158.707152 498.465912 155.414832 498.465912 150.285744 504.166824 153.578064"></polygon>
                <polygon id="路径" fill="#42E8E0" points="482.957352 158.135328 464.139144 147.288 464.139144 142.158912 482.957352 153.023568"></polygon>
                <polygon id="路径" fill="#42E8E0" opacity="0.5" points="500.112072 168.046944 486.509592 160.19736 486.509592 155.0856 500.112072 162.935184"></polygon>
                <polygon id="路径" fill="#42E8E0" opacity="0.5" points="512.86548 175.411344 503.664312 170.108976 503.664312 164.997216 512.86548 170.299584"></polygon>
                <polygon id="路径" fill="#42E8E0" opacity="0.5" points="470.49852 162.657936 464.139144 158.9844 464.139144 153.855312 470.49852 157.528848"></polygon>
                <polygon id="路径" fill="#42E8E0" opacity="0.5" points="482.45484 169.55448 474.05076 164.70264 474.05076 159.59088 482.45484 164.425392"></polygon>
                <polygon id="路径" fill="#42E8E0" points="499.540248 179.414112 486.00708 171.599184 486.00708 166.487424 499.540248 174.302352"></polygon>
                <polygon id="路径" fill="#42E8E0" opacity="0.5" points="483.598488 181.909344 464.139144 170.6808 464.139144 165.551712 483.598488 176.797584"></polygon>
                <polygon id="路径" fill="#42E8E0" opacity="0.5" points="505.397112 194.489472 487.168056 183.971376 487.168056 178.842288 505.397112 189.360384"></polygon>
                <polygon id="路径" fill="#42E8E0" opacity="0.5" points="514.650264 199.843824 508.949352 196.551504 508.949352 191.422416 514.650264 194.714736"></polygon>
                <polygon id="路径" fill="#42E8E0" opacity="0.5" points="523.539528 204.972912 517.838616 201.680592 517.838616 196.568832 523.539528 199.861152"></polygon>
                <polygon id="路径" fill="#42E8E0" opacity="0.5" points="475.800888 189.100464 464.139144 182.3772 464.139144 177.248112 475.800888 183.988704"></polygon>
                <polygon id="路径" fill="#42E8E0" points="524.544552 123.687264 540.711576 133.027056 540.711576 127.897968 524.544552 118.575504"></polygon>
                <polygon id="路径" fill="#42E8E0" opacity="0.5" points="528.010152 137.376384 540.711576 144.706128 540.711576 139.594368 528.010152 132.264624"></polygon>
                <polygon id="路径" fill="#42E8E0" opacity="0.5" points="531.527736 151.10016 540.711576 156.402528 540.711576 151.290768 531.527736 145.9884"></polygon>
                <polygon id="路径" fill="#42E8E0" opacity="0.5" points="527.351688 160.387968 540.711576 168.098928 540.711576 162.987168 527.351688 155.25888"></polygon>
                <polygon id="路径" fill="#42E8E0" opacity="0.5" points="531.527736 174.49296 540.711576 179.795328 540.711576 174.683568 531.527736 169.3812"></polygon>
                <polygon id="路径" fill="#42E8E0" opacity="0.5" points="529.049832 184.768464 540.711576 191.491728 540.711576 186.379968 529.049832 179.639376"></polygon>
                <polygon id="路径" fill="#42E8E0" opacity="0.5" points="534.369528 199.514592 540.711576 203.188128 540.711576 198.076368 534.369528 194.402832"></polygon>
                <polygon id="路径" fill="#42E8E0" opacity="0.5" points="528.408696 207.780048 540.711576 214.884528 540.711576 209.772768 528.408696 202.65096"></polygon>
                <polygon id="路径" fill="#42E8E0" opacity="0.5" points="529.049832 219.857664 540.711576 226.580928 540.711576 221.45184 529.049832 214.728576"></polygon>
                <polygon id="路径" fill="#42E8E0" points="484.326264 194.021616 479.370456 191.162496 479.370456 186.033408 484.326264 188.892528"></polygon>
                <polygon id="路径" fill="#42E8E0" opacity="0.5" points="499.037736 202.512336 487.878504 196.083648 487.878504 190.95456 499.037736 197.400576"></polygon>
                <polygon id="路径" fill="#42E8E0" opacity="0.5" points="397.062456 155.60544 373.738968 142.141584 373.738968 137.029824 397.062456 150.476352"></polygon>
                <polygon id="路径" fill="#42E8E0" opacity="0.5" points="409.018776 162.501984 400.614696 157.667472 400.614696 152.538384 409.018776 157.390224"></polygon>
                <polygon id="路径" fill="#42E8E0" opacity="0.5" points="418.271928 167.856336 412.571016 164.564016 412.571016 159.434928 418.271928 162.727248"></polygon>
                <polygon id="路径" fill="#42E8E0" opacity="0.5" points="386.440392 161.167728 373.738968 153.837984 373.738968 148.708896 386.440392 156.055968"></polygon>
                <polygon id="路径" fill="#42E8E0" opacity="0.5" points="405.570504 172.205664 390.00996 163.22976 390.00996 158.100672 405.570504 167.093904"></polygon>
                <polygon id="路径" fill="#42E8E0" opacity="0.5" points="414.840984 177.560016 409.140072 174.267696 409.140072 169.155936 414.840984 172.448256"></polygon>
                <polygon id="路径" fill="#42E8E0" opacity="0.5" points="423.660936 182.654448 417.960024 179.362128 417.960024 174.250368 423.660936 177.542688"></polygon>
                <polygon id="路径" fill="#42E8E0" opacity="0.5" points="382.940136 170.836752 373.738968 165.534384 373.738968 160.405296 382.940136 165.724992"></polygon>
                <polygon id="路径" fill="#42E8E0" opacity="0.5" points="389.646072 174.700896 386.492376 172.898784 386.492376 167.769696 389.646072 169.589136"></polygon>
                <polygon id="路径" fill="#42E8E0" opacity="0.5" points="398.899224 180.055248 393.198312 176.762928 393.198312 171.651168 398.899224 174.943488"></polygon>
                <polygon id="路径" fill="#42E8E0" opacity="0.5" points="407.667192 196.811424 373.738968 177.230784 373.738968 172.101696 407.667192 191.699664"></polygon>
                <polygon id="路径" fill="#42E8E0" opacity="0.5" points="419.623512 203.707968 411.23676 198.873456 411.23676 193.744368 419.623512 198.596208"></polygon>
                <polygon id="路径" fill="#42E8E0" opacity="0.5" points="382.940136 194.229552 373.738968 188.927184 373.738968 183.798096 382.940136 189.100464"></polygon>
                <polygon id="路径" fill="#42E8E0" opacity="0.5" points="404.513496 206.688384 386.492376 196.291584 386.492376 191.162496 404.513496 201.559296"></polygon>
                <polygon id="路径" fill="#42E8E0" opacity="0.5" points="413.766648 212.025408 408.065736 208.733088 408.065736 203.621328 413.766648 206.913648"></polygon>
                <polygon id="路径" fill="#42E8E0" opacity="0.5" points="392.557176 211.470912 373.738968 200.623584 373.738968 195.494496 392.557176 206.359152"></polygon>
                <polygon id="路径" fill="#42E8E0" opacity="0.5" points="409.711896 221.382528 396.109416 213.532944 396.109416 208.403856 409.711896 216.25344"></polygon>
                <polygon id="路径" fill="#42E8E0" opacity="0.5" points="422.465304 228.746928 413.281464 223.427232 413.281464 218.315472 422.465304 223.61784"></polygon>
                <polygon id="路径" fill="#42E8E0" opacity="0.5" points="380.098344 215.976192 373.738968 212.319984 373.738968 207.190896 380.098344 210.864432"></polygon>
                <polygon id="路径" fill="#42E8E0" opacity="0.5" points="392.054664 222.872736 383.667912 218.038224 383.667912 212.909136 392.054664 217.760976"></polygon>
                <polygon id="路径" fill="#42E8E0" opacity="0.5" points="409.140072 232.749696 395.606904 224.934768 395.606904 219.823008 409.140072 227.620608"></polygon>
                <polygon id="路径" fill="#42E8E0" opacity="0.5" points="393.198312 235.244928 373.738968 223.999056 373.738968 218.887296 393.198312 230.11584"></polygon>
                <polygon id="路径" fill="#42E8E0" opacity="0.5" points="414.996936 247.825056 396.76788 237.289632 396.76788 232.177872 414.996936 242.695968"></polygon>
                <polygon id="路径" fill="#42E8E0" opacity="0.5" points="424.250088 253.16208 418.549176 249.86976 418.549176 244.758 424.250088 248.05032"></polygon>
                <polygon id="路径" fill="#42E8E0" opacity="0.5" points="433.139352 258.291168 427.43844 254.998848 427.43844 249.887088 433.139352 253.179408"></polygon>
                <polygon id="路径" fill="#42E8E0" opacity="0.5" points="385.400712 242.436048 373.738968 235.695456 373.738968 230.583696 385.400712 237.30696"></polygon>
                <polygon id="路径" fill="#42E8E0" opacity="0.5" points="434.144376 177.022848 450.3114 186.345312 450.3114 181.233552 434.144376 171.89376"></polygon>
                <polygon id="路径" fill="#42E8E0" opacity="0.5" points="437.609976 190.711968 450.3114 198.041712 450.3114 192.929952 437.609976 185.58288"></polygon>
                <polygon id="路径" fill="#42E8E0" opacity="0.5" points="441.12756 204.435744 450.3114 209.738112 450.3114 204.626352 441.12756 199.306656"></polygon>
                <polygon id="路径" fill="#42E8E0" opacity="0.5" points="436.951512 213.723552 450.3114 221.434512 450.3114 216.322752 436.951512 208.594464"></polygon>
                <polygon id="路径" fill="#42E8E0" opacity="0.5" points="441.12756 227.828544 450.3114 233.130912 450.3114 228.001824 441.12756 222.699456"></polygon>
                <polygon id="路径" fill="#42E8E0" opacity="0.5" points="438.666984 238.08672 450.3114 244.827312 450.3114 239.698224 438.666984 232.97496"></polygon>
                <polygon id="路径" fill="#42E8E0" opacity="0.5" points="443.969352 252.850176 450.3114 256.523712 450.3114 251.394624 443.969352 247.738416"></polygon>
                <polygon id="路径" fill="#42E8E0" opacity="0.5" points="438.00852 261.115632 450.3114 268.202784 450.3114 263.091024 438.00852 255.986544"></polygon>
                <polygon id="路径" fill="#42E8E0" opacity="0.5" points="438.666984 273.17592 450.3114 279.899184 450.3114 274.787424 438.666984 268.06416"></polygon>
                <polygon id="路径" fill="#42E8E0" opacity="0.5" points="393.926088 247.339872 388.97028 244.480752 388.97028 239.368992 393.926088 242.228112"></polygon>
                <polygon id="路径" fill="#42E8E0" opacity="0.5" points="408.63756 255.84792 397.478328 249.401904 397.478328 244.290144 408.63756 250.718832"></polygon>
                <polygon id="路径" fill="#42E8E0" opacity="0.5" points="417.873384 295.18248 399.037848 284.317824 399.037848 279.188736 417.873384 290.07072"></polygon>
                <polygon id="路径" fill="#42E8E0" opacity="0.5" points="430.765416 302.63352 423.349032 298.353504 423.349032 293.224416 430.765416 297.504432"></polygon>
                <polygon id="路径" fill="#42E8E0" opacity="0.5" points="487.462632 207.58944 464.139144 194.125584 464.139144 189.013824 487.462632 202.47768"></polygon>
                <polygon id="路径" fill="#42E8E0" opacity="0.5" points="499.418952 214.485984 491.014872 209.651472 491.014872 204.522384 499.418952 209.374224"></polygon>
                <polygon id="路径" fill="#42E8E0" opacity="0.5" points="508.672104 219.840336 502.971192 216.548016 502.971192 211.436256 508.672104 214.728576"></polygon>
                <polygon id="路径" fill="#42E8E0" opacity="0.5" points="476.840568 213.169056 464.139144 205.821984 464.139144 200.710224 476.840568 208.039968"></polygon>
                <polygon id="路径" fill="#42E8E0" opacity="0.5" points="495.97068 224.206992 480.410136 215.21376 480.410136 210.102 495.97068 219.095232"></polygon>
                <polygon id="路径" fill="#42E8E0" opacity="0.5" points="505.24116 229.561344 499.540248 226.269024 499.540248 221.139936 505.24116 224.432256"></polygon>
                <polygon id="路径" fill="#42E8E0" opacity="0.5" points="514.061112 234.638448 508.3602 231.346128 508.3602 226.234368 514.061112 229.526688"></polygon>
                <polygon id="路径" fill="#42E8E0" opacity="0.5" points="473.340312 222.820752 464.139144 217.518384 464.139144 212.406624 473.340312 217.708992"></polygon>
                <polygon id="路径" fill="#42E8E0" opacity="0.5" points="480.046248 226.702224 476.892552 224.882784 476.892552 219.771024 480.046248 221.573136"></polygon>
                <polygon id="路径" fill="#42E8E0" opacity="0.5" points="489.2994 232.039248 483.598488 228.746928 483.598488 223.635168 489.2994 226.927488"></polygon>
                <polygon id="路径" fill="#42E8E0" opacity="0.5" points="498.067368 248.795424 464.139144 229.214784 464.139144 224.103024 498.067368 243.683664"></polygon>
                <polygon id="路径" fill="#42E8E0" opacity="0.5" points="510.023688 255.709296 501.636936 250.857456 501.636936 245.745696 510.023688 250.580208"></polygon>
                <polygon id="路径" fill="#42E8E0" opacity="0.5" points="473.340312 246.213552 464.139144 240.911184 464.139144 235.799424 473.340312 241.101792"></polygon>
                <polygon id="路径" fill="#42E8E0" opacity="0.5" points="494.896344 258.672384 476.892552 248.275584 476.892552 243.146496 494.896344 253.543296"></polygon>
                <polygon id="路径" fill="#42E8E0" opacity="0.5" points="504.166824 264.026736 498.465912 260.734416 498.465912 255.605328 504.166824 258.897648"></polygon>
                <polygon id="路径" fill="#42E8E0" opacity="0.5" points="482.957352 263.454912 464.139144 252.607584 464.139144 247.478496 482.957352 258.343152"></polygon>
                <polygon id="路径" fill="#42E8E0" opacity="0.5" points="500.112072 273.366528 486.509592 265.516944 486.509592 260.405184 500.112072 268.254768"></polygon>
                <polygon id="路径" fill="#42E8E0" opacity="0.5" points="512.86548 280.730928 503.664312 275.42856 503.664312 270.3168 512.86548 275.619168"></polygon>
                <polygon id="路径" fill="#42E8E0" opacity="0.5" points="470.49852 267.97752 464.139144 264.303984 464.139144 259.174896 470.49852 262.848432"></polygon>
                <polygon id="路径" fill="#42E8E0" opacity="0.5" points="482.45484 274.874064 474.05076 270.022224 474.05076 264.910464 482.45484 269.744976"></polygon>
                <polygon id="路径" fill="#42E8E0" opacity="0.5" points="499.540248 284.733696 486.00708 276.918768 486.00708 271.807008 499.540248 279.621936"></polygon>
                <polygon id="路径" fill="#42E8E0" opacity="0.5" points="483.598488 287.228928 464.139144 276.000384 464.139144 270.871296 483.598488 282.117168"></polygon>
                <polygon id="路径" fill="#42E8E0" opacity="0.5" points="505.397112 299.809056 487.168056 289.29096 487.168056 284.161872 505.397112 294.697296"></polygon>
                <polygon id="路径" fill="#42E8E0" opacity="0.5" points="514.650264 305.163408 508.949352 301.871088 508.949352 296.742 514.650264 300.03432"></polygon>
                <polygon id="路径" fill="#42E8E0" opacity="0.5" points="523.539528 310.292496 517.838616 307.000176 517.838616 301.888416 523.539528 305.180736"></polygon>
                <polygon id="路径" fill="#42E8E0" opacity="0.5" points="475.800888 294.420048 464.139144 287.696784 464.139144 282.567696 475.800888 289.308288"></polygon>
                <polygon id="路径" fill="#42E8E0" opacity="0.5" points="524.544552 229.006848 540.711576 238.34664 540.711576 233.217552 524.544552 223.895088"></polygon>
                <polygon id="路径" fill="#42E8E0" opacity="0.5" points="528.010152 242.695968 540.711576 250.025712 540.711576 244.913952 528.010152 237.584208"></polygon>
                <polygon id="路径" fill="#42E8E0" opacity="0.5" points="531.527736 256.419744 540.711576 261.722112 540.711576 256.610352 531.527736 251.307984"></polygon>
                <polygon id="路径" fill="#42E8E0" opacity="0.5" points="527.351688 265.707552 540.711576 273.418512 540.711576 268.306752 527.351688 260.578464"></polygon>
                <polygon id="路径" fill="#42E8E0" opacity="0.5" points="531.527736 279.812544 540.711576 285.114912 540.711576 280.003152 531.527736 274.700784"></polygon>
                <polygon id="路径" fill="#42E8E0" opacity="0.5" points="529.049832 290.088048 540.711576 296.811312 540.711576 291.699552 529.049832 284.95896"></polygon>
                <polygon id="路径" fill="#42E8E0" opacity="0.5" points="534.369528 304.834176 540.711576 308.507712 540.711576 303.395952 534.369528 299.722416"></polygon>
                <polygon id="路径" fill="#42E8E0" opacity="0.5" points="528.408696 313.099632 540.711576 320.204112 540.711576 315.092352 528.408696 307.970544"></polygon>
                <polygon id="路径" fill="#42E8E0" opacity="0.5" points="529.049832 325.15992 540.711576 331.900512 540.711576 326.771424 529.049832 320.04816"></polygon>
                <polygon id="路径" fill="#42E8E0" opacity="0.5" points="484.326264 299.3412 479.370456 296.48208 479.370456 291.352992 484.326264 294.212112"></polygon>
                <polygon id="路径" fill="#42E8E0" opacity="0.5" points="499.037736 307.83192 487.878504 301.403232 487.878504 296.274144 499.037736 302.72016"></polygon>
                <polygon id="路径" fill="#42E8E0" opacity="0.5" points="508.27356 347.183808 489.438024 336.301824 489.438024 331.190064 508.27356 342.05472"></polygon>
                <polygon id="路径" fill="#42E8E0" opacity="0.5" points="521.165592 354.61752 513.749208 350.337504 513.749208 345.225744 521.165592 349.50576"></polygon>
                <g id="编组-3">
                    <g id="编组">
                        <polygon id="路径" fill="#9198DB" points="24.2037504 66.2899968 41.5872 55.414944 68.5357056 70.3655424 51.152256 81.2405952"></polygon>
                        <polygon id="路径" fill="url(#linearGradient-16)" points="76.2709248 119.251296 93.675168 108.376243 94.3197696 129.606509 76.9155264 140.481562"></polygon>
                        <polygon id="路径" fill="url(#linearGradient-17)" points="50.0709888 45.4756032 67.475232 34.6005504 41.5872 55.414944 24.2037504 66.2899968"></polygon>
                        <polygon id="路径" fill="url(#linearGradient-18)" points="88.2064512 101.784672 105.610694 90.9096192 106.33847 115.383686 88.9342272 126.258739"></polygon>
                        <polygon id="路径" fill="#9198DB" points="75.5431488 94.7564352 92.947392 83.8813824 105.610694 90.9096192 88.2064512 101.784672"></polygon>
                        <polygon id="路径" fill="url(#linearGradient-19)" points="49.072896 11.4156864 66.4563456 0.5406336 90.868032 14.0564736 73.4637888 24.9315264"></polygon>
                        <path d="M75.5431488,94.7564352 L88.2064512,101.784672 L88.9342272,126.258739 L76.2709248,119.251296 L76.9155264,140.481562 L52.50384,126.965722 L51.880032,105.714662 L0.8525376,77.4353664 L0,51.4849536 L48.9897216,11.4156864 L73.3806144,24.9315264 L75.5431488,94.7564352 Z M51.152256,81.2405952 L50.0709888,45.4756032 L24.2037504,66.2692032 L51.2354304,81.2198016" id="形状" fill="url(#linearGradient-20)"></path>
                        <polygon id="路径" fill="url(#linearGradient-21)" points="73.4637888 24.9315264 90.868032 14.0564736 92.947392 83.8813824 75.5431488 94.7564352"></polygon>
                    </g>
                    <g id="编组" transform="translate(95.650560, 42.670200)">
                        <path d="M33.4361088,37.0524624 L50.840352,26.156616 C49.7177227,26.9400708 48.8442866,28.0300613 48.3243264,29.2964496 C46.4251776,33.4551696 45.6904704,42.687528 46.1202048,56.9935248 C46.5499392,71.2995216 47.9777664,81.8072208 50.4036864,88.5166224 C52.8296064,95.0874 56.1981696,99.558024 60.509376,101.928494 C62.6299431,103.456821 65.4059215,103.734419 67.787136,102.65627 L68.0574528,102.510715 L50.6532096,113.385768 L50.3828928,113.531323 C48.0016783,114.609471 45.2256999,114.331874 43.1051328,112.803547 C38.7939264,110.433077 35.4253632,105.962453 32.9994432,99.3916752 C30.5735232,92.8208976 29.145696,82.3131984 28.7159616,67.8685776 C28.3000896,53.5625808 29.0278656,44.351016 30.9200832,40.1715024 C31.4414072,38.9115266 32.3149749,37.8285915 33.4361088,37.0524624 L33.4361088,37.0524624 Z" id="路径" fill="#9198DB"></path>
                        <g transform="translate(28.331280, 25.948680)" fill="#9198DB" id="路径">
                            <path d="M5.1048288,11.1037824 L22.509072,0.207936 C21.7165318,0.74707971 21.0555799,1.45778072 20.5752672,2.287296 L3.171024,13.1623488 C3.64720067,12.3297818 4.30894533,11.6182284 5.1048288,11.0829888"></path>
                            <path d="M3.171024,13.1415552 L20.5752672,2.2665024 C20.3600582,2.6151381 20.1656456,2.97619018 19.9930464,3.3477696 L19.9930464,3.3477696 L2.5888032,14.2228224 L2.5888032,14.2228224 C2.76140239,13.851243 2.95581504,13.4901909 3.171024,13.1415552"></path>
                            <path d="M2.5680096,14.2644096 L19.9722528,3.3893568 C19.8474912,3.7012608 19.701936,4.0339584 19.5771744,4.3874496 L2.1937248,15.2625024 C2.3184864,14.90208 2.443248,14.5693824 2.5680096,14.2644096"></path>
                            <path d="M2.1937248,15.2625024 L19.5771744,4.3874496 C19.4524128,4.7617344 19.3276512,5.1776064 19.2028896,5.614272 L1.7986464,16.4893248 C1.923408,16.0526592 2.0481696,15.6367872 2.1937248,15.2625024"></path>
                            <path d="M1.7986464,16.4893248 L19.2028896,5.614272 C19.078128,6.0925248 18.9533664,6.6123648 18.8493984,7.173792 L1.4451552,18.0488448 C1.4451552,17.4874176 1.6738848,16.9883712 1.7986464,16.4893248"></path>
                            <path d="M1.4451552,18.0488448 L18.8493984,7.173792 C18.7038432,7.7976 18.5998752,8.4629952 18.4959072,9.253152 L1.091664,20.1282048 C1.195632,19.4212224 1.3203936,18.7558272 1.4451552,18.0488448"></path>
                            <path d="M1.091664,20.0450304 L18.4959072,9.1699776 C18.3711456,10.0017216 18.2671776,10.8750528 18.1632096,11.8107648 L0.77976,22.6858176 C0.77976,21.7501056 0.987696,20.8767744 1.1124576,20.0450304"></path>
                            <path d="M0.77976,22.6858176 L18.1840032,11.8107648 C18.0592416,12.9336192 17.9760672,14.139648 17.8928928,15.4496448 L0.5094432,26.3246976 C0.5094432,25.0354944 0.675792,23.808672 0.77976,22.6858176"></path>
                            <path d="M0.4886496,26.3246976 L17.8720992,15.4496448 C17.8720992,17.0299584 17.726544,18.7350336 17.7057504,20.585664 L0.3015072,31.4607168 C0.3015072,29.6100864 0.3015072,27.9050112 0.4886496,26.3246976"></path>
                            <path d="M0.3015072,31.4607168 L17.7057504,20.585664 C17.7057504,22.9353408 17.7057504,25.4929536 17.7057504,28.2377088 L0.3015072,39.1335552 C0.3015072,36.3680064 0.3015072,33.8103936 0.3015072,31.4607168"></path>
                            <path d="M0.3223008,39.1335552 L17.726544,28.2377088 C17.726544,29.1526272 17.726544,30.0883392 17.726544,31.0448448 C17.726544,33.1242048 17.8720992,35.3283264 17.9968608,37.2829248 L0.5926176,48.1579776 C0.4886496,46.0786176 0.3846816,43.9992576 0.3223008,41.9198976 C0.3223008,40.963392 0.3223008,40.02768 0.3223008,39.1335552"></path>
                            <path d="M0.6549984,48.1995648 L18.0592416,37.324512 C18.1632096,39.5286336 18.3087648,41.6079936 18.4959072,43.562592 L1.091664,54.4376448 C0.9253152,52.4622528 0.77976,50.3828928 0.6549984,48.1995648"></path>
                            <path d="M1.091664,54.4584384 L18.4959072,43.5833856 C18.6414624,45.1636992 18.7870176,46.681632 18.97416,48.1163904 L1.5699168,58.9914432 C1.403568,57.5566848 1.2372192,56.038752 1.091664,54.4584384"></path>
                            <path d="M1.5699168,58.9914432 L18.97416,48.1163904 C19.0989216,49.280832 19.2652704,50.4036864 19.4316192,51.4849536 L2.027376,62.3808 C1.8610272,61.3203264 1.715472,60.1766784 1.5699168,59.0122368"></path>
                            <path d="M2.027376,62.3808 L19.4316192,51.5057472 C19.5563808,52.4206656 19.701936,53.2939968 19.8682848,54.1465344 L2.4640416,65.0215872 C2.3184864,64.1690496 2.1729312,63.2957184 2.027376,62.3808"></path>
                            <path d="M2.4640416,65.0007936 L19.8682848,54.1257408 C19.9930464,54.8535168 20.1386016,55.5397056 20.2841568,56.2051008 L2.85912,67.1009472 C2.7135648,66.4147584 2.5888032,65.7285696 2.443248,65.0215872"></path>
                            <path d="M2.85912,67.1009472 L20.2633632,56.2051008 C20.3881248,56.8081152 20.5128864,57.3695424 20.6584416,57.9309696 L3.2541984,68.8060224 C3.1086432,68.2445952 2.9838816,67.683168 2.85912,67.1009472"></path>
                            <path d="M3.274992,68.8060224 L20.6792352,57.9309696 C20.6792352,58.4092224 20.9079648,58.8874752 21.0327264,59.3449344 L3.6492768,70.2407808 C3.5245152,69.762528 3.3997536,69.3050688 3.274992,68.8060224"></path>
                            <path d="M3.6492768,70.2407808 L21.0327264,59.3449344 C21.157488,59.7608064 21.261456,60.1558848 21.3862176,60.5301696 L3.9819744,71.4052224 C3.8572128,71.0309376 3.7532448,70.6358592 3.6492768,70.2407808"></path>
                            <polyline points="3.9819744 71.4052224 21.3862176 60.5301696 21.6981216 61.5074688 4.2938784 72.3825216 3.9819744 71.4052224"></polyline>
                            <path d="M4.2938784,72.3825216 L21.6981216,61.5074688 L21.9684384,62.3184192 L4.5849888,73.193472 C4.472201,72.9290712 4.37499772,72.6582906 4.2938784,72.3825216"></path>
                            <path d="M4.5849888,73.193472 L21.9684384,62.3184192 L21.9684384,62.5679424 C21.9684384,62.7758784 22.1139936,63.004608 22.197168,63.212544 L4.93848,74.0875968 L4.6889568,73.4429952 C4.68001953,73.3600609 4.68001953,73.2764063 4.6889568,73.193472"></path>
                            <path d="M4.93848,74.0875968 L22.3219296,63.212544 C22.4466912,63.524448 22.5714528,63.8155584 22.6754208,64.1066688 L5.2919712,74.9817216 C5.1672096,74.6906112 5.042448,74.3995008 4.93848,74.0875968"></path>
                            <path d="M5.2711776,74.9817216 L22.6546272,64.1066688 C22.7793888,64.356192 22.8833568,64.6265088 23.0081184,64.876032 L5.6038752,75.7718784 C5.4791136,75.5015616 5.3751456,75.2520384 5.2711776,74.9817216"></path>
                            <path d="M5.6038752,75.7718784 L23.0081184,64.876032 L23.3200224,65.603808 L5.9365728,76.4788608 C5.8118112,76.2501312 5.7078432,76.000608 5.6038752,75.7718784"></path>
                            <polyline points="5.9365728 76.4788608 23.3200224 65.603808 23.6319264 66.2692032 6.2484768 77.144256 5.9365728 76.4788608"></polyline>
                            <polyline points="6.2484768 77.144256 23.6319264 66.2692032 23.964624 66.8930112 6.5603808 77.768064 6.2484768 77.144256"></polyline>
                            <path d="M6.5603808,77.768064 L23.964624,66.8930112 C24.068592,67.1217408 24.1933536,67.3296768 24.2973216,67.5584064 L7.01784,78.4334592 L6.6643488,77.768064"></path>
                            <path d="M7.01784,78.4334592 L24.4012896,67.5584064 C24.5520573,67.7938546 24.6908575,68.036755 24.8171616,68.2861824 L7.433712,79.1612352 C7.2881568,78.911712 7.1426016,78.6829824 7.01784,78.4334592"></path>
                            <path d="M7.329744,79.1612352 L24.7131936,68.2861824 C25.2396188,69.1888005 25.8230215,70.0569593 26.459856,70.8853824 L9.0972,81.7604352 C8.46730637,80.9315586 7.89084969,80.0634009 7.3713312,79.1612352"></path>
                            <path d="M9.0972,81.7604352 L26.5014432,70.8853824 C26.621399,71.0672768 26.7533863,71.2409444 26.8965216,71.4052224 L9.4922784,82.2802752 C9.3675168,82.1139264 9.2219616,81.9475776 9.0972,81.7604352"></path>
                            <path d="M9.4506912,82.2802752 L26.8549344,71.4052224 L27.187632,71.8210944 L9.8041824,82.6961472 C9.6794208,82.550592 9.5546592,82.4258304 9.4506912,82.2802752"></path>
                            <path d="M9.8041824,82.6961472 L27.187632,71.8210944 L27.5203296,72.1953792 L10.13688,83.1744 C10.0121184,83.0496384 9.9081504,82.9040832 9.8041824,82.7793216"></path>
                            <polyline points="10.13688 83.1744 27.5203296 72.2785536 27.8530272 72.6528384 10.448784 83.5278912 10.13688 83.1744"></polyline>
                            <path d="M10.448784,83.4447168 L27.81144,72.569664 L28.1441376,72.9231552 L10.760688,83.798208 C10.6359264,83.69424 10.5319584,83.5694784 10.4071968,83.4447168"></path>
                            <path d="M10.8022752,83.798208 L28.1857248,72.9231552 L28.539216,73.2766464 L11.17656,84.1516992 C11.0485985,84.0444553 10.9303127,83.9261695 10.8230688,83.798208"></path>
                            <polyline points="11.17656 84.1516992 28.5600096 73.2766464 28.955088 73.6301376 11.5508448 84.5051904 11.17656 84.1516992"></polyline>
                            <path d="M11.5300512,84.5051904 L28.9342944,73.6301376 C29.0559905,73.7586852 29.188136,73.8769207 29.3293728,73.9836288 L11.9251296,84.8794752 L11.5300512,84.5051904"></path>
                            <polyline points="11.9251296 84.8794752 29.3293728 73.9836288 29.7452448 74.33712 12.3410016 85.25376 11.9251296 84.9210624"></polyline>
                            <polyline points="12.3410016 85.25376 29.7452448 74.3787072 30.1611168 74.7114048 12.7776672 85.6072512 12.3410016 85.25376"></polyline>
                            <polyline points="12.7776672 85.565664 30.1611168 74.6698176 30.618576 75.0025152 13.25592 85.877568 12.8192544 85.565664"></polyline>
                            <polyline points="13.25592 85.877568 30.6601632 75.0025152 31.0968288 75.3144192 13.6925856 86.189472 13.25592 85.877568"></polyline>
                            <polyline points="13.6509984 86.189472 31.0552416 75.3144192 31.5127008 75.6055296 14.1084576 86.4805824 13.6509984 86.189472"></polyline>
                            <polyline points="14.1084576 86.4805824 31.5127008 75.6055296 31.97016 75.8758464 14.5867104 86.7508992 14.1084576 86.4805824"></polyline>
                            <polyline points="14.5867104 86.7508992 31.97016 75.8758464 32.178096 75.8758464 32.4692064 76.0421952 15.0649632 86.917248 14.7738528 86.7508992 14.5867104 86.6469312"></polyline>
                            <polyline points="15.0649632 87.021216 32.4692064 76.1461632 32.9266656 76.3748928 15.543216 87.33312 15.0649632 87.0835968"></polyline>
                            <polyline points="15.543216 87.33312 32.9266656 76.4372736 33.3841248 76.6452096 15.9798816 87.5202624 15.543216 87.33312"></polyline>
                            <polyline points="15.9798816 87.4578816 33.3841248 76.5828288 33.8207904 76.7699712 16.4165472 87.645024 15.9798816 87.4578816"></polyline>
                            <polyline points="16.4165472 87.645024 33.8207904 76.7699712 34.2366624 76.9155264 16.8324192 87.7905792 16.4165472 87.645024"></polyline>
                            <polyline points="16.8324192 87.7905792 34.2366624 76.9155264 34.6525344 77.0610816 17.2482912 87.9361344 16.8324192 87.7905792"></polyline>
                            <polyline points="17.2482912 87.9361344 34.6525344 77.0610816 35.0684064 77.1650496 17.6641632 88.0401024 17.2482912 87.9361344"></polyline>
                            <polyline points="17.6641632 88.0401024 35.0684064 77.1650496 35.4842784 77.1650496 18.0800352 88.060896 17.6641632 88.060896"></polyline>
                            <polyline points="18.0800352 88.1440704 35.4842784 77.248224 35.9001504 77.248224 18.4959072 88.1232768 18.0800352 88.1232768"></polyline>
                            <polyline points="18.4959072 88.2064512 35.9001504 77.3313984 36.336816 77.3313984 18.9533664 88.2064512 18.4959072 88.2064512"></polyline>
                            <polyline points="18.9533664 88.2480384 36.336816 77.3729856 36.8150688 77.3729856 19.494 88.268832 19.0365408 88.268832"></polyline>
                            <polyline points="19.494 88.268832 36.8982432 77.3937792 37.3972896 77.3937792 19.9930464 88.2896256 19.494 88.2896256"></polyline>
                            <path d="M19.909872,88.2480384 L37.3141152,77.352192 C37.5075861,77.3738227 37.7028651,77.3738227 37.896336,77.352192 L20.4920928,88.2480384 L19.909872,88.2480384"></path>
                            <path d="M20.4920928,88.164864 L37.896336,77.2690176 C38.1503668,77.2262971 38.400657,77.1637245 38.6449056,77.0818752 L21.2406624,87.956928 L20.4920928,88.164864"></path>
                            <path d="M21.2406624,87.956928 L38.6449056,77.0818752 C38.9228626,76.9743817 39.193723,76.8493692 39.455856,76.7075904 L39.7261728,76.5620352 L22.3219296,87.437088 L22.0516128,87.5826432 C21.7934519,87.732214 21.5219719,87.8575125 21.2406624,87.956928"></path>
                        </g>
                        <path d="M79.6810752,69.61524 C81.7750017,78.8293421 82.9865017,88.2219486 83.2991616,97.6658064 C83.9091072,118.279195 81.2613888,131.64948 75.3560064,137.776661 C69.450624,143.903842 58.9359936,142.774056 43.8121152,134.387304 C36.0342795,130.276792 29.0046712,124.885083 23.0185152,118.438613 C17.589963,112.295543 13.1176887,105.369826 9.7521984,97.894536 C6.88342121,91.3907906 4.78967368,84.5721528 3.5141184,77.5791888 C1.91177433,69.2747414 0.993773856,60.8527825 0.7693632,52.3981392 C0.1178304,30.80052 3.11904,17.63124 9.772992,12.8902992 C16.426944,8.1493584 26.823744,9.66036 40.963392,17.423304 C47.0691949,20.6963878 52.7180365,24.7582405 57.7646208,29.5043856 C61.9048572,33.4777745 65.5557289,37.9314192 68.6396736,42.7707024 C71.2794528,46.9444151 73.5477312,51.3418136 75.4183872,55.9122576 C77.2004504,60.3596394 78.6258437,64.9417574 79.6810752,69.61524 L79.6810752,69.61524 Z M54.7287552,105.442613 C55.6997607,98.1867993 55.9643864,90.8538825 55.518912,83.546952 C55.0891776,68.4507984 53.6544192,57.6866448 51.2146368,51.2544912 C48.7748544,44.8223376 45.3092544,40.3378512 40.8178368,37.801032 C36.180864,35.2226256 32.9162688,36.033576 31.0032576,40.1715024 C29.0902464,44.3094288 28.383264,53.5625808 28.799136,67.8685776 C29.215008,82.1745744 30.6497664,92.8208976 33.0826176,99.3916752 C35.5154688,105.962453 38.884032,110.433077 43.1883072,112.803547 C45.3088743,114.331874 48.0848527,114.609471 50.4660672,113.531323 C52.5454272,112.450056 53.9178048,109.746888 54.7703424,105.442613" id="形状" fill="url(#linearGradient-22)"></path>
                        <path d="M100.765786,93.2783568 L100.765786,91.1989968 C100.765786,90.6999504 100.765786,90.2216976 100.765786,89.7434448 L100.765786,88.745352 L100.765786,86.665992 C100.765786,85.5015504 100.765786,84.3371088 100.62023,83.1726672 C100.62023,82.3409232 100.495469,81.4883856 100.433088,80.6566416 C100.433088,80.1783888 100.433088,79.7209296 100.433088,79.2426768 C100.433088,78.764424 100.433088,78.7228368 100.433088,78.45252 C100.287533,76.9137936 100.121184,75.3750672 99.9340416,73.8155472 C99.9340416,73.6076112 99.9340416,73.3788816 99.9340416,73.150152 C99.9340416,72.9214224 99.9340416,72.3392016 99.7676928,71.9233296 C99.6429312,71.0292048 99.5389632,70.1558736 99.393408,69.2409552 C99.2478528,68.3260368 99.1022976,67.4111184 98.9359488,66.4962 L98.7488064,65.3317584 L98.6240448,64.6871568 C98.353728,63.169224 98.041824,61.6512912 97.72992,60.1125648 C97.625952,59.6135184 97.5011904,59.114472 97.3972224,58.594632 C97.2932544,58.074792 97.0437312,57.0766992 96.8565888,56.3281296 C96.8565888,56.0162256 96.7110336,55.7459088 96.6278592,55.4547984 L96.378336,54.4774992 C96.378336,54.2071824 96.2535744,53.9368656 96.1704,53.6665488 L95.6089728,51.6911568 C95.6089728,51.5663952 95.6089728,51.4624272 95.5050048,51.3584592 L95.5050048,51.3584592 L94.818816,49.2790992 C94.818816,49.029576 94.6316736,48.7800528 94.5484992,48.509736 L94.3613568,47.9483088 C94.3613568,47.7611664 94.2158016,47.5532304 94.1534208,47.366088 C93.9454848,46.7838672 93.7167552,46.22244 93.5088192,45.6610128 C93.4313548,45.4342863 93.3411046,45.2121318 93.2385024,44.9956176 C93.2385024,44.7045072 93.0097728,44.4133968 92.8850112,44.1222864 C92.7602496,43.831176 92.5107264,43.207368 92.3027904,42.7707024 C92.0948544,42.3340368 92.0532672,42.2092752 91.9285056,41.9389584 C91.8578497,41.753229 91.7744777,41.5725899 91.6789824,41.3983248 C91.4710464,40.920072 91.2423168,40.4626128 91.0135872,39.98436 L90.3273984,38.6119824 L90.3273984,38.6119824 L90.3273984,38.6119824 C90.036288,38.0505552 89.7451776,37.489128 89.4332736,36.9277008 L88.788672,35.7632592 C88.6639104,35.5553232 88.5599424,35.3473872 88.4351808,35.1602448 C88.3740678,35.0243971 88.3046236,34.8924531 88.2272448,34.7651664 C87.6866112,33.850248 87.1459776,32.9353296 86.5637568,31.9996176 C86.3350272,31.66692 86.1270912,31.3342224 85.9191552,31.0015248 L85.4201088,30.2529552 C85.2121728,29.9410512 84.9626496,29.6291472 84.73392,29.2964496 L83.8605888,28.0696272 C83.6734464,27.8408976 83.5278912,27.5913744 83.3615424,27.3626448 L82.13472,25.8031248 L81.8020224,25.3872528 L81.5732928,25.116936 L81.0118656,24.4515408 C80.6375808,23.9940816 80.2425024,23.557416 79.847424,23.0999568 L78.9532992,22.101864 L78.7661568,21.9147216 L78.599808,21.7275792 C78.1423488,21.2285328 77.664096,20.7294864 77.1858432,20.2512336 C76.7075904,19.7729808 76.1877504,19.2323472 75.6679104,18.7333008 L75.6679104,18.7333008 L74.5242624,17.63124 L73.1726784,16.4460048 L72.361728,15.759816 L72.0706176,15.5102928 L71.6547456,15.1568016 L69.9080832,13.784424 C69.4298304,13.4101392 68.9099904,13.0358544 68.410944,12.6823632 L68.1406272,12.4744272 L67.9534848,12.328872 L65.7285696,10.8109392 L64.1690496,9.8128464 L63.5868288,9.4385616 L63.1709568,9.1682448 C62.2352448,8.586024 61.2579456,8.0038032 60.2390592,7.442376 L58.949856,6.7146 L57.0992256,5.6957136 L56.7873216,5.5501584 L54.999072,4.63524 L54.3128832,4.3025424 L54.167328,4.3025424 L52.5246336,3.5331792 L51.7968576,3.2004816 L51.7968576,3.2004816 L50.632416,2.7222288 L49.592736,2.2855632 L49.592736,2.2855632 L48.8233728,1.9944528 L47.5549632,1.5369936 L47.4509952,1.5369936 L46.7440128,1.308264 L45.6003648,0.9339792 L45.4132224,0.9339792 L44.6854464,0.7468368 L43.770528,0.4973136 L43.4794176,0.4973136 L42.730848,0.3309648 L42.003072,0.164616 L41.6287872,0.164616 L40.8802176,0.0398544 L40.3187904,0.0398544 L39.8405376,0.0398544 L39.091968,0.0398544 L38.676096,0.0398544 L36.596736,0.0398544 L35.7441984,0.0398544 L35.4115008,0.0398544 L35.0164224,0.0398544 L33.997536,0.1854096 C33.8799948,0.17373499 33.761586,0.17373499 33.6440448,0.1854096 C33.5611386,0.175963267 33.4774278,0.175963267 33.3945216,0.1854096 C32.817431,0.303256947 32.2480256,0.456024252 31.6894464,0.6428688 L31.5438912,0.6428688 L31.5438912,0.6428688 C31.2319872,0.7468368 30.9200832,0.892392 30.6289728,1.0171536 L30.15072,1.2250896 C29.7010272,1.43576995 29.2636579,1.67181053 28.8407232,1.932072 L11.43648,12.8071248 C11.8594147,12.5468633 12.296784,12.3108227 12.7464768,12.1001424 C12.6350685,11.8731883 12.5445882,11.6365477 12.47616,11.39316 C12.7803631,11.2439248 13.0927663,11.1120212 13.411872,10.9980816 L13.5990144,10.9980816 C14.1575936,10.8112371 14.726999,10.6584697 15.3040896,10.5406224 L15.907104,10.4158608 L16.9259904,10.2703056 L17.6537664,10.2703056 L18.506304,10.2703056 L20.1282048,10.2703056 L21.0847104,10.2703056 L21.83328,10.2703056 L22.87296,10.4158608 L23.6215296,10.4158608 L24.7235904,10.6445904 L25.47216,10.8109392 C25.8672384,10.8109392 26.2831104,10.9980816 26.6781888,11.1228432 L27.4059648,11.3099856 L28.7367552,11.7258576 L29.4437376,11.9545872 L30.8369088,12.4536336 L31.5854784,12.744744 L32.6875392,13.2022032 L33.8727744,13.680456 L34.6629312,14.0339472 L36.284832,14.8033104 L37.116576,15.1983888 L38.9256192,16.1133072 L41.0049792,17.2777488 C42.62688,18.1718736 44.1656064,19.086792 45.6627456,20.022504 L46.2241728,20.3759952 C47.5965504,21.2493264 48.9481344,22.1434512 50.1957504,23.0583696 L50.4660672,23.245512 C51.7552704,24.181224 52.9820928,25.116936 54.1257408,26.0734416 L54.4168512,26.3229648 C55.6020864,27.3210576 56.7457344,28.4023248 57.806208,29.3588304 C58.8666816,30.315336 59.885568,31.4381904 60.8836608,32.5402512 L61.0708032,32.7273936 C61.9857216,33.7254864 62.8590528,34.8067536 63.6907968,35.7632592 L63.9195264,36.0127824 C64.6473024,36.9069072 65.3126976,37.801032 65.9988864,38.6951568 L66.8930112,39.9427728 C67.5168192,40.8368976 68.1406272,41.7310224 68.7020544,42.6251472 C69.2634816,43.519272 69.9912576,44.7045072 70.594272,45.7857744 L70.9269696,46.3887888 C71.4883968,47.366088 72.0082368,48.3433872 72.5072832,49.2998928 L72.5072832,49.2998928 C73.0479168,50.3603664 73.5469632,51.3792528 74.0044224,52.3981392 L74.129184,52.6476624 C74.5866432,53.6596176 75.0233088,54.678504 75.4391808,55.7043216 C75.8134656,56.6608272 76.1877504,57.65892 76.5412416,58.6778064 L76.728384,59.21844 C77.0818752,60.2165328 77.4145728,61.2978 77.7056832,62.233512 L77.8096512,62.545416 C78.079968,63.4603344 78.3294912,64.3960464 78.599808,65.352552 L78.8493312,66.3298512 C79.0988544,67.3695312 79.3691712,68.4092112 79.5979008,69.4904784 C80.0969472,71.7361872 80.5544064,73.981896 80.9494848,76.2068112 L81.1366272,77.3712528 C81.4485312,79.2010896 81.7396416,81.0101328 81.9683712,82.7983824 C81.9683712,83.2142544 82.0931328,83.6301264 82.13472,84.0252048 C82.4050368,86.1045648 82.6129728,88.1839248 82.7793216,90.1177296 C82.7793216,90.5959824 82.7793216,91.0742352 82.7793216,91.5316944 C82.9248768,93.6110544 83.0496384,95.5448592 83.1120192,97.5410448 C83.1120192,98.5599312 83.1120192,99.6204048 83.1120192,100.51453 C83.1120192,101.013576 83.1120192,101.512622 83.1120192,101.990875 L83.1120192,105.401026 C83.1120192,105.796104 83.1120192,106.170389 83.1120192,106.565467 C83.1120192,108.104194 83.0080512,109.601333 82.9456704,111.056885 C82.9358265,111.195334 82.9358265,111.334308 82.9456704,111.472757 C82.9456704,112.886722 82.7377344,114.217512 82.6129728,115.527509 C82.6129728,115.860206 82.6129728,116.192904 82.5090048,116.525602 C82.5090048,117.502901 82.3010688,118.459406 82.1555136,119.395118 C82.1555136,119.623848 82.1555136,119.894165 82.0515456,120.122894 C81.8851968,121.204162 81.718848,122.202254 81.510912,123.262728 C81.510912,123.491458 81.510912,123.699394 81.3653568,123.928123 C81.199008,124.676693 81.0326592,125.404469 80.8455168,126.007483 L80.6167872,126.860021 C80.4296448,127.525416 80.2217088,128.170018 80.0137728,128.793826 C80.0137728,129.001762 79.8890112,129.230491 79.8058368,129.438427 C79.5147264,130.270171 79.2028224,131.060328 78.8701248,131.788104 L78.6829824,132.203976 C78.3086976,132.973339 77.9344128,133.680322 77.5393344,134.283336 L77.3106048,134.678414 L76.624416,135.697301 C76.4996544,135.86365 76.3956864,136.029998 76.2709248,136.175554 C75.9297307,136.639529 75.5544047,137.077409 75.1480704,137.48555 C74.801497,137.846988 74.4334776,138.187232 74.0460096,138.504437 C73.662803,138.820668 73.2599903,139.11236 72.8399808,139.377768 L72.8399808,139.377768 L90.244224,128.502715 C91.0865311,127.966605 91.8614376,127.331321 92.5523136,126.610498 C92.9528017,126.196992 93.3277783,125.759519 93.675168,125.300501 C93.7999296,125.154946 93.9038976,124.967803 94.0078656,124.822248 C94.1118336,124.676693 94.4861184,124.156853 94.714848,123.803362 L94.714848,123.6786 C94.7552397,123.584349 94.8039508,123.493886 94.8604032,123.408283 C95.2702674,122.734974 95.6450523,122.040928 95.9832576,121.328923 C95.9832576,121.328923 96.0872256,121.162574 96.1288128,121.058606 L96.1288128,120.913051 C96.4615104,120.164482 96.7734144,119.374325 97.0645248,118.563374 L97.0645248,118.397026 C97.0645248,118.25147 97.0645248,118.085122 97.21008,117.918773 C97.418016,117.294965 97.625952,116.650363 97.8130944,115.984968 C97.8130944,115.839413 97.8130944,115.714651 97.937856,115.548302 C98.0626176,115.381954 97.937856,115.257192 98.041824,115.13243 C98.2358976,114.425448 98.4022464,113.697672 98.5408704,112.949102 L98.665632,112.450056 C98.665632,112.450056 98.665632,112.325294 98.665632,112.262914 C98.8527744,111.264821 99.0399168,110.183554 99.2062656,109.143874 C99.2062656,109.143874 99.2062656,109.019112 99.2062656,108.956731 L99.2062656,108.395304 C99.3310272,107.480386 99.4557888,106.52388 99.5597568,105.546581 L99.5597568,104.985154 C99.5597568,104.839598 99.5597568,104.67325 99.5597568,104.548488 C99.6845184,103.245422 99.7884864,101.893838 99.8716608,100.493736 L99.8716608,100.077864 C99.8716608,98.622312 100.017216,97.1251728 100.03801,95.5656528 C100.03801,95.3785104 100.03801,95.191368 100.03801,95.0042256 L100.03801,94.56756 C100.765786,94.1932752 100.765786,93.735816 100.765786,93.2783568 Z" id="路径" fill="url(#linearGradient-23)"></path>
                    </g>
                    <g id="编组" transform="translate(187.142400, 103.968000)">
                        <polygon id="路径" fill="#9198DB" points="24.8691456 66.435552 42.2733888 55.5604992 69.2218944 70.5110976 51.8384448 81.3861504"></polygon>
                        <polygon id="路径" fill="url(#linearGradient-24)" points="76.9571136 119.396851 94.3613568 108.521798 94.9851648 129.752064 77.6017152 140.627117"></polygon>
                        <polygon id="路径" fill="url(#linearGradient-25)" points="50.7571776 45.6211584 68.1614208 34.7461056 42.2733888 55.5604992 24.8691456 66.435552"></polygon>
                        <polygon id="路径" fill="url(#linearGradient-18)" points="88.89264 101.930227 106.296883 91.0551744 107.024659 115.529242 89.620416 126.404294"></polygon>
                        <polygon id="路径" fill="#9198DB" points="76.2293376 94.9019904 93.6335808 84.0269376 106.296883 91.0551744 88.89264 101.930227"></polygon>
                        <polygon id="路径" fill="url(#linearGradient-26)" points="49.7382912 11.5612416 67.1425344 0.6861888 91.5542208 14.2020288 74.1499776 25.0770816"></polygon>
                        <path d="M76.2293376,94.9019904 L88.89264,101.930227 L89.620416,126.404294 L76.93632,119.396851 L77.5809216,140.627117 L53.1692352,127.111277 L52.5454272,105.860218 L1.5179328,77.5809216 L0.7485696,51.6305088 L49.7382912,11.5612416 L74.129184,25.0770816 L76.2293376,94.9019904 Z M51.8384448,81.3861504 L50.7571776,45.6211584 L24.95232,66.53952 L51.984,81.4901184" id="形状" fill="url(#linearGradient-27)"></path>
                        <polygon id="路径" fill="url(#linearGradient-21)" points="74.1499776 25.0770816 91.5542208 14.2020288 93.6335808 84.0269376 76.2293376 94.9019904"></polygon>
                    </g>
                </g>
            </g>
        </g>
    </g>
</svg>