<?xml version="1.0" encoding="UTF-8"?>
<svg width="10px" height="10px" viewBox="0 0 10 10" version="1.1" xmlns="http://www.w3.org/2000/svg" xmlns:xlink="http://www.w3.org/1999/xlink">
    <!-- Generator: Sketch 63 (92445) - https://sketch.com -->
    <title>添加备份 2</title>
    <desc>Created with Sketch.</desc>
    <g id="页面-1" stroke="none" stroke-width="1" fill="none" fill-rule="evenodd">
        <g id="规范" transform="translate(-404.000000, -144.000000)" fill="#DAEDFF">
            <g id="添加备份" transform="translate(390.000000, 136.000000)">
                <path d="M19,8 C19.2761424,8 19.5,8.22385763 19.5,8.5 L19.5,12.5 L23.5,12.5 C23.7761424,12.5 24,12.7238576 24,13 C24,13.2761424 23.7761424,13.5 23.5,13.5 L19.499,13.5 L19.5,17.5 C19.5,17.7761424 19.2761424,18 19,18 C18.7238576,18 18.5,17.7761424 18.5,17.5 L18.499,13.5 L14.5,13.5 C14.2238576,13.5 14,13.2761424 14,13 C14,12.7238576 14.2238576,12.5 14.5,12.5 L18.5,12.5 L18.5,8.5 C18.5,8.22385763 18.7238576,8 19,8 Z" id="添加备份-2"></path>
            </g>
        </g>
    </g>
</svg>