<?xml version="1.0" encoding="UTF-8"?>
<svg width="40px" height="40px" viewBox="0 0 40 40" version="1.1" xmlns="http://www.w3.org/2000/svg" xmlns:xlink="http://www.w3.org/1999/xlink">
    <!-- Generator: Sketch 53.2 (72643) - https://sketchapp.com -->
    <title>新增 copy备份 2 copy copy</title>
    <desc>Created with Sketch.</desc>
    <g id="页面-1" stroke="none" stroke-width="1" fill="none" fill-rule="evenodd">
        <g id="规范" transform="translate(-783.000000, -1295.000000)" fill-rule="nonzero">
            <g id="新增-copy备份-2-copy-copy" transform="translate(783.000000, 1295.000000)">
                <rect id="搜索输入框-copy-7" stroke="#0067AC" x="0.5" y="0.5" width="39" height="39" rx="4"></rect>
                <path d="M20.9166667,19 L29,19 C29.5522847,19 30,19.4477153 30,20 C30,20.5522847 29.5522847,21 29,21 L20.9166667,21 L20.9166667,29 C20.9166667,29.5522847 20.4689514,30 19.9166667,30 C19.3643819,30 18.9166667,29.5522847 18.9166667,29 L18.9166667,21 L11,21 C10.4477153,21 10,20.5522847 10,20 C10,19.4477153 10.4477153,19 11,19 L18.9166667,19 L18.9166667,11 C18.9166667,10.4477153 19.3643819,10 19.9166667,10 C20.4689514,10 20.9166667,10.4477153 20.9166667,11 L20.9166667,19 Z" id="新建icon-copy-3" fill="#0067AC"></path>
            </g>
        </g>
    </g>
</svg>