<?xml version="1.0" encoding="UTF-8"?>
<svg width="11px" height="6px" viewBox="0 0 11 6" version="1.1" xmlns="http://www.w3.org/2000/svg" xmlns:xlink="http://www.w3.org/1999/xlink">
    <!-- Generator: Sketch 63 (92445) - https://sketch.com -->
    <title>Combined Shape Copy 10备份 4</title>
    <desc>Created with Sketch.</desc>
    <g id="页面-1" stroke="none" stroke-width="1" fill-rule="evenodd">
        <g id="规范" transform="translate(-391.000000, -54.000000)" fill-rule="nonzero">
            <g id="收起备份-4" transform="translate(365.000000, 48.000000)">
                <path d="M31.4071354,11.9479395 C31.2937249,11.9382969 31.1829773,11.890084 31.0961941,11.8033009 L31.0961941,11.8033009 L26.1464466,6.85355339 C25.9511845,6.65829124 25.9511845,6.34170876 26.1464466,6.14644661 C26.3417088,5.95118446 26.6582912,5.95118446 26.8535534,6.14644661 L26.8535534,6.14644661 L31.475,10.768 L36.0961941,6.14644661 C36.2914562,5.95118446 36.6080387,5.95118446 36.8033009,6.14644661 C36.998563,6.34170876 36.998563,6.65829124 36.8033009,6.85355339 L31.8535534,11.8033009 C31.7667702,11.890084 31.6560225,11.9382969 31.5426121,11.9479395 Z" id="Combined-Shape-Copy-10备份-4" transform="translate(31.474874, 8.974874) rotate(-360.000000) translate(-31.474874, -8.974874) "></path>
            </g>
        </g>
    </g>
</svg>