<?xml version="1.0" encoding="UTF-8"?>
<svg width="12px" height="14px" viewBox="0 0 12 14" version="1.1" xmlns="http://www.w3.org/2000/svg" xmlns:xlink="http://www.w3.org/1999/xlink">
    <!-- Generator: Sketch 63 (92445) - https://sketch.com -->
    <title>编组 4</title>
    <desc>Created with Sketch.</desc>
    <defs>
        <polygon id="path-1" points="0 0.0938 6.68981806 0.0938 6.68981806 12.8153846 0 12.8153846"></polygon>
        <polygon id="path-3" points="3.25073302e-13 1.61538466e-05 6.6904348 1.61538466e-05 6.6904348 12.7216008 3.25073302e-13 12.7216008"></polygon>
    </defs>
    <g id="页面-1" stroke="none" stroke-width="1" fill="none" fill-rule="evenodd">
        <g id="数据统计" transform="translate(-432.000000, -164.000000)">
            <g id="农场管理" transform="translate(298.000000, 140.000000)">
                <g id="编组-5" transform="translate(134.000000, 24.000000)">
                    <g id="编组-4" transform="translate(0.000000, 1.000000)">
                        <g id="分组">
                            <mask id="mask-2" fill="white">
                                <use xlink:href="#path-1"></use>
                            </mask>
                            <g id="Clip-2"></g>
                            <path d="M0.744342178,12.8153958 C0.333217178,12.8153958 -3.13596491e-05,12.4720723 -3.13596491e-05,12.0484108 C-3.13596491e-05,11.8450877 0.0783677632,11.6500569 0.218022734,11.5062877 L5.12382171,6.45207231 L0.218022734,1.39785692 C-0.0699633772,1.09567231 -0.0655730263,0.610087692 0.227848757,0.313395385 C0.517298319,0.02058 0.981107529,0.02058 1.27066162,0.313395385 L6.30879832,5.50308769 C6.81682463,6.02711846 6.81682463,6.87616462 6.30879832,7.40030308 L1.27066162,12.5907492 C1.13121572,12.7347338 0.941803436,12.8156108 0.744342178,12.8153958" id="Fill-1" fill="#A8ABB3" mask="url(#mask-2)"></path>
                        </g>
                        <g id="编组-3" transform="translate(5.201667, 0.093784)">
                            <mask id="mask-4" fill="white">
                                <use xlink:href="#path-3"></use>
                            </mask>
                            <g id="Clip-4"></g>
                            <path d="M0.744373538,12.7216116 C0.333248538,12.7216116 3.08642001e-13,12.3782885 3.08642001e-13,11.9546269 C3.08642001e-13,11.7513038 0.0783991228,11.5562731 0.218054094,11.4125038 L5.12312135,6.35828846 L0.217217836,1.30407308 C-0.0707682749,1.00188846 -0.066377924,0.516303846 0.22704386,0.219611538 C0.516493421,-0.0732038462 0.980407164,-0.0732038462 1.26985673,0.219611538 L6.30809795,5.40930385 C6.81664693,5.93118077 6.81821491,6.77893462 6.31154751,7.30296538 C6.31039766,7.30404231 6.30914327,7.30522692 6.30809795,7.30651923 L1.27006579,12.4969654 C1.13072442,12.6408423 0.941625731,12.7216116 0.744373538,12.7216116" id="Fill-3" fill="#A8ABB3" mask="url(#mask-4)"></path>
                        </g>
                    </g>
                </g>
            </g>
        </g>
    </g>
</svg>