<?xml version="1.0" encoding="UTF-8"?>
<svg width="25px" height="25px" viewBox="0 0 25 25" version="1.1" xmlns="http://www.w3.org/2000/svg" xmlns:xlink="http://www.w3.org/1999/xlink">
    <!-- Generator: Sketch 63 (92445) - https://sketch.com -->
    <title>icon_sum备份 2</title>
    <desc>Created with Sketch.</desc>
    <g id="页面-1" stroke="none" stroke-width="1" fill="none" fill-rule="evenodd">
        <g id="数据概览" transform="translate(-228.000000, -197.000000)" fill="#9FA8B8">
            <g id="icon_sum-2备份" transform="translate(228.000000, 197.000000)">
                <g id="icon_sum" transform="translate(0.000000, 3.000000)">
                    <path d="M23.1724138,13 C22.7153793,13 22.3448276,12.6244677 22.3448276,12.1612903 C22.3448276,6.38048387 17.7041379,1.67741935 12,1.67741935 C6.29586207,1.67741935 1.65517241,6.38048387 1.65517241,12.1612903 C1.65517241,12.6244677 1.28462069,13 0.827586207,13 C0.370551724,13 0,12.6244677 0,12.1612903 C0,5.45559677 5.38324138,0 12,0 C18.6167586,0 24,5.45559677 24,12.1612903 C24,12.6244677 23.6294483,13 23.1724138,13" id="Fill-1"></path>
                    <path d="M18,6 L14.6437086,10.9994636 C14.3621479,10.2406002 13.7593829,9.63783931 13.0005168,9.35628414 L18,6 Z" id="Combined-Shape"></path>
                    <path d="M14,12 C14,13.1046667 13.1046667,14 12,14 C10.8953333,14 10,13.1046667 10,12 C10,10.8953333 10.8953333,10 12,10 C13.1046667,10 14,10.8953333 14,12" id="Fill-5"></path>
                </g>
            </g>
        </g>
    </g>
</svg>