<?xml version="1.0" encoding="UTF-8"?>
<svg width="19px" height="22px" viewBox="0 0 19 22" version="1.1" xmlns="http://www.w3.org/2000/svg" xmlns:xlink="http://www.w3.org/1999/xlink">
    <!-- Generator: Sketch 63 (92445) - https://sketch.com -->
    <title>分组 copy 15</title>
    <desc>Created with Sketch.</desc>
    <defs>
        <polygon id="path-1" points="0.023578882 0.0846274725 8.18767826 0.0846274725 8.18767826 10.2747253 0.023578882 10.2747253"></polygon>
        <polygon id="path-3" points="0 0.108815385 14.7515292 0.108815385 14.7515292 21.8791209 0 21.8791209"></polygon>
    </defs>
    <g id="页面-1" stroke="none" stroke-width="1" fill="none" fill-rule="evenodd">
        <g id="用户列表" transform="translate(-22.000000, -567.000000)">
            <g id="分组-copy-15" transform="translate(22.000000, 567.000000)">
                <g id="分组" transform="translate(10.739130, 11.616484)">
                    <mask id="mask-2" fill="white">
                        <use xlink:href="#path-1"></use>
                    </mask>
                    <g id="Clip-2"></g>
                    <path d="M7.3615913,8.58242967 L0.849665839,8.58242967 C0.389535404,8.58242967 0.023578882,8.95715495 0.023578882,9.42858352 C0.023578882,9.89989121 0.389535404,10.2747374 0.849665839,10.2747374 L7.3615913,10.2747374 C7.82183975,10.2747374 8.18767826,9.89989121 8.18767826,9.42858352 C8.18767826,8.95715495 7.82183975,8.58242967 7.3615913,8.58242967 M7.3615913,4.33945165 L0.849665839,4.33945165 C0.389535404,4.33945165 0.023578882,4.7142978 0.023578882,5.18560549 C0.023578882,5.65715495 0.389535404,6.03175934 0.849665839,6.03175934 L7.3615913,6.03175934 C7.82183975,6.03175934 8.18767826,5.65715495 8.18767826,5.18560549 C8.18767826,4.7142978 7.82183975,4.33945165 7.3615913,4.33945165 M7.3615913,0.0846274725 L0.849665839,0.0846274725 C0.389535404,0.0846274725 0.023578882,0.459352747 0.023578882,0.930781319 C0.023578882,1.40220989 0.389535404,1.77693516 0.849665839,1.77693516 L7.3615913,1.77693516 C7.82183975,1.77693516 8.18767826,1.40220989 8.18767826,0.930781319 C8.18767826,0.47131978 7.82183975,0.0846274725 7.3615913,0.0846274725" id="Fill-1" fill="#FFFFFF" mask="url(#mask-2)"></path>
                </g>
                <g id="分组" transform="translate(0.000000, 0.012088)">
                    <mask id="mask-4" fill="white">
                        <use xlink:href="#path-3"></use>
                    </mask>
                    <g id="Clip-4"></g>
                    <path d="M5.23972795,5.63299121 C5.23972795,3.37255165 7.0689205,1.53518901 9.31115652,1.53518901 C11.5533925,1.53518901 13.3825851,3.37255165 13.3825851,5.63299121 C13.3825851,7.89343077 11.5533925,9.73079341 9.31115652,9.73079341 C7.05711925,9.73079341 5.23972795,7.89343077 5.23972795,5.63299121 L5.23972795,5.63299121 Z M1.40432422,20.4527714 L1.40432422,19.2318923 C1.40432422,15.0736505 4.54345466,11.6526505 8.53227453,11.2659582 L8.54407578,11.2659582 C8.79190186,11.2417824 9.03972795,11.2295736 9.28755404,11.2295736 L9.39376522,11.2295736 C10.2788584,11.157167 11.6123988,10.9516725 12.308672,10.3110132 L12.6509081,10.0329912 C13.9726472,8.99343077 14.7515292,7.37365055 14.7515292,5.66925495 C14.7515292,2.59892527 12.2968708,0.108815385 9.2757528,0.108815385 C6.25463478,0.108815385 3.81177764,2.61101319 3.81177764,5.68134286 C3.81177764,7.38573846 4.57885839,8.98134286 5.91239876,10.0450791 L6.25463478,10.3231011 L5.85339255,10.4923319 C2.28941739,11.9187055 -2.36024845e-05,15.3516725 -2.36024845e-05,19.2318923 L-2.36024845e-05,21.1659582 C-2.36024845e-05,21.5597824 0.311765217,21.8791451 0.696249689,21.8791451 L5.94154783,21.8791451 C6.32615031,21.8791451 6.63782112,21.5597824 6.63782112,21.1659582 C6.63782112,20.7721341 6.32615031,20.4527714 5.94154783,20.4527714 L1.40432422,20.4527714 Z" id="Fill-3" fill="#FFFFFF" mask="url(#mask-4)"></path>
                </g>
            </g>
        </g>
    </g>
</svg>