<?xml version="1.0" encoding="UTF-8"?>
<svg width="25px" height="25px" viewBox="0 0 25 25" version="1.1" xmlns="http://www.w3.org/2000/svg" xmlns:xlink="http://www.w3.org/1999/xlink">
    <!-- Generator: Sketch 63 (92445) - https://sketch.com -->
    <title>icon_farm备份 3</title>
    <desc>Created with Sketch.</desc>
    <g id="页面-1" stroke="none" stroke-width="1" fill="none" fill-rule="evenodd">
        <g id="数据概览" transform="translate(-228.000000, -247.000000)" fill="#FFFFFF" fill-rule="nonzero">
            <g id="icon_farm-2备份" transform="translate(228.000000, 247.000000)">
                <g id="icon_farm" transform="translate(0.000000, 3.000000)">
                    <path d="M6.5,9 C3.46730142,9 1,11.4673014 1,14.5 C1,17.5326986 3.46730142,20 6.5,20 C9.53269858,20 12,17.5326986 12,14.5 C12,11.4673014 9.53269858,9 6.5,9 Z M6.5,18.625 C4.22552083,18.625 2.375,16.7744792 2.375,14.5 C2.375,12.2255208 4.22552083,10.375 6.5,10.375 C8.77447917,10.375 10.625,12.2255208 10.625,14.5 C10.625,16.7744792 8.77447917,18.625 6.5,18.625 Z" id="形状"></path>
                    <path d="M6.5,13 C5.67291667,13 5,13.6729167 5,14.5 C5,15.3270833 5.67291667,16 6.5,16 C7.32708333,16 8,15.3270833 8,14.5 C8,13.6729167 7.32708333,13 6.5,13 Z" id="路径"></path>
                    <path d="M23.5391715,12.5228795 L23.5391715,10 C23.5391715,8.42447914 22.2286105,7.14285714 20.6175144,7.14285714 L19.1566859,7.14285714 L19.1566859,3.57142857 C19.1566859,3.17764138 19.4844212,2.85714286 19.8871001,2.85714286 L19.8871001,1.42857143 C18.6788732,1.42857143 17.6958573,2.38988095 17.6958573,3.57142857 L17.6958573,7.14285714 L14.4898332,7.14285714 L12.736839,1.42857143 L13.2321117,1.42857143 C13.6266008,1.42857143 13.9463974,1.10877482 13.9463974,0.714285714 C13.9463974,0.319796607 13.6266008,-9.0871548e-16 13.2321117,0 L2.97405489,0 C2.57956578,-2.12460249e-17 2.25976917,0.319796607 2.25976917,0.714285714 C2.25976917,1.10877482 2.57956578,1.42857143 2.97405489,1.42857143 L3.7205977,1.42857143 L3.7205977,1.42857143 L3.7205977,5.98753719 C2.85286914,6.20696963 1.73932474,6.74770741 1.00597801,7.18984375 C0.696187948,7.37661685 0.4626678,7.54523926 0.333872192,7.67373514 C-0.0700565997,8.07672394 -0.0723639473,8.56134056 0.140641143,8.8 C0.493129103,9.19494164 1.16724225,8.85722656 1.26400909,8.77529762 C1.36077592,8.69336868 1.30522928,8.74219834 1.32596781,8.72582568 C2.61963093,7.70450452 4.24491467,7.14285714 5.9118405,7.14285714 C9.93939044,7.14285714 13.2159832,10.3470982 13.2159832,14.2857143 L13.2159832,15.4285714 C13.2159832,15.9808562 13.6636984,16.4285714 14.2159832,16.4285714 L16.2962771,16.4285714 L16.2962771,16.4285714 C16.645126,18.452939 18.4498579,20 20.6175144,20 C23.0339683,20 25,18.077381 25,15.7142857 C25,14.4479167 24.4352604,13.3082217 23.5391715,12.5228795 Z M5.18142624,5.74460567 L5.18142624,1.42857143 L11.2117188,1.42857143 L12.9647131,7.14285714 L10.7512154,7.14285714 C9.36342831,6.24069943 7.69945336,5.71428571 5.9118405,5.71428571 C5.66741803,5.71428571 5.42375636,5.72470238 5.18142624,5.74460567 Z M12.4387767,8.57142857 L20.6175144,8.57142857 C21.4230624,8.57142857 22.0783429,9.21223957 22.0783429,10 L22.0783429,11.6737351 C21.6212634,11.515253 21.1295652,11.4285714 20.6175144,11.4285714 L14.1754127,11.4285714 C13.7894725,10.3643973 13.1946794,9.39620533 12.4387767,8.57142857 Z M14.5543151,12.8571429 L17.3540463,12.8571429 C16.812893,13.4475447 16.4366536,14.1850819 16.2962771,15 L14.6768117,15 L14.6768117,14.2857143 C14.6768117,13.7991071 14.6345846,13.3219866 14.5543151,12.8571429 L14.5543151,12.8571429 Z M20.6175144,18.5714286 C19.0064183,18.5714286 17.6958573,17.2898066 17.6958573,15.7142857 C17.6958573,14.1387649 19.0064183,12.8571429 20.6175144,12.8571429 C22.2286105,12.8571429 23.5391715,14.1387649 23.5391715,15.7142857 C23.5391715,17.2898066 22.2286105,18.5714286 20.6175144,18.5714286 Z" id="形状"></path>
                </g>
            </g>
        </g>
    </g>
</svg>