<?xml version="1.0" encoding="UTF-8"?>
<svg width="25px" height="25px" viewBox="0 0 25 25" version="1.1" xmlns="http://www.w3.org/2000/svg" xmlns:xlink="http://www.w3.org/1999/xlink">
    <!-- Generator: Sketch 63 (92445) - https://sketch.com -->
    <title>icon-数据大屏</title>
    <desc>Created with Sketch.</desc>
    <defs>
        <polygon id="path-1" points="0 0.0554794521 24.9428767 0.0554794521 24.9428767 21.9178082 0 21.9178082"></polygon>
    </defs>
    <g id="页面-1" stroke="none" stroke-width="1" fill="none" fill-rule="evenodd">
        <g id="企业信息-种植模型-农事计划" transform="translate(-18.000000, -112.000000)">
            <g id="icon-数据大屏-2" transform="translate(18.000000, 112.000000)">
                <g id="icon-数据大屏" transform="translate(0.000000, 1.000000)">
                    <g id="编组" transform="translate(0.000000, 0.058676)">
                        <mask id="mask-2" fill="white">
                            <use xlink:href="#path-1"></use>
                        </mask>
                        <g id="Clip-2"></g>
                        <path d="M16.8378539,21.9178082 L8.10988584,21.9178082 L12.4723288,15.9539954 L16.8378539,21.9178082 Z M21.6096575,19.2660959 L17.2830594,19.2660959 C16.7661644,19.2660959 16.3469863,18.8208904 16.3469863,18.2714612 C16.3469863,17.7202055 16.7661644,17.2765982 17.2830594,17.2765982 L21.6096575,17.2765982 C22.4168493,17.2765982 23.0708447,16.578653 23.0740411,15.7191781 L23.0740411,3.59748858 C23.0740411,2.73812785 22.4168493,2.04497717 21.6096575,2.04178082 L3.335,2.04178082 C2.52609589,2.04178082 1.87381279,2.73812785 1.87050228,3.59748858 L1.87050228,15.7240868 C1.87050228,16.5818493 2.52609589,17.2748858 3.335,17.2781963 L7.12324201,17.2781963 C7.64184932,17.2781963 8.05942922,17.7234018 8.05942922,18.2729452 C8.05942922,18.8242009 7.64184932,19.2678082 7.12324201,19.2678082 L3.335,19.2678082 C1.49378995,19.2678082 0.00326484018,17.6826484 -4.56621005e-05,15.7289954 L-4.56621005e-05,3.59589041 C0.00326484018,1.63892694 1.49378995,0.0570776256 3.335,0.0554794521 L21.6096575,0.0554794521 C23.4491553,0.0586757991 24.9396804,1.64223744 24.9428767,3.59748858 L24.9428767,15.7240868 C24.9396804,17.6777397 23.4491553,19.2660959 21.6096575,19.2660959 L21.6096575,19.2660959 Z" id="Fill-1" fill="#9FA8B8" mask="url(#mask-2)"></path>
                    </g>
                    <path d="M17.9729338,13.6594292 C17.4641438,13.6545205 17.0564954,13.2143379 17.0564954,12.6744977 L17.0564954,7.75920091 C17.0417694,7.22107306 17.4413128,6.77426941 17.9501027,6.75965753 C18.453984,6.74652968 18.8763584,7.17050228 18.8893721,7.70874429 L18.8893721,12.6744977 C18.8893721,13.2175342 18.4817237,13.6545205 17.9729338,13.6594292 M14.3052397,13.6594292 C13.7981621,13.6545205 13.3888014,13.2143379 13.3888014,12.6744977 L13.3888014,8.7459589 C13.3757877,8.21091324 13.7753311,7.76251142 14.2824087,7.74778539 C14.7896005,7.73477169 15.2087785,8.15714612 15.2217922,8.6969863 L15.2217922,12.6776941 C15.2217922,13.2158219 14.8140297,13.6562329 14.3052397,13.6594292 M6.97487443,13.6594292 C6.46768265,13.6545205 6.05832192,13.2143379 6.05832192,12.6744977 L6.05832192,10.7093151 C6.04530822,10.1711872 6.4448516,9.72438356 6.95204338,9.70965753 C7.45763699,9.69664384 7.87829909,10.1206164 7.89142694,10.6587443 L7.89142694,12.6744977 C7.89142694,13.2175342 7.48366438,13.6545205 6.97487443,13.6594292 M10.6425685,13.6594292 C10.1337785,13.6545205 9.72441781,13.2143379 9.72441781,12.6744977 L9.72441781,6.77746575 C9.71128995,6.24105023 10.1108333,5.79253425 10.6180251,5.77952055 C11.1236187,5.76479452 11.5459932,6.18888128 11.5590068,6.72860731 L11.5590068,12.6776941 C11.5590068,13.2158219 11.1464498,13.6562329 10.6425685,13.6594292" id="Fill-3" fill="#9FA8B8"></path>
                </g>
            </g>
        </g>
    </g>
</svg>