<?xml version="1.0" encoding="UTF-8"?>
<svg width="25px" height="25px" viewBox="0 0 25 25" version="1.1" xmlns="http://www.w3.org/2000/svg" xmlns:xlink="http://www.w3.org/1999/xlink">
    <!-- Generator: Sketch 63 (92445) - https://sketch.com -->
    <title>编组备份 14</title>
    <desc>Created with Sketch.</desc>
    <defs>
        <polygon id="path-1" points="2.18335575e-05 0 19.8922893 0 19.8922893 19.8924528 2.18335575e-05 19.8924528"></polygon>
    </defs>
    <g id="页面-1" stroke="none" stroke-width="1" fill="none" fill-rule="evenodd">
        <g id="版本列表" transform="translate(-234.000000, -616.000000)">
            <g id="编组-3备份" transform="translate(234.000000, 616.000000)">
                <g id="编组" transform="translate(2.000000, 2.000000)">
                    <mask id="mask-2" fill="white">
                        <use xlink:href="#path-1"></use>
                    </mask>
                    <g id="Clip-2"></g>
                    <path d="M9.43631447,18.4454214 C9.52725786,18.4429057 9.61568553,18.479761 9.68449057,18.5436604 C9.74826415,18.6075597 9.78763522,18.6985031 9.78763522,18.7893208 L9.78763522,19.5460503 C9.7851195,19.7352327 9.63040252,19.8900291 9.43883019,19.8900291 L8.06046541,19.8900291 C7.40461635,19.8973711 6.85669182,19.3839119 6.8223522,18.7304528 L6.62084277,17.2710818 C6.01644025,17.018 5.44650314,16.696239 4.92084277,16.3080629 L3.54008805,16.863283 C2.95291824,17.1605157 2.23555975,16.9542264 1.89895597,16.3890692 L0.167006289,13.4483145 C-0.164691824,12.8857987 0.012163522,12.1586289 0.569899371,11.8122138 L1.75405031,10.9105786 C1.66801258,10.2696981 1.66801258,9.62026415 1.75405031,8.97950943 L0.572289308,8.07787421 C0.0195849057,7.73397484 -0.159786164,7.01171069 0.167006289,6.44906918 L1.89656604,3.50340881 C2.23304403,2.93837736 2.94801258,2.73196226 3.53518239,3.02680503 L4.91832704,3.58202516 C5.44159748,3.19133333 6.01644025,2.86957233 6.61845283,2.61900629 L6.81983648,1.16215094 C6.85430189,0.506176101 7.39971069,-0.00728301887 8.05555975,-6.42085284e-05 L11.5122893,-6.42085284e-05 C12.1755597,-6.42085284e-05 12.7185786,0.508566038 12.7480126,1.15963522 L12.949522,2.61900629 C13.5537987,2.86957233 14.1262516,3.19384906 14.6520377,3.58202516 L16.0351824,3.02919497 C16.6223522,2.73686792 17.337195,2.9407673 17.6737987,3.50340881 L19.3984528,6.44655346 C19.7301509,7.00919497 19.5556855,7.73397484 18.9980755,8.08277987 L17.8188302,8.98202516 C17.9023522,9.62315723 17.9023522,10.2742264 17.8188302,10.9129686 L18.4158113,11.367434 L16.2563145,11.367434 L16.3078868,11.0947296 C16.4527925,10.3381258 16.4527925,9.5543522 16.3078868,8.7952327 L16.2292704,8.36781132 L18.0325409,6.99447799 L16.4896478,4.36328302 L14.4014717,5.2452956 L14.0599623,4.95774843 C13.4580755,4.45913208 12.7725409,4.07095597 12.0355597,3.81296855 L11.6203396,3.66303145 L11.3083899,1.44466667 L8.25958491,1.44466667 L7.95241509,3.66806289 L7.53719497,3.81787421 C6.79769811,4.07825157 6.11228931,4.46642767 5.51040252,4.96516981 L5.17140881,5.24768553 L3.06348428,4.39762264 L1.5378239,6.99196226 L3.34109434,8.3652956 L3.26247799,8.7952327 C3.19128302,9.17359748 3.15442767,9.55686792 3.15191195,9.9425283 C3.15442767,10.3283145 3.19128302,10.7139748 3.25996226,11.0923396 L3.33618868,11.5222767 L1.53530818,12.8956101 L3.08310692,15.526805 L5.16889308,14.6447925 L5.51291824,14.9298239 C6.11480503,15.428566 6.80021384,15.8167421 7.53719497,16.0746038 L7.95241509,16.2245409 L8.25958491,18.4479371 L9.43631447,18.4479371 L9.43631447,18.4454214 Z M9.7851195,12.6621509 L9.7851195,14.1042893 C7.45367296,14.1042893 5.55706918,12.2372453 5.55706918,9.9425283 C5.55706918,7.64793711 7.45367296,5.7807673 9.7851195,5.7807673 C12.1166918,5.7807673 14.0132956,7.64793711 14.0132956,9.9425283 C14.0132956,10.4290692 13.9297736,10.9105786 13.7602138,11.365044 L12.1337987,11.365044 C12.4041132,10.9400126 12.5466289,10.4461761 12.5466289,9.9425283 C12.5466289,8.44642767 11.3058742,7.22781132 9.78272956,7.22781132 C8.26197484,7.22781132 7.02134591,8.44642767 7.02134591,9.9425283 C7.02373585,11.4436604 8.26197484,12.6621509 9.7851195,12.6621509 L9.7851195,12.6621509 Z M19.5631069,19.8924654 L11.5614717,19.8924654 C11.3821006,19.8924654 11.2321635,19.7475597 11.2297736,19.5681887 L11.2297736,18.7992579 C11.2321635,18.6198868 11.3795849,18.4724654 11.5614717,18.4748553 L19.5631069,18.4748553 C19.742478,18.4748553 19.8897736,18.6198868 19.8922893,18.7992579 L19.8922893,19.565673 C19.8897736,19.7475597 19.7448679,19.8899497 19.5631069,19.8924654 L19.5631069,19.8924654 Z M19.5631069,17.0499497 L11.5614717,17.0499497 C11.3821006,17.0499497 11.2321635,16.905044 11.2297736,16.725673 L11.2297736,15.9567421 C11.2321635,15.7773711 11.3795849,15.6299497 11.5614717,15.6324654 L19.5631069,15.6324654 C19.742478,15.6324654 19.8897736,15.7773711 19.8922893,15.9567421 L19.8922893,16.723283 C19.8897736,16.9025283 19.7448679,17.0499497 19.5631069,17.0499497 L19.5631069,17.0499497 Z M19.5631069,14.2075597 L11.5614717,14.2075597 C11.3821006,14.2075597 11.2321635,14.0625283 11.2297736,13.8831572 L11.2297736,13.1142264 C11.2321635,12.9348553 11.3795849,12.7875597 11.5614717,12.7899497 L19.5631069,12.7899497 C19.742478,12.7899497 19.8897736,12.9348553 19.8922893,13.1142264 L19.8922893,13.8831572 C19.8897736,14.0625283 19.7448679,14.2099497 19.5631069,14.2075597 L19.5631069,14.2075597 Z" id="Fill-1" fill="#9FA8B8" mask="url(#mask-2)"></path>
                </g>
            </g>
        </g>
    </g>
</svg>