<?xml version="1.0" encoding="UTF-8"?>
<svg width="128px" height="21px" viewBox="0 0 128 21" version="1.1" xmlns="http://www.w3.org/2000/svg" xmlns:xlink="http://www.w3.org/1999/xlink">
    <!-- Generator: Sketch 63.1 (92452) - https://sketch.com -->
    <title>努力建设中</title>
    <desc>Created with Sketch.</desc>
    <g id="页面-1" stroke="none" stroke-width="1" fill="none" fill-rule="evenodd">
        <g id="建设中页面" transform="translate(-726.000000, -609.000000)" fill="#667799" fill-rule="nonzero">
            <path d="M731.88,619.2 L733.028,618.276 L733.868,619.2 L738.852,619.2 L735.996,616.54 L738.04,615.168 L738.348,612.9 L739.44,612.9 L739.776,610.52 L738.684,610.52 L738.852,609.4 L735.436,609.4 L735.268,610.52 L733.56,610.52 L733.728,609.4 L729.836,609.4 L729.668,610.52 L728.576,610.52 L728.24,612.9 L729.332,612.9 L729.024,615.168 L730.788,616.736 L727.372,619.2 L731.88,619.2 Z M743.584,619.2 L744.676,618.36 L745.544,619.2 L750.472,619.2 L747.336,616.316 L750.892,613.628 L751.424,609.708 L740.84,609.708 L740.504,612.2 L747.056,612.2 L746.916,613.068 L745.264,614.384 L743.976,613.208 L740.672,613.208 L740.504,614.328 L742.688,616.456 L739.216,619.2 L743.584,619.2 Z M733.84,614.524 L733.112,613.824 L733.224,612.9 L734.932,612.9 L734.82,613.824 L733.84,614.524 Z M732.188,629.252 L737.116,623.344 L743.444,623.344 L742.968,626.648 L740.476,629.252 L746.216,629.252 C746.757333,629.252 747.233333,629.079333 747.644,628.734 C748.054667,628.388667 748.306667,627.945333 748.4,627.404 L748.4,627.404 L749.324,620.74 L739.3,620.74 L740.056,619.844 L734.204,619.844 L733.448,620.74 L728.436,620.74 L728.072,623.344 L731.264,623.344 L726.336,629.252 L732.188,629.252 Z M757.92,629.252 L765.032,616.008 L770.968,616.008 L769.484,626.648 L766.964,629.252 L772.508,629.252 C773.030667,629.252 773.502,629.079333 773.922,628.734 C774.342,628.388667 774.598667,627.945333 774.692,627.404 L774.692,627.404 L776.652,613.348 L766.46,613.348 L768.756,609.092 L762.372,609.092 L763.016,609.848 L761.14,613.348 L754.308,613.348 L753.944,616.008 L759.712,616.008 L752.6,629.252 L757.92,629.252 Z M796.168,625.304 L796.336,623.988 L801.152,623.988 L801.432,621.86 L796.644,621.86 L796.756,621.048 L801.012,621.048 L801.32,618.92 L797.064,618.92 L797.176,618.136 L801.432,618.136 L801.824,615.196 L802.916,615.196 L803.196,613.068 L802.132,613.068 L802.552,610.156 L798.268,610.156 L798.436,609.092 L792.052,609.092 L792.976,610.156 L789.252,610.156 L788.944,612.284 L792.668,612.284 L792.556,613.068 L787.768,613.068 L787.488,615.196 L792.248,615.196 L792.136,616.008 L787.908,616.008 L787.6,618.136 L791.828,618.136 L791.716,618.92 L787.488,618.92 L787.18,621.048 L791.436,621.048 L791.324,621.86 L786.536,621.86 L786.256,623.988 L791.016,623.988 L790.848,625.304 L796.168,625.304 Z M781.86,628.776 L782.644,627.124 L785.052,628.776 L801.012,628.776 L801.404,625.836 L786.9,625.836 L784.128,623.96 L786.396,619.2 L786.76,616.54 L784.632,616.54 L787.348,612.284 L787.74,609.624 L780.292,609.624 L779.9,612.284 L783.092,612.284 L779.004,618.668 L782.196,618.668 L782.14,619.2 L780.936,621.748 L778.78,620.264 L778.248,624.128 L779.424,624.94 L777.604,628.776 L781.86,628.776 Z M798.408,613.068 L796.812,613.068 L796.924,612.284 L798.52,612.284 L798.408,613.068 Z M798.016,616.008 L796.392,616.008 L796.504,615.196 L798.128,615.196 L798.016,616.008 Z M817.448,617.128 L818.484,612.256 L822.32,612.256 L821.648,617.128 L827.304,617.128 L827.836,613.264 L826.912,614.328 L826.408,614.328 L827.052,609.624 L813.304,609.624 L814.172,610.632 L812.8,617.128 L817.448,617.128 Z M811.372,613.348 L810.56,609.624 L806.276,609.624 L807.088,613.348 L811.372,613.348 Z M804.484,628.748 L811.4,627.096 L811.792,624.324 L809.72,624.884 L811.176,614.412 L804.848,614.412 L804.484,617.072 L806.136,617.072 L804.484,628.748 Z M815.796,629.252 L818.288,627.74 L820.08,629.252 L826.184,629.252 L821.872,625.528 L826.1,622.924 L826.8,617.856 L812.632,617.856 L812.268,620.46 L822.04,620.46 L821.928,621.272 L819.1,623.12 L816.72,621.02 L812.184,621.02 L811.988,622.364 L815.572,625.416 L809.72,629.252 L815.796,629.252 Z M842.928,629.252 L843.936,622.112 L852.448,622.112 L853.736,613.096 L845.196,613.096 L845.784,609.092 L839.4,609.092 L840.296,610.156 L839.876,613.096 L831.392,613.096 L830.104,622.112 L838.616,622.112 L837.608,629.252 L842.928,629.252 Z M847.52,619.452 L844.3,619.452 L844.832,615.756 L848.024,615.756 L847.52,619.452 Z M838.98,619.452 L835.816,619.452 L836.32,615.756 L839.512,615.756 L838.98,619.452 Z" id="努力建设中"></path>
        </g>
    </g>
</svg>