<?xml version="1.0" encoding="UTF-8"?>
<svg width="28px" height="23px" viewBox="0 0 28 23" version="1.1" xmlns="http://www.w3.org/2000/svg" xmlns:xlink="http://www.w3.org/1999/xlink">
    <!-- Generator: Sketch 63 (92445) - https://sketch.com -->
    <title>编组</title>
    <desc>Created with Sketch.</desc>
    <defs>
        <polygon id="path-1" points="9.6e-05 0 27.91968 0 27.91968 22.684928 9.6e-05 22.684928"></polygon>
    </defs>
    <g id="页面-1" stroke="none" stroke-width="1" fill="none" fill-rule="evenodd">
        <g id="数据统计-农场统计-未展开状态" transform="translate(-318.000000, -149.000000)">
            <g id="搜素/筛选-copy备份-2" transform="translate(298.000000, 130.000000)">
                <g id="编组" transform="translate(20.000000, 19.000000)">
                    <mask id="mask-2" fill="white">
                        <use xlink:href="#path-1"></use>
                    </mask>
                    <g id="Clip-2"></g>
                    <path d="M6.977536,19.192928 L5.231456,19.192928 C4.269056,19.192928 3.485536,18.412768 3.485536,17.447008 L3.485536,10.469568 C3.485536,9.507008 4.265856,8.723488 5.231456,8.723488 L6.977536,8.723488 C7.940096,8.723488 8.723456,9.503808 8.723456,10.469568 L8.723456,17.450208 C8.723456,18.412768 7.943296,19.192928 6.977536,19.192928 M15.704256,19.192928 L13.958176,19.192928 C12.995776,19.192928 12.212256,18.412768 12.212256,17.447008 L12.212256,1.746048 C12.212256,0.783488 12.992576,-3.2e-05 13.958176,-3.2e-05 L15.704256,-3.2e-05 C16.666816,-3.2e-05 17.450176,0.780288 17.450176,1.746048 L17.450176,17.450208 C17.447136,18.412768 16.666816,19.192928 15.704256,19.192928 M24.427616,19.192928 L22.681696,19.192928 C21.719296,19.192928 20.935776,18.412768 20.935776,17.447008 L20.935776,6.980768 C20.935776,6.018208 21.715936,5.234848 22.681696,5.234848 L24.427616,5.234848 C25.390176,5.234848 26.173696,6.015008 26.173696,6.980768 L26.173696,17.450208 C26.173696,18.412768 25.390176,19.192928 24.427616,19.192928 M27.043456,22.684928 L1.742816,22.684928 L9.6e-05,22.684928 L9.6e-05,20.939008 L9.6e-05,2.615808 C9.6e-05,2.132928 0.390176,1.742848 0.873056,1.742848 C1.355936,1.742848 1.746016,2.132928 1.746016,2.615808 L1.746016,20.939008 L27.046656,20.939008 C27.529536,20.939008 27.919776,21.329248 27.919776,21.811968 C27.916416,22.294848 27.526336,22.684928 27.043456,22.684928" id="Fill-1" fill="#9FA8B8" mask="url(#mask-2)"></path>
                    <path d="M6.977536,19.192928 L5.231456,19.192928 C4.269056,19.192928 3.485536,18.412768 3.485536,17.447008 L3.485536,10.469568 C3.485536,9.507008 4.265856,8.723488 5.231456,8.723488 L6.977536,8.723488 C7.940096,8.723488 8.723456,9.503808 8.723456,10.469568 L8.723456,17.450208 C8.723456,18.412768 7.943296,19.192928 6.977536,19.192928 M15.704256,19.192928 L13.958176,19.192928 C12.995776,19.192928 12.212256,18.412768 12.212256,17.447008 L12.212256,1.746048 C12.212256,0.783488 12.992576,-3.2e-05 13.958176,-3.2e-05 L15.704256,-3.2e-05 C16.666816,-3.2e-05 17.450176,0.780288 17.450176,1.746048 L17.450176,17.450208 C17.447136,18.412768 16.666816,19.192928 15.704256,19.192928 M24.427616,19.192928 L22.681696,19.192928 C21.719296,19.192928 20.935776,18.412768 20.935776,17.447008 L20.935776,6.980768 C20.935776,6.018208 21.715936,5.234848 22.681696,5.234848 L24.427616,5.234848 C25.390176,5.234848 26.173696,6.015008 26.173696,6.980768 L26.173696,17.450208 C26.173696,18.412768 25.390176,19.192928 24.427616,19.192928 M27.043456,22.684928 L1.742816,22.684928 L9.6e-05,22.684928 L9.6e-05,20.939008 L9.6e-05,2.615808 C9.6e-05,2.132928 0.390176,1.742848 0.873056,1.742848 C1.355936,1.742848 1.746016,2.132928 1.746016,2.615808 L1.746016,20.939008 L27.046656,20.939008 C27.529536,20.939008 27.919776,21.329248 27.919776,21.811968 C27.916416,22.294848 27.526336,22.684928 27.043456,22.684928" id="Fill-1备份" fill="#9FA8B8" mask="url(#mask-2)"></path>
                </g>
            </g>
        </g>
    </g>
</svg>