<?xml version="1.0" encoding="UTF-8"?>
<svg width="22px" height="20px" viewBox="0 0 22 20" version="1.1" xmlns="http://www.w3.org/2000/svg" xmlns:xlink="http://www.w3.org/1999/xlink">
    <!-- Generator: Sketch 63 (92445) - https://sketch.com -->
    <title>联系人-icon</title>
    <desc>Created with Sketch.</desc>
    <g id="页面-1" stroke="none" stroke-width="1" fill="none" fill-rule="evenodd">
        <g id="农场详情" transform="translate(-1078.000000, -101.000000)" fill="#48A4FF">
            <path d="M1085.29163,106.097399 C1085.29163,104.034905 1086.99924,102.356904 1089.09834,102.356904 C1091.19689,102.356904 1092.90439,104.034905 1092.90483,106.097399 C1092.90483,108.160326 1091.19733,109.838653 1089.09834,109.838653 C1086.99924,109.838653 1085.29163,108.160326 1085.29163,106.097399 L1085.29163,106.097399 Z M1094.28524,106.097181 C1094.28457,103.286545 1091.95765,101 1089.09823,101 C1086.23814,101 1083.91122,103.286654 1083.91122,106.097399 C1083.91122,108.908469 1086.23814,111.195666 1089.09823,111.195666 C1091.95843,111.195666 1094.28524,108.908469 1094.28524,106.097181 L1094.28524,106.097181 Z M1084.51197,111.143343 C1080.67776,112.309195 1078,116.08345 1078,120.321548 C1078,120.696271 1078.30899,121 1078.6902,121 C1079.0713,121 1079.3804,120.696271 1079.3804,120.321548 C1079.3804,116.672454 1081.65829,113.431409 1084.91991,112.439566 C1085.28412,112.328951 1085.48798,111.949018 1085.37533,111.590904 C1085.26269,111.233007 1084.87618,111.032403 1084.51197,111.143343 L1084.51197,111.143343 Z M1098.77785,119.16894 C1098.77674,119.358038 1098.77674,119.546919 1098.77696,119.720603 C1098.42115,119.720386 1098.06523,119.719734 1097.70952,119.719083 L1097.38883,119.718432 L1095.92328,119.720603 C1094.33085,119.723316 1092.73852,119.725813 1091.14609,119.727767 L1091.08535,119.727876 C1090.77537,119.727876 1090.45909,119.725379 1090.1533,119.723099 L1090.01769,119.722231 C1090.01747,119.035746 1090.01747,118.34937 1090.01747,117.662885 C1090.01736,116.702306 1090.01725,115.719799 1090.0167,114.737293 C1090.4201,115.10789 1090.83401,115.479139 1091.2404,115.84344 C1091.94186,116.471958 1092.66729,117.121861 1093.30703,117.742671 C1093.40266,117.835484 1093.50382,117.917115 1093.60862,117.985394 C1093.90237,118.176881 1094.18088,118.240058 1094.42096,118.240058 C1094.59312,118.240058 1094.74541,118.207601 1094.86931,118.166242 C1095.11293,118.085154 1095.33136,117.948487 1095.53743,117.748533 C1096.17772,117.126311 1096.90524,116.474781 1097.60903,115.844852 C1097.99698,115.497593 1098.39177,115.143712 1098.7774,114.790483 C1098.77718,115.714915 1098.77707,116.639346 1098.77707,117.563777 L1098.77696,118.364242 C1098.77696,118.574833 1098.77674,118.785316 1098.77773,118.995148 C1098.77785,119.027496 1098.78027,119.057131 1098.7837,119.083075 C1098.7805,119.108476 1098.77807,119.137243 1098.77785,119.16894 L1098.77785,119.16894 Z M1098.52076,113.395369 C1097.97125,113.914683 1097.37535,114.448218 1096.7957,114.967206 C1096.08308,115.605168 1095.34616,116.265058 1094.68843,116.904105 C1094.61466,116.975749 1094.54906,117.019605 1094.48203,117.041966 C1094.44404,117.05445 1094.39225,117.071818 1094.2764,116.996374 C1094.2372,116.970647 1094.19667,116.937648 1094.1557,116.898026 C1093.49863,116.260607 1092.76447,115.602454 1092.05417,114.966121 C1091.47595,114.447784 1090.88171,113.915226 1090.33121,113.395478 L1098.52076,113.395369 Z M1100,119.081338 C1099.99978,119.024131 1099.99238,118.975608 1099.98542,118.940763 C1099.98465,118.748843 1099.98476,118.556922 1099.98476,118.364893 L1099.98487,117.563886 C1099.98487,116.211216 1099.98487,114.858546 1099.98542,113.505875 L1099.98564,113.47103 C1099.9862,113.382669 1099.9862,113.345978 1099.98476,113.315909 C1099.9841,113.300712 1099.98432,113.285514 1099.98432,113.270317 C1099.98443,113.232758 1099.98454,113.186297 1099.98056,113.132998 C1099.95969,112.858361 1099.83678,112.619329 1099.62475,112.44152 C1099.34591,112.208024 1099.02731,112.208024 1098.92251,112.208024 L1089.92404,112.208133 L1089.91322,112.208024 L1089.88142,112.208133 C1089.27846,112.213235 1088.80669,112.671977 1088.80746,113.252406 C1088.80934,114.722529 1088.80945,116.217403 1088.80945,117.662885 C1088.80956,118.397784 1088.80956,119.132575 1088.80978,119.86704 C1088.80978,119.942484 1088.81431,120.057223 1088.85362,120.182058 C1088.99089,120.619958 1089.39275,120.905125 1089.87744,120.90849 L1090.14402,120.910336 C1090.45213,120.912724 1090.77073,120.915112 1091.08535,120.915112 L1091.14741,120.915112 C1092.74007,120.913158 1094.33272,120.910553 1095.92527,120.907839 L1097.2118,120.905777 L1097.70709,120.906319 C1098.12033,120.907188 1098.53357,120.907839 1098.94681,120.907839 L1098.98756,120.907839 C1099.21262,120.907622 1099.42465,120.834349 1099.60145,120.695836 C1099.77682,120.558192 1099.98586,120.305591 1099.98509,119.882346 C1099.98454,119.685757 1099.98432,119.456278 1099.98542,119.226364 C1099.99249,119.190542 1100,119.140825 1100,119.081338 L1100,119.081338 Z" id="联系人-icon"></path>
        </g>
    </g>
</svg>