<?xml version="1.0" encoding="UTF-8"?>
<svg width="10px" height="10px" viewBox="0 0 10 10" version="1.1" xmlns="http://www.w3.org/2000/svg" xmlns:xlink="http://www.w3.org/1999/xlink">
    <!-- Generator: Sketch 63 (92445) - https://sketch.com -->
    <title>复制 copy</title>
    <desc>Created with Sketch.</desc>
    <defs>
        <polygon id="path-1" points="0 0 9.95805031 0 9.95805031 9.95805031 0 9.95805031"></polygon>
    </defs>
    <g id="页面-1" stroke="none" stroke-width="1" fill="none" fill-rule="evenodd">
        <g id="规范" transform="translate(-714.000000, -2039.000000)">
            <g id="复制-copy" transform="translate(714.000000, 2039.000000)">
                <mask id="mask-2" fill="white">
                    <use xlink:href="#path-1"></use>
                </mask>
                <g id="Clip-2"></g>
                <path d="M6.55136478,8.12367925 C6.55136478,7.90657233 6.72733962,7.73059748 6.94444654,7.73059748 C7.16155346,7.73059748 7.3375283,7.90657233 7.3375283,8.12367925 L7.3375283,9.04084906 C7.3375283,9.54745283 6.92689937,9.95808176 6.42035849,9.95808176 L0.917213836,9.95808176 C0.410610063,9.95808176 -1.88679245e-05,9.54745283 -1.88679245e-05,9.04084906 L-1.88679245e-05,3.5377044 C-1.88679245e-05,3.03116352 0.410610063,2.62053459 0.917213836,2.62053459 L1.83438365,2.62053459 C2.05149057,2.62053459 2.22746541,2.79650943 2.22746541,3.01361635 C2.22746541,3.23072327 2.05149057,3.40669811 1.83438365,3.40669811 L0.917213836,3.40669811 C0.844823899,3.40669811 0.786144654,3.46537736 0.786144654,3.5377044 L0.786144654,9.04084906 C0.786144654,9.1131761 0.844823899,9.17191824 0.917213836,9.17191824 L6.42035849,9.17191824 C6.49268553,9.17191824 6.55136478,9.1131761 6.55136478,9.04084906 L6.55136478,8.12367925 Z M3.53771698,0.786132075 C3.46538994,0.786132075 3.40671069,0.844811321 3.40671069,0.917201258 L3.40671069,6.42034591 C3.40671069,6.49267296 3.46538994,6.5513522 3.53771698,6.5513522 L9.04086164,6.5513522 C9.11325157,6.5513522 9.17193082,6.49267296 9.17193082,6.42034591 L9.17193082,0.917201258 C9.17193082,0.844811321 9.11325157,0.786132075 9.04086164,0.786132075 L3.53771698,0.786132075 Z M3.53771698,-3.14465409e-05 L9.04086164,-3.14465409e-05 C9.54746541,-3.14465409e-05 9.95809434,0.410597484 9.95809434,0.917201258 L9.95809434,6.42034591 C9.95809434,6.92688679 9.54746541,7.33751572 9.04086164,7.33751572 L3.53771698,7.33751572 C3.0311761,7.33751572 2.62054717,6.92688679 2.62054717,6.42034591 L2.62054717,0.917201258 C2.62054717,0.410597484 3.0311761,-3.14465409e-05 3.53771698,-3.14465409e-05 L3.53771698,-3.14465409e-05 Z" id="Fill-1" fill="#2EABFF" mask="url(#mask-2)"></path>
            </g>
        </g>
    </g>
</svg>