<?xml version="1.0" encoding="UTF-8"?>
<svg width="15px" height="15px" viewBox="0 0 15 15" version="1.1" xmlns="http://www.w3.org/2000/svg" xmlns:xlink="http://www.w3.org/1999/xlink">
    <!-- Generator: Sketch 63 (92445) - https://sketch.com -->
    <title>icon-编辑</title>
    <desc>Created with Sketch.</desc>
    <defs>
        <polygon id="path-1" points="3.88726919e-05 0.0132322643 13.5970845 0.0132322643 13.5970845 13.6054422 3.88726919e-05 13.6054422"></polygon>
    </defs>
    <g id="页面-1" stroke="none" stroke-width="1" fill="none" fill-rule="evenodd">
        <g id="企业信息-种植模型-农事计划" transform="translate(-380.000000, -77.000000)">
            <g id="icon-编辑-2" transform="translate(380.000000, 77.000000)">
                <g id="icon-编辑" transform="translate(0.750000, 0.750000)">
                    <g id="编组" transform="translate(0.000000, 0.064529)">
                        <mask id="mask-2" fill="white">
                            <use xlink:href="#path-1"></use>
                        </mask>
                        <g id="Clip-2"></g>
                        <path d="M12.5776093,7.94295044 C12.5779203,7.6614344 12.806414,7.43348494 13.08793,7.43379592 C13.3690573,7.4341069 13.5967736,7.66190087 13.5970845,7.94295044 L13.5970845,11.6946317 C13.5964626,12.7496365 12.7414189,13.6048358 11.6862585,13.6054577 L1.91086492,13.6054577 C0.855860058,13.6048358 0.000660835763,12.749792 3.88726919e-05,11.6946317 L3.88726919e-05,1.92405831 C3.88726919e-05,0.869519922 0.854305151,0.0143206997 1.90884354,0.0132322643 L6.13539359,0.0132322643 C6.41690962,0.0135432459 6.64478134,0.242036929 6.6445481,0.523552964 C6.64423712,0.804680272 6.41644315,1.0323965 6.13539359,1.03270748 L1.90798834,1.03270748 C1.41640428,1.03379592 1.01858115,1.43255199 1.01858115,1.92405831 L1.01858115,11.6944762 C1.01920311,12.186449 1.41780369,12.5852051 1.90993197,12.585827 L11.6814383,12.585827 C12.1734111,12.5852051 12.5721672,12.1866045 12.5727891,11.6944762 L12.5727891,7.94295044 L12.5776093,7.94295044 Z" id="Fill-1" fill="#FFFFFF" mask="url(#mask-2)"></path>
                    </g>
                    <path d="M4.47614383,6.98707094 L10.4862507,0.976964043 C10.8179903,0.645535471 11.3555219,0.645535471 11.6873392,0.976964043 L13.1291273,2.41875219 C13.4610224,2.75041399 13.4611778,3.28825656 13.1297493,3.6201516 L13.1291273,3.62077357 L7.11808746,9.63088047 C7.04663946,9.70248397 6.95536638,9.75115258 6.85600777,9.77074441 L4.50739747,10.2309971 C4.23124587,10.2853411 3.96317979,10.1053605 3.90883576,9.82920894 C3.89655199,9.76693489 3.89608552,9.70302818 3.9073586,9.64075413 L4.33355879,7.25809135 C4.35190671,7.1553897 4.40143052,7.06085131 4.47536638,6.98722643 L4.47614383,6.98707094 Z M5.31011856,7.59472886 L5.04314091,9.08604082 L6.50833042,8.79480661 L12.2892439,3.01871331 L11.0872225,1.81669193 L5.31011856,7.59387366 L5.31011856,7.59472886 Z" id="Fill-3" fill="#FFFFFF"></path>
                </g>
            </g>
        </g>
    </g>
</svg>