<?xml version="1.0" encoding="UTF-8"?>
<svg width="13px" height="13px" viewBox="0 0 13 13" version="1.1" xmlns="http://www.w3.org/2000/svg" xmlns:xlink="http://www.w3.org/1999/xlink">
    <!-- Generator: Sketch 63 (92445) - https://sketch.com -->
    <title>icon-添加图片</title>
    <desc>Created with Sketch.</desc>
    <g id="页面-1" stroke="none" stroke-width="1" fill="none" fill-rule="evenodd">
        <g id="企业信息-种植模型-农事计划" transform="translate(-401.000000, -79.000000)" fill="#FFFFFF">
            <g id="icon-添加图片" transform="translate(407.500000, 85.500000) rotate(-45.000000) translate(-407.500000, -85.500000) translate(400.000000, 78.000000)">
                <path d="M7.5,4.73542076e-13 C7.96023729,4.73570258e-13 8.33333333,0.373096042 8.33333333,0.833333333 L8.333,6.666 L14.1666667,6.66666667 C14.626904,6.66666667 15,7.03976271 15,7.5 C15,7.96023729 14.626904,8.33333333 14.1666667,8.33333333 L8.333,8.333 L8.33333333,14.1666667 C8.33333333,14.626904 7.96023729,15 7.5,15 C7.03976271,15 6.66666667,14.626904 6.66666667,14.1666667 L6.666,8.333 L0.833333333,8.33333333 C0.373096042,8.33333333 4.7375152e-13,7.96023729 4.73695157e-13,7.5 C4.73638794e-13,7.03976271 0.373096042,6.66666667 0.833333333,6.66666667 L6.666,6.666 L6.66666667,0.833333333 C6.66666667,0.373096042 7.03976271,4.73513895e-13 7.5,4.73542076e-13 Z" id="icon-添加"></path>
            </g>
        </g>
    </g>
</svg>