<?xml version="1.0" encoding="UTF-8"?>
<svg width="51px" height="66px" viewBox="0 0 51 66" version="1.1" xmlns="http://www.w3.org/2000/svg" xmlns:xlink="http://www.w3.org/1999/xlink">
    <!-- Generator: Sketch 63 (92445) - https://sketch.com -->
    <title>icon_base copy 2</title>
    <desc>Created with Sketch.</desc>
    <g id="页面-1" stroke="none" stroke-width="1" fill="none" fill-rule="evenodd" opacity="0.6">
        <g id="数据概览" transform="translate(-1123.000000, -88.000000)" fill="#2F3E5A" fill-rule="nonzero">
            <g id="总览4" transform="translate(980.000000, 80.000000)">
                <g id="icon_base-copy-2" transform="translate(143.000000, 8.000000)">
                    <path d="M25.5,9 C21.3578644,9 18,12.3578644 18,16.5 C18,20.6421356 21.3578644,24 25.5,24 C29.6421356,24 33,20.6421356 33,16.5 C32.9909768,12.3616077 29.6383923,9.00902316 25.5,9 Z" id="路径_139-path"></path>
                    <path d="M17.3267463,9.6361961 C18.224348,8.80436594 18.224348,7.45570278 17.3267463,6.62387262 C16.4291447,5.79204246 14.9738448,5.79204246 14.0762432,6.62387262 C7.30791894,12.9110544 7.30791894,23.088897 14.0762432,29.3760788 C14.6568896,29.9141786 15.5032003,30.1243305 16.2963782,29.9273723 C17.089556,29.7304142 17.7090984,29.1562685 17.9216298,28.4212105 C18.1341611,27.6861526 17.9073928,26.901855 17.3267463,26.3637553 C12.3508603,21.7412944 12.3508603,14.258657 17.3267463,9.6361961 L17.3267463,9.6361961 Z" id="路径_140"></path>
                    <path d="M36.9141238,6.5767026 C36.0107009,5.78923397 34.5991062,5.81081344 33.7239484,6.62547176 C32.8487906,7.44013009 32.8256085,8.75414144 33.6715575,9.59511084 C36.0673382,11.8138328 37.4143116,14.8299393 37.4143116,17.9757849 C37.4143116,21.1216305 36.0673382,24.137737 33.6715575,26.3564589 C32.7761475,27.1899694 32.7761475,28.5413568 33.6715575,29.3748672 C34.5669674,30.2083776 36.0187138,30.2083776 36.9141238,29.3748672 C40.1698916,26.3556141 42,22.2537534 42,17.9757849 C42,13.6978164 40.1698916,9.59595568 36.9141238,6.5767026 L36.9141238,6.5767026 Z" id="路径_141"></path>
                    <path d="M4.54828562,17.9685971 C4.53617584,12.4999793 6.97584354,7.25422568 11.3236873,3.40018376 C12.1458365,2.60047243 12.1170994,1.36503144 11.2584706,0.596450623 C10.3998418,-0.172130193 9.01543154,-0.201633944 8.11666382,0.529494251 C2.92073218,5.14813768 0,11.4230901 0,17.9674775 C0,24.511865 2.92073218,30.7868174 8.11666382,35.4054608 C9.00503072,36.1981798 10.445358,36.1981797 11.3337248,35.4054607 C12.2220917,34.6127417 12.2220917,33.3274903 11.3337249,32.5347713 C6.98281684,28.6827544 4.53950072,23.4377339 4.54828562,17.9685971 L4.54828562,17.9685971 Z" id="路径_142"></path>
                    <path d="M42.9309194,0.640787912 C42.3638852,0.101259764 41.5118987,-0.120057846 40.7082683,0.0634174361 C39.9046379,0.246892718 39.2771088,0.805995595 39.0711788,1.52199768 C38.8652488,2.23799977 39.1136525,2.99708512 39.7192111,3.50228958 C48.7055615,11.5281155 48.7055615,24.520036 39.7192111,32.5458619 C38.8323224,33.3360438 38.8323224,34.6171817 39.7192111,35.4073636 C40.6060999,36.1975455 42.0440307,36.1975455 42.9309194,35.4073636 C53.6896935,25.8006743 53.6896935,10.2474772 42.9309194,0.640787912 L42.9309194,0.640787912 Z" id="路径_143"></path>
                    <polygon id="矩形_1" transform="translate(29.534195, 47.511197) rotate(-44.432734) translate(-29.534195, -47.511197) " points="27.3800727 32.0117467 31.5663538 32.0282236 31.6883174 63.0106473 27.5020363 62.9941704"></polygon>
                    <polygon id="矩形_2" transform="translate(21.519115, 47.501982) rotate(-45.486233) translate(-21.519115, -47.501982) " points="5.99429795 45.3478079 37.0274546 45.4699762 37.0439321 49.6561562 6.01077549 49.5339879"></polygon>
                    <path d="M44.8615471,63.118312 L30.8759655,22.3328524 C30.4771414,21.2743503 29.3492164,20.7395499 28.3285317,21.1249984 C27.307847,21.5104469 26.7634265,22.6767871 27.0989507,23.7591936 L41.0823184,64.5446532 C41.3088095,65.275317 41.8964023,65.8186894 42.615701,65.9626382 C43.3349997,66.106587 44.0719498,65.8282872 44.5388466,65.2363869 C45.0057433,64.6444866 45.1285539,63.8328395 44.8593332,63.118312 L44.8615471,63.118312 Z" id="路径_144"></path>
                    <path d="M22.6820068,21.1248834 C21.6442438,20.73185 20.500129,21.2973172 20.1243258,22.3889915 L6.14409885,63.111828 C5.87165768,63.8257046 5.99106181,64.6392257 6.45546432,65.2332151 C6.91986683,65.8272045 7.65519088,66.1069149 8.37294006,65.962605 C9.09068925,65.8182952 9.67637539,65.2729838 9.90021089,64.5406181 L23.8804379,23.8177816 C24.0610539,23.2933769 24.0362293,22.714881 23.811434,22.2097615 C23.5866387,21.7046421 23.1803198,21.3143499 22.6820068,21.1248834 L22.6820068,21.1248834 Z" id="路径_145"></path>
                </g>
            </g>
        </g>
    </g>
</svg>