<?xml version="1.0" encoding="UTF-8"?>
<svg width="69px" height="54px" viewBox="0 0 69 54" version="1.1" xmlns="http://www.w3.org/2000/svg" xmlns:xlink="http://www.w3.org/1999/xlink">
    <!-- Generator: Sketch 63 (92445) - https://sketch.com -->
    <title>icon_equiptment copy 2</title>
    <desc>Created with Sketch.</desc>
    <g id="页面-1" stroke="none" stroke-width="1" fill="none" fill-rule="evenodd" opacity="0.6">
        <g id="数据概览" transform="translate(-651.000000, -90.000000)" fill="#2F3E5A" fill-rule="nonzero">
            <g id="总览2" transform="translate(526.000000, 80.000000)">
                <g id="icon_equiptment-copy-2" transform="translate(159.500000, 37.000000) scale(-1, 1) translate(-159.500000, -37.000000) translate(125.000000, 10.000000)">
                    <path d="M0.724733728,24.1721902 L39.716379,0.898937303 C42.8348781,-0.870508794 46.7265328,0.0406063255 48.8221434,3.03078107 L56.3741065,14.2990981 C57.3818275,15.803493 57.7388137,17.6800674 57.3581966,19.4721782 C56.9775795,21.264289 55.8942575,22.8076197 54.3718445,23.7266183 L46.1500651,28.6774167 L47.6348725,30.7462503 C49.3232529,33.0633038 49.2936788,36.2797047 47.5630038,38.5625107 L49.7521244,41.9980647 L60.3757558,41.9980647 L60.3757558,37.4823365 C60.3761234,37.0859381 60.5281411,36.7061062 60.7980374,36.4272222 C61.0679338,36.1483381 61.4333581,35.9934968 61.8131299,35.997097 L67.562626,35.997097 C67.9423977,35.9934968 68.3078221,36.1483381 68.5777184,36.4272222 C68.8476148,36.7061062 69,37.0859381 69,37.4823365 L69,52.4997581 C69,53.3283188 68.3564657,54 67.562626,54 L61.8131299,54 C61.0192901,54 60.3757558,53.3283188 60.3757558,52.4997581 L60.3757558,50.9995162 L49.739188,50.9995162 C46.8540563,51.0032363 44.159178,49.4974337 42.5623795,46.9893695 L40.2065235,43.2972742 C39.7546201,43.4140959 39.2920139,43.4799834 38.8266444,43.4938058 C36.5260254,43.4872063 34.3956856,42.2272704 33.2079494,40.17077 L31.6268379,37.4208266 L19.4105961,44.8020168 C19.0673992,45.009033 18.6575292,45.0589338 18.277896,44.9399205 C17.8982628,44.8209072 17.5825697,44.5435456 17.4054593,44.1734154 L16.3418025,41.9470564 C16.1664429,41.9605586 15.9997075,41.9995649 15.8214731,41.9995649 C10.2646104,41.9896407 5.76380921,37.2872857 5.75985494,31.4873698 C5.770351,30.8269991 5.84548484,30.1694772 5.98408529,29.5250533 L0.809538796,26.8246179 C0.329897235,26.5815341 0.0185865227,26.0813025 0.000803140399,25.5250959 C-0.0169802419,24.9688893 0.261686026,24.4481085 0.724733728,24.1721902 Z M63.2505039,51.0070174 L66.1252519,51.0070174 L66.1252519,38.9975808 L63.2505039,38.9975808 L63.2505039,50.9995162 L63.2505039,51.0070174 Z M44.9685436,45.3391034 C46.0332785,47.0102106 47.8293375,48.0134226 49.7521244,48.0110385 L60.3757558,48.0110385 L60.3757558,45.0105504 L49.739188,45.0105504 C48.777431,45.0125249 47.8789704,44.5103963 47.3473977,43.6738349 L45.369571,40.5563322 L42.9015998,42.1015813 L44.9685436,45.3391034 Z M35.6874196,38.6465242 C36.7675026,40.4129759 38.9818458,40.9906098 40.731165,39.9622364 L44.3763455,37.6788682 C45.1894603,37.1682847 45.7576176,36.322437 45.9402925,35.3505326 C46.1229674,34.3786283 45.9031011,33.3714274 45.335074,32.5780456 L43.6418474,30.2211656 L34.1321809,35.947589 L35.6874196,38.6465242 Z M14.8828679,38.9105668 L11.8730067,32.6200524 L8.67916159,30.9547839 C8.66335048,31.1393136 8.63172825,31.3298444 8.63172825,31.5068729 C8.64355778,35.2607564 11.3162299,38.4255612 14.8828679,38.9090665 L14.8828679,38.9105668 Z M12.8949796,29.7995976 L48.7531495,8.20811593 L46.4662874,4.79206508 C45.2674157,3.00611842 42.9629034,2.46654952 41.1480035,3.54686429 L4.4892163,25.4128902 L12.8949796,29.7995976 Z" id="cam01"></path>
                </g>
            </g>
        </g>
    </g>
</svg>