<?xml version="1.0" encoding="UTF-8"?>
<svg width="75px" height="60px" viewBox="0 0 75 60" version="1.1" xmlns="http://www.w3.org/2000/svg" xmlns:xlink="http://www.w3.org/1999/xlink">
    <!-- Generator: Sketch 63 (92445) - https://sketch.com -->
    <title>icon_farm copy 2</title>
    <desc>Created with Sketch.</desc>
    <g id="页面-1" stroke="none" stroke-width="1" fill="none" fill-rule="evenodd" opacity="0.6">
        <g id="数据概览" transform="translate(-417.000000, -90.000000)" fill-rule="nonzero">
            <g id="总览1" transform="translate(298.000000, 80.000000)">
                <g id="icon_farm-copy-2" transform="translate(119.000000, 10.000000)">
                    <path d="M19.5,27 C10.4019043,27 3,34.4019043 3,43.5 C3,52.5980957 10.4019043,60 19.5,60 C28.5980957,60 36,52.5980957 36,43.5 C36,34.4019043 28.5980957,27 19.5,27 Z M19.5,55.875 C12.6765625,55.875 7.125,50.3234375 7.125,43.5 C7.125,36.6765625 12.6765625,31.125 19.5,31.125 C26.3234375,31.125 31.875,36.6765625 31.875,43.5 C31.875,50.3234375 26.3234375,55.875 19.5,55.875 Z" id="形状" fill="#2F3E5A"></path>
                    <path d="M19.5,39 C17.01875,39 15,41.01875 15,43.5 C15,45.98125 17.01875,48 19.5,48 C21.98125,48 24,45.98125 24,43.5 C24,41.01875 21.98125,39 19.5,39 Z" id="路径" fill="#29364E"></path>
                    <path d="M70.6175144,37.5686384 L70.6175144,30 C70.6175144,25.2734374 66.6858314,21.4285714 61.8525432,21.4285714 L57.4700576,21.4285714 L57.4700576,10.7142857 C57.4700576,9.53292414 58.4532637,8.57142857 59.6613004,8.57142857 L59.6613004,4.28571429 C56.0366196,4.28571429 53.087572,7.16964286 53.087572,10.7142857 L53.087572,21.4285714 L43.4694997,21.4285714 L38.210517,4.28571429 L39.6963352,4.28571429 C40.8798025,4.28571429 41.8391923,3.32632446 41.8391923,2.14285714 C41.8391923,0.959389822 40.8798025,6.44393873e-15 39.6963352,0 L8.92216466,0 C7.73869734,-7.88964779e-16 6.77930751,0.959389822 6.77930751,2.14285714 C6.77930751,3.32632446 7.73869734,4.28571429 8.92216466,4.28571429 L11.1617931,4.28571429 L11.1617931,4.28571429 L11.1617931,17.9626116 C8.55860743,18.6209089 5.21797423,20.2431222 3.01793402,21.5695313 C2.08856384,22.1298506 1.3880034,22.6357178 1.00161658,23.0212054 C-0.210169799,24.2301718 -0.217091842,25.6840217 0.42192343,26.4 C1.47938731,27.5848249 3.50172675,26.5716797 3.79202726,26.3258929 C4.08232776,26.080106 3.91568784,26.226595 3.97790343,26.1774771 C7.85889278,23.1135136 12.734744,21.4285714 17.7355215,21.4285714 C29.8181713,21.4285714 39.6479495,31.0412946 39.6479495,42.8571429 L39.6479495,46.2857143 C39.6479495,47.9425685 40.9910953,49.2857143 42.6479495,49.2857143 L48.8888312,49.2857143 L48.8888312,49.2857143 C49.9353779,55.358817 55.3495737,60 61.8525432,60 C69.1019048,60 75,54.2321429 75,47.1428571 C75,43.34375 73.3057813,39.9246651 70.6175144,37.5686384 Z M15.5442787,17.233817 L15.5442787,4.28571429 L33.6351565,4.28571429 L38.8941392,21.4285714 L32.2536463,21.4285714 C28.0902849,18.7220983 23.0983601,17.1428571 17.7355215,17.1428571 C17.0022541,17.1428571 16.2712691,17.1741071 15.5442787,17.233817 Z M37.3163301,25.7142857 L61.8525432,25.7142857 C64.2691873,25.7142857 66.2350288,27.6367187 66.2350288,30 L66.2350288,35.0212054 C64.8637901,34.5457589 63.3886957,34.2857143 61.8525432,34.2857143 L42.5262382,34.2857143 C41.3684175,31.093192 39.5840383,28.188616 37.3163301,25.7142857 Z M43.6629454,38.5714286 L52.0621389,38.5714286 C50.4386791,40.342634 49.3099607,42.5552456 48.8888312,45 L44.0304351,45 L44.0304351,42.8571429 C44.0304351,41.3973214 43.9037538,39.9659599 43.6629454,38.5714286 L43.6629454,38.5714286 Z M61.8525432,55.7142857 C57.019255,55.7142857 53.087572,51.8694197 53.087572,47.1428571 C53.087572,42.4162946 57.019255,38.5714286 61.8525432,38.5714286 C66.6858314,38.5714286 70.6175144,42.4162946 70.6175144,47.1428571 C70.6175144,51.8694197 66.6858314,55.7142857 61.8525432,55.7142857 Z" id="形状" fill="#2F3E5A"></path>
                </g>
            </g>
        </g>
    </g>
</svg>