<?xml version="1.0" encoding="UTF-8"?>
<svg width="20px" height="15px" viewBox="0 0 20 15" version="1.1" xmlns="http://www.w3.org/2000/svg" xmlns:xlink="http://www.w3.org/1999/xlink">
    <!-- Generator: Sketch 63 (92445) - https://sketch.com -->
    <title>数据信息-icon</title>
    <desc>Created with Sketch.</desc>
    <defs>
        <polygon id="path-1" points="0 1.05633803e-05 19.9591886 1.05633803e-05 19.9591886 14.9003873 0 14.9003873"></polygon>
    </defs>
    <g id="页面-1" stroke="none" stroke-width="1" fill="none" fill-rule="evenodd">
        <g id="摄像头设备-详情" transform="translate(-318.000000, -328.000000)">
            <g id="数据信息-icon" transform="translate(318.000000, 328.000000)">
                <mask id="mask-2" fill="white">
                    <use xlink:href="#path-1"></use>
                </mask>
                <g id="Clip-2"></g>
                <path d="M19.2462743,13.54575 L1.42547429,13.54575 L1.42547429,0.677334507 C1.42547429,0.303073944 1.10650286,1.05633803e-05 0.712902857,1.05633803e-05 C0.31896,1.05633803e-05 -1.14285714e-05,0.303073944 -1.14285714e-05,0.677334507 L-1.14285714e-05,14.2233908 C-1.14285714e-05,14.5976514 0.31896,14.9003979 0.712902857,14.9003979 L19.2462743,14.9003979 C19.6398743,14.9003979 19.9591886,14.5976514 19.9591886,14.2233908 C19.9591886,13.8492359 19.63976,13.54575 19.2462743,13.54575 M5.12741714,8.48536268 L9.14787429,4.59751056 L13.0338171,8.35585563 C13.0636457,8.39874296 13.0831886,8.44733451 13.12296,8.48546831 C13.4415886,8.79381338 13.95736,8.79381338 14.2751886,8.48546831 L18.7394171,4.16832042 C18.7882171,4.13779225 18.8354171,4.10208803 18.8780457,4.06078521 C19.2035314,3.74589085 19.2035314,3.23525704 18.8780457,2.92004577 C18.5521029,2.60504577 18.0235314,2.60504577 17.69816,2.92004577 C17.67416,2.94381338 17.6636457,2.97476408 17.6427314,3.00032746 L13.7219314,6.79268662 L9.75393143,2.95490493 C9.74387429,2.94413028 9.74044571,2.93029225 9.72993143,2.91994014 C9.40421714,2.60494014 8.87610286,2.60494014 8.55004571,2.91994014 C8.52593143,2.94381338 8.51587429,2.97465845 8.49530286,3.00032746 L3.97507429,7.37198239 C3.65690286,7.67958803 3.65690286,8.17839085 3.97507429,8.48546831 C4.29336,8.79381338 4.80947429,8.79381338 5.12741714,8.48536268" id="Fill-1" fill="#48A4FF" mask="url(#mask-2)"></path>
            </g>
        </g>
    </g>
</svg>