<?xml version="1.0" encoding="UTF-8"?>
<svg width="19px" height="19px" viewBox="0 0 19 19" version="1.1" xmlns="http://www.w3.org/2000/svg" xmlns:xlink="http://www.w3.org/1999/xlink">
    <!-- Generator: Sketch 63 (92445) - https://sketch.com -->
    <title>投入品-正常 copy 3</title>
    <desc>Created with Sketch.</desc>
    <defs>
        <polygon id="path-1" points="-4.88498131e-13 -4.86721774e-13 18.999981 -4.86721774e-13 18.999981 18.999981 -4.88498131e-13 18.999981"></polygon>
    </defs>
    <g id="页面-1" stroke="none" stroke-width="1" fill="none" fill-rule="evenodd">
        <g id="数据统计" transform="translate(-318.000000, -868.000000)">
            <g id="投入品-正常-copy-3" transform="translate(318.000000, 868.000000)">
                <g id="编组">
                    <g>
                        <mask id="mask-2" fill="white">
                            <use xlink:href="#path-1"></use>
                        </mask>
                        <g id="Clip-2"></g>
                        <path d="M4.377125,17.0240057 C3.87353,17.025235 3.39017,16.82545 3.0343,16.4692 L2.53061,15.965415 C1.791225,15.226125 1.79075,14.02086 2.53004,13.278625 L3.027175,12.781585 C3.212615,12.59605 3.513385,12.595955 3.69892,12.781395 C3.884455,12.966835 3.884455,13.267605 3.699015,13.45314 L3.20264,13.94961 C2.832995,14.32144 2.832995,14.921935 3.20264,15.293765 L3.706425,15.79755 C4.075975,16.16729 4.679415,16.16729 5.05134,15.79679 L5.54705,15.30089 C5.73249,15.115355 6.03326,15.115355 6.218795,15.300795 C6.40433,15.486235 6.404425,15.787005 6.21889,15.972635 L5.722515,16.4692 C5.365315,16.82507 4.881385,17.024665 4.377125,17.0240057 M15.636715,6.35787554 C15.37442,6.35797 15.16162,6.14536 15.16162,5.88297 C15.16162,5.756905 15.211685,5.635875 15.30089,5.546765 L15.79755,5.05039 C16.167385,4.678465 16.167385,4.077685 15.79755,3.705665 L15.293765,3.202165 C14.923835,2.83214 14.32049,2.832615 13.94885,3.20264 L13.45314,3.69835 C13.267605,3.88379 12.966835,3.88379 12.781395,3.698255 C12.595955,3.512625 12.59605,3.21195 12.781585,3.026415 L13.277865,2.53004 C14.020575,1.790465 15.226125,1.790465 15.965415,2.53004 L16.4692,3.03354 C17.20849,3.773115 17.208965,4.97876 16.469865,5.72109 L15.972635,6.218225 C15.88381,6.30781 15.762875,6.358065 15.636715,6.35787554 M3.363,6.35787554 C3.23703,6.358065 3.11619,6.308 3.027175,6.21889 L2.5308,5.722515 C1.79094,4.979425 1.791225,3.773875 2.5308,3.0343 L3.03449,2.5308 C3.773875,1.79094 4.979425,1.79075 5.72185,2.53004 L6.21889,3.027175 C6.404425,3.21271 6.404425,3.51348 6.21889,3.699015 C6.033355,3.88455 5.732585,3.88455 5.54705,3.699015 L5.050675,3.20264 C4.67875,2.832995 4.078065,2.832995 3.706235,3.20264 L3.20264,3.706235 C2.8329,4.07626 2.83309,4.6797 3.2034,5.051625 L3.699015,5.54705 C3.884455,5.732585 3.884455,6.033355 3.69892,6.218795 C3.60981,6.307905 3.48897,6.35787554 3.363,6.35787554 M14.6224,17.0241941 C14.118615,17.025045 13.635065,16.82564 13.27834,16.469865 L12.7813,15.972635 C12.59263,15.79033 12.587405,15.489655 12.769615,15.30089 C12.95192,15.11222 13.252595,15.106995 13.441265,15.289205 C13.445255,15.2931 13.44915,15.2969 13.45295,15.30089 L13.949325,15.79755 C14.32049,16.16691 14.923835,16.167765 15.29405,15.79755 L15.797075,15.29405 C16.167005,14.921935 16.16691,14.32068 15.7966,13.94885 L15.30089,13.45314 C15.11222,13.27093 15.106995,12.97016 15.289205,12.78149 C15.47151,12.59282 15.772185,12.587595 15.96095,12.7699 C15.96494,12.7737 15.968835,12.777595 15.972635,12.78149 L16.468915,13.277865 C17.20868,14.02086 17.208205,15.226125 16.468915,15.965415 L15.96589,16.468915 C15.609735,16.825355 15.126185,17.025235 14.6224,17.0241941 M2.600625,11.75625 L1.9,11.75625 C0.85234,11.75625 0,10.903815 0,9.85625 L0,9.14375 C0,8.09609 0.85234,7.24375 1.9,7.24375 L2.600625,7.24375 C2.86292,7.24375 3.075625,7.456455 3.075625,7.71875 C3.075625,7.981045 2.86292,8.19375 2.600625,8.19375 L1.9,8.19375 C1.376075,8.19375 0.95,8.619825 0.95,9.14375 L0.95,9.85625 C0.95,10.38008 1.376075,10.80625 1.9,10.80625 L2.600625,10.80625 C2.86292,10.80625 3.075625,11.01886 3.075625,11.28125 C3.075625,11.54364 2.86292,11.75625 2.600625,11.75625 M17.1,11.75625 L16.399375,11.75625 C16.136985,11.75625 15.924375,11.54364 15.924375,11.28125 C15.924375,11.01886 16.136985,10.80625 16.399375,10.80625 L17.1,10.80625 C17.62383,10.80625 18.05,10.38008 18.05,9.85625 L18.05,9.14375 C18.05,8.619825 17.62383,8.19375 17.1,8.19375 L16.399375,8.19375 C16.136985,8.19375 15.924375,7.981045 15.924375,7.71875 C15.924375,7.456455 16.136985,7.24375 16.399375,7.24375 L17.1,7.24375 C18.147565,7.24375 19,8.09609 19,9.14375 L19,9.85625 C19,10.903815 18.147565,11.75625 17.1,11.75625 M11.28125,3.075625 C11.01886,3.075625 10.80625,2.86292 10.80625,2.600625 L10.80625,1.9 C10.80625,1.376075 10.38008,0.95 9.85625,0.95 L9.14375,0.95 C8.619825,0.95 8.19375,1.376075 8.19375,1.9 L8.19375,2.600625 C8.19375,2.86292 7.981045,3.075625 7.71875,3.075625 C7.456455,3.075625 7.24375,2.86292 7.24375,2.600625 L7.24375,1.9 C7.24375,0.85234 8.09609,-1.77635684e-15 9.14375,-1.77635684e-15 L9.85625,-1.77635684e-15 C10.903815,-1.77635684e-15 11.75625,0.85234 11.75625,1.9 L11.75625,2.600625 C11.75625,2.86292 11.54364,3.075625 11.28125,3.075625 M9.85625,19 L9.14375,19 C8.09609,19 7.24375,18.147565 7.24375,17.1 L7.24375,16.399375 C7.24375,16.136985 7.456455,15.924375 7.71875,15.924375 C7.981045,15.924375 8.19375,16.136985 8.19375,16.399375 L8.19375,17.1 C8.19375,17.62383 8.619825,18.05 9.14375,18.05 L9.85625,18.05 C10.38008,18.05 10.80625,17.62383 10.80625,17.1 L10.80625,16.399375 C10.80625,16.136985 11.01886,15.924375 11.28125,15.924375 C11.54364,15.924375 11.75625,16.136985 11.75625,16.399375 L11.75625,17.1 C11.75625,18.147565 10.903815,19 9.85625,19" id="Fill-1" fill="#48A4FF" mask="url(#mask-2)"></path>
                    </g>
                    <path d="M9.499981,7.362481 C8.321506,7.362481 7.362481,8.321506 7.362481,9.499981 C7.362481,10.678646 8.321506,11.637481 9.499981,11.637481 C10.678646,11.637481 11.637481,10.678646 11.637481,9.499981 C11.637481,8.321506 10.678646,7.362481 9.499981,7.362481 M9.499981,12.587481 C7.797581,12.587481 6.412481,11.202381 6.412481,9.499981 C6.412481,7.797581 7.797581,6.412481 9.499981,6.412481 C11.202381,6.412481 12.587481,7.797581 12.587481,9.499981 C12.587481,11.202381 11.202381,12.587481 9.499981,12.587481 M13.116821,3.83817131 C13.031796,3.83817131 12.948196,3.815276 12.875046,3.771766 C12.340481,3.455226 11.764021,3.215826 11.162481,3.060596 C10.910541,2.987066 10.765951,2.723156 10.839576,2.471216 C10.909876,2.230486 11.155261,2.085801 11.399981,2.140806 C12.088161,2.318361 12.747841,2.592341 13.359356,2.954481 C13.585076,3.088146 13.659746,3.379511 13.526081,3.605231 C13.440486,3.749821 13.284876,3.838361 13.116821,3.83817131 M15.636506,13.5921063 C15.374401,13.592296 15.161886,13.380066 15.161601,13.117961 C15.161601,13.032556 15.184591,12.948576 15.228291,12.875046 C15.544831,12.340576 15.784136,11.764021 15.939271,11.162481 C16.004916,10.908356 16.263981,10.755596 16.518106,10.821146 C16.772231,10.886791 16.924991,11.145856 16.859441,11.399981 C16.681886,12.088161 16.407906,12.747841 16.045671,13.359356 C15.960076,13.503851 15.804466,13.592296 15.636506,13.5921063 M7.718921,16.874356 C7.678831,16.874261 7.638931,16.869226 7.599981,16.859441 C6.911706,16.681981 6.252121,16.408001 5.640606,16.045671 C5.416406,15.909536 5.345156,15.617316 5.481386,15.393116 C5.615431,15.172431 5.901286,15.099281 6.124916,15.228481 C6.659291,15.545021 7.235846,15.784421 7.837291,15.939556 C8.099586,15.938986 8.312671,16.151311 8.31314714,16.413606 C8.313716,16.675996 8.101391,16.888986 7.839096,16.8895573 C7.798531,16.889651 7.758251,16.884521 7.718921,16.874356 M2.601081,8.19373113 C2.338786,8.193921 2.125891,7.981406 2.125701,7.719111 C2.125701,7.678926 2.130736,7.638931 2.140806,7.599981 C2.318361,6.911801 2.592246,6.252121 2.954481,5.640606 C3.090711,5.416406 3.382931,5.345156 3.607131,5.481386 C3.827721,5.615431 3.900871,5.901286 3.771766,6.124916 C3.455131,6.659291 3.215731,7.235846 3.060596,7.837291 C3.006636,8.046956 2.817586,8.193541 2.601081,8.19373113 M3.363456,13.5921061 C3.195496,13.592201 3.039981,13.503851 2.954291,13.359356 C2.592246,12.747841 2.318361,12.088161 2.140806,11.399981 C2.080956,11.144431 2.239606,10.888691 2.495156,10.828841 C2.742631,10.770891 2.991816,10.917951 3.060881,11.162481 C3.216111,11.764021 3.455511,12.340481 3.771956,12.875046 C3.905621,13.100766 3.830951,13.392226 3.605231,13.525796 C3.532081,13.569211 3.448576,13.592011 3.363456,13.5921061 M11.280946,16.874356 C11.018461,16.873406 10.806516,16.659941 10.8073684,16.397456 C10.808131,16.181901 10.953956,15.993801 11.162481,15.939271 C11.764021,15.784136 12.340576,15.544831 12.875046,15.228291 C13.102286,15.097001 13.392796,15.174806 13.523896,15.402046 C13.653096,15.625581 13.579946,15.911341 13.359356,16.045481 C12.747841,16.407526 12.088161,16.681506 11.399981,16.859156 C11.361126,16.869131 11.321131,16.874261 11.280946,16.874356 M16.399071,8.193731 C16.182661,8.193541 15.993611,8.047051 15.939271,7.837481 C15.784231,7.235941 15.544831,6.659481 15.228291,6.125106 C15.097001,5.897961 15.174806,5.607451 15.402046,5.476256 C15.625581,5.347056 15.911341,5.420206 16.045481,5.640796 C16.407716,6.252311 16.681696,6.911991 16.859156,7.600171 C16.924421,7.854391 16.771376,8.113456 16.517156,8.178816 C16.478586,8.188696 16.438971,8.193731 16.399071,8.193731 M5.883331,3.8381718 C5.620941,3.838646 5.408046,3.626321 5.40757031,3.363931 C5.407286,3.195876 5.495921,3.040076 5.640606,2.954481 C6.252121,2.592246 6.911706,2.318266 7.599981,2.140806 C7.855531,2.080956 8.111176,2.239606 8.171121,2.495156 C8.229071,2.742631 8.082106,2.991816 7.837481,3.060881 C7.235941,3.216016 6.659481,3.455321 6.125106,3.771956 C6.049106,3.816606 5.965696,3.8381718 5.883331,3.8381718" id="Fill-3" fill="#48A4FF"></path>
                </g>
            </g>
        </g>
    </g>
</svg>