<?xml version="1.0" encoding="UTF-8"?>
<svg width="20px" height="19px" viewBox="0 0 20 19" version="1.1" xmlns="http://www.w3.org/2000/svg" xmlns:xlink="http://www.w3.org/1999/xlink">
    <!-- Generator: Sketch 63 (92445) - https://sketch.com -->
    <title>经营-icon备份 2 copy</title>
    <desc>Created with Sketch.</desc>
    <defs>
        <polygon id="path-1" points="0 18.8998081 19.9750562 18.8998081 19.9750562 -2.84217094e-14 0 -2.84217094e-14"></polygon>
    </defs>
    <g id="页面-1" stroke="none" stroke-width="1" fill="none" fill-rule="evenodd">
        <g id="数据统计" transform="translate(-890.000000, -866.000000)">
            <g id="经营-icon备份-2-copy" transform="translate(890.000000, 866.000000)">
                <path d="M4.2925607,11.2409413 C4.2925607,11.9752029 4.89806742,12.5704994 5.64503371,12.5704994 C6.392,12.5704994 6.99750562,11.9752029 6.99750562,11.2409413 L6.99750562,8.83931919 C6.9972809,8.57939477 6.91907865,8.32543547 6.77278652,8.10892384 L4.51514607,8.10892384 C4.36964045,8.3256564 4.29222472,8.5796157 4.2925607,8.83931919 L4.2925607,11.2409413 Z M13.0149213,11.2409413 C13.0149213,11.9752029 13.6205393,12.5704994 14.3675056,12.5704994 C15.1143596,12.5704994 15.7199775,11.9752029 15.7199775,11.2409413 L15.7199775,8.83931919 C15.7197528,8.57939477 15.6414382,8.32543547 15.4952584,8.10892384 L13.2396404,8.10892384 C13.0934607,8.32543547 13.0151461,8.57939477 13.0149213,8.83931919 L13.0149213,11.2409413 Z" id="Fill-1" fill="#48A4FF"></path>
                <path d="M17.4406629,2.94986047 L2.56762921,2.94986047 C1.1698764,2.95438953 0.0378539326,4.06721512 0.033247191,5.44151163 L0.033247191,16.408157 C0.0378539326,17.7824535 1.1698764,18.8952791 2.56762921,18.8998081 L17.4406629,18.8998081 C18.8384157,18.8952791 19.9705506,17.7824535 19.9750449,16.408157 L19.9750449,5.44151163 C19.9705506,4.06721512 18.8384157,2.95438953 17.4406629,2.94986047 M17.4406629,4.19568605 C18.1401011,4.1967907 18.7067303,4.75397674 18.7078539,5.44151163 L18.7078539,16.408157 C18.7067303,17.0958023 18.1401011,17.6528779 17.4406629,17.6539826 L2.56762921,17.6539826 C1.86830337,17.6528779 1.3015618,17.0958023 1.3004382,16.408157 L1.3004382,5.44151163 C1.3015618,4.75397674 1.86830337,4.1967907 2.56762921,4.19568605 L17.4406629,4.19568605" id="Fill-3" fill="#48A4FF"></path>
                <mask id="mask-2" fill="white">
                    <use xlink:href="#path-1"></use>
                </mask>
                <g id="Clip-6"></g>
                <path d="M0.000112359551,9.23201163 L19.9417978,9.23201163 L19.9417978,8.00463372 L0.000112359551,8.00463372 L0.000112359551,9.23201163 Z M13.732809,-2.84217094e-14 L6.26719101,-2.84217094e-14 C5.57764045,-2.84217094e-14 5.01876404,0.549563953 5.01876404,1.22748837 L5.01876404,2.9662093 C5.01876404,3.64413372 5.57764045,4.19358721 6.26719101,4.19358721 L13.732809,4.19358721 C14.4223596,4.19358721 14.981236,3.64413372 14.981236,2.9662093 L14.981236,1.22748837 C14.981236,0.549563953 14.4223596,-2.84217094e-14 13.732809,-2.84217094e-14 L13.732809,-2.84217094e-14 Z M6.26719101,2.9662093 L13.732809,2.9662093 L13.732809,1.22737791 L6.26719101,1.22737791 L6.26719101,2.9662093 Z" id="Fill-5" fill="#48A4FF" mask="url(#mask-2)"></path>
            </g>
        </g>
    </g>
</svg>