<?xml version="1.0" encoding="UTF-8"?>
<svg width="21px" height="16px" viewBox="0 0 21 16" version="1.1" xmlns="http://www.w3.org/2000/svg" xmlns:xlink="http://www.w3.org/1999/xlink">
    <!-- Generator: Sketch 63 (92445) - https://sketch.com -->
    <title>农机-icon备份 2 copy</title>
    <desc>Created with Sketch.</desc>
    <defs>
        <polygon id="path-1" points="0 0.0643076923 20.9999685 0.0643076923 20.9999685 15.8974256 0 15.8974256"></polygon>
    </defs>
    <g id="页面-1" stroke="none" stroke-width="1" fill="none" fill-rule="evenodd">
        <g id="数据统计" transform="translate(-318.000000, -516.000000)">
            <g id="农机-icon备份-2-copy" transform="translate(318.000000, 516.000000)">
                <g id="分组" transform="translate(0.000000, 0.038256)">
                    <mask id="mask-2" fill="white">
                        <use xlink:href="#path-1"></use>
                    </mask>
                    <g id="Clip-2"></g>
                    <path d="M16.3025835,14.6634769 C14.4091185,14.6634769 12.8684535,13.1583487 12.8684535,11.3088103 C12.8684535,9.45927179 14.4091185,7.95465641 16.3025835,7.95465641 C18.1961535,7.95465641 19.7369235,9.45927179 19.7369235,11.3088103 C19.7369235,13.1583487 18.1961535,14.6634769 16.3025835,14.6634769 L16.3025835,14.6634769 Z M5.3677785,12.3342462 C4.9964985,11.2709641 3.9750585,10.4991692 2.7631485,10.4991692 C2.4584385,10.4991692 2.1710535,10.5593744 1.8965835,10.6487077 L1.8965835,7.36665641 C1.8965835,7.04522051 2.1469035,6.71301538 2.5657485,6.71301538 L8.6859885,6.71301538 C8.9398785,6.71301538 9.1690935,6.56450256 9.2675835,6.33588718 L11.1493935,1.97886154 C11.4694335,1.41619487 11.5483935,1.29814359 12.2638635,1.29814359 L16.6151685,1.29814359 C16.8470085,1.29814359 17.0350635,1.4818359 17.0352735,1.70829744 C17.0352735,1.72870769 17.0364285,1.74952821 17.0384235,1.77004103 L17.5663635,6.89434872 C17.1551835,6.78029744 16.7299335,6.72193846 16.3025835,6.72081026 C13.7128635,6.72081026 11.6053035,8.77916923 11.6053035,11.3090154 C11.6053035,11.6619385 11.6502435,12.0040923 11.7274185,12.3342462 L5.3677785,12.3342462 Z M2.7631485,14.6634769 C1.9359585,14.6634769 1.2631185,14.006759 1.2631185,13.198041 C1.2631185,12.3908615 1.9360635,11.7329128 2.7631485,11.7329128 C3.5902335,11.7329128 4.2631785,12.390759 4.2631785,13.198041 C4.2631785,14.0069641 3.5902335,14.6634769 2.7631485,14.6634769 L2.7631485,14.6634769 Z M18.8975535,7.48788718 L18.2981085,1.67373333 C18.2795235,0.783271795 17.5320285,0.0642974359 16.6153785,0.0642974359 L12.2639685,0.0642974359 C10.8991785,0.0642974359 10.4765535,0.621630769 10.0288335,1.40901538 C10.0178085,1.42829744 10.0078335,1.44819487 9.9991185,1.46860513 L8.2672485,5.47916923 L4.9039935,5.47916923 L4.9039935,2.1324 C4.9039935,1.99198974 4.8552735,1.85609231 4.7651835,1.74645128 L3.8899035,0.679476923 C3.6717135,0.413938462 3.2744985,0.371271795 3.0023385,0.583989744 C2.7300735,0.796502564 2.6857635,1.1844 2.9034285,1.45024615 C2.9036385,1.45055385 2.9039535,1.4509641 2.9041635,1.45127179 L3.6407385,2.34901538 L3.6407385,5.47916923 L2.5656435,5.47916923 C1.4997885,5.47916923 0.6333285,6.32593846 0.6333285,7.36665641 L0.6333285,11.5005026 C0.2436735,11.9655282 -3.15e-05,12.5517846 -3.15e-05,13.1982462 C-3.15e-05,14.6869641 1.2398085,15.8974256 2.7631485,15.8974256 C4.1570235,15.8974256 5.3018385,14.8804 5.4880035,13.5681949 L12.2188185,13.5681949 C13.0268985,14.9570154 14.5533885,15.8974256 16.3025835,15.8974256 C18.8924085,15.8974256 20.9999685,13.8392718 20.9999685,11.3090154 C20.9999685,9.71609231 20.1630135,8.31075897 18.8975535,7.48788718 L18.8975535,7.48788718 Z" id="Fill-1" fill="#48A4FF" mask="url(#mask-2)"></path>
                </g>
                <path d="M11.8364925,6.14003077 L13.0995375,3.05541538 C13.2290025,2.73890256 13.0713975,2.37992821 12.7474725,2.25326154 C12.4236525,2.12741538 12.0564675,2.28105641 11.9264775,2.59705641 L10.6634325,5.68167179 C10.5339675,5.99838974 10.6917825,6.35767179 11.0160225,6.48413333 C11.0904675,6.51315897 11.1697425,6.52813333 11.2499625,6.52813333 C11.5082625,6.52792821 11.7405225,6.37428718 11.8364925,6.14003077" id="Fill-3" fill="#48A4FF"></path>
            </g>
        </g>
    </g>
</svg>