<?xml version="1.0" encoding="UTF-8"?>
<svg width="18px" height="18px" viewBox="0 0 18 18" version="1.1" xmlns="http://www.w3.org/2000/svg" xmlns:xlink="http://www.w3.org/1999/xlink">
    <!-- Generator: Sketch 63 (92445) - https://sketch.com -->
    <title>设备信息-icon</title>
    <desc>Created with Sketch.</desc>
    <defs>
        <polygon id="path-1" points="0 1.02857143e-05 17.8977273 1.02857143e-05 17.8977273 18 0 18"></polygon>
        <polygon id="path-3" points="5.11363636e-05 0.0385302857 17.8979318 0.0385302857 17.8979318 14.5002866 5.11363636e-05 14.5002866"></polygon>
    </defs>
    <g id="页面-1" stroke="none" stroke-width="1" fill="none" fill-rule="evenodd">
        <g id="摄像头设备-详情" transform="translate(-318.000000, -102.000000)">
            <g id="设备信息-copy" transform="translate(298.000000, 80.000000)">
                <g id="设备信息-icon" transform="translate(20.000000, 22.000000)">
                    <g id="分组">
                        <mask id="mask-2" fill="white">
                            <use xlink:href="#path-1"></use>
                        </mask>
                        <g id="Clip-2"></g>
                        <path d="M16.6193182,1.02857143e-05 L1.27840909,1.02857143e-05 C0.572420455,1.02857143e-05 0,0.575598857 0,1.28572457 L0,16.714296 C0,17.4243189 0.572420455,18.0000103 1.27840909,18.0000103 L8.78901136,18.0000103 C9.05379545,18.0000103 9.26846591,17.7841131 9.26846591,17.517816 C9.26846591,17.2516217 9.05379545,17.0357246 8.78901136,17.0357246 L1.27840909,17.0357246 C1.10188636,17.0357246 0.958806818,16.8918274 0.958806818,16.714296 L0.958806818,1.28572457 C0.958806818,1.10819314 1.10188636,0.964296 1.27840909,0.964296 L16.6193182,0.964296 C16.7958409,0.964296 16.9389205,1.10819314 16.9389205,1.28572457 L16.9389205,9.160776 C16.9389205,9.42697029 17.1535909,9.64286743 17.4182727,9.64286743 C17.6830568,9.64286743 17.8977273,9.42697029 17.8977273,9.160776 L17.8977273,1.28572457 C17.8977273,0.575598857 17.3253068,1.02857143e-05 16.6193182,1.02857143e-05" id="Fill-1" fill="#48A4FF" mask="url(#mask-2)"></path>
                    </g>
                    <g id="分组" transform="translate(0.000000, 3.497143)">
                        <mask id="mask-4" fill="white">
                            <use xlink:href="#path-3"></use>
                        </mask>
                        <g id="Clip-4"></g>
                        <path d="M12.8160511,6.80786743 C12.766142,6.80941029 12.7165398,6.81805029 12.6690852,6.83358171 C12.216017,7.02047314 11.7936307,7.27514743 11.416142,7.58896457 C11.284108,7.68122743 11.2303125,7.851456 11.2851307,8.00358171 C11.3824943,8.33766171 11.3409716,8.69725029 11.1700739,8.99995886 C10.9985625,9.282816 10.7228352,9.48616457 10.4030284,9.56567314 C10.3839034,9.56567314 10.3839034,9.56567314 10.3646761,9.58501029 C10.2519716,9.64610743 10.1654489,9.74670171 10.1217784,9.86786743 L10.1217784,9.88710171 C10.0720739,10.1411589 10.0475284,10.3996389 10.0483466,10.6586331 C10.0448693,10.9113531 10.0696193,11.1635589 10.1217784,11.4107246 C10.1350739,11.5684046 10.2492102,11.6988274 10.4030284,11.7321531 L10.4222557,11.7321531 C11.0783352,11.8961074 11.478017,12.5639589 11.314892,13.2237874 C11.3106989,13.2409646 11.3060966,13.2580389 11.3010852,13.2750103 C11.2471875,13.4237417 11.293517,13.5904731 11.416142,13.6896274 C11.7799261,14.0392389 12.216733,14.3027589 12.6946534,14.461056 C12.7137784,14.461056 12.7330057,14.4803931 12.7680852,14.4803931 L12.8256648,14.4803931 C12.9392898,14.4785417 13.0474943,14.4311246 13.1260398,14.3486331 C13.3469489,14.0932389 13.6684943,13.9486217 14.0049716,13.9532503 C14.3425739,13.9662103 14.660642,14.1156617 14.8870739,14.3678674 C14.953142,14.4455246 15.047642,14.4930446 15.1490966,14.4996274 C15.1936875,14.5025074 15.2383807,14.4959246 15.2802102,14.4803931 C15.7336875,14.2957646 16.1562784,14.0421189 16.5330511,13.7281989 C16.6680511,13.638096 16.7225625,13.4656046 16.6640625,13.3135817 C16.5691534,12.9784731 16.6093466,12.6193989 16.7759489,12.3139131 C16.951142,12.0337303 17.2269716,11.8322331 17.5461648,11.7514903 C17.565392,11.7514903 17.565392,11.7514903 17.5813466,11.7321531 C17.6950739,11.6714674 17.7827216,11.5707703 17.8274148,11.449296 L17.8274148,11.4300617 C17.8767102,11.1715817 17.9003352,10.9087817 17.8977784,10.645776 C17.8853011,10.3866789 17.8544148,10.128816 17.805017,9.87424457 C17.7917216,9.71656457 17.6775852,9.58624457 17.523767,9.552816 L17.504642,9.552816 C16.846108,9.39143314 16.4423352,8.72368457 16.6028011,8.06149029 C16.6078125,8.04091886 16.6133352,8.02055314 16.6193693,8.00039314 C16.6737784,7.85258743 16.6273466,7.68647314 16.5043125,7.58896457 C16.1380739,7.24171886 15.7021875,6.97747886 15.2258011,6.81424457 C15.1914375,6.79933029 15.1546193,6.79069029 15.1171875,6.78863314 C15.006017,6.794496 14.9015966,6.844176 14.8263239,6.92677029 C14.6109375,7.18946743 14.2857102,7.33573029 13.9474943,7.32215314 C13.6103011,7.31042743 13.2920284,7.16200457 13.065392,6.91072457 C12.9981989,6.83399314 12.9017557,6.78955886 12.8000966,6.78863314 L12.8160511,6.80786743 Z M12.7393466,7.47962743 C13.0689716,7.78542171 13.4991307,7.95832457 13.9474943,7.96501029 C14.4081307,7.97694171 14.8545511,7.80342171 15.1874489,7.482816 C15.4760625,7.59760457 15.7439148,7.75939886 15.9800625,7.96182171 C15.7893239,8.89422171 16.3178693,9.82384457 17.2137784,10.1314903 C17.238017,10.3072731 17.2530511,10.4842903 17.258617,10.6618217 C17.2594943,10.8287589 17.2456875,10.9954903 17.2169489,11.1600617 C16.7993693,11.3087931 16.4459148,11.5984389 16.2166193,11.9796274 C15.9914148,12.3827246 15.9175739,12.8539131 16.0089034,13.3072046 C15.7628352,13.4937874 15.498358,13.6543474 15.2194602,13.7861074 C14.8884034,13.4752731 14.4545625,13.298976 14.0018011,13.291056 C13.5389148,13.2879703 13.0925966,13.4640617 12.7553011,13.7829189 C12.4577898,13.669776 12.1820625,13.5055131 11.9402898,13.297536 C12.1311307,12.3650331 11.6025852,11.4353074 10.7066761,11.1278674 C10.6824375,10.968336 10.6705739,10.8071589 10.6714446,10.645776 C10.6710852,10.4703017 10.6838693,10.295136 10.7098466,10.1218217 C11.1306989,9.97751314 11.4867102,9.68683886 11.7134489,9.30215314 C11.9379375,8.89987886 12.0116761,8.43002743 11.9211648,7.97786743 C12.1744943,7.78315886 12.448892,7.61827886 12.7393466,7.48610743 L12.7393466,7.47962743 Z M8.46946023,7.75291886 L2.39701705,7.75291886 C2.13223295,7.75291886 1.9175625,7.96871314 1.9175625,8.23501029 C1.9175625,8.50130743 2.13223295,8.71710171 2.39701705,8.71710171 L8.46946023,8.71710171 C8.73424432,8.71710171 8.9488125,8.50130743 8.9488125,8.23501029 C8.9488125,7.96871314 8.73424432,7.75291886 8.46946023,7.75291886 L8.46946023,7.75291886 Z M8.46946023,5.82424457 L2.39701705,5.82424457 C2.13223295,5.82424457 1.9175625,6.04014171 1.9175625,6.30643886 C1.9175625,6.572736 2.13223295,6.78863314 2.39701705,6.78863314 L8.46946023,6.78863314 C8.73424432,6.78863314 8.9488125,6.572736 8.9488125,6.30643886 C8.9488125,6.04014171 8.73424432,5.82424457 8.46946023,5.82424457 L8.46946023,5.82424457 Z M14.8615057,2.93138743 L2.39701705,2.93138743 C2.13223295,2.93138743 1.9175625,3.14728457 1.9175625,3.41358171 C1.9175625,3.67987886 2.13223295,3.895776 2.39701705,3.895776 L14.8615057,3.895776 C15.1262898,3.895776 15.340858,3.67987886 15.340858,3.41358171 C15.340858,3.14728457 15.1262898,2.93138743 14.8615057,2.93138743 L14.8615057,2.93138743 Z M5.11363636e-05,1.002816 L17.8977784,1.002816 L17.8977784,0.0385302857 L5.11363636e-05,0.0385302857 L5.11363636e-05,1.002816 Z" id="Fill-3" fill="#48A4FF" mask="url(#mask-4)"></path>
                    </g>
                    <path d="M13.9474432,12.799296 C13.2237614,12.799296 12.6370227,13.3892846 12.6370227,14.1172046 C12.6370227,14.8450217 13.2237614,15.4350103 13.9474432,15.4350103 C14.671125,15.4350103 15.2578792,14.8450217 15.2578792,14.1172046 C15.2613409,13.3928846 14.6804318,12.8027931 13.9602273,12.799296 L13.9474432,12.799296 Z M13.9474432,13.4421531 C14.3180795,13.4440046 14.6172273,13.747536 14.6153948,14.1203931 C14.6136477,14.4931474 14.3117386,14.7939017 13.9411023,14.7921607 C13.5715909,14.7903017 13.2730568,14.4887246 13.2730568,14.1172046 C13.2694773,13.7479474 13.5642273,13.4456503 13.9313864,13.4420503 C13.9368068,13.4420503 13.9420227,13.4420503 13.9474432,13.4421531 L13.9474432,13.4421531 Z" id="Fill-5" fill="#48A4FF"></path>
                </g>
            </g>
        </g>
    </g>
</svg>