<?xml version="1.0" encoding="UTF-8"?>
<svg width="14px" height="12px" viewBox="0 0 14 12" version="1.1" xmlns="http://www.w3.org/2000/svg" xmlns:xlink="http://www.w3.org/1999/xlink">
    <!-- Generator: Sketch 63 (92445) - https://sketch.com -->
    <title>编组</title>
    <desc>Created with Sketch.</desc>
    <defs>
        <polygon id="path-1" points="0 0 13.3270906 0 13.3270906 11.5047744 0 11.5047744"></polygon>
    </defs>
    <g id="页面-1" stroke="none" stroke-width="1" fill="none" fill-rule="evenodd">
        <g id="用户列表-导入" transform="translate(-668.000000, -87.000000)">
            <g id="搜素/筛选-copy" transform="translate(660.000000, 78.000000)">
                <g id="添加">
                    <g id="编组" transform="translate(8.000000, 9.000000)">
                        <mask id="mask-2" fill="white">
                            <use xlink:href="#path-1"></use>
                        </mask>
                        <g id="Clip-2"></g>
                        <path d="M12.812809,6.752424 C12.5289562,6.7528944 12.2989978,6.9828528 12.2985274,7.2667056 L12.2985274,10.1733072 C12.2979898,10.3423824 12.1611034,10.4792688 11.9920282,10.4797392 L1.33417536,10.4797392 C1.16510016,10.4792688 1.02821376,10.3423824 1.02767616,10.1733072 L1.02767616,7.2648912 C1.00718016,6.9811056 0.76055616,6.7676784 0.47677056,6.7881744 C0.22147776,6.8066544 0.01839936,7.0095984 -1.344e-05,7.2648912 L-1.344e-05,10.580136 C-1.344e-05,11.090856 0.41481216,11.504808 0.92284416,11.504808 L12.404233,11.504808 C12.9140794,11.504808 13.3270906,11.0899152 13.3270906,10.5810096 L13.3270906,7.265832 C13.3266202,6.9821136 13.0965274,6.752424 12.812809,6.752424 L12.812809,6.752424 Z M6.31409856,8.892072 C6.51462336,9.0932016 6.84027456,9.0937392 7.04140416,8.8931472 L7.04254656,8.892072 L9.36229056,6.5732016 C9.55186176,6.361656 9.53398656,6.0364752 9.32244096,5.8469712 C9.12722496,5.672184 8.83194816,5.6719824 8.63659776,5.846568 L7.19401536,7.287336 L7.19401536,0.4848816 C7.17728256,0.2008272 6.93341376,-0.0158256 6.64935936,0.0009072 C6.38869056,0.0162288 6.18077376,0.2242128 6.16538496,0.4848816 L6.16538496,7.287336 L4.72374336,5.846568 C4.52382336,5.6461104 4.19931456,5.6457072 3.99892416,5.8456272 C3.99858816,5.845896 3.99831936,5.846232 3.99798336,5.846568 C3.79806336,6.0472272 3.79725696,6.3715344 3.99616896,6.5732016 L6.31409856,8.8929456 L6.31409856,8.892072 Z" id="Fill-1" fill="#DAEDFF" mask="url(#mask-2)"></path>
                    </g>
                </g>
            </g>
        </g>
    </g>
</svg>