<?xml version="1.0" encoding="UTF-8"?>
<svg width="32px" height="32px" viewBox="0 0 32 32" version="1.1" xmlns="http://www.w3.org/2000/svg" xmlns:xlink="http://www.w3.org/1999/xlink">
    <!-- Generator: Sketch 63.1 (92452) - https://sketch.com -->
    <title>销售额</title>
    <desc>Created with Sketch.</desc>
    <g id="页面-1" stroke="none" stroke-width="1" fill="none" fill-rule="evenodd">
        <g id="00-首页NEW" transform="translate(-107.000000, -829.000000)">
            <g id="销售额" transform="translate(107.000000, 829.000000)">
                <circle id="椭圆形" fill="#222A3A" cx="16" cy="16" r="16"></circle>
                <g id="business" transform="translate(6.000000, 6.000000)" fill="#1989FA" fill-rule="nonzero">
                    <path d="M5.66666667,13 L2.33333333,13 C2.14925,13 2,13.1305937 2,13.2916667 L2,19.7083333 C2,19.8694063 2.14925,20 2.33333333,20 L5.66666667,20 C5.85075,20 6,19.8694063 6,19.7083333 L6,13.2916667 C6,13.1305937 5.85075,13 5.66666667,13 Z" id="路径"></path>
                    <path d="M17.6666667,7 L14.3333333,7 C14.14925,7 14,7.14551875 14,7.325 L14,19.675 C14,19.8544812 14.14925,20 14.3333333,20 L17.6666667,20 C17.85075,20 18,19.8544812 18,19.675 L18,7.325 C18,7.14551875 17.85075,7 17.6666667,7 Z" id="路径"></path>
                    <path d="M11.6666667,11 L8.33333333,11 C8.14925,11 8,11.1389569 8,11.3103448 L8,19.6896552 C8,19.8610431 8.14925,20 8.33333333,20 L11.6666667,20 C11.85075,20 12,19.8610431 12,19.6896552 L12,11.3103448 C12,11.1389569 11.85075,11 11.6666667,11 Z" id="路径"></path>
                    <path d="M19.6875,20 L0.3125,20 C0.139921875,20 0,19.776125 0,19.5 C0,19.223875 0.139921875,19 0.3125,19 L19.6875,19 C19.8600781,19 20,19.223875 20,19.5 C20,19.776125 19.8600781,20 19.6875,20 Z" id="路径"></path>
                    <path d="M18.7936481,0.157375032 C18.6624615,0.0380249931 18.4876859,-0.017525025 18.3141688,0.00486783943 L15.8734883,0.319153656 C15.5390769,0.362210813 15.3019114,0.676378773 15.3437081,1.02083603 C15.3855047,1.36537185 15.6908186,1.60945408 16.0248105,1.56659335 L16.9426589,1.44842188 C13.8382659,5.42759461 10.0213467,7.45583813 7.28255995,8.46728846 C4.08523038,9.64806027 1.61568122,9.7423853 1.59108374,9.74317102 C1.25453678,9.75397459 0.990066168,10.0436675 1.00028652,10.3904819 C1.01027805,10.7309713 1.28138426,11 1.60980833,11 C1.61606258,11 1.62231682,11 1.6286092,10.999725 C1.7353127,10.9963857 4.28021787,10.9039464 7.64969168,9.66711385 C9.62622338,8.94158504 11.4782422,7.96973473 13.154227,6.77855219 C14.8930593,5.54270179 16.4439974,4.06654059 17.7796598,2.38059361 L17.7796598,3.14285458 C17.7796598,3.48998326 18.0528253,3.77142621 18.3898299,3.77142621 C18.7268345,3.77142621 19,3.48998326 19,3.14285458 L19,0.628568043 C19,0.448285841 18.9248347,0.276685785 18.7936481,0.157375032 Z" id="路径"></path>
                </g>
            </g>
        </g>
    </g>
</svg>