<?xml version="1.0" encoding="UTF-8"?>
<svg width="32px" height="32px" viewBox="0 0 32 32" version="1.1" xmlns="http://www.w3.org/2000/svg" xmlns:xlink="http://www.w3.org/1999/xlink">
    <!-- Generator: Sketch 63.1 (92452) - https://sketch.com -->
    <title>信息服务</title>
    <desc>Created with Sketch.</desc>
    <g id="页面-1" stroke="none" stroke-width="1" fill="none" fill-rule="evenodd">
        <g id="00-首页NEW" transform="translate(-189.000000, -829.000000)">
            <g id="信息服务" transform="translate(189.000000, 829.000000)">
                <g id="农作物备份" fill="#222A3A">
                    <g id="从业人员备份-2">
                        <g id="地块备份">
                            <g id="基站统计备份-2">
                                <circle id="椭圆形" cx="16" cy="16" r="16"></circle>
                            </g>
                        </g>
                    </g>
                </g>
                <g id="signs" transform="translate(6.000000, 5.000000)" fill="#069BC9" fill-rule="nonzero">
                    <path d="M9.99356223,9 C9.41288467,9 9,9.23951651 9,9.59245768 L9,14.3949644 C9,14.6974599 9.41293033,15 9.99356223,15 C10.5483974,15 11,14.6974599 11,14.3949644 L11,9.59245768 C11,9.23951651 10.5483974,9 9.99356223,9 Z" id="路径"></path>
                    <path d="M10.0061217,6 C9.44171406,6 9,6.46153465 9,6.9929973 C9,7.52445995 9.44171406,8 10.0061217,8 C10.5582859,8 11,7.52445995 11,6.9929973 C11,6.46158414 10.5582425,6 10.0061217,6 Z" id="路径"></path>
                    <path d="M10,0 C4.47263636,0 0,4.6100625 0,10.3065469 C0,14.958 2.96968182,18.8202656 6.9735,20.1319687 L9.24768182,23.5888594 C9.41686364,23.8460156 9.69863636,24 10,24 C10.3013636,24 10.5831364,23.8460156 10.7523182,23.5888594 L13.0265,20.1319687 C17.0320909,18.8196563 20,14.9559844 20,10.3065469 C20,4.60645312 15.5237727,0 10,0 Z M12.2111364,18.4265156 C12.0040909,18.4862344 11.8243182,18.6196406 11.7036364,18.8030625 L10,21.392625 L8.29640909,18.8031094 C8.17568182,18.6196875 7.99590909,18.4862344 7.78886364,18.4265625 C4.38077273,17.4438281 1.81818182,14.2116094 1.81818182,10.3065469 C1.81818182,5.65734375 5.48854545,1.875 10,1.875 C14.5114545,1.875 18.1818182,5.65734375 18.1818182,10.3065469 C18.1818182,14.2155 15.6154545,17.4449063 12.2111364,18.4265156 Z" id="形状"></path>
                </g>
            </g>
        </g>
    </g>
</svg>