<?xml version="1.0" encoding="UTF-8"?>
<svg width="32px" height="32px" viewBox="0 0 32 32" version="1.1" xmlns="http://www.w3.org/2000/svg" xmlns:xlink="http://www.w3.org/1999/xlink">
    <!-- Generator: Sketch 63.1 (92452) - https://sketch.com -->
    <title>从业人员</title>
    <desc>Created with Sketch.</desc>
    <g id="页面-1" stroke="none" stroke-width="1" fill="none" fill-rule="evenodd">
        <g id="00-首页NEW" transform="translate(-188.000000, -667.000000)">
            <g id="从业人员" transform="translate(188.000000, 667.000000)">
                <g id="地块备份" fill="#222A3A">
                    <g id="基站统计备份">
                        <circle id="椭圆形" cx="16" cy="16" r="16"></circle>
                    </g>
                </g>
                <g id="我的-非焦点" transform="translate(7.000000, 7.000000)">
                    <path d="M13.5,4 C13.5,6.20911111 11.7091111,8 9.5,8 C7.29088889,8 5.5,6.20911111 5.5,4 C5.5,1.79088889 7.29088889,0 9.5,0 C11.7091111,0 13.5,1.79088889 13.5,4" id="Fill-1" fill="#00B8EE" opacity="0.800000012"></path>
                    <path d="M9.5,10.3489649 C7.91014286,10.3489649 6.456,9.84049729 5.33385714,9 C2.471,10.3303792 0.500285714,12.9777008 0.5,15.9993721 L9.5,16 L18.5,16 C18.5,14.6506502 18.1070782,13.3759383 17.4172315,12.2597923 C16.5621392,10.876285 15.2508342,9.73640736 13.6661429,9 C12.544,9.84049729 11.0898571,10.3489649 9.5,10.3489649 Z" id="Fill-3" stroke="#00B8EE" stroke-width="1.5" opacity="0.600000024"></path>
                </g>
            </g>
        </g>
    </g>
</svg>