<?xml version="1.0" encoding="UTF-8"?>
<svg width="32px" height="32px" viewBox="0 0 32 32" version="1.1" xmlns="http://www.w3.org/2000/svg" xmlns:xlink="http://www.w3.org/1999/xlink">
    <!-- Generator: Sketch 63.1 (92452) - https://sketch.com -->
    <title>农作物</title>
    <desc>Created with Sketch.</desc>
    <g id="页面-1" stroke="none" stroke-width="1" fill="none" fill-rule="evenodd">
        <g id="00-首页NEW" transform="translate(-106.000000, -746.000000)">
            <g id="农作物" transform="translate(106.000000, 746.000000)">
                <circle id="椭圆形" fill="#222A3A" cx="16" cy="16" r="16"></circle>
                <path d="M22.0213903,12.9554712 C21.1962237,12.2343796 20.1375258,11.9198791 18.8715677,12.0172841 C16.2337931,12.2233054 14.63883,15.1146661 14,16.5655921 C14.0518829,16.9468463 14.0967525,17.3290948 14.1335239,17.7115833 C14.209159,17.6771607 14.2698763,17.6174697 14.2958759,17.5394703 C14.3057177,17.5099848 14.932226,15.6724218 16.1396755,14.2417242 C16.5118839,13.8006761 17.087323,13.526804 17.7093753,13.5298896 C18.1835284,13.5322553 18.7072008,13.6279803 19.1565555,13.8808698 C21.8430744,15.3926182 23.3257473,19.7520133 23.3403939,19.7957273 C23.3812725,19.9179206 23.5078605,20 23.6490952,20 C23.6604094,20 23.6719174,19.9994514 23.6833867,19.99832 C23.8379892,19.9838516 23.9587651,19.8736238 23.9703894,19.7364477 C23.9868571,19.5435578 24.3481,14.9887699 22.0213903,12.9554712 Z" id="路径" stroke="#1989FA" stroke-width="1.5" fill-rule="nonzero"></path>
                <path d="M14.3271868,19 C14.1548554,19 14.0121483,18.8712619 14.0060378,18.7075957 C14.0022864,18.6060928 13.9203362,16.194669 14.497043,13.569265 C15.2760536,10.0225323 16.9056604,7.83041171 19.2095873,7.22963394 C21.0820282,6.74129692 22.8125742,7.03756589 24.0827061,8.06364241 C25.5831417,9.27555242 26.2367325,11.3422163 25.9232796,13.8829616 C25.9056829,14.0259188 25.7838985,14.1374845 25.6319483,14.1499172 C25.4779484,14.1641363 25.3395341,14.0723681 25.2958711,13.9344787 C24.2561203,10.6438003 20.4401557,8.42105378 17.8961019,8.75057371 C17.6822733,8.77828285 17.4802402,8.86859275 17.3330856,9.01745642 C14.4388773,11.9443066 14.6455899,18.6062386 14.6486451,18.6863034 C14.6547556,18.8535062 14.5159933,18.9940936 14.3386343,18.9997083 C14.3347282,19 14.3309381,19 14.3271868,19 Z" id="路径" stroke="#1989FA" stroke-width="1.5" fill-rule="nonzero"></path>
                <path d="M12.703234,7.00156932 C12.2723768,8.3015727 11.595304,12.2518657 12.3471416,16.7629691 L13.6848549,22.4817745 L15.0225682,19.4718978 C13.3967048,15.081992 12.7469675,6.86968965 12.703234,7.00156932 Z" id="路径" stroke="#1989FA" stroke-width="1.5" fill-rule="nonzero"></path>
                <path d="M16.2007771,16.8817141 C13.8713857,17.3241526 13.5263296,22.2511488 13.5263296,22.2511488 L14,24.081543 C14,24.081543 15.8100506,18.8225506 16.8032296,18.6584965 C17.7795805,18.4972237 21.9480034,21.4890209 23.7797131,22.8476065 C23.9045077,22.9401758 24.0684194,22.7899526 23.9697973,22.6732544 C22.3914793,20.8053684 18.4404053,16.4563387 16.2007771,16.8817141 Z" id="路径" stroke="#1989FA" stroke-width="1.5" fill-rule="nonzero"></path>
                <path d="M8,9.86177234 C7.9816911,12.1240006 8.61554983,19.5226633 12.2094659,25.6038825 C12.3503347,25.842231 12.7122965,26 13.1115691,26 L15.2924077,26 C15.6339813,26 15.8638533,25.7797792 15.7338428,25.5783123 C12.0244131,19.828327 8.00121289,9.71678841 8,9.86177234 Z" id="路径" stroke="#1989FA" stroke-width="1.5" fill-rule="nonzero"></path>
            </g>
        </g>
    </g>
</svg>