<?xml version="1.0" encoding="UTF-8"?>
<svg width="32px" height="32px" viewBox="0 0 32 32" version="1.1" xmlns="http://www.w3.org/2000/svg" xmlns:xlink="http://www.w3.org/1999/xlink">
    <!-- Generator: Sketch 63.1 (92452) - https://sketch.com -->
    <title>投入品</title>
    <desc>Created with Sketch.</desc>
    <g id="页面-1" stroke="none" stroke-width="1" fill="none" fill-rule="evenodd">
        <g id="00-首页NEW" transform="translate(-188.000000, -746.000000)">
            <g id="投入品" transform="translate(188.000000, 746.000000)">
                <g id="编组-3" fill="#222A3A">
                    <g id="农作物备份-2">
                        <g id="从业人员备份-2">
                            <g id="地块备份">
                                <g id="基站统计备份-2">
                                    <circle id="椭圆形" cx="16" cy="16" r="16"></circle>
                                </g>
                            </g>
                        </g>
                    </g>
                </g>
                <g id="equipment" transform="translate(6.500000, 4.000000)" fill="#069BC9" fill-rule="nonzero">
                    <g id="Outline" transform="translate(0.500000, 1.000000)">
                        <path d="M17.3811804,17.0222062 C17.4714965,16.5998164 17.6781226,15.2653204 17.6781226,11.8981518 C17.6781226,11.3277007 17.5455412,10.2197729 17.2841951,8.60519612 C17.2656934,8.49092804 17.1881369,8.39529237 17.0807406,8.35431414 C16.9733443,8.31333592 16.8524241,8.33333333 16.7635295,8.40653055 C16.6746349,8.47982041 16.6312712,8.59536086 16.6497729,8.70962894 C16.901999,10.2675333 17.0354643,11.3701139 17.0354643,11.8981518 C17.0354643,15.9468479 16.732576,16.9739597 16.7305672,16.9808463 C16.6991942,17.075727 16.7130278,17.1798982 16.7680516,17.2631147 L17.3492002,18.1421652 C17.2943999,18.4378827 16.953746,18.5558051 16.6721109,18.4139012 C16.605985,18.3805695 16.5304845,18.3712414 16.4583334,18.3874892 C16.415385,18.3970898 12.1407992,19.3518521 9.0000658,19.3518521 C5.85933239,19.3518521 1.58474657,18.3970898 1.54195893,18.3874081 C1.46980881,18.3711403 1.39430156,18.3804691 1.32818143,18.4138202 C1.045783,18.5560886 0.705691555,18.4368699 0.651092114,18.1420842 C1.83580758,16.2073628 0.964827975,18.8582065 0.964827975,11.8981518 C0.964827975,11.3701139 1.09813257,10.2675333 1.35051939,8.70962894 C1.36902114,8.59536086 1.32565737,8.47982041 1.23676279,8.40653055 C1.14786821,8.33333333 1.02694802,8.31333591 0.919551689,8.35431414 C0.812155355,8.39529237 0.734598938,8.49092804 0.716097188,8.60519612 C0.454590373,10.2197729 0.322008949,11.3277007 0.322008949,11.8981518 C0.322008949,15.2653204 0.52863509,16.5998164 0.618951163,17.0222062 L0.0545962345,17.8758169 C-0.0807975228,18.0804696 0.024946207,18.66518 0.492315815,18.9565225 C0.797603749,19.1440832 1.17257608,19.17604 1.50475578,19.0428071 C2.19494253,19.193623 6.0244967,20 9.0000658,20 C11.9756349,20 15.8051891,19.193623 16.4952553,19.0428071 C16.8274416,19.1759948 17.2023932,19.1440398 17.5076953,18.9565225 C17.975105,18.66518 18.0807684,18.0804696 17.9454148,17.8758169 L17.3811804,17.0222062 Z" id="路径" stroke="#069BC9"></path>
                        <path d="M17.0356661,5 L0.964333911,5 C0.128624637,5 -0.305301331,6.02845833 0.246186432,6.66666667 C-0.304979905,7.30454167 0.128062141,8.33333333 0.964333911,8.33333333 L17.0356661,8.33333333 C17.8713754,8.33333333 18.3053013,7.304875 17.7538136,6.66666667 C18.3049799,6.02879167 17.8719379,5 17.0356661,5 Z" id="路径"></path>
                        <path d="M11.3176051,15.8333333 C11.5060875,15.8333333 11.6588826,15.7013114 11.6588826,15.538454 C11.6588826,15.3755966 11.5060875,15.2435746 11.3176051,15.2435746 L10.5718284,15.2435746 C10.4206096,14.5107552 9.75578239,13.9375508 8.90733253,13.8084706 L8.90733253,13.1024926 C9.40982103,13.2459882 9.919647,13.2241303 10.3880504,13.0071728 C11.3393615,12.5665125 11.9469208,11.3598662 11.972346,11.3087047 C12.0133001,11.2262381 12.0085647,11.1321456 11.9594802,11.0530621 C11.9103956,10.9739785 11.8223042,10.9185111 11.7201419,10.9023609 C11.6567923,10.8922982 10.1572615,10.6620711 9.20616367,11.1026577 C8.95180928,11.2189447 8.73397883,11.3869079 8.57143012,11.5920837 C8.40887588,11.3868985 8.19102875,11.2189337 7.93665392,11.1026577 C6.98564143,10.6620711 5.48611063,10.8922982 5.42267567,10.9023609 C5.3205212,10.9185206 5.23244102,10.9739919 5.18336562,11.0530741 C5.13429022,11.1321563 5.12956015,11.2262434 5.17051423,11.3087047 C5.19589675,11.3598662 5.80366937,12.5665125 6.75476718,13.0071728 C7.22479166,13.2249412 7.73167411,13.2440347 8.22477747,13.1055519 L8.22477747,13.8052269 C7.36724111,13.9279661 6.69220095,14.5041733 6.53971968,15.2435746 L5.85716462,15.2435746 C5.66868224,15.2435746 5.51588709,15.3755966 5.51588709,15.538454 C5.51588709,15.7013114 5.66868224,15.8333333 5.85716462,15.8333333 L11.3176051,15.8333333 Z M11.1341684,11.4356134 C10.5949926,12.2649615 9.8976346,12.8869726 8.92175151,12.4732569 C8.92008778,12.455859 8.91804011,12.4375765 8.91552319,12.417967 C9.08223727,11.5073428 10.0698518,11.3667959 11.1341684,11.4356134 L11.1341684,11.4356134 Z M8.22162066,12.4732938 C7.24471373,12.8870464 6.54901949,12.2659567 6.00920376,11.4355765 C7.07381901,11.3668327 8.0611349,11.5073796 8.22789163,12.4180776 C8.22533205,12.4375765 8.22328439,12.4559327 8.22162066,12.4732938 Z M7.23805882,15.2435746 C7.60066619,14.0852886 9.51075386,14.0842565 9.87353188,15.2435746 L7.23805882,15.2435746 Z" id="形状"></path>
                        <path d="M10.3928571,17.5 C12.7006184,17.5 14.5714286,15.6345198 14.5714286,13.3333333 C14.5714286,11.0321469 12.7006184,9.16666667 10.3928571,9.16666667 L7.60714286,9.16666667 C5.29938158,9.16666667 3.42857143,11.0321469 3.42857143,13.3333333 C3.42857143,15.6345198 5.29938158,17.5 7.60714286,17.5 L10.3928571,17.5 Z M4.04761905,13.3333333 C4.04975143,11.3739448 5.64215608,9.78607692 7.60714286,9.78395062 L10.3928571,9.78395062 C12.3587278,9.78395062 13.9523809,11.3730634 13.9523809,13.3333333 C13.9523809,15.2936032 12.3587278,16.882716 10.3928571,16.882716 L7.60714286,16.882716 C5.64215608,16.8805897 4.04975143,15.2927219 4.04761905,13.3333333 L4.04761905,13.3333333 Z" id="形状"></path>
                        <path d="M3.13348938,4.0709362 C5.38618906,1.82960917 7.31740429,0.595236817 8.57142857,0.595236817 C9.82545286,0.595236817 11.7566681,1.82960917 14.0093678,4.0709362 C14.1307547,4.19170713 14.3357393,4.199219 14.4672138,4.08771443 C14.5986883,3.97620986 14.6068659,3.78791336 14.4854791,3.66714242 C12.8040643,1.99404334 10.4131806,0 8.57142857,0 C6.72967659,0 4.33879285,1.99404334 2.6573781,3.66714242 C2.53599122,3.78791336 2.54416884,3.97620986 2.67564334,4.08771444 C2.80711784,4.19921901 3.01210249,4.19170713 3.13348938,4.0709362 Z" id="路径" stroke="#069BC9"></path>
                        <ellipse id="椭圆形" cx="7.28571429" cy="2.91666667" rx="1" ry="1"></ellipse>
                        <ellipse id="椭圆形" cx="8.14285714" cy="1.25" rx="1" ry="1"></ellipse>
                        <ellipse id="椭圆形" cx="9" cy="2.91666667" rx="1" ry="1"></ellipse>
                        <ellipse id="椭圆形" cx="9.85714286" cy="2.08333333" rx="1" ry="1"></ellipse>
                        <ellipse id="椭圆形" cx="10.7142857" cy="2.91666667" rx="1" ry="1"></ellipse>
                        <ellipse id="椭圆形" cx="11.5714286" cy="3.75" rx="1" ry="1"></ellipse>
                        <ellipse id="椭圆形" cx="9.85714286" cy="3.75" rx="1" ry="1"></ellipse>
                        <ellipse id="椭圆形" cx="8.14285714" cy="3.75" rx="1" ry="1"></ellipse>
                        <ellipse id="椭圆形" cx="6.42857143" cy="3.75" rx="1" ry="1"></ellipse>
                    </g>
                </g>
            </g>
        </g>
    </g>
</svg>