<?xml version="1.0" encoding="UTF-8"?>
<svg width="32px" height="32px" viewBox="0 0 32 32" version="1.1" xmlns="http://www.w3.org/2000/svg" xmlns:xlink="http://www.w3.org/1999/xlink">
    <!-- Generator: Sketch 63.1 (92452) - https://sketch.com -->
    <title>地块</title>
    <desc>Created with Sketch.</desc>
    <g id="页面-1" stroke="none" stroke-width="1" fill="none" fill-rule="evenodd">
        <g id="00-首页NEW" transform="translate(-106.000000, -667.000000)">
            <g id="地块" transform="translate(106.000000, 667.000000)">
                <g id="基站统计备份" fill="#222A3A">
                    <circle id="椭圆形" cx="16" cy="16" r="16"></circle>
                </g>
                <path d="M24.2160507,8.75 L8.42210384,8.84470856 L7.78394929,11.25 L23.5778962,11.1552914 L24.2160507,8.75 Z" id="矩形" stroke="#1989FA" stroke-width="1.5"></path>
                <path d="M8.61803399,14 L25.190983,14 C25.4671254,14 25.690983,14.2238576 25.690983,14.5 C25.690983,14.5776225 25.6729105,14.6541791 25.6381966,14.7236068 L24.2763932,17.4472136 C24.1070012,17.7859976 23.7607381,18 23.381966,18 L6.80901699,18 C6.53287462,18 6.30901699,17.7761424 6.30901699,17.5 C6.30901699,17.4223775 6.32708954,17.3458209 6.3618034,17.2763932 L7.7236068,14.5527864 C7.89299881,14.2140024 8.23926193,14 8.61803399,14 Z" id="矩形备份-16" fill="#1989FA"></path>
                <path d="M24.2160507,20.75 L8.42210384,20.8447086 L7.78394929,23.25 L23.5778962,23.1552914 L24.2160507,20.75 Z" id="矩形备份-17" stroke="#1989FA" stroke-width="1.5"></path>
            </g>
        </g>
    </g>
</svg>