<?xml version="1.0" encoding="UTF-8"?>
<svg width="16px" height="16px" viewBox="0 0 16 16" version="1.1" xmlns="http://www.w3.org/2000/svg" xmlns:xlink="http://www.w3.org/1999/xlink">
    <!-- Generator: Sketch 63 (92445) - https://sketch.com -->
    <title>编组备份 3</title>
    <desc>Created with Sketch.</desc>
    <defs>
        <polygon id="path-1" points="0 0.0166 15.08359 0.0166 15.08359 15.1 0 15.1"></polygon>
    </defs>
    <g id="页面-1" stroke="none" stroke-width="1" fill="none" fill-rule="evenodd">
        <g id="2期规范" transform="translate(-532.000000, -117.000000)">
            <g id="编组备份-3" transform="translate(532.000000, 117.000000)">
                <g id="编组" transform="translate(0.000000, 0.083400)">
                    <mask id="mask-2" fill="white">
                        <use xlink:href="#path-1"></use>
                    </mask>
                    <g id="Clip-2"></g>
                    <path d="M13.57539,8.3125 C13.57539,7.8961 13.91309,7.5584 14.32949,7.5584 C14.74589,7.5584 15.08359,7.8961 15.08359,8.3125 L15.08359,14.3459 C15.08359,14.7623 14.74589,15.1 14.32949,15.1 L0.75409,15.1 C0.33769,15.1 -1e-05,14.7623 -1e-05,14.3459 L-1e-05,0.7707 C-1e-05,0.3543 0.33769,0.0166 0.75409,0.0166 L8.29589,0.0166 C8.71229,0.0166 9.04999,0.3543 9.04999,0.7707 C9.04999,1.1871 8.71229,1.5248 8.29589,1.5248 L1.50819,1.5248 L1.50819,13.5918 L13.57519,13.5918 L13.57519,8.3125 L13.57539,8.3125 Z" id="Fill-1" fill="#2EABFF" mask="url(#mask-2)"></path>
                </g>
                <path d="M5.22734,11.03574 L13.97014,2.41444 C14.26684,2.12204 14.27014,1.64454 13.97754,1.34784 C13.68494,1.05114 13.20764,1.04784 12.91094,1.34044 L4.16814,9.96174 C3.87144,10.25434 3.86814,10.73164 4.16074,11.02834 C4.45334,11.32504 4.93064,11.32814 5.22734,11.03574" id="Fill-3" fill="#2EABFF"></path>
            </g>
        </g>
    </g>
</svg>