<?xml version="1.0" encoding="UTF-8"?>
<svg width="12px" height="14px" viewBox="0 0 12 14" version="1.1" xmlns="http://www.w3.org/2000/svg" xmlns:xlink="http://www.w3.org/1999/xlink">
    <!-- Generator: Sketch 63 (92445) - https://sketch.com -->
    <title>编组</title>
    <desc>Created with Sketch.</desc>
    <defs>
        <polygon id="path-1" points="8.63713179e-06 0.02808 11.645304 0.02808 11.645304 14 8.63713179e-06 14"></polygon>
    </defs>
    <g id="页面-1" stroke="none" stroke-width="1" fill="none" fill-rule="evenodd">
        <g id="数据统计-农场统计" transform="translate(-1330.000000, -153.000000)">
            <g id="搜素/筛选-copy备份" transform="translate(298.000000, 130.000000)">
                <g id="添加-copy-2备份" transform="translate(1024.000000, 17.000000)">
                    <g id="编组" transform="translate(8.000000, 6.000000)">
                        <g transform="translate(0.000000, 0.051920)">
                            <mask id="mask-2" fill="white">
                                <use xlink:href="#path-1"></use>
                            </mask>
                            <g id="Clip-2"></g>
                            <path d="M10.479704,12.83592 L10.479704,4.68592 L6.985944,4.68592 C6.831304,4.68592 6.682824,4.62496 6.573464,4.5156 C6.464104,4.40624 6.403144,4.25776 6.403144,4.10312 L6.403144,1.19216 L1.164104,1.19216 L1.164104,12.83592 L10.479704,12.83592 Z M9.709384,3.52032 L7.568744,1.4984 L7.568744,3.52032 L9.709384,3.52032 Z M11.643784,12.83592 C11.643784,13.15776 11.514104,13.4484 11.303144,13.65936 C11.084424,13.87808 10.789064,14.00152 10.479704,14.0000139 L1.164104,14.0000139 C0.854664,14.0000139 0.559384,13.87808 0.340664,13.65936 C0.121864,13.44064 -0.001576,13.14528 8.63713203e-06,12.83592 L8.63713203e-06,1.19216 C8.63713203e-06,0.87032 0.129704,0.57968 0.340664,0.36872 C0.559384,0.15 0.854664,0.02656 1.164104,0.0280661265 L7.710984,0.0280661265 L11.645304,3.7484 L11.643784,12.83592 Z" id="Fill-1" fill="#DAEDFF" mask="url(#mask-2)"></path>
                        </g>
                        <path d="M6.653136,8.48628 L7.445296,10.73468 C7.474976,10.83004 7.490656,10.9066 7.495296,10.96284 C7.498416,11.02068 7.482816,11.06284 7.446896,11.09412 C7.410976,11.12532 7.350016,11.14412 7.265616,11.15188 C7.181296,11.15972 7.062496,11.16284 6.910976,11.16284 C6.801536,11.16284 6.715616,11.15972 6.653136,11.155 C6.603136,11.15188 6.551536,11.14412 6.503136,11.13004 C6.473456,11.1222 6.446896,11.105 6.428096,11.08004 C6.412496,11.055 6.400016,11.02844 6.390656,11.00036 L5.765616,9.13156 L4.443776,11.00188 C4.421856,11.03156 4.398416,11.05812 4.370336,11.08156 C4.339056,11.1066 4.301536,11.1238 4.262496,11.13156 C4.215616,11.14252 4.154736,11.15188 4.079696,11.1566 C4.004736,11.16284 3.906256,11.16444 3.787536,11.16444 C3.646896,11.16444 3.537536,11.15972 3.456256,11.15348 C3.376576,11.14564 3.324976,11.12692 3.301536,11.09724 C3.278096,11.06756 3.278096,11.02532 3.303136,10.96908 C3.328096,10.91284 3.373456,10.8394 3.440656,10.74564 L5.140656,8.47844 L4.420336,6.38468 C4.395296,6.31284 4.378176,6.23788 4.370336,6.16132 C4.365616,6.1066 4.381296,6.06284 4.418736,6.03316 C4.454736,6.00348 4.515616,5.98468 4.600016,5.97844 C4.717216,5.96908 4.832816,5.96596 4.950016,5.96756 C5.064096,5.96756 5.153136,5.96908 5.218736,5.97532 C5.284416,5.98156 5.335936,5.9894 5.371856,6.00348 C5.407856,6.01756 5.435936,6.03468 5.451536,6.05972 C5.467216,6.08316 5.481296,6.11444 5.492176,6.15036 L6.037536,7.83004 L7.237536,6.13156 C7.256256,6.10188 7.279696,6.07532 7.307856,6.05188 C7.337536,6.02844 7.371856,6.01132 7.409376,6.00188 C7.451536,5.991 7.507856,5.98156 7.578176,5.97692 C7.648416,5.97068 7.742176,5.96908 7.859376,5.96908 C8.003136,5.96908 8.115616,5.9738 8.196896,5.98004 C8.279696,5.98788 8.332816,6.0066 8.357856,6.03628 C8.382816,6.06596 8.382816,6.10812 8.359376,6.16444 C8.321856,6.24252 8.276576,6.31756 8.224976,6.38628 L6.653136,8.48628 Z" id="Fill-3" fill="#DAEDFF"></path>
                    </g>
                </g>
            </g>
        </g>
    </g>
</svg>