<?xml version="1.0" encoding="UTF-8"?>
<svg width="22px" height="14px" viewBox="0 0 22 14" version="1.1" xmlns="http://www.w3.org/2000/svg" xmlns:xlink="http://www.w3.org/1999/xlink">
    <!-- Generator: Sketch 63 (92445) - https://sketch.com -->
    <title>编组</title>
    <desc>Created with Sketch.</desc>
    <defs>
        <polygon id="path-1" points="1.7e-05 0 21.73688 0 21.73688 13.6 1.7e-05 13.6"></polygon>
    </defs>
    <g id="页面-1" stroke="none" stroke-width="1" fill="none" fill-rule="evenodd">
        <g id="个人中心-修改密码" transform="translate(-847.000000, -430.000000)">
            <g id="分组-2备份" transform="translate(470.000000, 332.000000)">
                <g id="图片校验弹窗-copy-2">
                    <g id="编组-2" transform="translate(92.000000, 90.000000)">
                        <g id="编组" transform="translate(285.000000, 8.000000)">
                            <g>
                                <mask id="mask-2" fill="white">
                                    <use xlink:href="#path-1"></use>
                                </mask>
                                <g id="Clip-2"></g>
                                <path d="M1.597932,6.796532 C3.064216,5.09388 6.733564,1.389852 10.86844,1.389852 C15.003316,1.389852 18.672596,5.09388 20.152888,6.796532 C18.672596,8.499116 15.003316,12.203144 10.86844,12.203144 C6.698816,12.203144 3.064216,8.499116 1.597932,6.796532 Z M10.86844,0 C5.704996,0 1.389444,4.864584 0.152456,6.365616 C-0.050796,6.619596 -0.050796,6.980404 0.152456,7.234384 C1.368568,8.735416 5.712,13.6 10.86844,13.6 C16.024948,13.6 20.375248,8.735416 21.584424,7.234384 C21.787744,6.980404 21.787744,6.619596 21.584424,6.365616 C20.375248,4.864584 16.031816,0 10.86844,0 Z" id="Fill-1" fill="#A8ABB3" mask="url(#mask-2)"></path>
                            </g>
                            <path d="M10.8337124,8.603394 C9.8012684,8.603394 8.9643244,7.766382 8.9643244,6.734006 C8.9643244,5.701562 9.8012684,4.864618 10.8337124,4.864618 C11.8661564,4.864618 12.7031004,5.701562 12.7031004,6.734006 C12.7107844,7.766382 11.8800284,8.609582 10.8476524,8.617198 C10.8430284,8.617266 10.8383364,8.617266 10.8337124,8.617266 L10.8337124,8.603394 Z M10.8337124,3.474698 C9.0336164,3.474698 7.5744044,4.93391 7.5744044,6.734006 C7.5744044,8.533966 9.0336164,9.993246 10.8337124,9.993246 C12.6337404,9.993246 14.0929524,8.533966 14.0929524,6.734006 C14.0929524,4.93391 12.6337404,3.474698 10.8337124,3.474698 L10.8337124,3.474698 Z" id="Fill-3" fill="#A8ABB3"></path>
                        </g>
                    </g>
                </g>
            </g>
        </g>
    </g>
</svg>