<?xml version="1.0" encoding="UTF-8"?>
<svg width="17px" height="8px" viewBox="0 0 17 8" version="1.1" xmlns="http://www.w3.org/2000/svg" xmlns:xlink="http://www.w3.org/1999/xlink">
    <!-- Generator: Sketch 63 (92445) - https://sketch.com -->
    <title>Fill 1</title>
    <desc>Created with Sketch.</desc>
    <g id="页面-1" stroke="none" stroke-width="1" fill="none" fill-rule="evenodd">
        <g id="个人中心-修改密码" transform="translate(-851.000000, -483.000000)" fill="#A8ABB3">
            <g id="分组-2备份" transform="translate(470.000000, 332.000000)">
                <g id="图片校验弹窗-copy-2">
                    <g id="编组备份" transform="translate(92.000000, 140.000000)">
                        <path d="M305.894857,11.9902088 C306.072357,11.7128025 306.020671,11.3461915 305.773415,11.1296912 C305.500218,10.9142681 305.134725,10.9754678 304.922152,11.2520908 C304.89184,11.2827396 301.516812,15.3108589 297.503192,15.3108589 C293.611013,15.3108589 290.084328,11.2520908 290.053919,11.2215398 C289.832505,10.974097 289.456714,10.9470711 289.202656,11.1603401 C288.958023,11.3849677 288.931306,11.7635249 289.141935,12.0207597 C289.201393,12.1137834 289.93131,12.9436521 291.087442,13.8653695 L289.536574,15.4957311 C289.308846,15.7317174 289.314092,16.1090996 289.548233,16.3386231 C289.554353,16.3445962 289.560668,16.3504714 289.566983,16.3561508 C289.627705,16.4785503 289.779459,16.541023 289.93131,16.541023 C290.091906,16.53975 290.245215,16.4730668 290.356359,16.3561508 L292.028571,14.6033896 C292.883525,15.2056932 293.813773,15.6913745 294.795027,16.0478019 L294.157504,18.2313114 C294.061516,18.5566004 294.245234,18.8987315 294.567979,18.9954761 C294.573225,18.9971407 294.578471,18.9985116 294.583718,19 L294.765881,19 C295.042284,19.0022325 295.282837,18.8102122 295.343947,18.5385832 L295.981568,16.3561508 C296.4686,16.4479014 296.984681,16.5103742 297.502026,16.5103742 C298.019273,16.5103742 298.535451,16.4491744 299.022484,16.3561508 L299.66127,18.5080322 C299.721992,18.7846552 299.995188,18.9693316 300.239336,18.9693316 C300.300057,18.9693316 300.360778,18.9693316 300.391187,18.9387806 C300.71675,18.8499675 300.909406,18.511949 300.82119,18.1837225 C300.820025,18.1791203 300.818664,18.174616 300.817401,18.1701116 L300.178615,16.018426 C301.160257,15.6620965 302.090506,15.1760235 302.945071,14.5728387 L304.586972,16.294951 C304.708414,16.4173505 304.860265,16.4798232 305.013283,16.4798232 C305.173878,16.4785503 305.32709,16.411867 305.438331,16.294951 C305.674415,16.0621961 305.687822,15.6836388 305.468643,15.4345313 L303.917776,13.8053447 C305.165037,12.8824524 305.894857,11.9902088 305.894857,11.9902088" id="Fill-1"></path>
                    </g>
                </g>
            </g>
        </g>
    </g>
</svg>