<?xml version="1.0" encoding="UTF-8"?>
<svg width="14px" height="14px" viewBox="0 0 14 14" version="1.1" xmlns="http://www.w3.org/2000/svg" xmlns:xlink="http://www.w3.org/1999/xlink">
    <!-- Generator: Sketch 63 (92445) - https://sketch.com -->
    <title>编组</title>
    <desc>Created with Sketch.</desc>
    <defs>
        <polygon id="path-1" points="0.0513505463 0.0859012346 6.51668249 0.0859012346 6.51668249 6.55119637 0.0513505463 6.55119637"></polygon>
        <polygon id="path-3" points="3.45679012e-05 0.0742611656 9.0826642 0.0742611656 9.0826642 7.43209877 3.45679012e-05 7.43209877"></polygon>
    </defs>
    <g id="页面-1" stroke="none" stroke-width="1" fill="none" fill-rule="evenodd">
        <g id="角色列表" transform="translate(-371.000000, -468.000000)">
            <g id="编组" transform="translate(371.000000, 468.000000)">
                <g transform="translate(3.629630, 0.000519)">
                    <mask id="mask-2" fill="white">
                        <use xlink:href="#path-1"></use>
                    </mask>
                    <g id="Clip-2"></g>
                    <path d="M0.998597531,5.6040358 C2.26058519,6.86654198 4.30709136,6.86697407 5.56951111,5.60498642 C6.83201728,4.34308519 6.83244938,2.29657901 5.57054815,1.03407284 C5.57011605,1.03372716 5.56977037,1.03338148 5.56942469,1.0330358 C4.30752346,-0.22947037 2.26101728,-0.229902469 0.998511111,1.03208519 C-0.263995062,2.29407284 -0.26442716,4.34049259 0.997560494,5.60299877 L0.998597531,5.6040358 Z" id="Fill-1" fill="#7BBDFF" mask="url(#mask-2)"></path>
                </g>
                <g transform="translate(0.000000, 6.482000)">
                    <mask id="mask-4" fill="white">
                        <use xlink:href="#path-3"></use>
                    </mask>
                    <g id="Clip-4"></g>
                    <path d="M6.9735037,3.68583704 C7.17978765,2.34771358 7.94710864,1.16073827 9.0826642,0.423491358 C6.9765284,-0.272619753 4.66410864,0.0843802469 2.86588642,1.3830963 C1.06775062,2.68189877 0.00167654321,4.7645284 3.45679012e-05,6.98257778 L3.45679012e-05,7.43213333 L8.00241728,7.43213333 C7.1415037,6.38688642 6.76730617,5.02413333 6.9735037,3.68583704" id="Fill-3" fill="#7BBDFF" mask="url(#mask-4)"></path>
                </g>
                <path d="M10.7886247,11.5919049 C10.191637,11.5919049 9.70552593,11.1059667 9.70552593,10.508979 C9.70552593,9.91199136 10.1914642,9.42605309 10.7886247,9.42605309 C11.3856123,9.42605309 11.8715506,9.91199136 11.8715506,10.508979 C11.8715506,11.1059667 11.3856123,11.5919049 10.7886247,11.5919049 M13.8644765,9.90015185 C13.8301679,9.72134938 13.7233531,9.60606543 13.5928593,9.60969506 L13.5664148,9.60969506 C13.1180691,9.60969506 12.753637,9.24509012 12.753637,8.79674444 C12.753637,8.64870741 12.824242,8.48736173 12.824242,8.48606543 C12.8933778,8.33025062 12.8402296,8.1390037 12.7006617,8.04126296 L12.6930568,8.03633704 L11.9108716,7.60207778 L11.9032667,7.59853457 C11.8572049,7.57831235 11.8062173,7.56846049 11.7525506,7.56846049 C11.6408099,7.56846049 11.5320074,7.61322593 11.4607111,7.68711481 C11.3650444,7.78554691 11.0641309,8.04195432 10.8210321,8.04195432 C10.5759457,8.04195432 10.272958,7.78079383 10.1772914,7.68089259 C10.1053901,7.60475679 9.99563704,7.56007778 9.8826,7.56007778 C9.82953827,7.56007778 9.77993333,7.56984321 9.73456296,7.58946049 L9.72471111,7.59231235 L8.91539012,8.0370284 L8.90778519,8.04264568 C8.76735309,8.14038642 8.71368642,8.33111481 8.7827358,8.48667037 C8.78342716,8.48805309 8.85325432,8.65078148 8.85325432,8.79812716 C8.85325432,9.24638642 8.48890864,9.61081852 8.04056296,9.61081852 L8.01342716,9.61081852 C7.88276049,9.60727531 7.77594568,9.72255926 7.74180988,9.90136173 C7.73895802,9.91596667 7.67613086,10.2511889 7.67613086,10.514337 C7.67613086,10.7783494 7.73895802,11.1133988 7.74180988,11.1273988 C7.77542716,11.3041272 7.87939012,11.4185469 8.00850123,11.4185469 L8.04056296,11.4185469 C8.48890864,11.4185469 8.85325432,11.782979 8.85325432,12.2312383 C8.85325432,12.3792753 8.7827358,12.5407074 8.7827358,12.5420037 C8.71351358,12.6976457 8.76674815,12.8890654 8.90631605,12.9868062 L8.91392099,12.9916457 L9.68124198,13.4210654 L9.68876049,13.4246086 C9.73490864,13.4448309 9.78520494,13.4552877 9.8397358,13.4552877 C9.95208148,13.4552877 10.0625259,13.4092259 10.1337358,13.3317938 C10.2238716,13.2340531 10.5366247,12.9547444 10.787242,12.9547444 C11.0401062,12.9547444 11.3480198,13.2318926 11.4450691,13.3387074 C11.516279,13.4175222 11.6273284,13.4644481 11.7404519,13.4644481 C11.7934272,13.4644481 11.8423407,13.4546827 11.8884889,13.4350654 L11.8968716,13.4315222 L12.6908963,12.9894852 L12.6985012,12.9838679 C12.8380691,12.8862136 12.8919086,12.6947938 12.8226864,12.5398432 C12.8219951,12.5384605 12.7521679,12.3757321 12.7521679,12.2283864 C12.7521679,11.7801272 13.1165136,11.4156951 13.5648593,11.4156951 L13.5919951,11.4156951 C13.7226617,11.4185469 13.829563,11.3039543 13.8636123,11.1252383 C13.8664642,11.1112383 13.9292917,10.7761889 13.9292917,10.5121765 C13.9294642,10.2492012 13.8673284,9.91397901 13.8644765,9.90015185" id="Fill-5" fill="#7BBDFF"></path>
                <path d="M10.7796802,9.87262716 C10.4345198,9.87262716 10.153137,10.1534914 10.153137,10.4991704 C10.153137,10.8443309 10.4340012,11.1257136 10.7796802,11.1257136 C11.1248407,11.1257136 11.4062235,10.8448494 11.4062235,10.4991704 C11.4055321,10.1534914 11.1253593,9.87262716 10.7796802,9.87262716" id="Fill-7" fill="#7BBDFF"></path>
            </g>
        </g>
    </g>
</svg>