<?xml version="1.0" encoding="UTF-8"?>
<svg width="14px" height="14px" viewBox="0 0 14 14" version="1.1" xmlns="http://www.w3.org/2000/svg" xmlns:xlink="http://www.w3.org/1999/xlink">
    <!-- Generator: Sketch 63 (92445) - https://sketch.com -->
    <title>编组备份 5</title>
    <desc>Created with Sketch.</desc>
    <g id="页面-1" stroke="none" stroke-width="1" fill="none" fill-rule="evenodd">
        <g id="农场信息管理-编辑" transform="translate(-1198.000000, -538.000000)">
            <g id="编组备份-5" transform="translate(1197.000000, 537.000000)">
                <circle id="椭圆形" fill="#0F70F3" cx="8" cy="8" r="7"></circle>
                <path d="M7.74264069,3 C8.01878306,3 8.24264069,3.22385763 8.24264069,3.5 L8.242,7.5 L12.2426407,7.5 C12.5187831,7.5 12.7426407,7.72385763 12.7426407,8 C12.7426407,8.27614237 12.5187831,8.5 12.2426407,8.5 L8.242,8.5 L8.24264069,12.5 C8.24264069,12.7761424 8.01878306,13 7.74264069,13 C7.46649831,13 7.24264069,12.7761424 7.24264069,12.5 L7.242,8.5 L3.24264069,8.5 C2.96649831,8.5 2.74264069,8.27614237 2.74264069,8 C2.74264069,7.72385763 2.96649831,7.5 3.24264069,7.5 L7.242,7.5 L7.24264069,3.5 C7.24264069,3.22385763 7.46649831,3 7.74264069,3 Z" id="合并形状" fill="#FFFFFF" transform="translate(8.000000, 8.000000) rotate(-315.000000) translate(-8.000000, -8.000000) "></path>
            </g>
        </g>
    </g>
</svg>