<?xml version="1.0" encoding="UTF-8"?>
<svg width="73px" height="92px" viewBox="0 0 73 92" version="1.1" xmlns="http://www.w3.org/2000/svg" xmlns:xlink="http://www.w3.org/1999/xlink">
    <!-- Generator: Sketch 63.1 (92452) - https://sketch.com -->
    <title>基站统计</title>
    <desc>Created with Sketch.</desc>
    <g id="页面-1" stroke="none" stroke-width="1" fill="none" fill-rule="evenodd" opacity="0.2">
        <g id="00-首页NEW" transform="translate(-1324.000000, -95.000000)" fill="#485777" fill-rule="nonzero">
            <g id="基站统计" transform="translate(1323.500000, 95.000000)">
                <path d="M37,13 C31.2010101,13 26.5,17.7010101 26.5,23.5 C26.5,29.2989899 31.2010101,34 37,34 C42.7989899,34 47.5,29.2989899 47.5,23.5 C47.4873676,17.7062507 42.7937493,13.0126324 37,13 Z" id="路径_139-path"></path>
                <path d="M25.5275224,13.9997696 C26.8240582,12.8560032 26.8240582,11.0015913 25.5275224,9.85782485 C24.2309867,8.71405838 22.128887,8.71405838 20.8323513,9.85782485 C11.0558829,18.5026999 11.0558829,32.4972333 20.8323513,41.1421083 C21.6710628,41.8819956 22.8935116,42.1709545 24.0392129,41.900137 C25.1849142,41.6293195 26.0798089,40.8398692 26.3867986,39.8291645 C26.6937883,38.8184598 26.3662341,37.7400507 25.5275224,37.0001635 C18.3401316,30.6442798 18.3401316,20.3556534 25.5275224,13.9997696 L25.5275224,13.9997696 Z" id="路径_140"></path>
                <path d="M53.1537343,9.79296607 C51.8487902,8.7101967 49.8098201,8.73986847 48.5457033,9.86002367 C47.2815864,10.9801789 47.2481012,12.7869445 48.4700275,13.9432774 C51.9305996,16.9940201 53.8762278,21.1411666 53.8762278,25.4667042 C53.8762278,29.7922419 51.9305996,33.9393883 48.4700275,36.990131 C47.1766575,38.1362079 47.1766575,39.9943656 48.4700275,41.1404424 C49.7633974,42.2865192 51.8603644,42.2865192 53.1537343,41.1404424 C57.8565101,36.9889694 60.5,31.3489109 60.5,25.4667042 C60.5,19.5844975 57.8565101,13.9444391 53.1537343,9.79296607 L53.1537343,9.79296607 Z" id="路径_141"></path>
                <path d="M6.94340462,24.9563849 C6.9262491,17.3610823 10.382445,10.0753134 16.5418903,4.72247745 C17.7066018,3.61176726 17.6658908,1.895877 16.4495,0.828403643 C15.2331092,-0.239069712 13.2718613,-0.280047145 11.9986071,0.735408682 C4.63770392,7.15019123 0.5,15.8654029 0.5,24.9548299 C0.5,34.0442569 4.63770392,42.7594686 11.9986071,49.1742511 C13.2571268,50.2752497 15.2975905,50.2752496 16.5561102,49.174251 C17.8146299,48.0732524 17.8146299,46.288181 16.5561103,45.1871823 C10.3923239,39.8371589 6.93095935,32.5524082 6.94340462,24.9563849 L6.94340462,24.9563849 Z" id="路径_142"></path>
                <path d="M62.0688026,0.889983211 C61.2655041,0.140638561 60.0585232,-0.166747008 58.9200468,0.0880797723 C57.7815703,0.342906553 56.8925708,1.11943833 56.6008367,2.11388567 C56.3091025,3.10833302 56.6610077,4.16261823 57.5188824,4.86429109 C70.2495454,16.0112715 70.2495454,34.0556056 57.5188824,45.202586 C56.2624567,46.3000608 56.2624567,48.0794191 57.5188824,49.1768939 C58.7753082,50.2743687 60.8123768,50.2743687 62.0688026,49.1768939 C77.3103991,35.8342699 77.3103991,14.2326072 62.0688026,0.889983211 L62.0688026,0.889983211 Z" id="路径_143"></path>
                <polygon id="矩形_1" transform="translate(42.695334, 66.227729) rotate(-44.432734) translate(-42.695334, -66.227729) " points="39.5349249 44.4678335 45.4085435 44.5282489 45.8557435 87.9876248 39.9821249 87.9272094"></polygon>
                <polygon id="矩形_2" transform="translate(31.379927, 66.214884) rotate(-45.486233) translate(-31.379927, -66.214884) " points="9.58405734 63.0542231 53.1153792 63.5021737 53.1757968 69.375545 9.64447502 68.9275944"></polygon>
                <path d="M64.3077044,87.9656369 L44.8832854,30.8659934 C44.3293631,29.3840905 42.7628006,28.6353698 41.3451829,29.1749977 C39.9275653,29.7146256 39.1714257,31.347502 39.6374315,32.862871 L59.0587756,89.9625145 C59.3733465,90.9854438 60.1894476,91.7461651 61.1884736,91.9476935 C62.1874996,92.1492218 63.2110414,91.7596021 63.8595092,90.9309417 C64.5079769,90.1022812 64.6785471,88.9659753 64.3046294,87.9656369 L64.3077044,87.9656369 Z" id="路径_144"></path>
                <path d="M32.6694539,29.1748367 C31.2281164,28.62459 29.6390681,29.4162441 29.1171192,30.9445881 L9.70013729,87.9565592 C9.32174678,88.9559865 9.48758584,90.094916 10.1325893,90.9265011 C10.7775928,91.7580863 11.7988762,92.1496809 12.7957501,91.947647 C13.792624,91.7456132 14.6060769,90.9821774 14.9169596,89.9568653 L34.3339415,32.9448942 C34.5847971,32.2107276 34.5503185,31.4008334 34.2381028,30.6936661 C33.9258871,29.9864989 33.3615553,29.4400899 32.6694539,29.1748367 L32.6694539,29.1748367 Z" id="路径_145"></path>
            </g>
        </g>
    </g>
</svg>