<?xml version="1.0" encoding="UTF-8"?>
<svg width="32px" height="32px" viewBox="0 0 32 32" version="1.1" xmlns="http://www.w3.org/2000/svg" xmlns:xlink="http://www.w3.org/1999/xlink">
    <!-- Generator: Sketch 63.1 (92452) - https://sketch.com -->
    <title>农场统计</title>
    <desc>Created with Sketch.</desc>
    <g id="页面-1" stroke="none" stroke-width="1" fill="none" fill-rule="evenodd">
        <g id="00-首页NEW" transform="translate(-240.000000, -609.000000)">
            <g id="农场统计" transform="translate(240.000000, 609.000000)">
                <circle id="椭圆形" fill="#222A3A" cx="16" cy="16" r="16"></circle>
                <g id="icon_farm备份" transform="translate(3.000000, 6.000000)" fill="#1989FA" fill-rule="nonzero">
                    <path d="M6.40298507,9.16363636 C3.08635678,9.16363636 0.388059701,11.8185343 0.388059701,15.0818182 C0.388059701,18.3451021 3.08635678,21 6.40298507,21 C9.71961337,21 12.4179104,18.3451021 12.4179104,15.0818182 C12.4179104,11.8185343 9.71961337,9.16363636 6.40298507,9.16363636 Z M6.40298507,19.5204545 C3.91556281,19.5204545 1.89179104,17.529233 1.89179104,15.0818182 C1.89179104,12.6344034 3.91556281,10.6431818 6.40298507,10.6431818 C8.89040734,10.6431818 10.9141791,12.6344034 10.9141791,15.0818182 C10.9141791,17.529233 8.89040734,19.5204545 6.40298507,19.5204545 Z" id="形状"></path>
                    <path d="M6.40298507,13.3636364 C5.44011194,13.3636364 4.65671642,14.1344318 4.65671642,15.0818182 C4.65671642,16.0292045 5.44011194,16.8 6.40298507,16.8 C7.36585821,16.8 8.14925373,16.0292045 8.14925373,15.0818182 C8.14925373,14.1344318 7.36585821,13.3636364 6.40298507,13.3636364 Z" id="路径"></path>
                    <path d="M24.4807383,13.1490235 L24.4807383,10.5 C24.4807383,8.8457031 23.1177549,7.5 21.442215,7.5 L19.9229533,7.5 L19.9229533,3.75 C19.9229533,3.33652345 20.2637981,3 20.6825841,3 L20.6825841,1.5 C19.4260281,1.5 18.4036916,2.509375 18.4036916,3.75 L18.4036916,7.5 L15.0694266,7.5 L13.2463126,1.5 L13.7542533,1.5 C14.1684669,1.5 14.5042533,1.16421356 14.5042533,0.75 C14.5042533,0.335786438 14.1684669,3.49325055e-17 13.7542533,0 L3.10015994,0 C2.68594638,7.6089797e-17 2.35015994,0.335786438 2.35015994,0.75 C2.35015994,1.16421356 2.68594638,1.5 3.10015994,1.5 L3.86942161,1.5 L3.86942161,1.5 L3.86942161,6.28691405 C2.96698391,6.51731811 1.80889773,7.08509278 1.04621713,7.54933594 C0.724035466,7.74544769 0.481174512,7.92250122 0.34722708,8.0574219 C-0.0728588637,8.48056014 -0.0752585051,8.98940759 0.146266789,9.24 C0.512854267,9.65468872 1.21393194,9.30008789 1.31456945,9.2140625 C1.41520696,9.12803711 1.35743845,9.17930825 1.37900652,9.16211697 C2.72441616,8.08972975 4.41471126,7.5 6.14831412,7.5 C10.3369661,7.5 13.7446225,10.8644531 13.7446225,15 L13.7446225,16.25 C13.7446225,16.8022847 14.1923377,17.25 14.7446225,17.25 L16.9481281,17.25 L16.9481281,17.25 C17.310931,19.375586 19.1878522,21 21.442215,21 C23.955327,21 26,18.98125 26,16.5 C26,15.1703125 25.4126709,13.9736328 24.4807383,13.1490235 Z M5.38868329,6.03183595 L5.38868329,1.5 L11.6601876,1.5 L13.4833016,7.5 L11.181264,7.5 C9.73796544,6.5527344 8.00743149,6 6.14831412,6 C5.89411475,6 5.64070662,6.0109375 5.38868329,6.03183595 Z M12.9363278,9 L21.442215,9 C22.2799849,9 22.9614767,9.67285155 22.9614767,10.5 L22.9614767,12.2574219 C22.4861139,12.0910156 21.9747478,12 21.442215,12 L14.7424293,12 C14.3410514,10.8826172 13.7224666,9.8660156 12.9363278,9 Z M15.1364877,13.5 L18.0482081,13.5 C17.4854088,14.1199219 17.0941197,14.8943359 16.9481281,15.75 L15.2638842,15.75 L15.2638842,15 C15.2638842,14.4890625 15.219968,13.9880859 15.1364877,13.5 L15.1364877,13.5 Z M21.442215,19.5 C19.7666751,19.5 18.4036916,18.1542969 18.4036916,16.5 C18.4036916,14.8457031 19.7666751,13.5 21.442215,13.5 C23.1177549,13.5 24.4807383,14.8457031 24.4807383,16.5 C24.4807383,18.1542969 23.1177549,19.5 21.442215,19.5 Z" id="形状"></path>
                </g>
            </g>
        </g>
    </g>
</svg>