<?xml version="1.0" encoding="UTF-8"?>
<svg width="84px" height="84px" viewBox="0 0 84 84" version="1.1" xmlns="http://www.w3.org/2000/svg" xmlns:xlink="http://www.w3.org/1999/xlink">
    <!-- Generator: Sketch 63.1 (92452) - https://sketch.com -->
    <title>物环设备</title>
    <desc>Created with Sketch.</desc>
    <g id="页面-1" stroke="none" stroke-width="1" fill="none" fill-rule="evenodd">
        <g id="00-数据概览" transform="translate(-634.000000, -90.000000)">
            <g id="物环设备" transform="translate(634.000000, 90.000000)">
                <circle id="椭圆形备份-7" fill="#222A3A" cx="42" cy="42" r="42"></circle>
                <g id="icon_equiptment备份" transform="translate(42.000000, 40.000000) scale(-1, 1) translate(-42.000000, -40.000000) translate(13.000000, 18.000000)" fill="#00B8EE" fill-rule="nonzero">
                    <path d="M0.609196467,19.6958587 L33.3847823,0.732467432 C36.0061294,-0.709303461 39.2773754,0.0330866356 41.0389032,2.46952532 L47.3869301,11.651117 C48.2339999,12.8769202 48.5340753,14.4059808 48.2141363,15.8662193 C47.8941973,17.3264577 46.9835787,18.5839864 45.7038693,19.3328001 L38.7928083,23.3667839 L40.0409073,25.0525002 C41.4601256,26.9404698 41.4352662,29.5612409 39.9804959,31.421305 L41.8206263,34.2206453 L50.7506353,34.2206453 L50.7506353,30.5411631 C50.7509443,30.2181718 50.8787273,29.9086791 51.1055967,29.6814403 C51.3324661,29.4542014 51.6396344,29.3280344 51.9588628,29.3309679 L56.7917726,29.3309679 C57.111001,29.3280344 57.4181693,29.4542014 57.6450387,29.6814403 C57.8719081,29.9086791 58,30.2181718 58,30.5411631 L58,42.7775807 C58,43.4527042 57.4590581,44 56.7917726,44 L51.9588628,44 C51.2915772,44 50.7506353,43.4527042 50.7506353,42.7775807 L50.7506353,41.5551613 L41.8097523,41.5551613 C39.3845691,41.5581925 37.119309,40.3312422 35.7770726,38.2876344 L33.7967879,35.2792604 C33.4169271,35.3744485 33.0280697,35.4281346 32.6368895,35.4393974 C30.7030359,35.43402 28.9123154,34.4074055 27.9139284,32.7317385 L26.5848783,30.4910439 L16.3161532,36.505347 C16.0276689,36.6740269 15.6831405,36.7146868 15.3640285,36.617713 C15.0449166,36.5207392 14.7795513,36.2947409 14.6306759,35.9931533 L13.7365876,34.179083 C13.5891839,34.1900848 13.4490295,34.2218677 13.2992093,34.2218677 C8.6282232,34.2137813 4.84494108,30.3822328 4.8416172,25.6563754 C4.85043997,25.1182956 4.91359596,24.582537 5.03010068,24.0574509 L0.680481886,21.8570961 C0.277304922,21.6590277 0.0156234538,21.2514316 0.000675103524,20.7982263 C-0.0142732468,20.3450209 0.219967964,19.920681 0.609196467,19.6958587 Z M53.1670902,41.5612734 L55.5835451,41.5612734 L55.5835451,31.7758066 L53.1670902,31.7758066 L53.1670902,41.5551613 L53.1670902,41.5612734 Z M37.7996454,36.9429731 C38.6946399,38.304616 40.2043707,39.122048 41.8206263,39.1201055 L50.7506353,39.1201055 L50.7506353,36.6752633 L41.8097523,36.6752633 C41.0013188,36.6768722 40.246091,36.2677303 39.7992618,35.5860877 L38.1367408,33.0459003 L36.0622143,34.3049922 L37.7996454,36.9429731 Z M29.9981208,31.4897605 C30.9060167,32.9290915 32.7673487,33.3997562 34.2377909,32.5618222 L37.3018557,30.7013 C37.9853434,30.285269 38.4629249,29.5960598 38.6164778,28.8041377 C38.7700306,28.0122156 38.5852154,27.1915334 38.1077434,26.5450742 L36.6844515,24.6246534 L28.6908187,29.2906281 L29.9981208,31.4897605 Z M12.5102368,31.7049063 L9.98020851,26.579302 L7.29552714,25.2224165 C7.28223663,25.3727741 7.25565563,25.5280213 7.25565563,25.6722668 C7.2655993,28.7309867 9.51219326,31.3097165 12.5102368,31.7036839 L12.5102368,31.7049063 Z M10.8392582,24.2811536 L40.9809082,6.68809446 L39.0586184,3.90464562 C38.0508712,2.44942983 36.1137449,2.00978109 34.5881768,2.89003757 L3.77354414,20.7067995 L10.8392582,24.2811536 Z" id="cam01"></path>
                </g>
            </g>
        </g>
    </g>
</svg>