<?xml version="1.0" encoding="UTF-8"?>
<svg width="92px" height="92px" viewBox="0 0 92 92" version="1.1" xmlns="http://www.w3.org/2000/svg" xmlns:xlink="http://www.w3.org/1999/xlink">
    <!-- Generator: Sketch 63.1 (92452) - https://sketch.com -->
    <title>物流线路</title>
    <desc>Created with Sketch.</desc>
    <g id="页面-1" stroke="none" stroke-width="1" fill="none" fill-rule="evenodd" fill-opacity="0.2">
        <g id="00-首页NEW" transform="translate(-698.000000, -99.000000)" fill="#485777" fill-rule="nonzero">
            <g id="物流线路" transform="translate(698.000000, 99.000000)">
                <path d="M76.5,0 C67.9534119,0 61,6.8783485 61,15.3326745 C61,22.6661537 71.9836699,37.5086598 74.5571643,40.8868325 C74.5564377,41.9780321 74.5571643,43.0494668 74.530463,44.0328581 C74.502127,45.0902777 75.3460326,45.9719698 76.4168083,46 C76.4338826,46 76.4509568,46 76.4698475,46 C77.5142852,46 78.3770816,45.1745479 78.4054176,44.1340182 C78.4321189,43.1249326 78.4313923,42.0234913 78.4321189,40.901207 C80.988539,37.546213 92,22.6747783 92,15.3326745 C92,6.8783485 85.0465881,0 76.5,0 Z M76.5,37.0404125 C72.240874,31.2439202 64.8749546,20.2122573 64.8749546,15.3326745 C64.8749546,8.99139096 70.089514,3.83312371 76.5,3.83312371 C82.910486,3.83312371 88.1250454,8.99139096 88.1250454,15.3326745 C88.1250454,20.2122573 80.759126,31.2437405 76.5,37.0404125 Z" id="形状"></path>
                <path d="M77,11 C74.7949655,11 73,12.7949655 73,15 C73,17.2050345 74.7949655,19 77,19 C79.2050345,19 81,17.205222 81,15 C81,12.7949655 79.2050345,11 77,11 Z" id="路径"></path>
                <path d="M22.5,42 C16.1584688,42 11,47.1584687 11,53.5 C11,59.8415313 16.1584688,65 22.5,65 C28.8415312,65 34,59.8415313 34,53.5 C34,47.1584687 28.8415312,42 22.5,42 Z M22.5,61.1665469 C18.2717734,61.1665469 14.8332734,57.7282266 14.8332734,53.4998203 C14.8332734,49.2714141 18.2717734,45.8332734 22.5,45.8332734 C26.7282266,45.8332734 30.1667266,49.2715938 30.1667266,53.5 C30.1667266,57.7284063 26.7282266,61.1665469 22.5,61.1665469 Z" id="形状"></path>
                <path d="M51.8365503,69.1276464 C50.8940645,68.7530266 49.8448854,69.2313389 49.4804212,70.1914549 C48.6642602,72.34805 47.6435896,74.8628557 46.2671608,77.166785 C45.7425713,78.0450293 46.0146818,79.1907095 46.871813,79.7271525 C47.1688471,79.9127167 47.4959261,80 47.8195908,80 C48.4331199,80 49.0323094,79.6835109 49.3756057,79.1090124 C50.901405,76.5523107 52.0019676,73.8465293 52.8768525,71.5371884 C53.2396097,70.5786435 52.7737441,69.500346 51.8365503,69.1276464 Z" id="路径"></path>
                <path d="M40.922379,82.4341272 C39.0202882,84.0235742 36.8589023,85.2200229 34.3116881,86.0938528 C33.3143717,86.4359902 32.7692647,87.5660009 33.093695,88.6177498 C33.3551257,89.4623018 34.0984859,90 34.8993288,90 C35.0940226,90 35.2922757,89.9686577 35.4869695,89.9022196 C38.4289102,88.8934491 41.0501579,87.437066 43.2804164,85.5737964 C44.1017252,84.8855803 44.2407159,83.6266347 43.5900756,82.7604996 C42.9337404,81.8966167 41.7417302,81.7421575 40.922379,82.4341272 Z" id="路径"></path>
                <path d="M59.1432449,55.2498234 C55.9878745,57.02789 54.2347117,60.1146776 53.1890158,62.2802167 C52.7315911,63.2258491 53.1329132,64.3605012 54.0852242,64.8127602 C54.3522943,64.9407311 54.6342414,65 54.9104528,65 C55.6236554,65 56.3071039,64.6032722 56.6356539,63.922837 C57.9631177,61.1733302 59.3187225,59.5177171 61.0326313,58.5498366 C61.9494524,58.0326133 62.2724459,56.8737553 61.749598,55.961584 C61.2306934,55.0495907 60.0674149,54.7288624 59.1432449,55.2498234 Z" id="路径"></path>
                <path d="M76.1635542,50.3173341 C75.2992547,49.7465868 74.1116458,49.9657705 73.5205178,50.8138024 C72.8942397,51.7162824 71.6117078,52.9574533 67.7327089,53.2963182 C66.6862357,53.3886885 65.9131123,54.2892549 66.0078569,55.3112422 C66.0970703,56.2753023 66.9278256,57 67.9018575,57 C67.9594894,57 68.0171212,56.9982604 68.0747531,56.9926939 C72.1953419,56.6320846 75.0073484,55.2912373 76.6727843,52.8937857 C77.2621281,52.0459277 77.0333849,50.8917344 76.1635542,50.3173341 Z" id="路径"></path>
                <path d="M27.5416016,88.2120504 C33.5893437,81.7977699 46,67.0412792 46,53.8749553 C46,41.0487177 35.8963516,31 23,31 C10.1036484,31 0,41.0487177 0,53.8749553 C0,70.898926 20.7988281,90.646446 21.6841484,91.4787012 C22.0528672,91.8268294 22.5265234,92 23,92 C24.3963516,92 25.7233438,91.9515694 26.9811563,91.8566741 C28.0368203,91.7766118 28.8285234,90.8625071 28.7480234,89.8125824 C28.6905234,89.0611044 28.2015938,88.4751124 27.5416016,88.2120504 Z M23,87.4055295 C18.4722344,82.8112377 3.83327344,66.9431671 3.83327344,53.8749553 C3.83327344,43.1857389 12.2525313,34.812433 23,34.812433 C33.7474688,34.812433 42.1667266,43.1857389 42.1667266,53.8749553 C42.1667266,66.9431671 27.5277656,82.811059 23,87.4055295 Z" id="形状"></path>
            </g>
        </g>
    </g>
</svg>