<?xml version="1.0" encoding="UTF-8"?>
<svg width="84px" height="84px" viewBox="0 0 84 84" version="1.1" xmlns="http://www.w3.org/2000/svg" xmlns:xlink="http://www.w3.org/1999/xlink">
    <!-- Generator: Sketch 63.1 (92452) - https://sketch.com -->
    <title>基站统计</title>
    <desc>Created with Sketch.</desc>
    <g id="页面-1" stroke="none" stroke-width="1" fill="none" fill-rule="evenodd">
        <g id="00-数据概览" transform="translate(-1042.000000, -90.000000)">
            <g id="基站统计" transform="translate(1042.000000, 90.000000)">
                <circle id="椭圆形备份-6" fill="#222A3A" cx="42" cy="42" r="42"></circle>
                <g id="icon_base备份" transform="translate(21.000000, 15.000000)" fill="#009BAE" fill-rule="nonzero">
                    <path d="M21,9 C17.6862915,9 15,11.6862915 15,15 C15,18.3137085 17.6862915,21 21,21 C24.3137085,21 27,18.3137085 27,15 C26.9927815,11.6892861 24.3107139,9.00721853 21,9 Z" id="路径_139-path"></path>
                    <path d="M14.4763582,8.03016342 C15.1744929,7.33697162 15.1744929,6.21308565 14.4763582,5.51989385 C13.7782236,4.82670205 12.6463238,4.82670205 11.9481891,5.51989385 C6.68393695,10.759212 6.68393695,19.2407475 11.9481891,24.4800656 C12.399803,24.9284822 13.0580447,25.1036088 13.6749608,24.9394769 C14.2918769,24.7753451 14.7737432,24.2968904 14.9390454,23.6843421 C15.1043475,23.0717938 14.9279722,22.4182125 14.4763582,21.9697961 C10.6062247,18.1177453 10.6062247,11.8822142 14.4763582,8.03016342 L14.4763582,8.03016342 Z" id="路径_140"></path>
                    <path d="M30.0443185,5.4805855 C29.3416563,4.82436164 28.2437493,4.84234453 27.563071,5.52122647 C26.8823927,6.20010841 26.8643622,7.29511787 27.5223225,7.9959257 C29.3857075,9.84486068 30.4333534,12.3582828 30.4333534,14.9798207 C30.4333534,17.6013587 29.3857075,20.1147808 27.5223225,21.9637158 C26.8258925,22.6583078 26.8258925,23.784464 27.5223225,24.479056 C28.2187524,25.173648 29.3478885,25.173648 30.0443185,24.479056 C32.5765824,21.9630118 34,18.5447945 34,14.9798207 C34,11.414847 32.5765824,7.99662973 30.0443185,5.4805855 L30.0443185,5.4805855 Z" id="路径_141"></path>
                    <path d="M3.41121421,15.4729586 C3.40213188,10.763871 5.23188265,6.24669433 8.49276545,2.92793602 C9.10937741,2.2392957 9.08782452,1.17544374 8.44385292,0.513610259 C7.79988132,-0.148223221 6.76157365,-0.17362923 6.08749786,0.455953383 C2.19054913,4.43311856 0,9.83654977 0,15.4719945 C0,21.1074393 2.19054913,26.5108705 6.08749786,30.4880357 C6.75377304,31.1706548 7.83401848,31.1706548 8.50029363,30.4880356 C9.16656877,29.8054165 9.16656879,28.6986722 8.50029367,28.016053 C5.23711263,24.6990385 3.40462554,20.1824931 3.41121421,15.4729586 L3.41121421,15.4729586 Z" id="路径_142"></path>
                    <path d="M35.9481896,0.551789591 C35.5229139,0.0871959079 34.8839241,-0.103383145 34.2812012,0.0546094588 C33.6784784,0.212602063 33.2078316,0.694051762 33.0533841,1.31060912 C32.8989366,1.92716647 33.0852394,2.5808233 33.5394084,3.01586047 C40.2791711,9.92698833 40.2791711,21.1144755 33.5394084,28.0256033 C32.8742418,28.7060377 32.8742418,29.8092398 33.5394084,30.4896742 C34.2045749,31.1701086 35.283023,31.1701086 35.9481896,30.4896742 C44.0172701,22.2172473 44.0172701,8.82421649 35.9481896,0.551789591 L35.9481896,0.551789591 Z" id="路径_143"></path>
                    <polygon id="矩形_1" transform="translate(24.322278, 40.458687) rotate(-44.432734) translate(-24.322278, -40.458687) " points="22.6624038 27.5780433 26.144771 27.5560741 25.9821528 53.3393313 22.4997856 53.3613005"></polygon>
                    <polygon id="矩形_2" transform="translate(17.721624, 40.450941) rotate(-45.486233) translate(-17.721624, -40.450941) " points="4.82024504 38.791195 30.6449733 38.6283038 30.6230032 42.1106879 4.79827497 42.273579"></polygon>
                    <path d="M36.8769308,52.6306121 L24.4453026,19.0959009 C24.0907924,18.2255769 23.0881924,17.7858521 22.1809171,18.1027764 C21.2736418,18.4197007 20.7897124,19.3786917 21.0879562,20.2686703 L33.5176164,53.8033815 C33.7189417,54.4041495 34.2412464,54.8509224 34.8806231,54.9692803 C35.5199997,55.0876382 36.1750665,54.858814 36.5900859,54.3721403 C37.0051052,53.8854667 37.1142702,53.2181125 36.8749628,52.6306121 L36.8769308,52.6306121 Z" id="路径_144"></path>
                    <path d="M19.8284505,18.1054571 C18.9059945,17.7735622 17.8890036,18.2510679 17.5549563,19.1729261 L5.12808787,53.5610992 C4.88591794,54.1639284 4.99205494,54.8509017 5.40485717,55.3524928 C5.8176594,55.8540838 6.47128078,56.0902837 7.10928006,55.968422 C7.74727933,55.8465604 8.26788923,55.3860752 8.46685413,54.767633 L20.8937226,20.37946 C21.0542702,19.9366294 21.0322039,19.4481217 20.8323858,19.0215764 C20.6325678,18.5950311 20.2713954,18.2654511 19.8284505,18.1054571 L19.8284505,18.1054571 Z" id="路径_145"></path>
                </g>
            </g>
        </g>
    </g>
</svg>