<?xml version="1.0" encoding="UTF-8"?>
<svg width="85px" height="81px" viewBox="0 0 85 81" version="1.1" xmlns="http://www.w3.org/2000/svg" xmlns:xlink="http://www.w3.org/1999/xlink">
    <!-- Generator: Sketch 63.1 (92452) - https://sketch.com -->
    <title>tool (2)</title>
    <desc>Created with Sketch.</desc>
    <g id="页面-1" stroke="none" stroke-width="1" fill="none" fill-rule="evenodd">
        <g id="00-数据概览" transform="translate(-1195.000000, -663.000000)" fill-rule="nonzero">
            <g id="tool-(2)" transform="translate(1195.000000, 663.000000)">
                <path d="M11.6351849,61 L11,68.3317189 C18.3689048,76.1378845 28.7450234,81 40.2421343,81 C55.0096872,81 67.9286935,72.9793194 75,61 L11.6351849,61 Z" id="路径" fill="#74727F"></path>
                <path d="M36,61 C45.0535557,63.7811529 45.4535006,77.5521749 36.5673403,80.7767704 C37.9778393,80.9242494 39.4097221,81 40.8591464,81 C55.7894192,81 68.8507766,72.9793194 76,61 L36,61 Z" id="路径" fill="#5F5E6A"></path>
                <path d="M74.8425342,62 C74.9486182,61.6680591 75.0538721,61.3351542 75.1574658,61 L75.1564697,61 C75.052876,61.3348329 74.9486182,61.6683805 74.8425342,62 Z" id="路径" fill="#67E5EE"></path>
                <path d="M40.5693133,0 C31.6356168,0 23.3804957,2.8916746 16.6888045,7.78486002 L12,61 L75.2802955,61 C78.9108062,54.9531728 81,47.8804109 81,40.319861 C81,18.0517778 62.898604,0 40.5693133,0 Z" id="路径" fill="#293245"></path>
                <polygon id="路径" fill="#363540" points="42 28 49 28 49 55 42 55"></polygon>
                <path d="M0,41.193031 C0,44.9410235 0.524579117,48.5681923 1.5024612,52.0092139 L11.2576344,52.0092139 C12.162575,52.0092139 12.9715926,52.5635625 13.2846747,53.3981961 L14.2607249,56 L43,56 L43,13 L11.7817139,13 C4.49822429,20.2450057 0,30.2019974 0,41.193031 Z" id="路径" fill="#EEEFEB"></path>
                <path d="M0,40.613017 C0,44.4168426 0.5506632,48.0980446 1.57716933,51.5903264 L11.8174071,51.5903264 C12.76717,51.5903264 13.6165898,52.1527669 13.9452396,53 C12.6215502,49.8426901 14.4392632,48.4484691 15.4308065,47.9486697 C15.7779866,47.7737067 16,47.435744 16,47.0622237 L16,16.8808535 C16,16.6334461 15.9007058,16.3975036 15.7309617,16.2100788 C14.4002797,14.7400904 14.9818849,13.4957427 15.5051024,12.8389252 C15.6982715,12.5963364 15.752289,12.2871188 15.6757206,12 L12.3675458,12 C4.72189323,19.3529331 0,29.4582521 0,40.613017 Z" id="路径" fill="#D6D6D0"></path>
                <path d="M48.7285396,64.2883223 L48.7285396,55 L14,55 L17.4596544,64.2883223 C17.8671464,65.3823681 17.3016876,66.5963651 16.1967417,67 L50,67 C48.8904515,66.5988065 48.3202257,65.3844839 48.7285396,64.2883223 Z" id="路径" fill="#5F5E6A"></path>
                <path d="M48.7211394,64.2883223 L48.7211394,61 L16.0383575,61 L17.2702632,64.2883223 C17.6801268,65.3823681 17.1113769,66.5963651 16,67 L50,67 C48.8839937,66.5988065 48.3104491,65.3844839 48.7211394,64.2883223 Z" id="路径" fill="#5F5E6A"></path>
                <path d="M48.7285396,64.2883223 L48.7285396,55 L14,55 L17.4596544,64.2883223 C17.8671464,65.3823681 17.3016876,66.5963651 16.1967417,67 L50,67 C48.8904515,66.5988065 48.3202257,65.3844839 48.7285396,64.2883223 Z" id="路径" fill="#5F5E6A"></path>
                <path d="M48.6792187,64.2883223 L48.6792187,55 L42,55 C42.9812787,55.3435779 43.6876081,56.241991 43.6876081,57.292581 L43.6876081,64.707419 C43.6876081,65.7578462 42.9812787,66.6564221 42,67 L50,67 C48.847433,66.5989692 48.2550112,65.3846467 48.6792187,64.2883223 Z" id="路径" fill="#4B4A55"></path>
                <path d="M48.7211394,64.2883223 L48.7211394,61 L16.0383575,61 L17.2702632,64.2883223 C17.6801268,65.3823681 17.1113769,66.5963651 16,67 L50,67 C48.8839937,66.5988065 48.3104491,65.3844839 48.7211394,64.2883223 Z" id="路径" fill="#4B4A55"></path>
                <path d="M48.6792187,64.2883223 L48.6792187,61 L43.6876081,61 L43.6876081,64.707419 C43.6876081,65.7578462 42.9812787,66.6564221 42,67 L50,67 C48.847433,66.5989692 48.2550112,65.3846467 48.6792187,64.2883223 Z" id="路径" fill="#363540"></path>
                <path d="M43.2722355,8 L17.1306342,8 C15.2947086,9.50266972 13.5780434,11.1758745 12,13 L43.2722355,13 C43.6741086,13 44,12.6362283 44,12.187643 L44,8.81235698 C44,8.36359013 43.6742713,8 43.2722355,8 L43.2722355,8 Z" id="路径" fill="#D6D6D0"></path>
                <path d="M14.8448528,12.3708893 C14.2718884,11.4537981 14.2751115,10.6501274 14.5075584,10 C13.2829465,10.9448819 12.1116116,11.9456925 11,13 L14.995583,13 C15.0158699,12.7856647 14.9663849,12.5652501 14.8448528,12.3708893 Z" id="路径" fill="#C6C6C1"></path>
                <path d="M3,26.1889987 L3,46.7468728 C3,47.4389032 3.67163594,48 4.5,48 C5.32836406,48 6,47.4389032 6,46.7468728 L6,21 C4.85759121,22.6585459 3.85386426,24.3919812 3,26.1889987 L3,26.1889987 Z" id="路径" fill="#C6C6C1"></path>
                <path d="M9.5,48 C8.67163593,48 8,47.4352661 8,46.7387499 L8,18.2612501 C8,17.5647339 8.67163593,17 9.5,17 C10.328364,17 11,17.5647339 11,18.2612501 L11,46.738585 C11.0001961,47.4352661 10.3285602,48 9.5,48 L9.5,48 Z" id="路径" fill="#C6C6C1"></path>
                <path d="M15.5,48 C14.6716359,48 14,47.4352661 14,46.7387499 L14,18.2612501 C14,17.5647339 14.6716359,17 15.5,17 C16.3285602,17 17,17.5647339 17,18.2612501 L17,46.738585 C17.0001961,47.4352661 16.3285602,48 15.5,48 L15.5,48 Z" id="路径" fill="#C6C6C1"></path>
                <g id="编组" transform="translate(19.000000, 17.000000)" fill="#D6D6D0">
                    <path d="M1.35551724,34.8724883 C0.627413793,34.8724883 0.0370689655,34.3098592 0.0370689655,33.615939 L0.0370689655,1.38603286 C0.0370689655,0.692112676 0.627413793,0.129483568 1.35551724,0.129483568 C2.08362069,0.129483568 2.67396555,0.692112676 2.67396555,1.38603286 L2.67396555,33.6157746 C2.67413793,34.3098592 2.0837931,34.8724883 1.35551724,34.8724883 L1.35551724,34.8724883 Z" id="路径"></path>
                    <path d="M7.10327586,34.8724883 C6.37517241,34.8724883 5.78482759,34.3098592 5.78482759,33.615939 L5.78482759,1.38603286 C5.78482759,0.692112676 6.37517241,0.129483568 7.10327586,0.129483568 C7.83137931,0.129483568 8.42172414,0.692112676 8.42172414,1.38603286 L8.42172414,33.6157746 C8.42172414,34.3098592 7.83137931,34.8724883 7.10327586,34.8724883 L7.10327586,34.8724883 Z" id="路径"></path>
                    <path d="M12.8508621,34.8724883 C12.1227586,34.8724883 11.5324138,34.3098592 11.5324138,33.615939 L11.5324138,1.38603286 C11.5324138,0.692112676 12.1227586,0.129483568 12.8508621,0.129483568 C13.5789655,0.129483568 14.1693103,0.692112676 14.1693103,1.38603286 L14.1693103,33.6157746 C14.1693103,34.3098592 13.5789655,34.8724883 12.8508621,34.8724883 L12.8508621,34.8724883 Z" id="路径"></path>
                    <path d="M18.5984483,34.8724883 C17.8703448,34.8724883 17.28,34.3098592 17.28,33.615939 L17.28,1.38603286 C17.28,0.692112676 17.8703448,0.129483568 18.5984483,0.129483568 C19.3267241,0.129483568 19.9168966,0.692112676 19.9168966,1.38603286 L19.9168966,33.6157746 C19.917069,34.3098592 19.3267241,34.8724883 18.5984483,34.8724883 L18.5984483,34.8724883 Z" id="路径"></path>
                </g>
                <polygon id="路径" fill="#000000" points="53 56 74 56 74 64 53 64"></polygon>
                <path d="M73,25 C72.6532324,22.7486804 70.4875006,21 67.8878439,21 L53.9193221,21 C52.8636188,21 52,21.775301 52,22.7227054 L52,25 L73,25 Z" id="路径" fill="#EEEFEB"></path>
                <path d="M65.4659089,22.7227054 C65.4659089,21.7751491 66.3286357,21 67.3828731,21 L53.9169642,21 C52.8625578,21 52,21.775301 52,22.7227054 L52,25 L68,25 C66.6004353,25 65.4659089,23.9804428 65.4659089,22.7227054 Z" id="路径" fill="#D6D6D0"></path>
                <path d="M81.7828436,55.5694888 C81.0633763,55.5694888 80.4780914,55.0032543 80.4780914,54.3070152 L80.4780914,47.8643098 C80.4780914,47.168237 81.0633763,46.6018362 81.7828436,46.6018362 L83,46.6018362 L83,42.7846571 C83,41.8892551 82.8485936,41.0005029 82.5526704,40.1569697 L77.9461765,27.0323307 C77.3080716,25.2142623 75.6102861,24 73.7063058,24 L52.0794712,24 C50.3787331,24 49,25.3972993 49,27.12094 L49,64 L49.1268008,63.9903577 L53.4137502,52.2096531 C53.7221402,51.3619637 54.5190331,50.7990541 55.4104115,50.7990541 L71.9625899,50.7990541 C72.8539683,50.7990541 73.6508612,51.3619637 73.9592512,52.2096531 L76.7168814,59.7879862 L83,59.7879862 L83,55.5694888 L81.7828436,55.5694888 Z" id="路径" fill="#FFC743"></path>
                <path d="M66.1627423,48.45997 L66.1627423,26.2805654 C66.1627423,25.235708 66.854248,24.3419684 67.8153121,24 L52.2252514,24 C50.4440014,24 49,25.3972993 49,27.12094 L49,64 L49.1328035,63.9903577 L53.6226942,52.2096531 C53.9456832,51.3619637 54.7803006,50.7990541 55.7138762,50.7990541 L68,50.7990541 C66.9437572,50.5112819 66.1627423,49.5706609 66.1627423,48.45997 L66.1627423,48.45997 Z" id="路径" fill="#FBB031"></path>
                <path d="M57.1166375,28 L52.8833625,28 C52.3955188,28 52,28.4257685 52,28.9509229 L52,37.0490771 C52,37.5742315 52.3955188,38 52.8833625,38 L57.1166375,38 C57.6044812,38 58,37.5742315 58,37.0490771 L58,28.9509229 C57.9998411,28.4257685 57.6044812,28 57.1166375,28 Z" id="路径" fill="#21212B"></path>
                <path d="M78.9592813,42.0409325 C78.5561971,40.8794947 77.4702609,37.8700725 74.2799175,28.8046675 C74.1098023,28.3234144 73.6546245,28 73.1468409,28 L61.9081351,28 C61.406671,28 61,28.4092113 61,28.9141917 L61,37.1374468 C61,37.6422553 61.4065002,38.0514666 61.9081351,38.0514666 L67.5434576,38.0514666 C67.911699,38.0514666 68.2435603,38.2753292 68.3834442,38.6183446 L69.7426579,41.9510092 C70.0014175,42.5856306 70.6154377,43 71.2969234,43 L78.2817241,43 C78.7758438,43.0001719 79.122223,42.5104939 78.9592813,42.0409325 L78.9592813,42.0409325 Z" id="路径" fill="#363540"></path>
                <path d="M62.7817968,28 C62.3500956,28 62,28.407116 62,28.9095108 L62,37.0906603 C62,37.592884 62.3500956,38 62.7817968,38 L65,38 L65,28 L62.7817968,28 Z" id="路径" fill="#21212B"></path>
                <path d="M65.5880202,44 L63.4119798,44 C62.6320396,44 62,43.3283641 62,42.5 C62,41.6716359 62.6322242,41 63.4119798,41 L65.5880202,41 C66.3679604,41 67,41.6716359 67,42.5 C67,43.3283641 66.3679604,44 65.5880202,44 Z" id="路径" fill="#F7991E"></path>
                <path d="M64,73 C58.4860467,73 54,68.5139533 54,63 C54,57.4860467 58.4860467,53 64,53 C69.5139533,53 74,57.4860467 74,63 C74,68.5139533 69.5139533,73 64,73 Z M64,57.3550162 C60.8872737,57.3550162 58.3548495,59.8874404 58.3548495,63.0001667 C58.3548495,66.112893 60.8872737,68.6453172 64,68.6453172 C67.1127263,68.6453172 69.6451505,66.112893 69.6451505,63.0001667 C69.6451505,59.8874404 67.1127263,57.3550162 64,57.3550162 Z" id="形状" fill="#21212B"></path>
                <path d="M69.6842916,68.0791355 C69.6344969,67.7848562 69.3800479,67.5682827 69.0770021,67.5311844 C68.6577687,67.4798819 68.3651608,67.3403457 68.159822,67.1615389 C67.1300479,68.0762946 65.7628337,68.6346065 64.2645448,68.6346065 C61.069473,68.6346065 58.4700548,66.0960507 58.4700548,62.9757877 C58.4700548,61.3688657 59.1606776,59.9173552 60.2657426,58.8862915 C60.0350787,58.5864976 60.0025667,58.2079952 60.0316564,57.8973393 C60.0617728,57.5754869 59.8600274,57.2815419 59.5456879,57.1809421 C57.8329911,56.6324897 58.051848,55.0312494 58.0562971,55 C55.5934292,56.8326866 54,59.7255139 54,62.9757877 C54,68.5030915 58.6047228,73 64.2645448,73 C67.3483915,73 70.116872,71.6629593 72,69.553707 C70.2438398,69.6798745 69.7920945,68.7156544 69.6842916,68.0791355 L69.6842916,68.0791355 Z" id="路径" fill="#000000"></path>
                <ellipse id="椭圆形" fill="#D6D6D0" cx="64" cy="62.5" rx="6" ry="5.5"></ellipse>
                <path d="M68,67.4889003 C67.6858389,67.2168509 67.5712293,66.855147 67.5367934,66.560984 C67.5007682,66.2531071 67.2553022,66.0125996 66.9404348,65.9623725 C62.1132322,65.1921659 61.393081,61.5531842 61.2993095,60.1145967 C61.2788246,59.8015771 61.0444841,59.5391275 60.7273209,59.4793006 C60.2959012,59.3978743 60.0228866,59.2194223 59.8531796,59 C58.7125576,60.0576841 58,61.5466701 58,63.1950801 C58,66.395903 60.6826426,69 63.9800095,69 C65.5262684,69 66.9374327,68.4272735 68,67.4889003 L68,67.4889003 Z" id="路径" fill="#C6C6C1"></path>
                <path d="M64,70 C60.1401349,70 57,66.8598651 57,63 C57,59.1401349 60.1403035,56 64,56 C67.8598651,56 71,59.1403035 71,63 C71,66.8598651 67.8598651,70 64,70 Z M64,58.5790894 C61.5623946,58.5790894 59.5790894,60.562226 59.5790894,63 C59.5790894,65.4376054 61.562226,67.420742 64,67.420742 C66.4376054,67.420742 68.420742,65.4376054 68.420742,63 C68.420742,60.562226 66.4376054,58.5790894 64,58.5790894 Z" id="形状" fill="#EEEFEB"></path>
                <path d="M69,67.6835715 C68.896828,67.5905858 68.766778,67.5278379 68.6252087,67.5093107 C67.6098497,67.3761243 67.3472454,66.6789061 67.2924875,66.1763986 C67.2784641,66.0475819 67.2298831,65.9315245 67.1584307,65.8345187 C66.357596,66.7507428 65.2070117,67.3264853 63.9300501,67.3264853 C61.5168614,67.3264853 59.5534224,65.2710112 59.5534224,62.7444909 C59.5534224,61.294298 60.2010017,60.000363 61.2083472,59.1601705 C61.1153589,59.0582707 60.9943239,58.9841618 60.8550918,58.9558466 C59.8751252,58.7562418 59.7517529,57.9894591 59.8003339,57.432943 C59.8140234,57.2761606 59.7769616,57.1267193 59.7043406,57 C58.0612688,58.3278433 57,60.4083117 57,62.7446657 C57,66.7453245 60.1088481,70 63.9298831,70 C65.9300501,70 67.7338898,69.1071971 69,67.6835715 L69,67.6835715 Z" id="路径" fill="#D6D6D0"></path>
                <path d="M82.6327937,47 L81.3672062,47 C80.6151971,47 80,47.6231623 80,48.3847514 L80,54.6152486 C80,55.3768377 80.6151971,56 81.3672062,56 L82.6327937,56 C83.3848029,56 84,55.3768377 84,54.6152486 L84,48.3847514 C84.0001523,47.6231623 83.3848029,47 82.6327937,47 Z" id="路径" fill="#EB5793"></path>
                <path d="M82.6327937,52.5329221 L81.3672062,52.5329221 C80.6151971,52.5329221 80,51.8431605 80,51 L80,55.4672559 C80,56.3102385 80.6151971,57 81.3672062,57 L82.6327937,57 C83.3848029,57 84,56.3102385 84,55.4672559 L84,51 C84.0001523,51.8431605 83.3848029,52.5329221 82.6327937,52.5329221 Z" id="路径" fill="#E7387F"></path>
                <path d="M3,56 C3.17982525,56.4375849 3.37032977,56.8699779 3.56582944,57.2997749 L7.8723341,64 L14,64 L14,56 L3,56 Z" id="路径" fill="#363540"></path>
                <path d="M2.76635079,53 C2.50822774,53 2.25334615,53.0130863 2,53.032454 C2.35980272,54.1303068 2.76532717,55.206349 3.20821378,56.2621512 L4.06566683,57.7107166 C6.62727794,58.3154778 8.54332553,60.6657761 8.54332553,63.4665918 C8.54332553,63.9807959 8.47491354,64.478424 8.35361447,64.9542416 L9.21601501,66.4110078 C9.92657847,67.3040164 10.6692154,68.1692821 11.4471672,69 C12.4298432,67.3933522 13,65.4972355 13,63.4665918 C13.0001706,57.695362 8.4092312,53 2.76635079,53 Z" id="路径" fill="#21212B"></path>
                <path d="M3,56 C4.62531087,59.6245334 6.77055611,62.9858909 9.34599903,66 C9.76488988,65.1120167 10,64.12866 10,63.0934215 C10,59.3185507 6.89905905,56.2227663 3,56 L3,56 Z" id="路径" fill="#EEEFEB"></path>
                <path d="M13.2419004,52.4583262 C12.9191216,51.5819555 12.0850475,51 11.1520795,51 C8.6448781,51 4.6144356,51 1,51 C1.41068449,52.5219185 1.90154861,54.0110097 2.47310742,55.4595392 L9.07444859,55.4595392 C9.39001636,55.4595392 9.67210441,55.6563316 9.78129978,55.9526374 L13.6821157,66.5410998 C14.1084241,67.6984797 15.3904396,68.2873101 16.5426568,67.8615854 C17.6967627,67.435345 18.2875508,66.1535304 17.8617576,64.9980411 L13.2419004,52.4583262 Z" id="路径" fill="#4B4A55"></path>
                <path d="M13,52.4722723 C12.6835993,51.5875208 11.8660066,51 10.951474,51 C8.49381504,51 4.54301422,51 1,51 C1.40256935,52.5364728 1.88373398,54.0398043 2.44399877,55.5021863 L8.9148972,55.5021863 C9.22422933,55.5021863 9.50074332,55.7008606 9.60778099,56 C9.60778099,52.1009509 13,52.4722723 13,52.4722723 Z" id="路径" fill="#363540"></path>
                <path d="M82.93727,59 L72,59 L74.5144126,66 L82.93727,66 C84.0718495,66 85,65.0442785 85,63.876214 L85,61.123786 C85,59.9557215 84.0716762,59 82.93727,59 Z" id="路径" fill="#363540"></path>
                <path d="M79.9694591,63.876214 L79.9694591,61.123786 C79.9694591,59.9557215 80.8832964,59 82,59 L72,59 L74.4751749,66 L82,66 C80.8831257,66 79.9694591,65.0442785 79.9694591,63.876214 Z" id="路径" fill="#21212B"></path>
                <path d="M77.8663085,64.9980714 L73.3984193,52.4583115 C73.0862582,51.5819496 72.2796205,51 71.377342,51 C66.8651193,51 57.2510546,51 54.6225914,51 C53.7203129,51 52.9136753,51.5819496 52.6015141,52.4583115 L48.1336249,64.9980714 C47.7100488,66.1870636 48.3272312,67.5099421 49.5079641,67.8964762 C50.6138115,68.2584331 51.7953746,67.6085951 52.1967009,66.4821633 L55.94828,55.9527592 C56.0538834,55.6564564 56.3266923,55.459666 56.6318796,55.459666 L69.3677217,55.459666 C69.672909,55.459666 69.9457179,55.6564564 70.0513214,55.9527592 L73.8238219,66.5411145 C74.236107,67.6984827 75.4759513,68.2873071 76.5902669,67.8615868 C77.706741,67.4353508 78.2780955,66.1533772 77.8663085,64.9980714 L77.8663085,64.9980714 Z" id="路径" fill="#4B4A55"></path>
                <path d="M58,55.4603092 C54.5585276,53.9835097 55.9048896,51 55.9048896,51 C54.9641501,51 54.1231283,51.582056 53.7976608,52.458578 L49.1393209,65.0006297 C48.6976892,66.1896673 49.34118,67.5129594 50.5722434,67.8995642 C51.7252293,68.2615872 52.9571583,67.6116304 53.3755918,66.4849928 L57.2870877,55.9536643 C57.3973658,55.6571355 57.6818036,55.4603092 58,55.4603092 L58,55.4603092 Z" id="路径" fill="#363540"></path>
            </g>
        </g>
    </g>
</svg>