<?xml version="1.0" encoding="UTF-8"?>
<svg width="32px" height="32px" viewBox="0 0 32 32" version="1.1" xmlns="http://www.w3.org/2000/svg" xmlns:xlink="http://www.w3.org/1999/xlink">
    <!-- Generator: Sketch 63.1 (92452) - https://sketch.com -->
    <title>基站统计备份 3</title>
    <desc>Created with Sketch.</desc>
    <g id="页面-1" stroke="none" stroke-width="1" fill="none" fill-rule="evenodd">
        <g id="00-首页NEW" transform="translate(-324.000000, -968.000000)">
            <g id="基站统计备份-3" transform="translate(324.000000, 968.000000)">
                <circle id="椭圆形" fill="#222A3A" cx="16" cy="16" r="16"></circle>
                <g id="icon_base" transform="translate(8.000000, 5.000000)" fill="#1989FA" fill-rule="nonzero">
                    <path d="M8.5,3 C7.11928813,3 6,4.11928813 6,5.5 C6,6.88071187 7.11928813,8 8.5,8 C9.88071187,8 11,6.88071187 11,5.5 C10.9969923,4.12053588 9.87946412,3.00300772 8.5,3 Z" id="路径_139-path"></path>
                    <path d="M5.7755821,3.21206537 C6.07478265,2.93478865 6.07478265,2.48523426 5.7755821,2.20795754 C5.47638155,1.93068082 4.99128161,1.93068082 4.69208106,2.20795754 C2.43597298,4.30368481 2.43597298,7.69629898 4.69208106,9.79202626 C4.88562988,9.97139286 5.16773344,10.0414435 5.43212605,9.97579078 C5.69651867,9.91013805 5.90303281,9.71875617 5.97387659,9.47373685 C6.04472038,9.22871752 5.96913094,8.96728501 5.7755821,8.78791843 C4.11695345,7.24709812 4.11695345,4.75288567 5.7755821,3.21206537 L5.7755821,3.21206537 Z" id="路径_140"></path>
                    <path d="M12.3047079,2.1922342 C12.003567,1.92974466 11.5330354,1.93693781 11.2413161,2.20849059 C10.9495969,2.48004336 10.9418695,2.91804715 11.2238525,3.19837028 C12.0224461,3.93794427 12.4714372,4.94331311 12.4714372,5.9919283 C12.4714372,7.04054348 12.0224461,8.04591232 11.2238525,8.78548631 C10.9253825,9.06332312 10.9253825,9.51378559 11.2238525,9.79162239 C11.5223225,10.0694592 12.0062379,10.0694592 12.3047079,9.79162239 C13.3899639,8.7852047 14,7.4179178 14,5.9919283 C14,4.56593879 13.3899639,3.19865189 12.3047079,2.1922342 L12.3047079,2.1922342 Z" id="路径_141"></path>
                    <path d="M1.51609521,5.98953238 C1.51205861,4.16665976 2.32528118,2.41807523 3.77456242,1.13339459 C4.04861218,0.866824142 4.03903312,0.455010479 3.75282352,0.198816874 C3.46661392,-0.0573767309 3.00514385,-0.0672113147 2.70555461,0.176498084 C0.973577393,1.71604589 0,3.80769668 0,5.98915917 C0,8.17062166 0.973577393,10.2622725 2.70555461,11.8018203 C3.00167691,12.0660599 3.48178599,12.0660599 3.77790828,11.8018202 C4.07403057,11.5375806 4.07403058,11.1091634 3.7779083,10.8449238 C2.32760561,9.56091813 1.51316691,7.81257796 1.51609521,5.98953238 L1.51609521,5.98953238 Z" id="路径_142"></path>
                    <path d="M14.3103065,0.213595971 C14.1212951,0.0337532547 13.8372996,-0.0400192819 13.5694228,0.0211391454 C13.301546,0.0822975727 13.0923696,0.268665198 13.0237263,0.507332561 C12.9550829,0.745999924 13.0378842,0.999028374 13.239737,1.16742986 C16.2351872,3.84270516 16.2351872,8.17334535 13.239737,10.8486206 C12.9441075,11.1120146 12.9441075,11.5390606 13.239737,11.8024545 C13.5353666,12.0658485 14.0146769,12.0658485 14.3103065,11.8024545 C17.8965645,8.60022477 17.8965645,3.41582574 14.3103065,0.213595971 L14.3103065,0.213595971 Z" id="路径_143"></path>
                    <polygon id="矩形_1" transform="translate(9.844732, 15.837066) rotate(-44.432734) translate(-9.844732, -15.837066) " points="9.12669089 10.6705822 10.5221179 10.6760745 10.5627725 21.0035491 9.16734544 20.9980568"></polygon>
                    <polygon id="矩形_2" transform="translate(7.173038, 15.833994) rotate(-45.486233) translate(-7.173038, -15.833994) " points="1.99809932 15.115936 12.3424849 15.1566587 12.3479774 16.5520521 2.00359183 16.5113293"></polygon>
                    <path d="M14.953849,21.0394373 L10.2919885,7.44428414 C10.1590471,7.09145011 9.78307215,6.91318329 9.4428439,7.04166612 C9.10261566,7.17014895 8.92114216,7.55892905 9.03298356,7.9197312 L13.6941061,21.5148844 C13.7696032,21.758439 13.9654674,21.9395631 14.2052337,21.9875461 C14.4449999,22.035529 14.6906499,21.9427624 14.8462822,21.7454623 C15.0019144,21.5481622 15.0428513,21.2776132 14.9531111,21.0394373 L14.953849,21.0394373 Z" id="路径_144"></path>
                    <path d="M7.56066894,7.0416278 C7.21474793,6.91061668 6.83337634,7.09910575 6.70810862,7.46299716 L2.04803295,21.037276 C1.95721923,21.2752349 1.9970206,21.5464086 2.15182144,21.744405 C2.30662228,21.9424015 2.55173029,22.0356383 2.79098002,21.987535 C3.03022975,21.9394317 3.22545846,21.7576613 3.3000703,21.5135394 L7.96014596,7.93926052 C8.02035131,7.76445896 8.01207644,7.57162699 7.93714468,7.40325384 C7.86221291,7.23488069 7.72677327,7.10478331 7.56066894,7.0416278 L7.56066894,7.0416278 Z" id="路径_145"></path>
                </g>
            </g>
        </g>
    </g>
</svg>