<?xml version="1.0" encoding="UTF-8"?>
<svg width="85px" height="81px" viewBox="0 0 85 81" version="1.1" xmlns="http://www.w3.org/2000/svg" xmlns:xlink="http://www.w3.org/1999/xlink">
    <!-- Generator: Sketch 63.1 (92452) - https://sketch.com -->
    <title>tool (1)</title>
    <desc>Created with Sketch.</desc>
    <g id="页面-1" stroke="none" stroke-width="1" fill="none" fill-rule="evenodd">
        <g id="00-数据概览" transform="translate(-913.000000, -663.000000)" fill-rule="nonzero">
            <g id="tool-(1)" transform="translate(913.000000, 663.000000)">
                <path d="M11.1778949,60 L11,67.9798604 C18.4435141,75.9780598 29.1775023,81 41.1134021,81 C56.6440743,81 70.1408316,72.4986978 77,60 L11.1778949,60 Z" id="路径" fill="#74727F"></path>
                <path d="M38,60 C51.7350682,60 52.3125235,80.2674173 38.629459,80.9524487 C39.2684329,80.9823103 39.9103597,81 40.5567159,81 C55.8955348,81 69.2255641,72.4986978 76,60 L38,60 Z" id="路径" fill="#5F5E6A"></path>
                <path d="M41.0920529,0 C29.7351719,0 19.4602644,4.61293999 12.0482453,12.0597998 L11,60 L77.1665173,60 C80.2496408,54.2700976 82,47.7215664 82,40.7650519 C82,18.2510961 63.6849277,0 41.0920529,0 Z" id="路径" fill="#283144"></path>
                <polygon id="路径" fill="#21212B" points="12 51 12 60.6230515 18.4981254 63 25 60.6230515 25 51"></polygon>
                <path d="M36,52 C36.6982578,52 37.3224953,52.4167321 37.5639658,53.0442591 L38.3169986,55 L48,55 L48,52 L36,52 Z" id="路径" fill="#363540"></path>
                <path d="M56.9778688,62.7402945 L56.9778688,55 L38,55 L40.781801,62.7402945 C41.0652093,63.5285436 40.7628507,64.3905827 40.1016209,64.8272449 L40.1704849,65 L58,65 C57.1079828,64.6657754 56.6494535,63.6538996 56.9778688,62.7402945 Z" id="路径" fill="#21212B"></path>
                <path d="M56.9713994,62.7404289 L56.9713994,55 L47.2785155,55 C47.9327545,55.3342304 48.3857678,56.0233527 48.3857678,56.8168244 L48.3857678,63.0656307 C48.3857678,63.9676187 47.8013279,64.7366091 47,65 L58,65 C57.1023153,64.6661169 56.6409602,63.6542235 56.9713994,62.7404289 L56.9713994,62.7404289 Z" id="路径" fill="#000000"></path>
                <path d="M65.3781802,23 L60.8129811,23 C59.8116096,23 59,23.8012465 59,24.7894615 L59,33 L77,33 C76.2115648,27.3715503 71.2883372,23 65.3781802,23 Z" id="路径" fill="#EEEFEB"></path>
                <path d="M65.3781802,23 L60.8129811,23 C59.8116096,23 59,23.8012465 59,24.7894615 L59,33 L77,33 C76.2115648,27.3715503 71.2883372,23 65.3781802,23 Z" id="路径" fill="#EEEFEB"></path>
                <path d="M75.7865319,31.209544 L71.2213328,31.209544 C70.2201293,31.209544 69.4083518,30.4082976 69.4083518,29.4200825 L69.4083518,23.7110772 C68.1498783,23.2527722 66.7928294,23 65.3781802,23 L60.8129811,23 C59.8116096,23 59,23.8012465 59,24.7894615 L59,33 L77,33 C76.912508,32.3759427 76.7716141,31.7684607 76.5867223,31.1797086 C76.3220633,31.1972783 76.055725,31.209544 75.7865319,31.209544 L75.7865319,31.209544 Z" id="路径" fill="#D6D6D0"></path>
                <path d="M3,55 C3.24338417,55.5921022 3.50392465,56.1764156 3.77775286,56.7538749 L6.56582193,61 L15,61 L15,55 L3,55 Z" id="路径" fill="#000000"></path>
                <path d="M5.93858329,54 C4.50879532,54 3.16554127,54.3557266 2,54.9761725 C2.29142833,55.7236054 2.60780181,56.4594793 2.94481958,57.1847709 L3.47658165,58.0123033 C4.18708873,57.577454 5.03126747,57.3223402 5.93858329,57.3223402 C8.44789471,57.3223402 10.4894413,59.2543347 10.4894413,61.6289931 C10.4894413,63.2247974 9.56595415,64.6183992 8.19964733,65.3624132 L8.73158144,66.1901085 C9.25766634,66.8086007 9.80129887,67.4132546 10.3654036,68 C12.5528364,66.6342377 14,64.288884 14,61.6288303 C14,57.4223018 10.3836394,54 5.93858329,54 Z" id="路径" fill="#000000"></path>
                <path d="M6.52489245,57 C5.58869448,57 4.71915027,57.2751357 4,57.744201 C5.27403451,60.3283216 6.83430809,62.7590352 8.64258785,65 C10.0448548,64.2808844 11,62.8714372 11,61.2537487 C10.9998308,58.9082613 8.99243559,57 6.52489245,57 Z" id="路径" fill="#C6C6C1"></path>
                <path d="M6.79585941,56 C5.76729257,56 4.80821698,56.310407 4,56.843242 C4.26111379,57.4564488 4.53635051,58.0615522 4.82554967,58.6583869 C5.37538116,58.2318874 6.05633125,57.9758885 6.79585941,57.9758885 C8.60808859,57.9758885 10.0824908,59.4951793 10.0824908,61.3625825 C10.0824908,62.7036002 9.32033381,63.8615489 8.22051035,64.4097637 C8.60247151,64.9502059 8.99711122,65.4803949 9.403948,66 C10.9545819,65.0704328 12,63.3404554 12,61.3624171 C11.9998395,58.4056955 9.66538276,56 6.79585941,56 L6.79585941,56 Z" id="路径" fill="#D6D6D0"></path>
                <path d="M14.4989809,53.1151658 C14.2614271,52.4450232 13.6477332,52 12.9614309,52 C10.2209115,52 5.00896001,52 2,52 C2.32164355,53.1585744 2.6911536,54.2959493 3.10561937,55.4102738 L11.4327751,55.4102738 C11.6649924,55.4102738 11.8724678,55.5608582 11.9528383,55.7873237 L14.8230501,63.8843895 C15.1367698,64.7693883 16.0800311,65.2196272 16.9277212,64.8942303 C17.7768666,64.5683287 18.2115462,63.5881 17.8983117,62.7044472 L14.4989809,53.1151658 Z" id="路径" fill="#363540"></path>
                <path d="M49.8190413,12 L11.7855366,12 C4.50107812,19.327792 0,29.4145528 0,40.5512145 C0,44.5275653 0.576380826,48.3690375 1.64554653,52 L49.8190413,52 C51.0235528,52 52,51.0257304 52,49.8239049 L52,14.1760951 C52,12.9742696 51.0235528,12 49.8190413,12 Z" id="路径" fill="#EEEFEB"></path>
                <g id="编组" transform="translate(0.000000, 12.000000)" fill="#D6D6D0">
                    <path d="M21.9195,0.0790123457 L11.8425,0.0790123457 C4.52283333,7.36757202 -2.36847579e-15,17.4003292 -2.36847579e-15,28.4773663 C-2.36847579e-15,32.432428 0.579166667,36.2531687 1.6535,39.864856 L22.9208333,39.864856 C22.8243333,39.7181893 22.7008333,39.5881481 22.5511667,39.4849383 C21.713,38.9065021 20.4975,37.6530041 21.4745,35.6238683 C21.6876667,35.18107 21.6353333,34.665679 21.3738333,34.2490535 C21.0326667,33.7055144 20.7943333,32.8451029 21.5996667,31.8334156 C21.8011667,31.5802469 21.9196667,31.2725926 21.9196667,30.9506173 L21.9196667,4.87390947 C21.9196667,4.49497942 21.7708333,4.13004115 21.4986667,3.86304527 C20.8288333,3.20625514 19.8001667,1.71901235 21.9195,0.0790123457 L21.9195,0.0790123457 Z" id="路径"></path>
                    <path d="M45.594,31.4795062 C44.8503333,31.4795062 44.2476667,30.8841152 44.2476667,30.1497942 L44.2476667,5.54814815 C44.2476667,4.81366255 44.8505,4.21843621 45.594,4.21843621 C46.3375,4.21843621 46.9403333,4.81382716 46.9403333,5.54814815 L46.9403333,30.1496296 C46.9403333,30.8841152 46.3376667,31.4795062 45.594,31.4795062 Z" id="路径"></path>
                    <path d="M39.6753333,31.4795062 C38.9316667,31.4795062 38.329,30.8841152 38.329,30.1497942 L38.329,5.54814815 C38.329,4.81366255 38.9318333,4.21843621 39.6753333,4.21843621 C40.4188333,4.21843621 41.0216667,4.81382716 41.0216667,5.54814815 L41.0216667,30.1496296 C41.0218333,30.8841152 40.419,31.4795062 39.6753333,31.4795062 Z" id="路径"></path>
                    <path d="M33.7566667,31.4795062 C33.0131667,31.4795062 32.4103333,30.8841152 32.4103333,30.1497942 L32.4103333,5.54814815 C32.4103333,4.81366255 33.0131667,4.21843621 33.7566667,4.21843621 C34.5001667,4.21843621 35.103,4.81382716 35.103,5.54814815 L35.103,30.1496296 C35.103,30.8841152 34.5003333,31.4795062 33.7566667,31.4795062 Z" id="路径"></path>
                    <path d="M27.838,31.4795062 C27.0943333,31.4795062 26.4916667,30.8841152 26.4916667,30.1497942 L26.4916667,5.54814815 C26.4916667,4.81366255 27.0945,4.21843621 27.838,4.21843621 C28.5815,4.21843621 29.1843334,4.81382716 29.1843334,5.54814815 L29.1843334,30.1496296 C29.1845,30.8841152 28.5816667,31.4795062 27.838,31.4795062 Z" id="路径"></path>
                </g>
                <path d="M21.5,43 C20.6714533,43 20,42.4103109 20,41.6830223 L20,17.3169777 C20,16.5895261 20.671639,16 21.5,16 C22.328361,16 23,16.5896891 23,17.3169777 L23,41.6828592 C23,42.4103109 22.328361,43 21.5,43 Z" id="路径" fill="#C6C6C1"></path>
                <path d="M15.5,43 C14.671639,43 14,42.4103109 14,41.6830223 L14,17.3169777 C14,16.5895261 14.671639,16 15.5,16 C16.3285467,16 17,16.5896891 17,17.3169777 L17,41.6828592 C17,42.4103109 16.328361,43 15.5,43 Z" id="路径" fill="#C6C6C1"></path>
                <path d="M10.5,43 C9.67163902,43 9,42.4103109 9,41.6830223 L9,17.3169777 C9,16.5895261 9.67163902,16 10.5,16 C11.328361,16 12,16.5896891 12,17.3169777 L12,41.6828592 C12,42.4103109 11.328361,43 10.5,43 L10.5,43 Z" id="路径" fill="#C6C6C1"></path>
                <path d="M3,25.4354218 L3,41.6841878 C3,42.4108328 3.67163902,43 4.5,43 C5.32854667,43 6,42.4108328 6,41.6841878 L6,20 C4.85095321,21.733458 3.84525873,23.5490117 3,25.4354218 Z" id="路径" fill="#C6C6C1"></path>
                <polygon id="路径" fill="#000000" points="60 55 76 55 76 61 60 61"></polygon>
                <path d="M83.0334421,55.4661887 C82.4620126,55.4661887 81.9972343,55.0273556 81.9972343,54.4878393 L81.9972343,49.4947463 C81.9972343,48.9552299 82.4620126,48.5163968 83.0334421,48.5163968 L84,48.5163968 L84,45.5579992 C84,44.864146 83.8797872,44.1754264 83.6447192,43.5216479 L79.9865996,33.3499928 C79.4799645,31.9410901 78.1315049,31 76.6196361,31 L59.4454435,31 C58.0948073,31 57,32.0828414 57,33.4187157 L57,62 L57.1007912,61.9925481 L60.505091,52.8625007 C60.7498698,52.2055758 61.3829125,51.7693923 62.0906278,51.7693923 L75.2350122,51.7693923 C75.9428949,51.7693923 76.5757702,52.2055758 76.8205489,52.8625007 L79.0104983,58.7357439 L84,58.7357439 L84,55.4663543 L83.0334421,55.4663543 L83.0334421,55.4661887 Z" id="路径" fill="#59B37D"></path>
                <path d="M69.646127,49.9564319 L69.646127,32.7674211 C69.646127,31.9576498 70.1557208,31.2651214 70.8638154,31 L59.3764774,31 C58.0639317,31 57,32.0828414 57,33.4187157 L57,62 L57.0979487,61.9925481 L60.4062409,52.8625007 C60.6441165,52.2055758 61.2593062,51.7693923 61.9470626,51.7693923 L71,51.7693923 C70.2216166,51.5463326 69.646127,50.8173728 69.646127,49.9564319 L69.646127,49.9564319 Z" id="路径" fill="#168C80"></path>
                <path d="M63.2638799,34 L59.7361201,34 C59.3295095,34 59,34.3406987 59,34.7607238 L59,41.2392762 C59,41.6594772 59.3296797,42 59.7361201,42 L63.2638799,42 C63.6704905,42 64,41.6594772 64,41.2392762 L64,34.7607238 C64,34.3405228 63.6703203,34 63.2638799,34 L63.2638799,34 Z" id="路径" fill="#21212B"></path>
                <path d="M80.96835,44.296669 C80.6548689,43.444893 79.8102114,41.2379893 77.3288274,34.5900526 C77.1965028,34.2370906 76.8423852,34 76.4476312,34 L67.7061862,34 C67.316213,34 67,34.3001311 67,34.6704333 L67,40.7007676 C67,41.0709077 67.316213,41.3710388 67.7061862,41.3710388 L72.0892875,41.3710388 C72.3757915,41.3710388 72.6337817,41.5352034 72.7427146,41.7867172 L73.7997744,44.2307114 C74.0010784,44.6961416 74.478642,45 75.0086231,45 L80.4412715,45 C80.8256103,45 81.0950401,44.6408798 80.96835,44.296669 L80.96835,44.296669 Z" id="路径" fill="#363540"></path>
                <path d="M67.7818445,34 C67.3501953,34 67,34.3257409 67,34.7276405 L67,41.2725354 C67,41.6742591 67.3500063,42 67.7818445,42 L70,42 L70,34 L67.7818445,34 Z" id="路径" fill="#21212B"></path>
                <path d="M70.1527837,46 L68.8472163,46 C68.3793251,46 68,45.5522689 68,45 C68,44.4477311 68.3793251,44 68.8472163,44 L70.1527837,44 C70.6206749,44 71,44.4477311 71,45 C71,45.5522689 70.6206749,46 70.1527837,46 Z" id="路径" fill="#7AF4AB"></path>
                <path d="M68.5,69 C64.3645626,69 61,65.6354374 61,61.5 C61,57.3645626 64.3645626,54 68.5,54 C72.6354374,54 76,57.3645626 76,61.5 C76,65.6354374 72.6354374,69 68.5,69 Z M68.5,57.2660539 C66.1655203,57.2660539 64.2660539,59.1653596 64.2660539,61.5 C64.2660539,63.8344797 66.1653596,65.7339461 68.5,65.7339461 C70.8346404,65.7339461 72.7339461,63.8346404 72.7339461,61.5 C72.7339461,59.1653596 70.8344797,57.2660539 68.5,57.2660539 Z" id="形状" fill="#21212B"></path>
                <path d="M72.1990885,65.1727821 C72.1604291,64.9439174 71.9623425,64.7755265 71.726794,64.7466261 C71.4007551,64.7067001 71.1732463,64.5982817 71.013477,64.4591254 C70.2125777,65.1706103 69.1491026,65.6047849 67.9836761,65.6047849 C65.4986987,65.6047849 63.4767787,63.6303681 63.4767787,61.2034008 C63.4767787,59.9534992 64.0139047,58.8245451 64.8734773,58.0226836 C64.6940361,57.7894756 64.6687194,57.4951256 64.6912992,57.2535648 C64.7147343,57.0033172 64.557873,56.7746197 64.3132583,56.6962711 C62.9810491,56.269781 63.1514241,55.0242229 63.1548453,55 C61.2393241,56.4254758 60,58.6753654 60,61.2034008 C60,65.5023805 63.581467,69 67.983505,69 C70.3820974,69 72.5353909,67.9600859 74,66.319611 C72.6342632,66.417839 72.2829075,65.6679315 72.1990885,65.1727821 Z" id="路径" fill="#000000"></path>
                <circle id="椭圆形" fill="#D6D6D0" transform="translate(68.240784, 61.152600) rotate(-45.000000) translate(-68.240784, -61.152600) " cx="68.2407839" cy="61.1525996" r="4.36401815"></circle>
                <path d="M71,64.7911957 C70.780113,64.5735122 70.6998797,64.2842664 70.6757303,64.0487805 C70.6504687,63.8025426 70.4787217,63.6100646 70.2581992,63.5698768 C66.8791847,62.9536651 66.3752241,60.0425232 66.3094487,58.8917091 C66.2951497,58.6412409 66.1311877,58.4313129 65.9090765,58.3833697 C65.6070496,58.3181528 65.4160784,58.1753806 65.2972378,58 C64.4988765,58.8460572 64,60.0374116 64,61.3560271 C64,63.916584 65.8777775,66 68.1859552,66 C69.268549,66 70.2562927,65.5418953 71,64.7911957 Z" id="路径" fill="#C6C6C1"></path>
                <path d="M68.5,67 C65.4673964,67 63,64.5327357 63,61.5000851 C63,58.4674346 65.4672261,56 68.5,56 C71.5327739,56 74,58.4672643 74,61.5000851 C74,64.532906 71.5327739,67 68.5,67 Z M68.5,58.0263651 C66.5846983,58.0263651 65.026504,59.5845835 65.026504,61.4999149 C65.026504,63.4150759 66.5846983,64.9732943 68.5,64.9732943 C70.4153017,64.9732943 71.973496,63.4150759 71.973496,61.4999149 C71.9733257,59.5845835 70.4153017,58.0263651 68.5,58.0263651 Z" id="形状" fill="#EEEFEB"></path>
                <path d="M72,65.218217 C71.9225928,65.1466761 71.8250693,65.0984638 71.7188556,65.084121 C70.9573357,64.981821 70.7603576,64.4452643 70.7193205,64.0588744 C70.7088601,63.9598576 70.672329,63.8705179 70.6187394,63.7958665 C70.0181493,64.5007344 69.1550827,64.9434585 68.1973894,64.9434585 C66.3874117,64.9434585 64.9149039,63.3623011 64.9149039,61.4187734 C64.9149039,60.303323 65.4005901,59.3079715 66.1561556,58.6616841 C66.086312,58.5834039 65.9955476,58.5262057 65.8912651,58.5044324 C65.1562986,58.3509824 65.063764,57.7610292 65.1001341,57.3329935 C65.1104336,57.2123762 65.0825928,57.0974615 65.0281985,57 C63.7959589,58.021445 63,59.6217837 63,61.4189462 C63,64.4964143 65.3315512,67 68.1975503,67 C69.6975771,67 71.0505141,66.3132765 72,65.218217 L72,65.218217 Z" id="路径" fill="#D6D6D0"></path>
                <path d="M83.9746426,49 L83.0253574,49 C82.4614255,49 82,49.4847093 82,50.0770962 L82,54.9229038 C82,55.5152907 82.4614255,56 83.0253574,56 L83.9746426,56 C84.5385745,56 85,55.5152907 85,54.9229038 L85,50.0770962 C85,49.4847093 84.5385745,49 83.9746426,49 Z" id="路径" fill="#EB5793"></path>
                <path d="M83.9746426,53.021919 L83.0253574,53.021919 C82.4614255,53.021919 82,52.5620402 82,52 L82,54.978081 C82,55.5401212 82.4614255,56 83.0253574,56 L83.9746426,56 C84.5385745,56 85,55.5401212 85,54.978081 L85,52 C85,52.5620402 84.5385745,53.021919 83.9746426,53.021919 Z" id="路径" fill="#E7387F"></path>
                <path d="M83.4130439,59 L75,59 L76.9341296,64 L83.4132152,64 C84.2859468,64 85,63.3173553 85,62.4830117 L85,60.5168245 C84.9998286,59.6826447 84.2857755,59 83.4130439,59 L83.4130439,59 Z" id="路径" fill="#363540"></path>
                <path d="M81.3754742,62.4831755 L81.3754742,60.5169883 C81.3754742,59.6826447 82.1065108,59 83,59 L75,59 L76.980132,64 L83,64 C82.1065108,64.0001638 81.3754742,63.3175191 81.3754742,62.4831755 Z" id="路径" fill="#21212B"></path>
                <path d="M79.8974545,62.704382 L76.4721031,53.1150855 C76.2327294,52.4449531 75.6142518,52 74.9226367,52 C71.4632527,52 64.0924069,52 62.0772825,52 C61.3855039,52 60.7670263,52.4449531 60.5278162,53.1150855 L57.1024648,62.704382 C56.7776822,63.6135458 57.2508667,64.6252481 58.1561673,64.92087 C59.0040379,65.1977409 59.9098295,64.7007584 60.2175957,63.8394009 L63.0938437,55.7873379 C63.1748348,55.5608072 63.3839392,55.4101245 63.6179135,55.4101245 L73.3821694,55.4101245 C73.6161437,55.4101245 73.8252481,55.5606382 73.9062392,55.7873379 L76.7985218,63.8843354 C77.1146326,64.7693427 78.0652556,65.2197014 78.9195073,64.8941795 C79.7752316,64.5683198 80.2132381,63.5880378 79.8974545,62.704382 L79.8974545,62.704382 Z" id="路径" fill="#4B4A55"></path>
                <path d="M63,55.4109026 C60.3231382,54.2815944 61.3705532,52 61.3705532,52 C60.6388165,52 59.9846148,52.4450326 59.7315876,53.1152847 L56.1083833,62.706294 C55.7648409,63.6156202 56.2653571,64.6275032 57.2229491,64.9231779 C58.1197939,65.2000983 59.0779051,64.702858 59.4034483,63.8415156 L62.4458323,55.7880144 C62.5313285,55.5614432 62.752511,55.4109026 63,55.4109026 L63,55.4109026 Z" id="路径" fill="#363540"></path>
                <polygon id="路径" fill="#000000" points="22 55 38 55 38 61 22 61"></polygon>
                <path d="M29.5,69 C25.3645626,69 22,65.6354374 22,61.5 C22,57.3645626 25.3645626,54 29.5,54 C33.6354374,54 37,57.3645626 37,61.5 C37,65.6354374 33.6354374,69 29.5,69 Z M29.5,57.2660539 C27.1655203,57.2660539 25.2660539,59.1653596 25.2660539,61.5 C25.2660539,63.8344797 27.1653596,65.7339461 29.5,65.7339461 C31.8344797,65.7339461 33.7339461,63.8346404 33.7339461,61.5 C33.7339461,59.1653596 31.8344797,57.2660539 29.5,57.2660539 Z" id="形状" fill="#21212B"></path>
                <path d="M34.1989174,65.1727821 C34.1602581,64.9439174 33.9623425,64.7755265 33.7266229,64.7466261 C33.400584,64.7067001 33.1730753,64.5982817 33.013306,64.4591254 C32.2124067,65.1706103 31.1489315,65.6047849 29.983505,65.6047849 C27.4985277,65.6047849 25.4766077,63.6303681 25.4766077,61.2034008 C25.4766077,59.9534992 26.0137336,58.8245451 26.8733062,58.0226836 C26.6938651,57.7894756 26.6685483,57.4951256 26.6912992,57.2535648 C26.7147343,57.0033172 26.557873,56.7746197 26.3132583,56.6962711 C24.9810491,56.269781 25.1514241,55.0242229 25.1548453,55 C23.2393241,56.4254758 22,58.6753654 22,61.2034008 C22,65.5023805 25.581467,69 29.983505,69 C32.3820974,69 34.5353909,67.9600859 36,66.319611 C34.6340921,66.417839 34.2827365,65.6679315 34.1989174,65.1727821 Z" id="路径" fill="#000000"></path>
                <circle id="椭圆形" fill="#D6D6D0" transform="translate(29.725047, 61.148413) rotate(-45.000000) translate(-29.725047, -61.148413) " cx="29.7250469" cy="61.1484132" r="4.36401815"></circle>
                <path d="M33,64.7911957 C32.780113,64.5735122 32.6998797,64.2842664 32.6757303,64.0487805 C32.6504687,63.8025426 32.4787217,63.6100646 32.2581992,63.5698768 C28.8791847,62.9536651 28.3752241,60.0425232 28.3094487,58.8917091 C28.2951497,58.6412409 28.1311877,58.4313129 27.9090765,58.3833697 C27.6070496,58.3181528 27.4160784,58.1753806 27.2972378,58 C26.4988765,58.8460572 26,60.0374116 26,61.3560271 C26,63.916584 27.8777775,66 30.1859552,66 C31.2683901,66 32.2561338,65.5418953 33,64.7911957 L33,64.7911957 Z" id="路径" fill="#C6C6C1"></path>
                <path d="M29.5000851,67 C26.4674346,67 24,64.5327357 24,61.5000851 C24,58.4674346 26.4672643,56 29.5000851,56 C32.532906,56 35,58.4672643 35,61.5000851 C35,64.532906 32.532906,67 29.5000851,67 Z M29.5000851,58.0263651 C27.5847538,58.0263651 26.0265354,59.5845835 26.0265354,61.4999149 C26.0265354,63.4150759 27.5847538,64.9732943 29.5000851,64.9732943 C31.4154165,64.9732943 32.9734646,63.4150759 32.9734646,61.4999149 C32.9736349,59.5845835 31.4154165,58.0263651 29.5000851,58.0263651 Z" id="形状" fill="#EEEFEB"></path>
                <path d="M34,65.218217 C33.9225941,65.1466761 33.8250724,65.0984638 33.7188606,65.084121 C32.9573544,64.981821 32.7603798,64.4452643 32.7193434,64.0588744 C32.7088832,63.9598576 32.6723528,63.8705179 32.6187641,63.7958665 C32.0181847,64.5007344 31.1551336,64.9434585 30.1974574,64.9434585 C28.3875121,64.9434585 26.9150306,63.3623011 26.9150306,61.4187734 C26.9150306,60.303323 27.4007081,59.3079715 28.1562601,58.6616841 C28.0864178,58.5834039 27.995655,58.5262057 27.8913743,58.5044324 C27.156421,58.3509824 27.063888,57.7610292 27.1002575,57.3329935 C27.1105568,57.2123762 27.0827164,57.0974615 27.0281622,57 C25.7959446,58.021445 25,59.6217837 25,61.4189462 C25,64.4964143 27.3315095,67 30.1974574,67 C31.6976183,67 33.0505311,66.3132765 34,65.218217 L34,65.218217 Z" id="路径" fill="#D6D6D0"></path>
                <path d="M40.8975367,62.704382 L37.472173,53.1150855 C37.232962,52.4449531 36.6143186,52 35.9227011,52 C32.4633046,52 25.0924324,52 23.0773008,52 C22.3855196,52 21.7670398,52.4449531 21.5278289,53.1150855 L18.1024651,62.704382 C17.7776814,63.6135458 18.2508676,64.6252481 19.1561715,64.92087 C20.0040451,65.1977409 20.9098399,64.7007584 21.2176072,63.8394009 L24.0938656,55.7873379 C24.174857,55.5608072 24.3839621,55.4101245 24.6179373,55.4101245 L34.3823918,55.4101245 C34.616367,55.4101245 34.8254721,55.5606382 34.9064635,55.7873379 L37.7987565,63.8843354 C38.1148684,64.7693427 39.0654948,65.2197014 39.9197496,64.8941795 C40.7751497,64.5683198 41.2131578,63.5880378 40.8975367,62.704382 Z" id="路径" fill="#4B4A55"></path>
                <path d="M25,55.4109026 C22.3231382,54.2815944 23.3705532,52 23.3705532,52 C22.6389896,52 21.9846148,52.4450326 21.7315876,53.1152847 L18.1083833,62.706294 C17.7648409,63.6156202 18.2653571,64.6275032 19.2229491,64.9231779 C20.1197939,65.2000983 21.0779051,64.702858 21.4034483,63.8415156 L24.4458323,55.7880144 C24.5313285,55.5614432 24.752511,55.4109026 25,55.4109026 Z" id="路径" fill="#363540"></path>
                <path d="M1.14692334,52 L49.7974449,52 C51.0138838,52 52,51.030308 52,49.8341295 L52,47 L0,47 C0.276052237,48.7048262 0.660984299,50.3735793 1.14692334,52 Z" id="路径" fill="#D6D6D0"></path>
                <path d="M2.12036355,52 L23,52 C22.9052592,51.8532367 22.7840105,51.7231099 22.6370722,51.619832 C21.8141851,51.0410147 20.6208433,49.7866908 21.5800329,47.7562181 C21.6932637,47.5163894 21.7277893,47.2553121 21.6970272,47 L1,47 C1.26965958,48.7048262 1.64567761,50.3735793 2.12036355,52 Z" id="路径" fill="#C6C6C1"></path>
            </g>
        </g>
    </g>
</svg>