<?xml version="1.0" encoding="UTF-8"?>
<svg width="128px" height="92px" viewBox="0 0 128 92" version="1.1" xmlns="http://www.w3.org/2000/svg" xmlns:xlink="http://www.w3.org/1999/xlink">
    <!-- Generator: Sketch 63.1 (92452) - https://sketch.com -->
    <title>物流线路</title>
    <desc>Created with Sketch.</desc>
    <g id="页面-1" stroke="none" stroke-width="1" fill="none" fill-rule="evenodd" opacity="0.2">
        <g id="00-首页NEW" transform="translate(-974.000000, -95.000000)">
            <g id="物流线路" transform="translate(977.000000, 98.000000)">
                <polyline id="路径-8" stroke="#485777" stroke-width="5" stroke-linecap="round" stroke-linejoin="round" points="-1.42108547e-13 12.9474632 10.7458656 12.9474632 21.5190495 0 67.2491776 0 80 12.9474632 80 69 50.2693257 69"></polyline>
                <circle id="椭圆形" stroke="#485777" stroke-width="5" cx="35.5" cy="72.5" r="13.5"></circle>
                <circle id="椭圆形备份-3" stroke="#485777" stroke-width="5" cx="98.5" cy="72.5" r="13.5"></circle>
                <polyline id="路径-9" stroke="#485777" stroke-width="5" stroke-linecap="round" stroke-linejoin="round" points="80 17 97.4461181 17 122 36.9773455 122 65 110.580387 65"></polyline>
                <line x1="22" y1="66" x2="1" y2="66" id="路径-10" stroke="#485777" stroke-width="5" stroke-linecap="round"></line>
                <line x1="86" y1="66" x2="80" y2="66" id="路径-10备份" stroke="#485777" stroke-width="5"></line>
                <line x1="3.05555556" y1="30" x2="35.9444444" y2="30" id="直线" stroke="#485777" stroke-width="5" stroke-linecap="round"></line>
                <line x1="5" y1="45" x2="21" y2="45" id="直线备份" stroke="#485777" stroke-width="5" stroke-linecap="round"></line>
                <polygon id="路径-11" fill="#485777" points="91 39 122 39 97.1671759 17 91 17"></polygon>
            </g>
        </g>
    </g>
</svg>