<?xml version="1.0" encoding="UTF-8"?>
<svg width="84px" height="84px" viewBox="0 0 84 84" version="1.1" xmlns="http://www.w3.org/2000/svg" xmlns:xlink="http://www.w3.org/1999/xlink">
    <!-- Generator: Sketch 63.1 (92452) - https://sketch.com -->
    <title>农场统计</title>
    <desc>Created with Sketch.</desc>
    <g id="页面-1" stroke="none" stroke-width="1" fill="none" fill-rule="evenodd">
        <g id="00-数据概览" transform="translate(-230.000000, -90.000000)">
            <g id="农场统计" transform="translate(230.000000, 90.000000)">
                <circle id="椭圆形" fill="#222A3A" cx="42" cy="42" r="42"></circle>
                <g id="icon_farm备份" transform="translate(9.000000, 15.000000)" fill="#1989FA" fill-rule="nonzero">
                    <path d="M16.5,24 C7.953304,24 1,30.953304 1,39.5 C1,48.046696 7.953304,55 16.5,55 C25.046696,55 32,48.046696 32,39.5 C32,30.953304 25.046696,24 16.5,24 Z M16.5,51.125 C10.0901042,51.125 4.875,45.9098958 4.875,39.5 C4.875,33.0901042 10.0901042,27.875 16.5,27.875 C22.9098958,27.875 28.125,33.0901042 28.125,39.5 C28.125,45.9098958 22.9098958,51.125 16.5,51.125 Z" id="形状"></path>
                    <path d="M16.5,35 C14.01875,35 12,37.01875 12,39.5 C12,41.98125 14.01875,44 16.5,44 C18.98125,44 21,41.98125 21,39.5 C21,37.01875 18.98125,35 16.5,35 Z" id="路径"></path>
                    <path d="M63.0849795,34.4379186 L63.0849795,27.5 C63.0849795,23.1673176 59.5726761,19.6428571 55.2549386,19.6428571 L51.3399181,19.6428571 L51.3399181,9.82142857 C51.3399181,8.7385138 52.2182489,7.85714286 53.2974284,7.85714286 L53.2974284,3.92857143 C50.0593802,3.92857143 47.4248977,6.57217262 47.4248977,9.82142857 L47.4248977,19.6428571 L38.8327531,19.6428571 L34.1347285,3.92857143 L35.4120594,3.92857143 C36.4969045,3.92857143 37.3763451,3.04913076 37.3763451,1.96428571 C37.3763451,0.87944067 36.4969045,-1.8962541e-15 35.4120594,0 L8.02046709,0 C6.93562205,7.90059079e-16 6.05618138,0.87944067 6.05618138,1.96428571 C6.05618138,3.04913076 6.93562205,3.92857143 8.02046709,3.92857143 L9.97120185,3.92857143 L9.97120185,3.92857143 L9.97120185,16.4657273 C7.64568931,17.0691665 4.66139031,18.5561954 2.69602106,19.7720703 C1.8657837,20.2856963 1.2399497,20.749408 0.894777475,21.1027716 C-0.187751687,22.2109908 -0.193935379,23.5436865 0.376918264,24.2 C1.321586,25.2860895 3.12820923,24.357373 3.38754435,24.1320685 C3.64687946,23.9067639 3.49801447,24.0410454 3.55359373,23.9960206 C7.02061088,21.1873874 11.3763713,19.6428571 15.8437325,19.6428571 C26.6375664,19.6428571 35.4188349,28.45452 35.4188349,39.2857143 L35.4188349,44.1785714 C35.4188349,44.7308562 35.8665501,45.1785714 36.4188349,45.1785714 L43.6740225,45.1785714 L43.6740225,45.1785714 C44.6089376,50.7455823 49.4456192,55 55.2549386,55 C61.731035,55 67,49.7127976 67,43.2142857 C67,39.7317708 65.486498,36.5976097 63.0849795,34.4379186 Z M13.8862223,15.7976656 L13.8862223,3.92857143 L30.0474065,3.92857143 L34.745431,19.6428571 L28.8132573,19.6428571 C25.0939879,17.1619234 20.634535,15.7142857 15.8437325,15.7142857 C15.1886803,15.7142857 14.5356671,15.7429315 13.8862223,15.7976656 Z M33.3359216,23.5714286 L55.2549386,23.5714286 C57.4138073,23.5714286 59.1699591,25.3336588 59.1699591,27.5 L59.1699591,32.1027716 C57.9449858,31.6669456 56.6272348,31.4285714 55.2549386,31.4285714 L37.9901061,31.4285714 C36.9557863,28.5020927 35.3617408,25.8395647 33.3359216,23.5714286 Z M39.0055646,35.3571429 L46.5088441,35.3571429 C45.0585533,36.9807478 44.0502316,39.0089751 43.6740225,41.25 L39.3338554,41.25 L39.3338554,39.2857143 C39.3338554,37.9475446 39.2206867,36.6354632 39.0055646,35.3571429 L39.0055646,35.3571429 Z M55.2549386,51.0714286 C50.9372011,51.0714286 47.4248977,47.5469681 47.4248977,43.2142857 C47.4248977,38.8816034 50.9372011,35.3571429 55.2549386,35.3571429 C59.5726761,35.3571429 63.0849795,38.8816034 63.0849795,43.2142857 C63.0849795,47.5469681 59.5726761,51.0714286 55.2549386,51.0714286 Z" id="形状"></path>
                </g>
            </g>
        </g>
    </g>
</svg>