<?xml version="1.0" encoding="UTF-8"?>
<svg width="12px" height="14px" viewBox="0 0 12 14" version="1.1" xmlns="http://www.w3.org/2000/svg" xmlns:xlink="http://www.w3.org/1999/xlink">
    <!-- Generator: Sketch 63 (92445) - https://sketch.com -->
    <title>编组</title>
    <desc>Created with Sketch.</desc>
    <defs>
        <polygon id="path-1" points="0 0.02808 11.643744 0.02808 11.643744 14 0 14"></polygon>
    </defs>
    <g id="页面-1" stroke="none" stroke-width="1" fill="none" fill-rule="evenodd">
        <g id="数据统计-设备统计" transform="translate(-1240.000000, -153.000000)">
            <g id="搜素/筛选-copy备份" transform="translate(298.000000, 130.000000)">
                <g id="添加-copy-2" transform="translate(934.000000, 17.000000)">
                    <g id="编组" transform="translate(8.000000, 6.000000)">
                        <g transform="translate(0.000000, 0.051920)">
                            <mask id="mask-2" fill="white">
                                <use xlink:href="#path-1"></use>
                            </mask>
                            <g id="Clip-2"></g>
                            <path d="M1.164064,12.83592 L1.164064,9.57656 L3.170304,7.68904 L6.368784,11.28432 L8.881264,9.65152 L10.435904,10.57184 L10.435904,10.6312 L10.478144,10.60936 L10.478144,12.83592 L1.164064,12.83592 Z M1.164064,1.19216 L6.403104,1.19216 L6.403104,4.10312 C6.403104,4.25776 6.464064,4.40624 6.573424,4.5156 C6.682784,4.62496 6.831264,4.68592 6.985904,4.68592 L10.479664,4.68592 L10.479664,9.31872 L9.193744,8.55776 C8.987504,8.43592 8.718784,8.44064 8.517184,8.57184 L6.590624,9.82496 L3.675024,6.54528 C3.567184,6.42496 3.407824,6.35152 3.235904,6.34528 C3.064064,6.33904 2.898464,6.3984 2.779664,6.51088 L1.165664,8.0312 L1.165664,1.19216 L1.164064,1.19216 Z M7.568784,1.4984 L9.709344,3.52032 L7.568784,3.52032 L7.568784,1.4984 Z M7.710944,0.02808 L1.164064,0.02808 C0.854704,0.02808 0.559344,0.15 0.340624,0.36872 C0.129664,0.57968 -1.6e-05,0.87032 -1.6e-05,1.19216 L-1.6e-05,12.83592 C-1.6e-05,13.14528 0.121904,13.44064 0.340624,13.65936 C0.559344,13.87808 0.854704,14.00152 1.164064,14.0000139 L10.478144,14.0000139 C10.787504,14.0000139 11.082784,13.87808 11.301584,13.65936 C11.512464,13.4484 11.642224,13.15776 11.642224,12.83592 L11.643744,3.7484 L7.710944,0.02808 Z" id="Fill-1" fill="#DAEDFF" mask="url(#mask-2)"></path>
                        </g>
                        <path d="M6.915624,7.63472 C6.915624,8.07648 7.273864,8.43472 7.715624,8.43472 C8.157384,8.43472 8.515624,8.07648 8.515624,7.63472 C8.515624,7.19288 8.157384,6.83472 7.715624,6.83472 C7.273864,6.83472 6.915624,7.19288 6.915624,7.63472" id="Fill-3" fill="#DAEDFF"></path>
                    </g>
                </g>
            </g>
        </g>
    </g>
</svg>