<?xml version="1.0" encoding="UTF-8"?>
<svg width="12px" height="12px" viewBox="0 0 12 12" version="1.1" xmlns="http://www.w3.org/2000/svg" xmlns:xlink="http://www.w3.org/1999/xlink">
    <!-- Generator: Sketch 63 (92445) - https://sketch.com -->
    <title>搜索 copy 4备份</title>
    <desc>Created with Sketch.</desc>
    <g id="页面-1" stroke="none" stroke-width="1" fill="none" fill-rule="evenodd">
        <g id="规范" transform="translate(-595.000000, -629.000000)" fill="#A3D0FD">
            <path d="M599.5,630 C601.433,630 603,631.567 603,633.5 C603,635.433 601.433,637 599.5,637 C597.567,637 596,635.433 596,633.5 C596,631.567 597.567,630 599.5,630 Z M606.737417,639.469642 L603.25187,635.984095 C603.724202,635.272097 603.999979,634.418432 603.999979,633.49999 C603.999979,631.014662 601.985317,629 599.49999,629 C597.014662,629 595,631.014662 595,633.49999 C595,635.985317 597.014662,637.999979 599.49999,637.999979 C600.418432,637.999979 601.272097,637.724202 601.984095,637.25187 L605.469642,640.737417 C605.819753,641.087528 606.387307,641.087528 606.737417,640.737417 C607.087528,640.387307 607.087528,639.819753 606.737417,639.469642" id="搜索-copy-4备份"></path>
        </g>
    </g>
</svg>