<?xml version="1.0" encoding="UTF-8"?>
<svg width="12px" height="12px" viewBox="0 0 12 12" version="1.1" xmlns="http://www.w3.org/2000/svg" xmlns:xlink="http://www.w3.org/1999/xlink">
    <!-- Generator: Sketch 63 (92445) - https://sketch.com -->
    <title>搜索 copy 4备份 2</title>
    <desc>Created with Sketch.</desc>
    <g id="页面-1" stroke="none" stroke-width="1" fill="none" fill-rule="evenodd">
        <g id="规范" transform="translate(-649.000000, -629.000000)" fill="#0F70F3">
            <path d="M653.5,630 C655.433,630 657,631.567 657,633.5 C657,635.433 655.433,637 653.5,637 C651.567,637 650,635.433 650,633.5 C650,631.567 651.567,630 653.5,630 Z M660.737417,639.469642 L657.25187,635.984095 C657.724202,635.272097 657.999979,634.418432 657.999979,633.49999 C657.999979,631.014662 655.985317,629 653.49999,629 C651.014662,629 649,631.014662 649,633.49999 C649,635.985317 651.014662,637.999979 653.49999,637.999979 C654.418432,637.999979 655.272097,637.724202 655.984095,637.25187 L659.469642,640.737417 C659.819753,641.087528 660.387307,641.087528 660.737417,640.737417 C661.087528,640.387307 661.087528,639.819753 660.737417,639.469642" id="搜索-copy-4备份-2"></path>
        </g>
    </g>
</svg>