<?xml version="1.0" encoding="UTF-8"?>
<svg width="11px" height="11px" viewBox="0 0 11 11" version="1.1" xmlns="http://www.w3.org/2000/svg" xmlns:xlink="http://www.w3.org/1999/xlink">
    <!-- Generator: Sketch 53.2 (72643) - https://sketchapp.com -->
    <title>Combined Shape Copy</title>
    <desc>Created with Sketch.</desc>
    <g id="页面-1" stroke="none" stroke-width="1" fill-rule="evenodd">
        <g id="农场管理-经营人员-编辑弹窗" transform="translate(-1113.000000, -669.000000)" fill-rule="nonzero">
            <g id="分组-2" transform="translate(1087.000000, 663.000000)">
                <g id="Combined-Shape-Copy-4" transform="translate(20.899495, 0.899495)">
                    <path d="M11.0710678,9.53333333 L17.0710678,9.53333333 C17.3288007,9.53333333 17.5377345,9.74226712 17.5377345,10 C17.5377345,10.2577329 17.3288007,10.4666667 17.0710678,10.4666667 L11.0710678,10.4666667 L11.0710678,16.5 C11.0710678,16.7761424 10.8472102,17 10.5710678,17 C10.2949254,17 10.0710678,16.7761424 10.0710678,16.5 L10.0710678,10.4666667 L4.00440115,10.4666667 C3.74666826,10.4666667 3.53773448,10.2577329 3.53773448,10 C3.53773448,9.74226712 3.74666826,9.53333333 4.00440115,9.53333333 L10.0710678,9.53333333 L10.0710678,3.5 C10.0710678,3.22385763 10.2949254,3 10.5710678,3 C10.8472102,3 11.0710678,3.22385763 11.0710678,3.5 L11.0710678,9.53333333 Z" id="Combined-Shape-Copy" transform="translate(10.000000, 10.000000) rotate(45.000000) translate(-10.000000, -10.000000) "></path>
                </g>
            </g>
        </g>
    </g>
</svg>