<?xml version="1.0" encoding="UTF-8"?>
<svg width="23px" height="18px" viewBox="0 0 23 18" version="1.1" xmlns="http://www.w3.org/2000/svg" xmlns:xlink="http://www.w3.org/1999/xlink">
    <!-- Generator: Sketch 63.1 (92452) - https://sketch.com -->
    <title>weather1</title>
    <desc>Created with Sketch.</desc>
    <g id="页面-1" stroke="none" stroke-width="1" fill="none" fill-rule="evenodd">
        <g id="表格搜索" transform="translate(-447.000000, -729.000000)" stroke="#9FA8B8">
            <g id="weather1" transform="translate(448.000000, 729.520000)">
                <g id="联合_73" transform="translate(0.000000, 0.480000)">
                    <path d="M16.0582979,16 L4.94080851,16 C2.21259574,16 0,13.6128889 0,10.6666667 C-0.0603505634,8.31475188 1.45249264,6.20743372 3.70851064,5.50088889 C3.70851064,5.44533333 3.70582979,5.38933333 3.70582979,5.33377778 C3.76134761,2.3347213 6.24906979,-0.0525126325 9.26412766,-1.08420217e-19 C12.2793827,-0.0532563036 14.7676013,2.33406308 14.8228723,5.33333333 C14.8228723,5.38977778 14.8228723,5.44622222 14.8201915,5.50222222 C15.2235,5.38990871 15.6403758,5.33308411 16.0591915,5.33333333 C18.7874043,5.33333333 21,7.72088889 21,10.6666667 C21,13.6124444 18.7874043,16 16.0591915,16 L16.0582979,16 Z" id="路径"></path>
                </g>
            </g>
        </g>
    </g>
</svg>