<?xml version="1.0" encoding="UTF-8"?>
<svg width="22px" height="22px" viewBox="0 0 22 22" version="1.1" xmlns="http://www.w3.org/2000/svg" xmlns:xlink="http://www.w3.org/1999/xlink">
    <!-- Generator: Sketch 63.1 (92452) - https://sketch.com -->
    <title>wind1</title>
    <desc>Created with Sketch.</desc>
    <g id="页面-1" stroke="none" stroke-width="1" fill="none" fill-rule="evenodd">
        <g id="表格搜索" transform="translate(-363.000000, -727.000000)" fill-rule="nonzero" stroke="#9FA8B8">
            <g id="wind1" transform="translate(364.000000, 728.000000)">
                <path d="M7.00014835,15.2385732 C6.97341182,11.50253 10.5694752,9.91803621 10.5694752,9.91803621 L10.5694752,0 C10.5694752,0 14.1128519,1.09145653 14.1384088,4.76100866 C14.1631795,8.04290553 11.290182,9.70978129 10.6815327,10.0255091 L20,10.0255091 C20,10.0255091 19.3650074,13.8405888 15.5456154,13.8405888 C11.9802204,13.8405888 10.7342194,10.5164555 10.5844162,10.0740183 L10.5682956,10.0815456 L10.5682956,20 C10.5682956,20 7.02924399,18.97378 7.00014835,15.2385732 Z"></path>
                <path d="M0,10 C0,10 0.67950642,7.02414628 4.72277806,7.00014216 C8.76604969,6.97613804 10,10 10,10 L0,10 Z" id="wind1-path"></path>
            </g>
        </g>
    </g>
</svg>