<?xml version="1.0" encoding="UTF-8"?>
<svg width="17px" height="21px" viewBox="0 0 17 21" version="1.1" xmlns="http://www.w3.org/2000/svg" xmlns:xlink="http://www.w3.org/1999/xlink">
    <!-- Generator: Sketch 63.1 (92452) - https://sketch.com -->
    <title>webcam1</title>
    <desc>Created with Sketch.</desc>
    <g id="页面-1" stroke="none" stroke-width="1" fill="none" fill-rule="evenodd">
        <g id="表格搜索" transform="translate(-323.000000, -727.000000)" fill-rule="nonzero">
            <g id="webcam1" transform="translate(322.500000, 727.000000)">
                <path d="M8.99947535,4 C10.8196124,3.99981439 12.4606215,5.09612014 13.1572436,6.77767197 C13.8538656,8.4592238 13.4688995,10.394837 12.1818682,11.6818682 C10.894837,12.9688995 8.9592238,13.3538656 7.27767197,12.6572436 C5.59612014,11.9606215 4.49981439,10.3196124 4.5,8.49947535 C4.50101297,6.01490344 6.51490344,4.00101297 8.99947535,4 Z M10.7992655,8.49947535 C10.7992655,7.5054787 9.993472,6.69968521 8.99947535,6.69968521 C8.0054787,6.69968521 7.19968521,7.5054787 7.19968521,8.49947535 C7.19968521,9.493472 8.0054787,10.2992657 8.99947535,10.2992657 C9.47692618,10.299509 9.93489853,10.1099817 10.2725503,9.77241597 C10.6102021,9.43485024 10.7998462,8.97692623 10.7997244,8.49947535 L10.7992655,8.49947535 Z" id="路径_252" stroke="#9FA8B8"></path>
                <g id="组_36" transform="translate(0.500000, 0.000000)" fill="#9FA8B8">
                    <path d="M8.33447368,-3.08101722e-06 C4.42204012,-0.00316405894 1.03492908,2.77317793 0.194212224,6.67239704 C-0.646504632,10.5716162 1.28586639,14.542314 4.83828947,16.2151957 C3.03768769,16.6293768 1.75765533,18.2600228 1.75457895,20.1435652 C1.75457895,20.2623418 1.80081674,20.3762537 1.88312053,20.4602415 C1.96542433,20.5442292 2.07705223,20.591413 2.19344737,20.591413 L14.4759474,20.591413 C14.7183277,20.591413 14.9148158,20.3909047 14.9148158,20.1435652 C14.9117394,18.2600228 13.631707,16.6293768 11.8311053,16.2151957 C15.3836049,14.5422784 17.3159728,10.5714537 16.4751352,6.67217378 C15.6342977,2.77289386 12.2469912,-0.00337897832 8.33447368,-3.08101722e-06 L8.33447368,-3.08101722e-06 Z M10.9663421,17.0104565 C12.4920925,17.0123118 13.7858021,18.1554698 14.0057632,19.6961739 L2.66318421,19.6961739 C2.88314527,18.1554698 4.17685485,17.0123118 5.70260526,17.0104565 L10.9663421,17.0104565 Z M8.33447368,16.1152174 C4.21610105,16.1149653 0.877736857,12.7079404 0.877736857,8.50530436 C0.877736857,4.30266834 4.2163993,0.895695667 8.33477194,0.895695667 C12.4531446,0.895695667 15.7918582,4.30236399 15.7921053,8.505 C15.7876671,12.7061296 12.4513701,16.1106884 8.33447368,16.1152174 L8.33447368,16.1152174 Z" id="路径_253"></path>
                    <path d="M8.33447368,3.58095652 C5.66952536,3.58095652 3.50915789,5.78552588 3.50915789,8.505 C3.50915789,11.2244741 5.66952536,13.4290435 8.33447368,13.4290435 C10.999422,13.4290435 13.1597895,11.2244741 13.1597895,8.505 C13.156339,5.78698569 10.9979915,3.5844776 8.33447368,3.58095652 Z M8.33447368,12.5338043 C6.15403896,12.5338043 4.38644737,10.7300472 4.38644737,8.505 C4.38644737,6.2799528 6.15403896,4.47619565 8.33447368,4.47619565 C10.5149084,4.47619565 12.2825,6.2799528 12.2825,8.505 C12.2797886,10.7289001 10.5137843,12.5310375 8.33447368,12.5338043 L8.33447368,12.5338043 Z" id="路径_254"></path>
                </g>
            </g>
        </g>
    </g>
</svg>