<?xml version="1.0" encoding="UTF-8"?>
<svg width="23px" height="18px" viewBox="0 0 23 18" version="1.1" xmlns="http://www.w3.org/2000/svg" xmlns:xlink="http://www.w3.org/1999/xlink">
    <!-- Generator: Sketch 63.1 (92452) - https://sketch.com -->
    <title>insects1</title>
    <desc>Created with Sketch.</desc>
    <g id="页面-1" stroke="none" stroke-width="1" fill="none" fill-rule="evenodd">
        <g id="表格搜索" transform="translate(-491.000000, -729.000000)" stroke="#9FA8B8">
            <g id="insects1" transform="translate(492.000000, 730.000000)">
                <g id="路径_2333" transform="translate(8.000000, 3.000000)">
                    <path d="M3.00000781,11.7015337 L3.00000781,1.31083546 C3.00000781,0.59371108 2.4239987,0 2.00000784,0 C1.57601698,0 1,0.59371108 1,1.31083546 L0.443954984,11.7015337 C0.443954984,12.4186568 0.721973668,13.210083 1.72198151,13.210083 C2.72198147,13.210083 3.00000781,12.4186568 3.00000781,11.7015337 Z" id="路径"></path>
                </g>
                <path d="M11,5.27354407 C11,5.27354407 17.7544842,-0.482744134 20.4260539,0.0326540138 C23.0976236,0.548052162 15.6704548,11.1621409 13.9680145,11.076097 C12.2655742,10.9900532 22.1106629,12.4138838 20.4260539,14.2713926 C18.7414449,16.1289014 11.4127938,13.8486524 11.4127938,13.8486524 L11,5.27354407 Z" id="路径_2332" fill-rule="nonzero"></path>
                <path d="M9,5.27599071 C9,5.27599071 2.92059139,-0.482968102 0.51639304,0.0326691635 C-1.88780531,0.548306429 4.79795387,11.1673195 6.32912158,11.0812358 C7.86028928,10.995152 -1.00009503,12.4196432 0.51639304,14.2780138 C2.03288111,16.1363843 8.56245567,13.8204371 8.56245567,13.8204371 L9,5.27599071 Z" id="路径_2334" fill-rule="nonzero"></path>
            </g>
        </g>
    </g>
</svg>