<?xml version="1.0" encoding="UTF-8"?>
<svg width="13px" height="15px" viewBox="0 0 13 15" version="1.1" xmlns="http://www.w3.org/2000/svg" xmlns:xlink="http://www.w3.org/1999/xlink">
    <!-- Generator: Sketch 63 (92445) - https://sketch.com -->
    <title>分组</title>
    <desc>Created with Sketch.</desc>
    <defs>
        <polygon id="path-1" points="0 0.0271597633 12.9980793 0.0271597633 12.9980793 14.8224852 0 14.8224852"></polygon>
    </defs>
    <g id="页面-1" stroke="none" stroke-width="1" fill="none" fill-rule="evenodd">
        <g id="手机验证码登录" transform="translate(-780.000000, -540.000000)">
            <g id="编组-2" transform="translate(635.000000, 310.000000)">
                <g id="分组" transform="translate(145.000000, 230.000000)">
                    <g transform="translate(0.000000, 0.061598)">
                        <mask id="mask-2" fill="white">
                            <use xlink:href="#path-1"></use>
                        </mask>
                        <g id="Clip-2"></g>
                        <path d="M11.763953,7.48521302 C11.269604,11.5754201 8.15047651,13.6316627 6.5362953,13.6316627 C5.84563758,13.6316627 4.49328859,12.9659822 3.25,11.6938225 C1.94851678,10.3624615 1.19233557,8.83876331 1.16328188,7.51476923 L1.16328188,3.42456213 C1.17052349,3.35062722 1.22871812,3.29142604 1.29415436,3.28405917 C2.17387919,3.19530178 3.03912081,2.98077515 3.86073826,2.64056805 C4.76227517,2.35947337 5.61294631,1.88613018 6.3181745,1.25737278 C6.37636913,1.21299408 6.44180537,1.19826036 6.48542953,1.19826036 C6.52181208,1.19826036 6.57267785,1.20562722 6.62363087,1.23518343 C7.34342953,1.79737278 8.13590604,2.25589349 8.97933557,2.59618935 L9.03020134,2.6183787 L9.08106711,2.63311243 C9.90992617,2.88465089 10.7605973,3.08435503 11.6185973,3.22485799 C11.7203289,3.24704734 11.7857651,3.33580473 11.8003356,3.43938462 C11.8585302,4.78547929 11.8439597,6.14648521 11.763953,7.48521302 M12.9636174,3.38018343 C12.9273221,2.72932544 12.4619396,2.18932544 11.8367181,2.06364497 C11.0223423,1.93787574 10.2152953,1.74553846 9.42281879,1.50891124 C8.65939597,1.19826036 7.94683893,0.784029586 7.29980537,0.273674556 C6.77631544,-0.0813550296 6.07824161,-0.0517988166 5.58389262,0.355065089 C4.97315436,0.894976331 4.2533557,1.30175148 3.47536242,1.53110059 C2.73375168,1.84175148 1.95575839,2.04145562 1.15604027,2.11539053 C0.516161074,2.19678107 0.0290536913,2.73669231 0,3.39500592 L0,7.52959172 C0.0581073826,11.1464556 4.22421477,14.8225207 6.52905369,14.8225207 C8.79026846,14.8225207 12.3674497,12.2632899 12.9127517,7.60352663 C13.0072416,6.19086391 13.0218121,4.78547929 12.9636174,3.38018343" id="Fill-1" fill="#999999" mask="url(#mask-2)"></path>
                    </g>
                    <path d="M6.18734564,9.66217456 C5.96198322,9.89152367 5.59117785,9.89152367 5.36572819,9.66217456 L3.30815101,7.56900888 C3.08278859,7.33965976 3.08278859,6.96244083 3.30815101,6.73318047 C3.53351342,6.50392012 3.90431879,6.50392012 4.12976846,6.73318047 L6.18734564,8.82643491 C6.41270805,9.05569527 6.41270805,9.4329142 6.18734564,9.66217456" id="Fill-3" fill="#999999"></path>
                    <path d="M9.69913423,6.09709172 L6.18014765,9.67703254 C5.96202685,9.89892604 5.6057047,9.89892604 5.38034228,9.67703254 C5.16222148,9.45513905 5.16222148,9.09265385 5.38034228,8.86339349 L8.89932886,5.28345266 C9.11744966,5.06155917 9.47368456,5.06155917 9.69913423,5.28345266 C9.91725503,5.50534615 9.91725503,5.86783136 9.69913423,6.09709172" id="Fill-5" fill="#999999"></path>
                </g>
            </g>
        </g>
    </g>
</svg>