<?xml version="1.0" encoding="UTF-8"?>
<svg width="11px" height="16px" viewBox="0 0 11 16" version="1.1" xmlns="http://www.w3.org/2000/svg" xmlns:xlink="http://www.w3.org/1999/xlink">
    <!-- Generator: Sketch 63 (92445) - https://sketch.com -->
    <title>分组</title>
    <desc>Created with Sketch.</desc>
    <defs>
        <polygon id="path-1" points="0 4.8e-05 10.9601449 4.8e-05 10.9601449 16 0 16"></polygon>
    </defs>
    <g id="页面-1" stroke="none" stroke-width="1" fill="none" fill-rule="evenodd">
        <g id="手机验证码登录" transform="translate(-780.000000, -459.000000)">
            <g id="编组-2" transform="translate(635.000000, 310.000000)">
                <g id="分组" transform="translate(145.000000, 149.000000)">
                    <mask id="mask-2" fill="white">
                        <use xlink:href="#path-1"></use>
                    </mask>
                    <g id="Clip-2"></g>
                    <path d="M9.96376812,11.391888 L0.996376812,11.391888 L0.996376812,1.791888 C0.996376812,1.355568 1.34247826,1.000048 1.76725362,1.000048 L9.16148551,1.000048 C9.58618116,1.000048 9.93228261,1.355568 9.93228261,1.791888 L9.93228261,11.391888 L9.96376812,11.391888 Z M9.3539058,15.200048 L1.78542754,15.200048 C1.3506087,15.200048 0.996376812,14.844448 0.996376812,14.391888 L0.996376812,12.500048 L10.1589783,12.500048 L10.1589783,14.391888 C10.1428768,14.828288 9.78864493,15.200048 9.3539058,15.200048 L9.3539058,15.200048 Z M9.33581159,4.8e-05 L1.62433333,4.8e-05 C0.721934783,4.8e-05 0,0.711088 0,1.600048 L0,14.400048 C0,15.288928 0.721934783,16.000048 1.62433333,16.000048 L9.33581159,16.000048 C10.2382101,16.000048 10.9601449,15.288928 10.9601449,14.400048 L10.9601449,1.600048 C10.9601449,0.711088 10.2382101,4.8e-05 9.33581159,4.8e-05 L9.33581159,4.8e-05 Z M5.57165942,14.900048 C6.00647826,14.900048 6.36071014,14.544448 6.36071014,14.091888 C6.36071014,13.655568 6.00647826,13.300048 5.57165942,13.300048 C5.13684058,13.300048 4.76650725,13.655568 4.76650725,14.091888 C4.7826087,14.544448 5.13684058,14.900048 5.57165942,14.900048 L5.57165942,14.900048 Z" id="Fill-1" fill="#999999" mask="url(#mask-2)"></path>
                </g>
            </g>
        </g>
    </g>
</svg>