<?xml version="1.0" encoding="UTF-8"?>
<svg width="22px" height="20px" viewBox="0 0 22 20" version="1.1" xmlns="http://www.w3.org/2000/svg" xmlns:xlink="http://www.w3.org/1999/xlink">
    <!-- Generator: Sketch 53.2 (72643) - https://sketchapp.com -->
    <title>运维负责人-icon</title>
    <desc>Created with Sketch.</desc>
    <g id="页面-1" stroke="none" stroke-width="1" fill="none" fill-rule="evenodd">
        <g id="传感器设备-详情" transform="translate(-1038.000000, -101.000000)" fill="#48A4FF">
            <g id="运维负责人" transform="translate(1018.000000, 80.000000)">
                <path d="M27.2916267,26.0973985 C27.2916267,24.034905 28.999242,22.3569037 31.09834,22.3569037 C33.1968858,22.3569037 34.9043907,24.034905 34.9048324,26.0973985 C34.9048324,28.1603263 33.1973275,29.8386533 31.09834,29.8386533 C28.999242,29.8386533 27.2916267,28.1603263 27.2916267,26.0973985 L27.2916267,26.0973985 Z M36.2852367,26.0971814 C36.2845741,23.2865455 33.9576542,21 31.0982296,21 C28.2381423,21 25.9112224,23.286654 25.9112224,26.0973985 C25.9112224,28.9084687 28.2381423,31.1956655 31.0982296,31.1956655 C33.9584272,31.1956655 36.2852367,28.9084687 36.2852367,26.0971814 L36.2852367,26.0971814 Z M26.5119744,31.1433433 C22.6777634,32.3091949 20,36.0834496 20,40.3215482 C20,40.6962707 20.3089897,41 20.6902021,41 C21.0713042,41 21.3804043,40.6962707 21.3804043,40.3215482 C21.3804043,36.6724543 23.6582922,33.4314085 26.9199115,32.4395662 C27.2841173,32.3289514 27.4879754,31.9490184 27.3753344,31.5909044 C27.2626934,31.2330075 26.8761802,31.0324029 26.5119744,31.1433433 L26.5119744,31.1433433 Z M40.7778453,39.1689399 C40.7767409,39.358038 40.7767409,39.546919 40.7769618,39.7206027 C40.4211488,39.7203856 40.0652254,39.7197343 39.7095228,39.719083 L39.3888273,39.7184316 L37.9232796,39.7206027 C36.3308453,39.7233165 34.7385213,39.7258132 33.1460869,39.7277671 L33.0853491,39.7278757 C32.7753656,39.7278757 32.4590873,39.725379 32.1533002,39.7230994 L32.0176893,39.722231 C32.0174684,39.0357463 32.0174684,38.3493701 32.0174684,37.6628854 C32.017358,36.7023062 32.0172475,35.7197994 32.0166954,34.7372926 C32.4201047,35.1078901 32.8340051,35.479139 33.2403962,35.8434405 C33.9418624,36.4719582 34.6672924,37.1218608 35.307027,37.7426714 C35.4026614,37.8354836 35.5038174,37.9171149 35.6086177,37.9853943 C35.9023678,38.1768805 36.1808781,38.240058 36.4209581,38.240058 C36.5931221,38.240058 36.7454083,38.2076008 36.8693134,38.1662424 C37.1129271,38.0851538 37.3313623,37.9484865 37.537429,37.7485332 C38.1777158,37.1263114 38.905244,36.4747806 39.6090293,35.8448516 C39.9969782,35.4975929 40.3917738,35.1437124 40.7774035,34.7904832 C40.7771827,35.7149145 40.7770722,36.6393459 40.7770722,37.5637772 L40.7769618,38.3642418 C40.7769618,38.5748332 40.7767409,38.7853161 40.7777348,38.9951477 C40.7778453,39.0274963 40.7802748,39.0571311 40.7836982,39.0830751 C40.7804956,39.1084763 40.7780661,39.1372427 40.7778453,39.1689399 L40.7778453,39.1689399 Z M40.5207588,33.3953692 C39.9712474,33.9146833 39.3753545,34.4482178 38.7956951,34.9672064 C38.0830752,35.6051682 37.3461602,36.2650576 36.6884252,36.9041049 C36.6146564,36.9757494 36.5490596,37.0196045 36.4820271,37.0419663 C36.4440384,37.0544498 36.3922456,37.0718182 36.2764021,36.9963744 C36.2371986,36.9706475 36.19667,36.9376476 36.1556996,36.898026 C35.4986271,36.2606069 34.7644729,35.6024544 34.0541721,34.9661208 C33.4759483,34.4477836 32.8817119,33.9152261 32.3312067,33.3954777 L40.5207588,33.3953692 Z M42,39.0813382 C41.9997791,39.0241312 41.9923802,38.9756083 41.9854229,38.940763 C41.9846499,38.7488426 41.9847603,38.5569221 41.9847603,38.3648931 L41.9848708,37.5638857 C41.9848708,36.2112156 41.9848708,34.8585455 41.9854229,33.5058754 L41.9856438,33.4710301 C41.986196,33.3826685 41.986196,33.3459779 41.9847603,33.3159089 C41.9840977,33.3007116 41.9843186,33.2855142 41.9843186,33.2703169 C41.984429,33.2327578 41.9845395,33.1862974 41.9805639,33.1329983 C41.9596922,32.858361 41.836781,32.6193288 41.6247509,32.4415202 C41.3459092,32.2080242 41.0273119,32.2080242 40.9225116,32.2080242 L31.9240426,32.2081327 L31.9132203,32.2080242 L31.8814157,32.2081327 C31.2784552,32.2132347 30.8066882,32.6719767 30.8074612,33.2524058 C30.8093386,34.7225295 30.809449,36.2174031 30.809449,37.6628854 C30.8095594,38.3977844 30.8095594,39.1325749 30.8097803,39.8670397 C30.8097803,39.9424836 30.814308,40.0572233 30.8536219,40.1820585 C30.9908893,40.6199584 31.3927526,40.9051253 31.8774402,40.9084904 L32.1440239,40.9103358 C32.4521301,40.912724 32.7707274,40.9151121 33.0853491,40.9151121 L33.1474121,40.9151121 C34.7400674,40.9131582 36.3327226,40.9105529 37.9252674,40.9078391 L39.2118042,40.9057766 L39.7070933,40.9063194 C40.1203311,40.9071878 40.5335689,40.9078391 40.9468067,40.9078391 L40.9875563,40.9078391 C41.2126174,40.907622 41.4246475,40.8343492 41.6014497,40.6958365 C41.7768162,40.5581922 41.9858647,40.305591 41.9850916,39.8823456 C41.9845395,39.6857574 41.9843186,39.4562779 41.9854229,39.2263641 C41.9924906,39.1905418 42,39.1408249 42,39.0813382 L42,39.0813382 Z" id="运维负责人-icon"></path>
            </g>
        </g>
    </g>
</svg>