<?xml version="1.0" encoding="UTF-8"?>
<svg width="50px" height="50px" viewBox="0 0 50 50" version="1.1" xmlns="http://www.w3.org/2000/svg" xmlns:xlink="http://www.w3.org/1999/xlink">
    <!-- Generator: Sketch 63 (92445) - https://sketch.com -->
    <title>监测信息-正常icon copy 2</title>
    <desc>Created with Sketch.</desc>
    <g id="页面-1" stroke="none" stroke-width="1" fill="none" fill-rule="evenodd">
        <g id="规范" transform="translate(-714.000000, -2507.000000)">
            <g id="监测信息-正常icon-copy-2" transform="translate(714.000000, 2507.000000)">
                <circle id="椭圆形备份-9" fill="#1478FE" cx="25" cy="25" r="25"></circle>
                <path d="M25,25.9230769 C24.4901662,25.9230769 24.0769231,25.5098338 24.0769231,25 C24.0769231,24.4901662 24.4901662,24.0769231 25,24.0769231 C25.5098338,24.0769231 25.9230769,24.4901662 25.9230769,25 C25.9230769,25.5098338 25.5098338,25.9230769 25,25.9230769 L25,25.9230769 Z M35.0652308,24.0769231 C34.6225969,19.2236062 30.7765415,15.3790277 25.9230769,14.9384615 L25.9230769,18.5384615 L24.0769231,18.5384615 L24.0769231,14.9384615 C19.2234585,15.3790277 15.3772554,19.2236062 14.9347692,24.0769231 L18.5384615,24.0769231 L18.5384615,25.9230769 L14.9347692,25.9230769 C15.3772554,30.7763938 19.2234585,34.6209723 24.0769231,35.0615385 L24.0769231,31.4615385 L25.9230769,31.4615385 L25.9230769,35.0615385 C30.7765415,34.6209723 34.6225969,30.7763938 35.0652308,25.9230769 L31.4615385,25.9230769 L31.4615385,24.0769231 L35.0652308,24.0769231 Z M36.9113846,25.9230769 C36.4587077,31.7931077 31.7932554,36.4560492 25.9230769,36.9057723 L25.9230769,37 L24.0769231,37 L24.0769231,36.9076923 C18.2057108,36.45856 13.5396677,31.7941415 13.0886154,25.9230769 L13,25.9230769 L13,24.0769231 L13.0886154,24.0769231 C13.5396677,18.2058585 18.2057108,13.54144 24.0769231,13.0923077 L24.0769231,13 L25.9230769,13 L25.9230769,13.0923077 C31.7939938,13.5421785 36.4595938,18.2061538 36.9113846,24.0769231 L37,24.0769231 L37,25.9230769 L36.9113846,25.9230769 Z" id="Fill-1" fill="#F0F0F0"></path>
            </g>
        </g>
    </g>
</svg>