<?xml version="1.0" encoding="UTF-8"?>
<svg width="50px" height="50px" viewBox="0 0 50 50" version="1.1" xmlns="http://www.w3.org/2000/svg" xmlns:xlink="http://www.w3.org/1999/xlink">
    <!-- Generator: Sketch 63 (92445) - https://sketch.com -->
    <title>加工管理-正常icon copy 2</title>
    <desc>Created with Sketch.</desc>
    <defs>
        <polygon id="path-1" points="0 0 23.993415 0 23.993415 22.2462045 0 22.2462045"></polygon>
    </defs>
    <g id="页面-1" stroke="none" stroke-width="1" fill="none" fill-rule="evenodd">
        <g id="规范" transform="translate(-500.000000, -2507.000000)">
            <g id="加工管理-正常icon-copy-2" transform="translate(500.000000, 2507.000000)">
                <circle id="椭圆形备份-7" fill="#1478FE" cx="25" cy="25" r="25"></circle>
                <g id="编组" transform="translate(13.000000, 14.000000)">
                    <mask id="mask-2" fill="white">
                        <use xlink:href="#path-1"></use>
                    </mask>
                    <g id="Clip-2"></g>
                    <path d="M22.0585815,20.5308945 L13.7230065,20.5308945 L13.7230065,10.2386295 C13.7201715,9.2924145 12.9539115,8.5261545 12.0076965,8.5233195 L8.3088315,8.5233195 L11.9553165,1.8896895 C11.9770515,1.8495945 12.0016215,1.8111195 12.0290265,1.7746695 C12.0564315,1.8111195 12.0810015,1.8495945 12.1027365,1.8896895 L22.1970915,20.2958595 C22.2347565,20.3590395 22.2612165,20.4280245 22.2753915,20.4999795 C22.2054615,20.5225245 22.1321565,20.5330545 22.0585815,20.5308945 L22.0585815,20.5308945 Z M1.7154315,20.5280595 L1.7154315,18.0113895 L12.0075615,18.0113895 L12.0075615,20.5280595 L12.0045915,20.5308945 L1.7184015,20.5308945 L1.7154315,20.5280595 Z M1.7154315,16.2960795 L12.0075615,16.2960795 L12.0075615,14.5807695 L1.7154315,14.5807695 L1.7154315,16.2960795 Z M1.7184015,10.2386295 L12.0045915,10.2386295 L12.0076965,10.2415995 L12.0076965,12.8653245 L1.7154315,12.8653245 L1.7154315,10.2415995 C1.7162415,10.2405195 1.7173215,10.2395745 1.7184015,10.2386295 L1.7184015,10.2386295 Z M23.7009915,19.4707395 L13.6070415,1.0649745 C13.2355215,0.3878145 12.6608265,-4.05e-05 12.0298365,-4.05e-05 C11.3992515,-4.05e-05 10.8237465,0.3878145 10.4524965,1.0642995 L6.3522765,8.5233195 L1.7154315,8.5233195 C0.7692165,8.5260195 0.0028215,9.2924145 -1.35e-05,10.2386295 L-1.35e-05,20.5308945 C0.0028215,21.4771095 0.7692165,22.2435045 1.7154315,22.2462045 L12.0075615,22.2462045 C12.0670965,22.2462045 12.1266315,22.2430995 12.1857615,22.2368895 C12.2243715,22.2422895 12.2633865,22.2448545 12.3024015,22.2448545 L22.0585815,22.2448545 C22.8190365,22.2448545 23.4413865,21.9304395 23.7659265,21.3824745 C24.0906015,20.8342395 24.0667065,20.1376395 23.7011265,19.4707395 L23.7009915,19.4707395 Z" id="Fill-1" fill="#F0F0F0" mask="url(#mask-2)"></path>
                </g>
            </g>
        </g>
    </g>
</svg>