<?xml version="1.0" encoding="UTF-8"?>
<svg width="50px" height="50px" viewBox="0 0 50 50" version="1.1" xmlns="http://www.w3.org/2000/svg" xmlns:xlink="http://www.w3.org/1999/xlink">
    <!-- Generator: Sketch 63 (92445) - https://sketch.com -->
    <title>仓储管理-正常icon copy</title>
    <desc>Created with Sketch.</desc>
    <g id="页面-1" stroke="none" stroke-width="1" fill="none" fill-rule="evenodd">
        <g id="规范" transform="translate(-607.000000, -2391.000000)">
            <g id="仓储管理-正常icon-copy" transform="translate(607.000000, 2391.000000)">
                <circle id="椭圆形备份-8" stroke="#8AB9E8" cx="25" cy="25" r="24.5"></circle>
                <g id="编组" transform="translate(12.000000, 16.000000)" fill="#8AB9E8">
                    <path d="M0,2.85e-05 L0,5.842386 L0.9243975,5.842386 L0.9243975,19.105716 L26.0169375,19.105716 L26.0169375,5.8371135 L26.72046,5.8371135 L26.72046,2.85e-05 L0,2.85e-05 Z M1.2219375,4.6044885 L25.49325,4.6044885 L25.49325,1.2272385 L1.2219375,1.2272385 L1.2219375,4.6044885 Z M2.1553125,17.8837785 L24.76821,17.8837785 L24.76821,5.853216 L2.1553125,5.853216 L2.1553125,17.8837785 Z" id="Fill-1"></path>
                    <polygon id="Fill-2" points="16.45704 9.07725 23.532165 9.07725 23.532165 7.56675 16.45704 7.56675"></polygon>
                    <polygon id="Fill-3" points="16.4640225 11.4961875 23.532165 11.4961875 23.532165 9.975 16.4640225 9.975"></polygon>
                    <polygon id="Fill-4" points="16.4623125 13.915125 23.5320225 13.915125 23.5320225 12.4010625 16.4623125 12.4010625"></polygon>
                </g>
            </g>
        </g>
    </g>
</svg>