<?xml version="1.0" encoding="UTF-8"?>
<svg width="50px" height="50px" viewBox="0 0 50 50" version="1.1" xmlns="http://www.w3.org/2000/svg" xmlns:xlink="http://www.w3.org/1999/xlink">
    <!-- Generator: Sketch 63 (92445) - https://sketch.com -->
    <title>农用机使用-正常icon copy</title>
    <desc>Created with Sketch.</desc>
    <defs>
        <polygon id="path-1" points="0 0 23.999964 0 23.999964 18.524736 0 18.524736"></polygon>
    </defs>
    <g id="页面-1" stroke="none" stroke-width="1" fill="none" fill-rule="evenodd">
        <g id="规范" transform="translate(-935.000000, -2391.000000)">
            <g id="农用机使用-正常icon-copy" transform="translate(935.000000, 2391.000000)">
                <circle id="椭圆形备份-11" stroke="#8AB9E8" cx="25" cy="25" r="24.5"></circle>
                <g id="编组" transform="translate(13.000000, 16.000000)">
                    <mask id="mask-2" fill="white">
                        <use xlink:href="#path-1"></use>
                    </mask>
                    <g id="Clip-2"></g>
                    <path d="M18.631524,17.081016 C16.467564,17.081016 14.706804,15.320016 14.706804,13.156056 C14.706804,10.992216 16.467564,9.231696 18.631524,9.231696 C20.795604,9.231696 22.556484,10.992216 22.556484,13.156056 C22.556484,15.320016 20.795604,17.081016 18.631524,17.081016 L18.631524,17.081016 Z M6.134604,14.355936 C5.710284,13.111896 4.542924,12.208776 3.157884,12.208776 C2.809644,12.208776 2.481204,12.279336 2.167524,12.383736 L2.167524,8.543736 C2.167524,8.167656 2.453604,7.778976 2.932284,7.778976 L9.926844,7.778976 C10.217004,7.778976 10.478964,7.605216 10.591524,7.337736 L12.742164,2.240016 C13.107924,1.581696 13.198164,1.443576 14.015844,1.443576 L18.988764,1.443576 C19.253724,1.443576 19.468644,1.658496 19.468884,1.923456 C19.468884,1.947336 19.470204,1.971696 19.472484,1.995696 L20.075844,7.991136 C19.605924,7.857816 19.119924,7.789416 18.631524,7.788216 C15.671844,7.788216 13.263204,10.196376 13.263204,13.156296 C13.263204,13.569336 13.314564,13.969656 13.402764,14.355936 L6.134604,14.355936 Z M3.157884,17.081016 C2.212524,17.081016 1.443564,16.312656 1.443564,15.366576 C1.443564,14.422056 2.212644,13.652256 3.157884,13.652256 C4.103124,13.652256 4.872204,14.421936 4.872204,15.366576 C4.872204,16.312896 4.103124,17.081016 3.157884,17.081016 L3.157884,17.081016 Z M21.597204,8.685576 L20.912124,1.883016 C20.890884,0.841296 20.036604,-2.4e-05 18.989004,-2.4e-05 L14.015964,-2.4e-05 C12.456204,-2.4e-05 11.973204,0.652056 11.461524,1.573296 C11.448924,1.595856 11.437524,1.619136 11.427564,1.643016 L9.448284,6.335376 L5.604564,6.335376 L5.604564,2.419656 C5.604564,2.255376 5.548884,2.096376 5.445924,1.968216 L4.445604,0.719736 C4.196244,0.409056 3.742284,0.359136 3.431244,0.608016 C3.120084,0.856656 3.069444,1.310496 3.318204,1.621536 C3.318444,1.621896 3.318804,1.622376 3.319044,1.622736 L4.160844,2.673216 L4.160844,6.335376 L2.932164,6.335376 C1.714044,6.335376 0.723804,7.326096 0.723804,8.543736 L0.723804,13.380336 C0.278484,13.924416 -3.6e-05,14.610336 -3.6e-05,15.366696 C-3.6e-05,17.108496 1.416924,18.524736 3.157884,18.524736 C4.750884,18.524736 6.059244,17.334816 6.272004,15.799656 L13.964364,15.799656 C14.887884,17.424456 16.632444,18.524736 18.631524,18.524736 C21.591324,18.524736 23.999964,16.116696 23.999964,13.156296 C23.999964,11.292576 23.043444,9.648336 21.597204,8.685576 L21.597204,8.685576 Z" id="Fill-1" fill="#8AB9E8" mask="url(#mask-2)"></path>
                </g>
            </g>
        </g>
    </g>
</svg>