<?xml version="1.0" encoding="UTF-8"?>
<svg width="50px" height="50px" viewBox="0 0 50 50" version="1.1" xmlns="http://www.w3.org/2000/svg" xmlns:xlink="http://www.w3.org/1999/xlink">
    <!-- Generator: Sketch 63 (92445) - https://sketch.com -->
    <title>受灾信息-正常icon copy</title>
    <desc>Created with Sketch.</desc>
    <defs>
        <polygon id="path-1" points="0 -3.12638804e-15 21.136676 -3.12638804e-15 21.136676 21.30832 0 21.30832"></polygon>
    </defs>
    <g id="页面-1" stroke="none" stroke-width="1" fill="none" fill-rule="evenodd">
        <g id="规范" transform="translate(-821.000000, -2391.000000)">
            <g id="受灾信息-正常icon-copy" transform="translate(821.000000, 2391.000000)">
                <circle id="椭圆形备份-10" stroke="#8AB9E8" cx="25" cy="25" r="24.5"></circle>
                <g id="编组" transform="translate(16.000000, 14.000000)">
                    <mask id="mask-2" fill="white">
                        <use xlink:href="#path-1"></use>
                    </mask>
                    <g id="Clip-2"></g>
                    <path d="M12.062446,13.276725 L12.028346,13.337995 C12.055956,13.287945 12.062886,13.274635 12.062226,13.276725 L12.062446,13.276725 Z M7.265566,13.276725 L7.230256,13.337995 C7.259076,13.287945 7.266336,13.274635 7.265346,13.276725 L7.265566,13.276725 Z M2.468796,13.276725 L2.434696,13.337995 C2.462526,13.287945 2.469456,13.274635 2.468796,13.276725 L2.468796,13.276725 Z M20.161966,21.307495 L0.974776,21.307495 C0.970156,21.307605 0.964766,21.307605 0.959376,21.307605 C0.429506,21.307605 -4.4e-05,20.878165 -4.4e-05,20.348185 C-4.4e-05,19.818425 0.429506,19.388875 0.959376,19.388875 C0.964766,19.388875 0.970266,19.388875 0.975656,19.388985 L6.259176,19.388985 L2.396306,14.392455 C2.105246,14.015705 2.464286,13.288935 2.468796,13.276725 L5.927746,7.047975 C5.938966,7.027735 5.952716,7.011125 5.966136,6.992645 L2.420176,1.080255 C2.359236,0.976855 2.323266,0.852445 2.323266,0.719565 C2.323266,0.322135 2.645456,-5.5e-05 3.042886,-5.5e-05 C3.299736,-5.5e-05 3.525126,0.134585 3.652506,0.337095 L7.210896,6.438355 C7.464996,6.932145 7.324636,7.106165 7.210896,7.397775 L3.796166,13.850375 L7.935136,19.205065 C7.997836,19.293835 8.040736,19.401085 8.055256,19.516915 L11.055726,19.390195 L7.192856,14.392455 C6.901576,14.015705 7.260836,13.288935 7.265346,13.276725 L10.724626,7.047975 C10.735736,7.027735 10.749486,7.011125 10.763016,6.992645 L7.217056,1.080255 C7.160076,0.979605 7.126416,0.859045 7.126416,0.730785 C7.126416,0.333355 7.448606,0.011165 7.846036,0.011165 C8.098266,0.011165 8.320136,0.140965 8.448616,0.337315 L12.007446,6.438355 C12.261656,6.932035 12.121186,7.106165 12.007446,7.397665 L8.592936,13.850375 L12.733006,19.204955 C12.795156,19.293505 12.837726,19.400205 12.852026,19.515705 L15.852606,19.389645 L11.989736,14.392455 C11.698346,14.015705 12.057496,13.288825 12.062226,13.276725 L15.521616,7.047865 C15.572546,6.966795 15.637666,6.899475 15.714226,6.847665 L12.013606,1.080255 C11.952666,0.976855 11.916696,0.852445 11.916696,0.719565 C11.916696,0.322135 12.238886,-5.5e-05 12.636206,-5.5e-05 C12.893056,-5.5e-05 13.118556,0.134585 13.245826,0.337095 L16.804216,6.438355 C17.058426,6.932145 16.918066,7.106165 16.804216,7.397775 L13.389486,13.850375 L17.528566,19.205065 C17.590716,19.293615 17.633396,19.400535 17.647696,19.516255 L20.161856,19.389645 C20.166476,19.389645 20.171866,19.389535 20.177256,19.389535 C20.707126,19.389535 21.136676,19.819195 21.136676,20.348955 C21.136676,20.878715 20.707126,21.308375 20.177256,21.308375 C20.171866,21.308375 20.166476,21.308375 20.161086,21.308375 L20.161966,21.307495 Z" id="Fill-1" fill="#8AB9E8" mask="url(#mask-2)"></path>
                </g>
            </g>
        </g>
    </g>
</svg>