<?xml version="1.0" encoding="UTF-8"?>
<svg width="50px" height="50px" viewBox="0 0 50 50" version="1.1" xmlns="http://www.w3.org/2000/svg" xmlns:xlink="http://www.w3.org/1999/xlink">
    <!-- Generator: Sketch 63 (92445) - https://sketch.com -->
    <title>作物信息-选中 copy 2</title>
    <desc>Created with Sketch.</desc>
    <defs>
        <polygon id="path-1" points="0 0 24 0 24 17 0 17"></polygon>
    </defs>
    <g id="页面-1" stroke="none" stroke-width="1" fill="none" fill-rule="evenodd">
        <g id="规范" transform="translate(-78.000000, -2507.000000)">
            <g id="作物信息-选中-copy-2" transform="translate(78.000000, 2507.000000)">
                <circle id="椭圆形" stroke="#8AB9E8" cx="25" cy="25" r="24.5"></circle>
                <g id="编组" transform="translate(13.000000, 17.000000)">
                    <mask id="mask-2" fill="white">
                        <use xlink:href="#path-1"></use>
                    </mask>
                    <g id="Clip-2"></g>
                    <path d="M3.50152,3.53488 C3.50152,6.20988 4.12652,10.45988 5.86412,12.19748 C7.79332,13.71988 10.59152,13.39008 12.11412,11.46088 C13.38972,9.84448 13.38972,7.56388 12.11412,5.94748 C10.41412,4.14748 6.17652,3.53488 3.50152,3.53488 L3.50152,3.53488 Z M14.43652,13.43868 C15.95172,13.82168 17.55612,13.36208 18.63892,12.23488 C20.40152,10.47248 20.96392,6.25988 21.01392,3.60988 C17.90272,3.73988 15.85532,4.17628 14.51792,4.66488 C16.59912,7.23068 16.56552,10.91268 14.43772,13.43988 L14.43652,13.43868 Z M12.2366975,14.7574004 C11.2412438,15.2542701 10.1348581,15.5148101 9.01086409,15.5174367 C7.22186479,15.513134 5.51092879,14.8203472 4.26661169,13.5969825 C1.3440317,10.8150337 1.12392844,4.62278598 1.28279408,2.66733933 C1.30822823,2.05612257 1.82649804,1.56781961 2.46900391,1.54994124 C4.20537407,1.43242821 9.11612236,1.55459707 12.3615205,3.27259663 C14.5097283,2.20417782 17.7576698,1.63840192 22.0092822,1.58476681 C22.6613748,1.58420811 23.199405,2.07064875 23.2320781,2.69061845 C23.2320781,2.77218852 23.611047,10.384463 20.2116744,13.6202616 C18.9745963,14.8298451 17.2775512,15.5136927 15.5040081,15.5174367 C14.3663188,15.5200246 13.2450639,15.2589259 12.2366975,14.7574004 L12.2366975,14.7574004 Z" id="Fill-1" fill="#8AB9E8" mask="url(#mask-2)"></path>
                </g>
            </g>
        </g>
    </g>
</svg>