<?xml version="1.0" encoding="UTF-8"?>
<svg width="50px" height="50px" viewBox="0 0 50 50" version="1.1" xmlns="http://www.w3.org/2000/svg" xmlns:xlink="http://www.w3.org/1999/xlink">
    <!-- Generator: Sketch 63 (92445) - https://sketch.com -->
    <title>采收管理-正常icon copy</title>
    <desc>Created with Sketch.</desc>
    <g id="页面-1" stroke="none" stroke-width="1" fill="none" fill-rule="evenodd">
        <g id="规范" transform="translate(-393.000000, -2391.000000)">
            <g id="采收管理-正常icon-copy" transform="translate(393.000000, 2391.000000)">
                <circle id="椭圆形备份-7" stroke="#8AB9E8" cx="25" cy="25" r="24.5"></circle>
                <g id="编组" transform="translate(15.000000, 15.000000)" fill="#8AB9E8">
                    <path d="M15.701364,12.373392 L13.168044,14.594592 L7.098684,14.594592 L4.565364,12.373392 L-3.6e-05,12.373392 L-3.6e-05,20.266632 L20.266644,20.266632 L20.266644,12.373392 L15.701364,12.373392 Z M13.631964,15.821352 L16.165284,13.599912 L19.040124,13.599912 L19.040124,19.039992 L1.226724,19.039992 L1.226724,13.599912 L4.101324,13.599912 L6.634644,15.821352 L13.631964,15.821352 Z" id="Fill-1"></path>
                    <polygon id="Fill-2" points="3.4587 4.8e-05 6e-05 12.439968 1.1787 12.786648 4.37862 1.226688 15.88794 1.226688 19.08798 12.786648 20.26662 12.439968 16.80798 4.8e-05"></polygon>
                    <path d="M10.8774,11.184 L12.10404,11.184 L12.10404,7.47732 L10.8774,7.47732 L10.8774,11.184 Z M13.58928,11.18412 L14.81604,11.18412 L14.81604,5.02668 L13.58928,5.02668 L13.58928,11.18412 Z M8.16264,11.184 L9.38928,11.184 L9.38928,3.18396 L8.16264,3.18396 L8.16264,11.184 Z M5.45064,11.18412 L6.6774,11.18412 L6.6774,5.61072 L5.45064,5.61072 L5.45064,11.18412 Z" id="Fill-3"></path>
                </g>
            </g>
        </g>
    </g>
</svg>