<?xml version="1.0" encoding="UTF-8"?>
<svg width="50px" height="50px" viewBox="0 0 50 50" version="1.1" xmlns="http://www.w3.org/2000/svg" xmlns:xlink="http://www.w3.org/1999/xlink">
    <!-- Generator: Sketch 63 (92445) - https://sketch.com -->
    <title>投入品-正常 copy</title>
    <desc>Created with Sketch.</desc>
    <defs>
        <polygon id="path-1" points="2.4e-05 2.4e-05 24 2.4e-05 24 24 2.4e-05 24"></polygon>
    </defs>
    <g id="页面-1" stroke="none" stroke-width="1" fill="none" fill-rule="evenodd">
        <g id="规范" transform="translate(-182.000000, -2391.000000)">
            <g id="投入品-正常-copy" transform="translate(182.000000, 2391.000000)">
                <circle id="椭圆形备份" stroke="#8AB9E8" cx="25" cy="25" r="24.5"></circle>
                <g id="编组" transform="translate(13.000000, 13.000000)">
                    <g>
                        <mask id="mask-2" fill="white">
                            <use xlink:href="#path-1"></use>
                        </mask>
                        <g id="Clip-2"></g>
                        <path d="M5.529024,21.5040312 C4.892904,21.505584 4.282344,21.253224 3.832824,20.803224 L3.196584,20.166864 C2.262624,19.233024 2.262024,17.710584 3.195864,16.773024 L3.823824,16.145184 C4.058064,15.910824 4.437984,15.910704 4.672344,16.144944 C4.906704,16.379184 4.906704,16.759104 4.672464,16.993464 L4.045464,17.620584 C3.578544,18.090264 3.578544,18.848784 4.045464,19.318464 L4.681824,19.954824 C5.148624,20.421864 5.910864,20.421864 6.380664,19.953864 L7.006824,19.327464 C7.241064,19.093104 7.620984,19.093104 7.855344,19.327344 C8.089704,19.561584 8.089824,19.941504 7.855464,20.175984 L7.228464,20.803224 C6.777264,21.252744 6.165984,21.504864 5.529024,21.5040312 M19.751664,8.03102468 C19.420344,8.031144 19.151544,7.762584 19.151544,7.431144 C19.151544,7.271904 19.214784,7.119024 19.327464,7.006464 L19.954824,6.379464 C20.421984,5.909664 20.421984,5.150784 19.954824,4.680864 L19.318464,4.044864 C18.851184,3.577464 18.089064,3.578064 17.619624,4.045464 L16.993464,4.671624 C16.759104,4.905864 16.379184,4.905864 16.144944,4.671504 C15.910704,4.437024 15.910824,4.057224 16.145184,3.822864 L16.772064,3.195864 C17.710224,2.261664 19.233024,2.261664 20.166864,3.195864 L20.803224,3.831864 C21.737064,4.766064 21.737664,6.288984 20.804064,7.226664 L20.175984,7.854624 C20.063784,7.967784 19.911024,8.031264 19.751664,8.03102468 M4.248024,8.03102468 C4.088904,8.031264 3.936264,7.968024 3.823824,7.855464 L3.196824,7.228464 C2.262264,6.289824 2.262624,4.767024 3.196824,3.832824 L3.833064,3.196824 C4.767024,2.262264 6.289824,2.262024 7.227624,3.195864 L7.855464,3.823824 C8.089824,4.058184 8.089824,4.438104 7.855464,4.672464 C7.621104,4.906824 7.241184,4.906824 7.006824,4.672464 L6.379824,4.045464 C5.910024,3.578544 5.151264,3.578544 4.681584,4.045464 L4.045464,4.681584 C3.578424,5.148984 3.578664,5.911224 4.046424,6.381024 L4.672464,7.006824 C4.906704,7.241184 4.906704,7.621104 4.672344,7.855344 C4.559784,7.967904 4.407144,8.03102468 4.248024,8.03102468 M18.470424,21.5042691 C17.834064,21.505344 17.223264,21.253464 16.772664,20.804064 L16.144824,20.175984 C15.906504,19.945704 15.899904,19.565904 16.130064,19.327464 C16.360344,19.089144 16.740144,19.082544 16.978464,19.312704 C16.983504,19.317624 16.988424,19.322424 16.993224,19.327464 L17.620224,19.954824 C18.089064,20.421384 18.851184,20.422464 19.318824,19.954824 L19.954224,19.318824 C20.421504,18.848784 20.421384,18.089304 19.953624,17.619624 L19.327464,16.993464 C19.089144,16.763304 19.082544,16.383384 19.312704,16.145064 C19.542984,15.906744 19.922784,15.900144 20.161224,16.130424 C20.166264,16.135224 20.171184,16.140144 20.175984,16.145064 L20.802864,16.772064 C21.737304,17.710584 21.736704,19.233024 20.802864,20.166864 L20.167464,20.802864 C19.717584,21.253104 19.106784,21.505584 18.470424,21.5042691 M3.285024,14.850024 L2.400024,14.850024 C1.076664,14.850024 2.4e-05,13.773264 2.4e-05,12.450024 L2.4e-05,11.550024 C2.4e-05,10.226664 1.076664,9.150024 2.400024,9.150024 L3.285024,9.150024 C3.616344,9.150024 3.885024,9.418704 3.885024,9.750024 C3.885024,10.081344 3.616344,10.350024 3.285024,10.350024 L2.400024,10.350024 C1.738224,10.350024 1.200024,10.888224 1.200024,11.550024 L1.200024,12.450024 C1.200024,13.111704 1.738224,13.650024 2.400024,13.650024 L3.285024,13.650024 C3.616344,13.650024 3.885024,13.918584 3.885024,14.250024 C3.885024,14.581464 3.616344,14.850024 3.285024,14.850024 M21.600024,14.850024 L20.715024,14.850024 C20.383584,14.850024 20.115024,14.581464 20.115024,14.250024 C20.115024,13.918584 20.383584,13.650024 20.715024,13.650024 L21.600024,13.650024 C22.261704,13.650024 22.800024,13.111704 22.800024,12.450024 L22.800024,11.550024 C22.800024,10.888224 22.261704,10.350024 21.600024,10.350024 L20.715024,10.350024 C20.383584,10.350024 20.115024,10.081344 20.115024,9.750024 C20.115024,9.418704 20.383584,9.150024 20.715024,9.150024 L21.600024,9.150024 C22.923264,9.150024 24.000024,10.226664 24.000024,11.550024 L24.000024,12.450024 C24.000024,13.773264 22.923264,14.850024 21.600024,14.850024 M14.250024,3.885024 C13.918584,3.885024 13.650024,3.616344 13.650024,3.285024 L13.650024,2.400024 C13.650024,1.738224 13.111704,1.200024 12.450024,1.200024 L11.550024,1.200024 C10.888224,1.200024 10.350024,1.738224 10.350024,2.400024 L10.350024,3.285024 C10.350024,3.616344 10.081344,3.885024 9.750024,3.885024 C9.418704,3.885024 9.150024,3.616344 9.150024,3.285024 L9.150024,2.400024 C9.150024,1.076664 10.226664,2.4e-05 11.550024,2.4e-05 L12.450024,2.4e-05 C13.773264,2.4e-05 14.850024,1.076664 14.850024,2.400024 L14.850024,3.285024 C14.850024,3.616344 14.581464,3.885024 14.250024,3.885024 M12.450024,24.000024 L11.550024,24.000024 C10.226664,24.000024 9.150024,22.923264 9.150024,21.600024 L9.150024,20.715024 C9.150024,20.383584 9.418704,20.115024 9.750024,20.115024 C10.081344,20.115024 10.350024,20.383584 10.350024,20.715024 L10.350024,21.600024 C10.350024,22.261704 10.888224,22.800024 11.550024,22.800024 L12.450024,22.800024 C13.111704,22.800024 13.650024,22.261704 13.650024,21.600024 L13.650024,20.715024 C13.650024,20.383584 13.918584,20.115024 14.250024,20.115024 C14.581464,20.115024 14.850024,20.383584 14.850024,20.715024 L14.850024,21.600024 C14.850024,22.923264 13.773264,24.000024 12.450024,24.000024" id="Fill-1" fill="#8AB9E8" mask="url(#mask-2)"></path>
                    </g>
                    <path d="M12,9.3 C10.5114,9.3 9.3,10.5114 9.3,12 C9.3,13.48884 10.5114,14.7 12,14.7 C13.48884,14.7 14.7,13.48884 14.7,12 C14.7,10.5114 13.48884,9.3 12,9.3 M12,15.9 C9.8496,15.9 8.1,14.1504 8.1,12 C8.1,9.8496 9.8496,8.1 12,8.1 C14.1504,8.1 15.9,9.8496 15.9,12 C15.9,14.1504 14.1504,15.9 12,15.9 M16.56864,4.84824039 C16.46124,4.84824039 16.35564,4.81932 16.26324,4.76436 C15.588,4.36452 14.85984,4.06212 14.1,3.86604 C13.78176,3.77316 13.59912,3.4398 13.69212,3.12156 C13.78092,2.81748 14.09088,2.63472 14.4,2.7042 C15.26928,2.92848 16.10256,3.27456 16.875,3.732 C17.16012,3.90084 17.25444,4.26888 17.0856,4.554 C16.97748,4.73664 16.78092,4.84848 16.56864,4.84824039 M19.7514,17.1690004 C19.42032,17.16924 19.15188,16.90116 19.15152,16.57008 C19.15152,16.4622 19.18056,16.35612 19.23576,16.26324 C19.6356,15.58812 19.93788,14.85984 20.13384,14.1 C20.21676,13.779 20.544,13.58604 20.865,13.66884 C21.186,13.75176 21.37896,14.079 21.29616,14.4 C21.07188,15.26928 20.7258,16.10256 20.26824,16.875 C20.16012,17.05752 19.96356,17.16924 19.7514,17.1690004 M9.75024,21.315 C9.6996,21.31488 9.6492,21.30852 9.6,21.29616 C8.7306,21.072 7.89744,20.72592 7.125,20.26824 C6.8418,20.09628 6.7518,19.72716 6.92388,19.44396 C7.0932,19.1652 7.45428,19.0728 7.73676,19.236 C8.41176,19.63584 9.14004,19.93824 9.89976,20.1342 C10.23108,20.13348 10.50024,20.40168 10.5008414,20.733 C10.50156,21.06444 10.23336,21.33348 9.90204,21.3342016 C9.8508,21.33432 9.79992,21.32784 9.75024,21.315 M3.2856,10.3500002 C2.95428,10.35024 2.68536,10.0818 2.68512,9.75048 C2.68512,9.69972 2.69148,9.6492 2.7042,9.6 C2.92848,8.73072 3.27444,7.89744 3.732,7.125 C3.90408,6.8418 4.2732,6.7518 4.5564,6.92388 C4.83504,7.0932 4.92744,7.45428 4.76436,7.73676 C4.3644,8.41176 4.062,9.14004 3.86604,9.89976 C3.79788,10.1646 3.55908,10.34976 3.2856,10.3500002 M4.2486,17.1690001 C4.03644,17.16912 3.84,17.05752 3.73176,16.875 C3.27444,16.10256 2.92848,15.26928 2.7042,14.4 C2.6286,14.0772 2.829,13.75416 3.1518,13.67856 C3.4644,13.60536 3.77916,13.79112 3.8664,14.1 C4.06248,14.85984 4.36488,15.588 4.7646,16.26324 C4.93344,16.54836 4.83912,16.91652 4.554,17.08524 C4.4616,17.14008 4.35612,17.16888 4.2486,17.1690001 M14.24964,21.315 C13.91808,21.3138 13.65036,21.04416 13.6514367,20.7126 C13.6524,20.44032 13.8366,20.20272 14.1,20.13384 C14.85984,19.93788 15.58812,19.6356 16.26324,19.23576 C16.55028,19.06992 16.91724,19.1682 17.08284,19.45524 C17.24604,19.7376 17.15364,20.09856 16.875,20.268 C16.10256,20.72532 15.26928,21.0714 14.4,21.2958 C14.35092,21.3084 14.3004,21.31488 14.24964,21.315 M20.71464,10.35 C20.44128,10.34976 20.20248,10.16472 20.13384,9.9 C19.938,9.14016 19.6356,8.412 19.23576,7.737 C19.06992,7.45008 19.1682,7.08312 19.45524,6.9174 C19.7376,6.7542 20.09856,6.8466 20.268,7.12524 C20.72556,7.89768 21.07164,8.73096 21.2958,9.60024 C21.37824,9.92136 21.18492,10.2486 20.8638,10.33116 C20.81508,10.34364 20.76504,10.35 20.71464,10.35 M7.4316,4.848241 C7.10016,4.84884 6.83124,4.58064 6.83063913,4.2492 C6.83028,4.03692 6.94224,3.84012 7.125,3.732 C7.89744,3.27444 8.7306,2.92836 9.6,2.7042 C9.9228,2.6286 10.24572,2.829 10.32144,3.1518 C10.39464,3.4644 10.209,3.77916 9.9,3.8664 C9.14016,4.06236 8.412,4.36464 7.737,4.7646 C7.641,4.821 7.53564,4.848241 7.4316,4.848241" id="Fill-3" fill="#8AB9E8"></path>
                </g>
            </g>
        </g>
    </g>
</svg>