<?xml version="1.0" encoding="UTF-8"?>
<svg width="12px" height="12px" viewBox="0 0 12 12" version="1.1" xmlns="http://www.w3.org/2000/svg" xmlns:xlink="http://www.w3.org/1999/xlink">
    <!-- Generator: Sketch 63 (92445) - https://sketch.com -->
    <title>删除备份 4</title>
    <desc>Created with Sketch.</desc>
    <g id="页面-1" stroke="none" stroke-width="1" fill="none" fill-rule="evenodd">
        <g id="物联网数据-数据下载下拉" transform="translate(-459.000000, -253.000000)">
            <g id="编组-2" transform="translate(317.000000, 249.000000)">
                <g id="删除备份-4" transform="translate(142.000000, 4.000000)">
                    <circle id="椭圆形" fill="#AA4C50" cx="6" cy="6" r="5.25"></circle>
                    <path d="M5.80698052,2.25 C6.0140873,2.25 6.18198052,2.41789322 6.18198052,2.625 L6.181,5.625 L9.18198052,5.625 C9.3890873,5.625 9.55698052,5.79289322 9.55698052,6 C9.55698052,6.20710678 9.3890873,6.375 9.18198052,6.375 L6.181,6.375 L6.18198052,9.375 C6.18198052,9.58210678 6.0140873,9.75 5.80698052,9.75 C5.59987373,9.75 5.43198052,9.58210678 5.43198052,9.375 L5.431,6.375 L2.43198052,6.375 C2.22487373,6.375 2.05698052,6.20710678 2.05698052,6 C2.05698052,5.79289322 2.22487373,5.625 2.43198052,5.625 L5.431,5.625 L5.43198052,2.625 C5.43198052,2.41789322 5.59987373,2.25 5.80698052,2.25 Z" id="合并形状" fill="#1A2233" transform="translate(6.000000, 6.000000) rotate(-315.000000) translate(-6.000000, -6.000000) "></path>
                </g>
            </g>
        </g>
    </g>
</svg>