<?xml version="1.0" encoding="UTF-8"?>
<svg width="11px" height="11px" viewBox="0 0 11 11" version="1.1" xmlns="http://www.w3.org/2000/svg" xmlns:xlink="http://www.w3.org/1999/xlink">
    <!-- Generator: Sketch 63 (92445) - https://sketch.com -->
    <title>Combined Shape Copy备份 5</title>
    <desc>Created with Sketch.</desc>
    <g id="页面-1" stroke="none" stroke-width="1" fill="none" fill-rule="evenodd">
        <g id="规范" transform="translate(-325.000000, -81.000000)" fill="#A42027" fill-rule="nonzero">
            <g id="分组-2备份-2" transform="translate(299.000000, 75.000000)">
                <g id="Combined-Shape-Copy-4" transform="translate(20.899495, 0.899495)">
                    <path d="M10.413569,3.3802357 C10.6897114,3.3802357 10.913569,3.60409332 10.913569,3.8802357 L10.9132357,9.9132357 L16.913569,9.91356903 C17.1713019,9.91356903 17.3802357,10.1225028 17.3802357,10.3802357 C17.3802357,10.6379686 17.1713019,10.8469024 16.913569,10.8469024 L10.9132357,10.8462357 L10.913569,16.8802357 C10.913569,17.1563781 10.6897114,17.3802357 10.413569,17.3802357 C10.1374267,17.3802357 9.91356903,17.1563781 9.91356903,16.8802357 L9.9132357,10.8462357 L3.84690236,10.8469024 C3.58916948,10.8469024 3.3802357,10.6379686 3.3802357,10.3802357 C3.3802357,10.1225028 3.58916948,9.91356903 3.84690236,9.91356903 L9.9132357,9.9132357 L9.91356903,3.8802357 C9.91356903,3.60409332 10.1374267,3.3802357 10.413569,3.3802357 Z" id="Combined-Shape-Copy" transform="translate(10.380236, 10.380236) rotate(45.000000) translate(-10.380236, -10.380236) "></path>
                </g>
            </g>
        </g>
    </g>
</svg>