<?xml version="1.0" encoding="UTF-8"?>
<svg width="13px" height="13px" viewBox="0 0 13 13" version="1.1" xmlns="http://www.w3.org/2000/svg" xmlns:xlink="http://www.w3.org/1999/xlink">
    <!-- Generator: Sketch 63 (92445) - https://sketch.com -->
    <title>重置 copy</title>
    <desc>Created with Sketch.</desc>
    <defs>
        <polygon id="path-1" points="0 2.04141847e-05 12.9943543 2.04141847e-05 12.9943543 12.9950229 0 12.9950229"></polygon>
    </defs>
    <g id="页面-1" stroke="none" stroke-width="1" fill="none" fill-rule="evenodd">
        <g id="规范" transform="translate(-168.000000, -143.000000)">
            <g id="重置" transform="translate(156.000000, 137.000000)">
                <g id="重置-copy" transform="translate(12.000000, 6.000000)">
                    <mask id="mask-2" fill="white">
                        <use xlink:href="#path-1"></use>
                    </mask>
                    <g id="Clip-2"></g>
                    <path d="M12.9943543,6.53840571 C12.9914571,6.36866286 12.9145714,6.20181714 12.7709029,6.09009143 C12.5169943,5.89130286 12.1499486,5.93483429 11.9496743,6.18874286 C11.8669943,6.29467429 11.82636,6.41798857 11.8249486,6.54278857 L11.8191543,6.54278857 C11.8103886,7.67884 11.4404457,8.82068571 10.6874114,9.78261143 C8.87528571,12.0924514 5.52225143,12.4972343 3.21241143,10.68652 C0.902645714,8.87580571 0.496377143,5.52277143 2.30850286,3.21293143 C4.12070286,0.903165714 7.47373714,0.498308571 9.78350286,2.30902286 C10.2130229,2.64568571 10.5756857,3.03598286 10.8717143,3.46253143 L9.80526857,3.46253143 C9.48026857,3.46253143 9.21477143,3.72802857 9.21477143,4.05302857 L9.21477143,4.09656 C9.21477143,4.42156 9.48026857,4.68705714 9.80526857,4.68705714 L12.3777086,4.68705714 C12.7027086,4.68705714 12.9682057,4.42156 12.9682057,4.09656 L12.9682057,1.52263429 C12.9682057,1.19763429 12.7027086,0.932137143 12.3777086,0.932137143 L12.3341771,0.932137143 C12.0091771,0.932137143 11.74368,1.19763429 11.74368,1.52263429 L11.74368,2.66158286 C11.3940171,2.18429714 10.9805429,1.75626286 10.5074914,1.38483429 C9.81693143,0.843662857 9.04213143,0.453365714 8.20203429,0.225605714 C7.39098286,0.00646285714 6.55526857,-0.0529657143 5.71814286,0.0470971429 C4.88094286,0.148645714 4.08296571,0.405451429 3.3488,0.813205714 C2.58707429,1.23396 1.92697143,1.79830857 1.38572571,2.48753143 C0.844554286,3.17816571 0.454257143,3.95289143 0.226497143,4.79298857 C0.00594285714,5.60404 -0.05356,6.43975429 0.0480628571,7.27688 C0.149611429,8.11408 0.406417143,8.91205714 0.814097143,9.64622286 C1.23485143,10.4079486 1.79927429,11.0681257 2.48842286,11.6092971 C3.17905714,12.1504686 3.95385714,12.5407657 4.79388,12.7685257 C5.60493143,12.98908 6.44064571,13.0485829 7.27784571,12.9470343 C8.11497143,12.8454114 8.91302286,12.5886057 9.64711429,12.1809257 C10.40884,11.7601714 11.0690171,11.1957486 11.6101886,10.5066 C12.15136,9.81596571 12.5416571,9.04116571 12.7694914,8.20114286 C12.9174686,7.65707429 12.9928686,7.09993143 12.9943543,6.53840571" id="Fill-1" fill="#4093CA" mask="url(#mask-2)"></path>
                </g>
            </g>
        </g>
    </g>
</svg>