<?xml version="1.0" encoding="UTF-8"?>
<svg width="12px" height="12px" viewBox="0 0 12 12" version="1.1" xmlns="http://www.w3.org/2000/svg" xmlns:xlink="http://www.w3.org/1999/xlink">
    <!-- Generator: Sketch 53.2 (72643) - https://sketchapp.com -->
    <title>搜索备份 copy 3</title>
    <desc>Created with Sketch.</desc>
    <g id="页面-1" stroke="none" stroke-width="1" fill="none" fill-rule="evenodd">
        <g id="传感器设备列表" transform="translate(-466.000000, -244.000000)" fill="#A3D0FD">
            <g id="搜素/筛选-copy-2" transform="translate(298.000000, 220.000000)">
                <g id="编组-2" transform="translate(20.000000, 17.000000)">
                    <path d="M152.5,8 C154.433,8 156,9.567 156,11.5 C156,13.433 154.433,15 152.5,15 C150.567,15 149,13.433 149,11.5 C149,9.567 150.567,8 152.5,8 Z M159.737417,17.4696424 L156.25187,13.9840949 C156.724202,13.2720966 156.999979,12.4184319 156.999979,11.4999896 C156.999979,9.014662 154.985317,7 152.49999,7 C150.014662,7 148,9.014662 148,11.4999896 C148,13.9853172 150.014662,15.9999792 152.49999,15.9999792 C153.418432,15.9999792 154.272097,15.724202 154.984095,15.2518698 L158.469642,18.7374173 C158.819753,19.0875276 159.387307,19.0875276 159.737417,18.7374173 C160.087528,18.387307 160.087528,17.8197527 159.737417,17.4696424" id="搜索备份-copy-3"></path>
                </g>
            </g>
        </g>
    </g>
</svg>