<?xml version="1.0" encoding="UTF-8"?>
<svg width="28px" height="52px" viewBox="0 0 28 52" version="1.1" xmlns="http://www.w3.org/2000/svg" xmlns:xlink="http://www.w3.org/1999/xlink">
    <!-- Generator: Sketch 63.1 (92452) - https://sketch.com -->
    <title>icon_corn备份</title>
    <desc>Created with Sketch.</desc>
    <g id="页面-1" stroke="none" stroke-width="1" fill="none" fill-rule="evenodd">
        <g id="02-农场-可视农场-作物信息" transform="translate(-236.000000, -466.000000)" fill-rule="nonzero">
            <g id="icon_corn备份" transform="translate(248.981151, 492.128436) rotate(-20.000000) translate(-248.981151, -492.128436) translate(232.481151, 469.628436)">
                <polygon id="路径" fill="#AAC348" transform="translate(3.326233, 41.941390) rotate(35.597631) translate(-3.326233, -41.941390) " points="1.41430275 39.5486835 5.21274381 39.5690199 5.23816277 44.3340974 1.4397217 44.313761"></polygon>
                <path d="M5.61030991,36.4804501 C11.0546345,40.0168824 21.4294697,33.3824573 27.9072654,24.9645761 C28.9294397,23.647304 30.9379499,22.9165715 31.6103099,23.8704313 C30.4416655,19.3641179 27.4624015,18.9905456 25.297293,19.7802836 C23.4348634,20.4594349 12.3128749,24.9008813 5.61030991,36.4804501 Z" id="路径" fill="#AAC348"></path>
                <path d="M7.94001468,35.4443378 C3.29452113,31.5196625 5.96590215,19.8566516 11.317909,11.2362809 C12.1527822,9.87977202 12.1926058,7.79482394 11.173904,7.47242497 C15.3987608,7.14280243 16.5952465,9.77826196 16.5500894,12.0270708 C16.5113325,13.9599439 15.9491798,25.6275171 7.94001468,35.4443378 L7.94001468,35.4443378 Z" id="路径" fill="#AAC348"></path>
                <path d="M30.5197166,13.9287634 C30.3601392,14.3466781 30.1931396,14.7684985 30.0187179,15.1942247 C29.7069853,15.9597507 29.3766973,16.7291823 29.0241427,17.514237 L29.0241427,17.5181428 C28.8682764,17.8735655 28.7049879,18.2250825 28.5379883,18.584411 C26.5753036,22.7968802 24.2903947,26.8344041 21.7058504,30.6570677 C14.086959,41.8470261 7.86344169,44.3545142 4.18202896,41.5775297 C0.500616238,38.8005453 0.756682245,31.7975452 8.3755737,20.603681 C10.9830852,16.8006554 13.8798502,13.2268615 17.0372847,9.9175637 C17.304484,9.63635008 17.5716833,9.35904221 17.8388826,9.08564009 C18.4326589,8.48415542 19.0264351,7.90219947 19.6127892,7.34758373 C19.9393661,7.03512416 20.265943,6.73438182 20.5888089,6.44145097 C25.4095298,2.06701698 29.7997629,-0.440471077 31.7740689,1.04761763 C33.7483749,2.53570634 32.9022438,7.71472372 30.5197166,13.9287634 L30.5197166,13.9287634 Z" id="路径" fill="#F3D232"></path>
                <g id="编组" transform="translate(9.322136, 3.401487)" fill="#D1B52B">
                    <path d="M17.0824599,4.31269907 C16.9434663,4.3127526 16.8079542,4.26766043 16.6949921,4.18376571 L15.3780581,3.20672571 C15.0888399,2.98124017 15.0262412,2.55783565 15.2370559,2.25301687 C15.4478706,1.94819809 15.8550134,1.87342338 16.1541357,2.08458857 L17.4710696,3.06202286 C17.7067327,3.23647683 17.8064549,3.54876529 17.7177065,3.83438695 C17.6289581,4.12000862 17.3721101,4.31340284 17.0824599,4.31269907 L17.0824599,4.31269907 Z" id="路径"></path>
                    <path d="M20.3439648,6.73479559 C20.2050811,6.73490009 20.0696757,6.68979912 19.9568775,6.60586286 L18.6403242,5.62842857 C18.3413022,5.4064243 18.2726278,4.97534359 18.4869357,4.66558286 C18.7012436,4.35582212 19.1173797,4.28468145 19.4164018,4.50668571 L20.7329551,5.48372571 C20.9684966,5.65838504 21.0680665,5.97071709 20.9792597,6.25633719 C20.8904528,6.54195729 20.6336317,6.73537596 20.3439648,6.73479559 L20.3439648,6.73479559 Z" id="路径"></path>
                    <path d="M14.929311,7.42597779 C14.7903094,7.42608572 14.654782,7.38098845 14.5418432,7.29704571 L13.2264317,6.31961143 C12.9274097,6.09760716 12.8587353,5.66652645 13.0730432,5.35676571 C13.2873511,5.04700498 13.7034872,4.9758643 14.0025093,5.19786857 L15.3198238,6.17490857 C15.5553077,6.34952576 15.6548923,6.66175504 15.5661858,6.94733184 C15.4774793,7.23290863 15.2208108,7.42638685 14.9312141,7.42597779 L14.929311,7.42597779 Z" id="路径"></path>
                    <path d="M18.1919577,9.84807429 C18.0529182,9.84804137 17.9173947,9.80280747 17.8044899,9.71874857 L16.4879366,8.74170857 C16.1987184,8.51622303 16.1361196,8.09281851 16.3469343,7.78799973 C16.557749,7.48318095 16.9648918,7.40840624 17.2640141,7.61957143 L18.5805674,8.59542857 C18.8160513,8.77004576 18.9156359,9.08227504 18.8269294,9.36785184 C18.7382229,9.65342863 18.4815544,9.84690685 18.1919577,9.84649714 L18.1919577,9.84807429 Z" id="路径"></path>
                    <path d="M20.8665515,2.41066417 C20.7276678,2.41076866 20.5922624,2.36566769 20.4794643,2.28173143 L19.1640529,1.30469143 C18.9642094,1.16361203 18.8538223,0.92145753 18.8756178,0.671955894 C18.8974134,0.422454259 19.0479711,0.204761626 19.2690162,0.103137781 C19.4900614,0.00151393632 19.7469038,0.031907462 19.9401304,0.182554286 L21.2566837,1.15959429 C21.4922253,1.33425362 21.5917951,1.64658566 21.5029883,1.93220576 C21.4141815,2.21782586 21.1573603,2.41124453 20.8676934,2.41066417 L20.8665515,2.41066417 Z" id="路径"></path>
                    <g transform="translate(10.847577, 9.857143)" id="路径">
                        <path d="M10.5354714,0.820114286 C10.3718062,1.242 10.2005286,1.66782857 10.0216388,2.0976 C9.95938815,2.07620868 9.90042522,2.04566845 9.84655507,2.00691429 L8.90262555,1.30508571 C8.60412905,1.08297256 8.5359659,0.652244925 8.75037889,0.343028598 C8.96479188,0.0338122712 9.38058717,-0.03679883 9.6790837,0.185314286 L10.5354714,0.820114286 Z"></path>
                        <path d="M9.0015859,4.43965714 L9.0015859,4.4436 C8.84172687,4.8024 8.67425551,5.15725714 8.50297797,5.52 C8.48668446,5.52327052 8.47008248,5.52459346 8.4534978,5.52394286 C8.31458244,5.52465284 8.1788977,5.48055636 8.06526872,5.39777143 L6.7483348,4.41994286 C6.44878725,4.1978297 6.37977206,3.76621943 6.59418505,3.45591431 C6.80859804,3.14560918 7.22524538,3.07411545 7.52479295,3.29622857 L8.84172687,4.27405714 C8.9041058,4.31895752 8.95824212,4.37503802 9.0015859,4.43965714 L9.0015859,4.43965714 Z"></path>
                        <path d="M6.29920705,8.63842224 C6.16020542,8.63851429 6.02467802,8.59341702 5.91173921,8.50947429 L4.59670837,7.53085714 C4.30749017,7.3053716 4.2448914,6.88196708 4.45570611,6.5771483 C4.66652081,6.27232952 5.07366365,6.19755481 5.3727859,6.40872 L6.68933921,7.38576 C6.92644365,7.56010561 7.02697853,7.87362767 6.93770035,8.16028421 C6.84842217,8.44694074 6.58996448,8.64048103 6.29920705,8.63842224 Z"></path>
                        <path d="M4.1472,11.7516857 C4.00834439,11.7516059 3.87299253,11.7065227 3.76011278,11.6227543 L2.44355947,10.6457143 C2.15434127,10.4202287 2.09174251,9.99682422 2.30255721,9.69200544 C2.51337191,9.38718666 2.92051475,9.31241195 3.219637,9.52357714 L4.53619031,10.5010114 C4.77173189,10.6756708 4.87130175,10.9880028 4.78249491,11.2736229 C4.69368806,11.559243 4.43686693,11.7526617 4.1472,11.7520813 L4.1472,11.7516857 Z"></path>
                        <path d="M1.99443172,14.8645716 C1.85554801,14.8646772 1.72014262,14.8195763 1.60734449,14.73564 L0.290791189,13.7605714 C0.0909477036,13.619492 -0.0194393912,13.3773375 0.00235616934,13.1278359 C0.0241517298,12.8783343 0.174709407,12.6606416 0.395754571,12.5590178 C0.616799734,12.4573939 0.87364213,12.4877875 1.06686872,12.6384343 L2.38342203,13.6154743 C2.61725436,13.7906645 2.71558749,14.1019119 2.62698776,14.3864169 C2.53838802,14.6709219 2.28301049,14.8639639 1.99443172,14.8645716 L1.99443172,14.8645716 Z"></path>
                    </g>
                    <g transform="translate(1.046696, 3.055714)" id="路径">
                        <path d="M11.163489,1.65994286 C10.9471272,1.96808945 10.5323986,2.0399855 10.230978,1.8216 L9.29085463,1.11977143 C9.23672172,1.08076955 9.18914489,1.03281615 9.15002643,0.977828571 C9.48496916,0.6624 9.81991189,0.3588 10.1510485,0.0630857143 L11.0074361,0.697885714 C11.1514121,0.803923405 11.2487682,0.964923432 11.2780416,1.14539257 C11.3073151,1.3258617 11.2661023,1.51098202 11.163489,1.65994286 L11.163489,1.65994286 Z"></path>
                        <path d="M9.00919824,4.7748 C8.88270971,4.95546852 8.68036116,5.062475 8.4649163,5.06262857 C8.32680946,5.06186599 8.19239212,5.01637022 8.08049339,4.93251429 L6.76355947,3.95468571 C6.63554878,3.86454141 6.54461354,3.7281609 6.50854626,3.57222857 C6.78259031,3.28834286 7.05663436,3.0084 7.33067841,2.7324 C7.40575303,2.7535015 7.47662709,2.78820883 7.54001762,2.83491429 L8.85695154,3.81274286 C9.15436538,4.03555043 9.22237118,4.46528368 9.00919824,4.7748 L9.00919824,4.7748 Z"></path>
                        <path d="M6.31328987,8.17472764 C6.17428824,8.17483429 6.03876084,8.12973702 5.92582203,8.04579429 L4.60926872,7.06875429 C4.32005052,6.84326874 4.25745176,6.41986422 4.46826646,6.11504544 C4.67908116,5.81022666 5.086224,5.73545195 5.38534626,5.94661714 L6.70189956,6.92405143 C6.93756266,7.0985054 7.03728488,7.41079386 6.94853648,7.69641552 C6.85978808,7.98203719 6.60294006,8.17543141 6.31328987,8.17472764 L6.31328987,8.17472764 Z"></path>
                        <path d="M4.16014097,11.2880064 C4.02116736,11.287929 3.88569335,11.2428495 3.77267313,11.1590743 L2.45611982,10.18164 C2.26268648,10.0380284 2.15790646,9.79842436 2.1812494,9.55308434 C2.20459234,9.30774433 2.35251188,9.09394135 2.56928817,8.99221291 C2.78606445,8.89048448 3.03876401,8.91628556 3.23219736,9.05989714 L4.54875066,10.0369371 C4.7842346,10.2115543 4.88381916,10.5237836 4.79511267,10.8093604 C4.70640617,11.0949372 4.44973763,11.2884154 4.16014097,11.2880064 L4.16014097,11.2880064 Z"></path>
                        <path d="M2.00661145,14.4008916 C1.86772775,14.4009972 1.73232236,14.3558963 1.61952423,14.27196 L0.304493392,13.29492 C0.0152751915,13.0694345 -0.047323574,12.6460299 0.163491127,12.3412112 C0.374305829,12.0363924 0.781448674,11.9616177 1.08057093,12.1727829 L2.39560176,13.1494286 C2.63079959,13.3241955 2.73012033,13.6363095 2.64135525,13.9217053 C2.55259018,14.2071011 2.29605984,14.4004445 2.00661145,14.4001029 L2.00661145,14.4008916 Z"></path>
                    </g>
                    <path d="M12.7757815,10.5388629 C12.6369318,10.5387363 12.5016406,10.4933532 12.3890749,10.4091429 L11.0725216,9.43249714 C10.77706,9.20940301 10.7104246,8.78129349 10.923223,8.47330438 C11.1360214,8.16531528 11.548698,8.0925895 11.8478379,8.31036 L13.1643912,9.2874 C13.3995317,9.46212469 13.4988674,9.77413614 13.4102025,10.0594888 C13.3215377,10.3448415 13.0651597,10.5382443 12.7757815,10.5380743 L12.7757815,10.5388629 Z" id="路径"></path>
                    <path d="M16.0388088,12.96096 C15.8998072,12.9610686 15.7642798,12.9159713 15.651341,12.8320286 L14.3347877,11.8545943 C14.0357656,11.63259 13.9670913,11.2015093 14.1813991,10.8917486 C14.395707,10.5819879 14.8118432,10.5108472 15.1108652,10.7328514 L16.4274185,11.7102857 C16.6629024,11.8849029 16.762487,12.1971322 16.6737805,12.482709 C16.585074,12.7682858 16.3284055,12.961764 16.0388088,12.9613549 L16.0388088,12.96096 Z" id="路径"></path>
                    <g transform="translate(8.563877, 11.237143)" id="路径">
                        <path d="M2.05875595,2.41500065 C1.91999014,2.41510311 1.78470673,2.36999842 1.67204934,2.28606857 L0.355496035,1.30902857 C0.15579776,1.16806085 0.0454675553,0.926106086 0.0671965557,0.67678618 C0.0889255561,0.427466273 0.239304923,0.20989445 0.460146912,0.108257883 C0.6809889,0.00662131609 0.937647892,0.0368647173 1.13081233,0.187285714 L2.44736564,1.16393143 C2.68284958,1.33854862 2.78243414,1.6507779 2.69372764,1.93635469 C2.60502115,2.22193149 2.3483526,2.41540971 2.05875595,2.41500065 L2.05875595,2.41500065 Z"></path>
                        <path d="M5.32140264,4.83709714 C5.18248108,4.83706144 5.04707954,4.79182383 4.93431542,4.70777143 L3.61776211,3.73073143 C3.32854391,3.50524589 3.26594515,3.08184136 3.47675985,2.77702258 C3.68757455,2.4722038 4.0947174,2.39742909 4.39383965,2.60859429 L5.71039295,3.588 C5.94593453,3.76265933 6.04550439,4.07499137 5.95669755,4.36061148 C5.8678907,4.64623158 5.61106957,4.83965025 5.32140264,4.83906988 L5.32140264,4.83709714 Z"></path>
                    </g>
                    <g transform="translate(6.470485, 14.391429)" id="路径">
                        <path d="M1.99823789,2.3739945 C1.85931632,2.37395859 1.72391478,2.32872098 1.61115066,2.24466857 L0.294597357,1.26802286 C-0.000864251235,1.04492872 -0.0674995914,0.616819202 0.145298795,0.308830097 C0.358097182,0.000840991281 0.770773802,-0.0718847887 1.06991366,0.145885714 L2.38646696,1.12292571 C2.62189347,1.29750071 2.72149284,1.60962736 2.63288664,1.89516094 C2.54428043,2.18069453 2.2877643,2.37423225 1.99823789,2.3739945 L1.99823789,2.3739945 Z"></path>
                        <path d="M5.26164581,4.79569845 C5.12276211,4.79580295 4.98735672,4.75070198 4.87455859,4.66676571 L3.55876652,3.68933143 C3.36533317,3.54571985 3.26055316,3.30611579 3.2838961,3.06077577 C3.30723903,2.81543576 3.45515858,2.60163278 3.67193486,2.49990434 C3.88871115,2.39817591 4.1414107,2.42397699 4.33484405,2.56758857 L5.65215859,3.54462857 C5.88770017,3.7192879 5.98727003,4.03161994 5.89846319,4.31724005 C5.80965634,4.60286015 5.55283521,4.79627882 5.26316828,4.79569845 L5.26164581,4.79569845 Z"></path>
                    </g>
                    <g transform="translate(4.281938, 17.447143)" id="路径">
                        <path d="M2.03439648,2.43156065 C1.89539485,2.43166857 1.75986745,2.38657131 1.64692863,2.30262857 L0.33037533,1.32519429 C0.0313533014,1.10319001 -0.037321078,0.672109316 0.176986808,0.362348589 C0.391294695,0.0525878626 0.807430815,-0.0185528184 1.10645286,0.203451429 L2.42300617,1.18049143 C2.65849011,1.35510862 2.75807467,1.6673379 2.66936817,1.95291469 C2.58066168,2.23849149 2.32399313,2.43196971 2.03439648,2.43156065 Z"></path>
                        <path d="M5.29742379,4.85326351 C5.15838433,4.85322994 5.02286077,4.80799604 4.90995595,4.72393714 L3.59340264,3.74689714 C3.30418444,3.5214116 3.24158568,3.09800708 3.45240038,2.7931883 C3.66321508,2.48836952 4.07035793,2.41359481 4.36948018,2.62476 L5.68603348,3.60219429 C5.92151742,3.77681148 6.02110198,4.08904075 5.93239549,4.37461755 C5.84368899,4.66019435 5.58702045,4.85367257 5.29742379,4.85326351 Z"></path>
                    </g>
                    <g transform="translate(2.188546, 20.601429)" id="路径">
                        <path d="M1.97463965,2.39055559 C1.83571808,2.39051859 1.70031654,2.34528098 1.58755242,2.26122857 L0.270999119,1.28418857 C-0.0182190817,1.05870303 -0.0808178472,0.635298507 0.129996854,0.330479727 C0.340811556,0.025660947 0.747954401,-0.0491137638 1.04707665,0.162051429 L2.36362996,1.13948571 C2.59917154,1.31414504 2.6987414,1.62647709 2.60993455,1.91209719 C2.52112771,2.19771729 2.26430657,2.39113596 1.97463965,2.39055559 L1.97463965,2.39055559 Z"></path>
                        <path d="M5.23766696,4.81186305 C5.09866533,4.81197143 4.96313794,4.76687416 4.85019912,4.68293143 L3.53364581,3.70549714 C3.34000848,3.56188557 3.23503998,3.32216877 3.25828093,3.07664576 C3.28152188,2.83112275 3.42944143,2.61709431 3.64631971,2.51518289 C3.86319799,2.41327147 4.11608603,2.43895983 4.30972335,2.58257143 L5.62627665,3.55961143 C5.86176059,3.73422862 5.96134515,4.0464579 5.87263866,4.33203469 C5.78393216,4.61761149 5.52726362,4.81108971 5.23766696,4.81068 L5.23766696,4.81186305 Z"></path>
                    </g>
                    <g transform="translate(0.000000, 23.657143)" id="路径">
                        <path d="M2.010037,2.4477259 C1.8711533,2.44783152 1.73574791,2.40273055 1.62294978,2.31879429 L0.306396476,1.34057143 C0.112963127,1.19695985 0.00818311382,0.957355785 0.0315260519,0.712015771 C0.0548689899,0.466675757 0.202788532,0.252872776 0.419564818,0.151144343 C0.636341105,0.0494159089 0.889040661,0.0752169911 1.08247401,0.218828571 L2.39902731,1.19586857 C2.63456889,1.3705279 2.73413875,1.68285994 2.64533191,1.96848005 C2.55652507,2.25410015 2.29970393,2.44751882 2.010037,2.44693714 L2.010037,2.4477259 Z"></path>
                        <path d="M5.27154185,4.86943005 C5.13250239,4.86939565 4.99697883,4.82416176 4.88407401,4.74010286 L3.5675207,3.76306286 C3.27376756,3.53879729 3.20873838,3.11151263 3.4216356,2.80450133 C3.63453282,2.49749002 4.04618194,2.4249267 4.3451207,2.64171429 L5.66167401,3.61914857 C5.89670121,3.79414934 5.995729,4.10635357 5.90670469,4.39165513 C5.81768038,4.6769567 5.56098285,4.87004618 5.27154185,4.86943005 Z"></path>
                    </g>
                </g>
                <path d="M4.22860489,41.3682995 C-0.992996018,37.5727997 1.73777473,25.129821 7.4882479,15.6848959 C8.3284257,14.2473014 7.5175654,12.7228409 6.39771408,12.4434608 C10.9616,11.8862658 12.3838845,14.534116 12.4425195,16.8474144 C12.4926679,18.8371172 12.440205,30.861417 4.22860489,41.3682995 Z" id="路径" fill="#C7E554"></path>
                <path d="M4.70846741,42.4690901 C4.40184389,42.4690901 4.14461319,42.2074698 4.11182959,41.8627334 C3.58041684,36.2775209 5.48498915,29.339482 6.74657949,24.7484125 C7.3133511,22.6852067 7.80253919,20.9053764 7.82039027,20.1290054 C7.82967399,19.7617271 8.09552765,19.4693601 8.420461,19.4690901 L8.43659562,19.4690901 C8.76783929,19.4794545 9.02903051,19.7913093 9.02018843,20.1658831 C8.99821788,21.1278066 8.53443324,22.8152489 7.89316772,25.151349 C6.6614436,29.6356675 4.8004691,36.4122213 5.30544853,41.717552 C5.32256961,41.8967114 5.27600115,42.0762179 5.17600214,42.2165265 C5.07600314,42.356835 4.93077786,42.4464342 4.77231933,42.4655854 C4.75110667,42.4680514 4.72979153,42.4690901 4.70846741,42.4690901 L4.70846741,42.4690901 Z" id="路径" fill="#AAC348"></path>
                <path d="M3.55818905,41.0674293 C8.7199089,44.6142607 19.330831,38.4228492 26.2204955,30.4214493 C27.2800626,29.2350272 28.9443341,29.5049346 29.5581891,30.425838 C28.6194866,26.161448 25.7248362,25.6805155 23.5717684,26.3234656 C21.721434,26.8764465 10.6423045,30.5377508 3.55818905,41.0674293 L3.55818905,41.0674293 Z" id="路径" fill="#C7E554"></path>
                <path d="M3.54678847,41.9136265 C3.20887968,41.9136265 2.92509572,41.638 2.88808911,41.2739094 C2.8510825,40.9098189 3.07270525,40.57385 3.40250422,40.494082 C8.48237006,39.2625513 14.0818107,34.8495661 17.7877572,31.9300172 C19.7191212,30.4111292 21.1123541,29.3109618 21.991314,28.9583334 C22.3347376,28.8208286 22.7159691,29.0111449 22.8428183,29.3834168 C22.9696675,29.7556887 22.7940993,30.1689443 22.4506757,30.3064491 C21.7421302,30.5897012 20.2701279,31.7493926 18.5659833,33.0925822 C14.7714212,36.0815073 9.03981471,40.5983516 3.69258751,41.896385 C3.64469418,41.9077525 3.59581632,41.9136265 3.54678847,41.9136265 Z" id="路径" fill="#AAC348"></path>
            </g>
        </g>
    </g>
</svg>