<?xml version="1.0" encoding="UTF-8"?>
<svg width="30px" height="30px" viewBox="0 0 30 30" version="1.1" xmlns="http://www.w3.org/2000/svg" xmlns:xlink="http://www.w3.org/1999/xlink">
    <!-- Generator: Sketch 63.1 (92452) - https://sketch.com -->
    <title>icon_info hover</title>
    <desc>Created with Sketch.</desc>
    <g id="页面-1" stroke="none" stroke-width="1" fill="none" fill-rule="evenodd">
        <g id="02-农场-可视农场-作物信息" transform="translate(-747.000000, -286.000000)" fill="#66A3EB">
            <path d="M762,286 C770.284271,286 777,292.715729 777,301 C777,309.284271 770.284271,316 762,316 C753.715729,316 747,309.284271 747,301 C747,292.715729 753.715729,286 762,286 Z M762,298 C760.895431,298 760,298.895431 760,300 L760,300 L760,308 C760,309.104569 760.895431,310 762,310 C763.104569,310 764,309.104569 764,308 L764,308 L764,300 C764,298.895431 763.104569,298 762,298 Z M762,291 C760.895431,291 760,291.895431 760,293 C760,294.104569 760.895431,295 762,295 C763.104569,295 764,294.104569 764,293 C764,291.895431 763.104569,291 762,291 Z" id="icon_info-hover"></path>
        </g>
    </g>
</svg>