<?xml version="1.0" encoding="UTF-8"?>
<svg width="30px" height="30px" viewBox="0 0 30 30" version="1.1" xmlns="http://www.w3.org/2000/svg" xmlns:xlink="http://www.w3.org/1999/xlink">
    <!-- Generator: Sketch 63.1 (92452) - https://sketch.com -->
    <title>icon_info</title>
    <desc>Created with Sketch.</desc>
    <g id="页面-1" stroke="none" stroke-width="1" fill="none" fill-rule="evenodd">
        <g id="02-农场-可视农场-作物信息" transform="translate(-747.000000, -386.000000)" fill="#637497">
            <path d="M762,386 C770.284271,386 777,392.715729 777,401 C777,409.284271 770.284271,416 762,416 C753.715729,416 747,409.284271 747,401 C747,392.715729 753.715729,386 762,386 Z M762,398 C760.895431,398 760,398.895431 760,400 L760,400 L760,408 C760,409.104569 760.895431,410 762,410 C763.104569,410 764,409.104569 764,408 L764,408 L764,400 C764,398.895431 763.104569,398 762,398 Z M762,391 C760.895431,391 760,391.895431 760,393 C760,394.104569 760.895431,395 762,395 C763.104569,395 764,394.104569 764,393 C764,391.895431 763.104569,391 762,391 Z" id="icon_info"></path>
        </g>
    </g>
</svg>