<?xml version="1.0" encoding="UTF-8"?>
<svg width="26px" height="29px" viewBox="0 0 26 29" version="1.1" xmlns="http://www.w3.org/2000/svg" xmlns:xlink="http://www.w3.org/1999/xlink">
    <!-- Generator: Sketch 63.1 (92452) - https://sketch.com -->
    <title>icon_crop</title>
    <desc>Created with Sketch.</desc>
    <g id="页面-1" stroke="none" stroke-width="1" fill="none" fill-rule="evenodd">
        <g id="02-农场-可视农场-基本信息" transform="translate(-29.000000, -652.000000)" fill-rule="nonzero" stroke="#FFFFFF">
            <g id="icon_crop" transform="translate(30.000000, 653.000000)">
                <path d="M12.7834736,8.16436813 C13.2722679,7.84513458 13.8434317,7.66659636 14.4401591,7.66997913 C15.1583585,7.67407415 15.9495476,7.84482717 16.6292826,8.28199852 C19.5230557,10.1429056 21.3095556,15.2221507 22.2912307,16.6872412 C22.3366906,14.7407887 22.1834289,10.0231969 19.8092769,7.65216122 C18.817483,6.66169244 17.5427587,6.23936964 16.02422,6.37289329 C14.7433029,6.48722525 13.674262,7.21390138 12.7948999,8.15215323 C12.7910876,8.1562208 12.7872789,8.16029244 12.7834736,8.16436813 Z" id="路径"></path>
                <path d="M13.7516985,2.10038334 C13.2890126,2.50824586 12.8619686,2.99570789 12.471508,3.55912821 C11.4490636,5.03447773 10.6787919,7.02162915 10.1766525,9.47383012 C9.73841883,11.6137299 9.15492697,16.0728659 9.95446101,16.1792905 L9.38880486,16.6926959 C9.38462676,16.5752546 9.14268265,6.82354084 13.0919064,2.53974153 C13.274592,2.34151305 13.5020582,2.19347327 13.7516985,2.10038334 Z M13.7516985,2.10038334 C13.8764213,2.05387472 14.0066789,2.02108211 14.1396523,2.00259928 C16.0183634,1.74158631 18.3985141,2.51413563 20.4471313,4.05351737 C21.9207643,5.1608418 23.2206056,6.66251654 24.4857313,8.39180086 C24.5484837,5.59527263 23.743866,3.31026575 22.1109541,1.89557193 C20.5403051,0.534576246 18.3983649,0.163543071 16.0904813,0.809155828 C15.2316439,1.0493723 14.4509664,1.48397131 13.7516985,2.10038334 Z" id="路径"></path>
                <path d="M7.44559584,27 C6.91189398,27 6.42806503,26.7757832 6.23976778,26.4370494 C1.58833929,18.0689607 0.646346334,7.94554968 0.613440679,4.39278791 L0.613037109,4.06481934 C0.614334555,3.89992565 4.0586992,13.0701998 7.97578079,20.9280833 L6.42379686,13.8725998 C5.41882667,7.46155069 6.3238598,1.8475089 6.89978027,-1.81579461e-05 C6.95301596,-0.170698672 7.67802693,9.49305949 9.44845326,15.9327348 C9.96211562,14.9740385 10.651989,14.2277305 11.5748943,14.0413568 C14.5685722,13.4368255 19.8499142,19.6175404 21.9596285,22.2721257 C22.0914552,22.4379739 21.8723568,22.6514667 21.7055457,22.5199098 C19.2571265,20.5891275 13.6852574,16.3372721 12.3801836,16.5664684 C11.4373397,16.7320517 10.5312055,21.9250064 10.0851991,24.9208946 C10.3742756,25.4321168 10.663218,25.9268354 10.9507501,26.4007097 C11.1245333,26.6870286 10.8172668,27 10.3606904,27 L10.3606904,27 Z" id="形状结合" stroke-width="1.5"></path>
            </g>
        </g>
    </g>
</svg>