<?xml version="1.0" encoding="UTF-8"?>
<svg width="20px" height="23px" viewBox="0 0 20 23" version="1.1" xmlns="http://www.w3.org/2000/svg" xmlns:xlink="http://www.w3.org/1999/xlink">
    <!-- Generator: Sketch 63.1 (92452) - https://sketch.com -->
    <title>webcam1</title>
    <desc>Created with Sketch.</desc>
    <g id="页面-1" stroke="none" stroke-width="1" fill="none" fill-rule="evenodd">
        <g id="02-农场-可视农场-基本信息" transform="translate(-32.000000, -755.000000)" fill="#FFFFFF" fill-rule="nonzero">
            <g id="webcam1" transform="translate(32.000000, 755.000000)">
                <path d="M9.99941705,4 C12.0217915,3.99979377 13.845135,5.21791127 14.6191595,7.08630219 C15.393184,8.95469311 14.9654439,11.1053745 13.5354092,12.5354092 C12.1053745,13.9654439 9.95469311,14.393184 8.08630219,13.6191595 C6.21791127,12.845135 4.99979377,11.0217915 5,8.99941705 C5.00112553,6.2387816 7.2387816,4.00112553 9.99941705,4 Z M11.9991839,8.99941705 C11.9991839,7.89497634 11.1038578,6.99965023 9.99941705,6.99965023 C8.89497634,6.99965023 7.99965023,7.89497634 7.99965023,8.99941705 C7.99965023,10.1038578 8.89497634,10.9991841 9.99941705,10.9991841 C10.529918,10.9994545 11.0387761,10.7888686 11.4139448,10.4137955 C11.7891135,10.0387225 11.9998291,9.52991803 11.9996938,8.99941705 L11.9991839,8.99941705 Z" id="路径_252"></path>
                <g id="组_36">
                    <path d="M9.80526316,-3.37444744e-06 C5.20240014,-0.00346539789 1.21756362,3.03729011 0.228484969,7.30786343 C-0.760593684,11.5784367 1.51278398,15.9272963 5.69210526,17.7595 C3.57375022,18.213127 2.0678298,19.9990726 2.06421053,22.062 C2.06421053,22.1920887 2.11860793,22.3168493 2.21543592,22.4088359 C2.31226391,22.5008225 2.44359085,22.5525 2.58052632,22.5525 L17.0305263,22.5525 C17.3156797,22.5525 17.5468421,22.3328957 17.5468421,22.062 C17.5432228,19.9990726 16.0373024,18.213127 13.9189474,17.7595 C18.0983587,15.9272573 20.3717327,11.5782588 19.3825121,7.3076189 C18.3932914,3.03697899 14.408225,-0.00370078578 9.80526316,-3.37444744e-06 L9.80526316,-3.37444744e-06 Z M12.9015789,18.6305 C14.6965794,18.632532 16.2185907,19.8845621 16.4773684,21.572 L3.13315789,21.572 C3.39193561,19.8845621 4.91394688,18.632532 6.70894737,18.6305 L12.9015789,18.6305 Z M9.80526316,17.65 C4.96011888,17.6497239 1.0326316,13.9182204 1.0326316,9.31533334 C1.0326316,4.71244627 4.96046976,0.981000017 9.80561405,0.981000017 C14.6507583,0.981000017 18.5786567,4.71211294 18.5789474,9.315 C18.573726,13.9162372 14.6486707,17.6450397 9.80526316,17.65 L9.80526316,17.65 Z" id="路径_253"></path>
                    <path d="M9.80526316,3.922 C6.67002984,3.922 4.12842105,6.33652834 4.12842105,9.315 C4.12842105,12.2934717 6.67002984,14.708 9.80526316,14.708 C12.9404965,14.708 15.4821053,12.2934717 15.4821053,9.315 C15.4780459,6.33812719 12.9388135,3.92585641 9.80526316,3.922 Z M9.80526316,13.7275 C7.24004583,13.7275 5.16052632,11.7519565 5.16052632,9.315 C5.16052632,6.87804354 7.24004583,4.9025 9.80526316,4.9025 C12.3704805,4.9025 14.45,6.87804354 14.45,9.315 C14.4468102,11.7507001 12.369158,13.7244697 9.80526316,13.7275 L9.80526316,13.7275 Z" id="路径_254"></path>
                    <path d="M9.80421053,6.864 C8.37989722,6.864 7.22526316,7.96090236 7.22526316,9.314 C7.22526316,10.6670976 8.37989722,11.764 9.80421053,11.764 C11.2285238,11.764 12.3831579,10.6670976 12.3831579,9.314 C12.3808397,7.96181562 11.2275625,6.86620226 9.80421053,6.864 L9.80421053,6.864 Z M9.80421053,10.786 C8.94904119,10.786 8.25578947,10.1274109 8.25578947,9.315 C8.25578947,8.50258913 8.94904119,7.844 9.80421053,7.844 C10.6593799,7.844 11.3526316,8.50258913 11.3526316,9.315 C11.3517612,10.1270681 10.6590191,10.7851732 9.80421053,10.786 L9.80421053,10.786 Z" id="路径_255"></path>
                </g>
            </g>
        </g>
    </g>
</svg>