<?xml version="1.0" encoding="UTF-8"?>
<svg width="22px" height="22px" viewBox="0 0 22 22" version="1.1" xmlns="http://www.w3.org/2000/svg" xmlns:xlink="http://www.w3.org/1999/xlink">
    <!-- Generator: Sketch 63.1 (92452) - https://sketch.com -->
    <title>icon_clapboard</title>
    <desc>Created with Sketch.</desc>
    <g id="页面-1" stroke="none" stroke-width="1" fill="none" fill-rule="evenodd">
        <g id="02-农场-可视农场-基本信息" transform="translate(-30.000000, -805.000000)" fill="#FFFFFF" fill-rule="nonzero">
            <g id="icon_clapboard" transform="translate(30.000000, 805.000000)">
                <path d="M21.9875792,3.90805405 L21.3229064,0.52524629 C21.2535857,0.171755199 20.9145355,-0.0576741365 20.5650788,0.0126842081 L0.518816807,4.04996034 C0.351137986,4.08360995 0.203600764,4.18353916 0.108599577,4.32748483 C0.0135983481,4.47143049 -0.0209780418,4.64749624 0.0124234108,4.8172739 L0.664675542,8.13720106 L0.664675542,19.5998295 C0.664675542,20.9233817 1.72798412,22 3.03500601,22 L19.357422,22 C20.664444,22 21.7279204,20.9233817 21.7279204,19.5998295 L21.7279204,8.07296087 C21.7279204,7.71250194 21.4392241,7.42036193 21.0833892,7.42036193 L19.1356966,7.42036193 C19.1355288,7.42036193 19.1353609,7.42036193 19.1351931,7.42036193 L14.9935768,7.42036193 C14.993409,7.42036193 14.9932411,7.42036193 14.9930733,7.42036193 L10.8512891,7.42036193 C10.8511213,7.42036193 10.8509535,7.42036193 10.8507856,7.42036193 L7.85304433,7.42036193 L21.481018,4.67553759 C21.6486968,4.641718 21.796234,4.54195877 21.8912352,4.39801311 C21.9864042,4.25406745 22.0209806,4.07783175 21.9875792,3.90805405 L21.9875792,3.90805405 Z M13.1340037,5.02596965 L14.8960579,2.48508247 L17.2642064,2.00820937 L15.50232,4.54892661 L13.1340037,5.02596965 Z M8.93481603,5.8716291 L10.6968702,3.33091187 L13.0651866,2.85386883 L11.3031324,5.39458607 L8.93481603,5.8716291 Z M9.29518281,8.72555981 L7.13231077,10.9153351 L4.81317352,10.9153351 L6.97587768,8.72555981 L9.29518281,8.72555981 Z M13.4373026,8.72555981 L11.2744306,10.9153351 L8.9552933,10.9153351 L11.1179975,8.72555981 L13.4373026,8.72555981 Z M17.5794224,8.72555981 L15.4165504,10.9153351 L13.0974131,10.9153351 L15.2602852,8.72555981 L17.5794224,8.72555981 Z M2.99002315,10.9153351 L1.95373787,10.9153351 L1.95373787,8.72555981 L5.15289515,8.72555981 L2.99002315,10.9153351 Z M4.73562838,6.71728856 L6.4978504,4.17640138 L8.86599892,3.69952829 L7.10394469,6.24041546 L4.73562838,6.71728856 Z M4.66697907,4.54535768 L2.90492488,7.08607492 L1.81560006,7.30547733 L1.40236161,5.20271519 L4.66697907,4.54535768 Z M19.357422,20.6948021 L3.03500601,20.6948021 C2.43881469,20.6948021 1.95373787,20.2036534 1.95373787,19.5998295 L1.95373787,12.220533 L20.4388581,12.220533 L20.4388581,19.5998295 C20.4388581,20.2036534 19.9537812,20.6948021 19.357422,20.6948021 Z M20.4388581,10.9153351 L17.2397008,10.9153351 L19.4024049,8.72555981 L20.4388581,8.72555981 L20.4388581,10.9153351 Z M17.3331914,4.18014021 L19.0950777,1.63942302 L20.1844025,1.4200206 L20.5974731,3.52278274 L17.3331914,4.18014021 Z" id="形状"></path>
            </g>
        </g>
    </g>
</svg>