<?xml version="1.0" encoding="UTF-8"?>
<svg width="26px" height="26px" viewBox="0 0 26 26" version="1.1" xmlns="http://www.w3.org/2000/svg" xmlns:xlink="http://www.w3.org/1999/xlink">
    <!-- Generator: Sketch 63.1 (92452) - https://sketch.com -->
    <title>icon_close</title>
    <desc>Created with Sketch.</desc>
    <g id="页面-1" stroke="none" stroke-width="1" fill="none" fill-rule="evenodd">
        <g id="02-农场-可视农场-基本信息" transform="translate(-525.000000, -162.000000)">
            <g id="icon_close" transform="translate(523.000000, 160.000000)">
                <circle id="椭圆形" fill="#000000" cx="15" cy="15" r="13"></circle>
                <path d="M15,5 C15.3681898,5 15.6666667,5.29847683 15.6666667,5.66666667 L15.666,14.333 L24.3333333,14.3333333 C24.7015232,14.3333333 25,14.6318102 25,15 C25,15.3681898 24.7015232,15.6666667 24.3333333,15.6666667 L15.666,15.666 L15.6666667,24.3333333 C15.6666667,24.7015232 15.3681898,25 15,25 C14.6318102,25 14.3333333,24.7015232 14.3333333,24.3333333 L14.333,15.666 L5.66666667,15.6666667 C5.29847683,15.6666667 5,15.3681898 5,15 C5,14.6318102 5.29847683,14.3333333 5.66666667,14.3333333 L14.333,14.333 L14.3333333,5.66666667 C14.3333333,5.29847683 14.6318102,5 15,5 Z" fill="#C35757" fill-rule="nonzero" transform="translate(15.000000, 15.000000) rotate(45.000000) translate(-15.000000, -15.000000) "></path>
            </g>
        </g>
    </g>
</svg>