<?xml version="1.0" encoding="UTF-8"?>
<svg width="40px" height="51px" viewBox="0 0 40 51" version="1.1" xmlns="http://www.w3.org/2000/svg" xmlns:xlink="http://www.w3.org/1999/xlink">
    <!-- Generator: Sketch 63.1 (92452) - https://sketch.com -->
    <title>icon_rice备份</title>
    <desc>Created with Sketch.</desc>
    <g id="页面-1" stroke="none" stroke-width="1" fill="none" fill-rule="evenodd">
        <g id="02-农场-可视农场-作物信息" transform="translate(-228.000000, -266.000000)" fill-rule="nonzero">
            <g id="icon_rice备份" transform="translate(228.000000, 266.000000)">
                <g id="编组" transform="translate(9.000000, 0.000000)" fill="#FFC850">
                    <path d="M21.6275338,14.1912861 C19.5047814,12.0637717 16.7812669,11.1358671 13.5245723,11.4232514 C6.73886174,12.0310983 2.63579743,20.5617919 0.992398714,24.8426156 C1.12586817,25.9674711 1.24129582,27.0952601 1.33589068,28.2237572 C1.53046302,28.1221965 1.68665916,27.9460838 1.75354341,27.7159538 C1.77886174,27.6289595 3.3905627,22.2073988 6.49674277,17.9862572 C7.45425402,16.6849855 8.93457878,15.8769509 10.5348167,15.8860549 C11.754582,15.8930347 13.1017363,16.1754624 14.2577074,16.9215896 C21.1688135,21.3818642 24.9830096,34.2438584 25.0206881,34.3728324 C25.1258489,34.7333526 25.4514984,34.9755202 25.8148264,34.9755202 C25.8439325,34.9755202 25.873537,34.9739017 25.9030418,34.9705636 C26.3007588,34.9278757 26.6114566,34.602659 26.6413601,34.1979335 C26.6837235,33.6288295 27.6130257,20.1903468 21.6275338,14.1912861 Z" id="路径"></path>
                    <path d="M0.892919614,33.2938006 C0.448752412,33.2938006 0.0809389068,32.9366185 0.0651897106,32.4825289 C0.0555209003,32.2009104 -0.155697749,25.510448 1.3307074,18.2263006 C3.33853055,8.38593931 7.53868167,2.30393064 13.4768264,0.637080925 C18.3028585,-0.717803468 22.7631704,0.104190751 26.0368103,2.95102601 C29.9040354,6.31345376 31.5886013,12.0473844 30.7807074,19.0966474 C30.7353537,19.4932803 30.4214662,19.8028179 30.0298296,19.8373121 C29.63291,19.876763 29.2761608,19.6221532 29.1636238,19.2395809 C26.4837685,10.1096387 16.6484952,3.94265896 10.0914469,4.85690751 C9.54032476,4.93378613 9.0196045,5.18434971 8.64032797,5.59736994 C1.180791,13.7178757 1.71357235,32.201315 1.72144695,32.4234538 C1.73719614,32.8873555 1.37954984,33.2774133 0.922424437,33.2929913 C0.912356913,33.2938006 0.902588424,33.2938006 0.892919614,33.2938006 Z" id="路径"></path>
                </g>
                <path d="M5.78122156,1.24348025 C4.77336074,4.85055689 2.98294667,13.6154085 4.74164451,26.1322186 L7.87082225,42 L11,33.6485943 C7.1967818,21.4680669 6.51577695,6.54603663 6.39418239,1.32225099 C6.38524161,0.940554539 5.88352287,0.877558047 5.78122156,1.24348025 Z" id="路径" fill="#D4F582"></path>
                <path d="M14.6390894,26.0763509 C8.85657247,27.2371771 8,40.1641381 8,40.1641381 L11.3388251,50 C11.3388251,50 13.669144,31.1685242 16.1346267,30.7380955 C18.5583352,30.3149639 28.9060921,38.164543 33.4531564,41.7290643 C33.7629484,41.9719385 34.1698454,41.5777979 33.9250243,41.2716167 C30.0069836,36.3708437 20.1987769,24.9602933 14.6390894,26.0763509 Z" id="路径" fill="#AFD755"></path>
                <path d="M0.00113588911,11.3319659 C-0.0306793193,17.4558005 0.566583473,33.4658993 6.81169812,49.9277131 C7.05648453,50.5729204 7.68546217,51 8.37927459,51 L12.1688975,51 C12.7624468,51 13.1618933,50.4038639 12.9359752,49.8584946 C6.49013368,34.2933286 2.16577442,17.5069663 0.658215288,11.253771 C0.566282383,10.8720724 0.00324352121,10.9394955 0.00113588911,11.3319659 Z" id="路径" fill="#BEE86E"></path>
                <g id="编组" transform="translate(15.000000, 1.000000)" fill="#FFDC64">
                    <path d="M23.9573671,17.7455 C23.6657215,9.1203 20.6141772,1.909 14.1257722,0.3505 C8.86875949,-0.9122 4.06005063,1.5281 2.02491139,3.6445 C2.35827848,3.4075 2.75189873,3.2572 3.1635443,3.2013 C9.82491139,2.2975 19.8169114,8.394 22.539443,17.4196 C22.6536709,17.7979 23.0162025,18.0495 23.419443,18.0105 C23.6330127,17.9923 23.8193418,17.8918 23.9573671,17.7455 Z" id="路径"></path>
                    <path d="M8.39149367,11.3122 C4.69782278,11.2392 2.1836962,12.9227 0.0878987342,15.5448 C1.03179747,14.6404 2.27908861,14.097 3.61387342,14.1044 C4.85306329,14.1113 6.22167089,14.3905 7.39605063,15.1281 C14.4172152,19.5374 18.2921519,32.2524 18.3304304,32.3799 C18.4372658,32.7363 18.7681013,32.9757 19.1372152,32.9757 C19.1667848,32.9757 19.1968608,32.9741 19.2268354,32.9708 C19.5109873,32.9411 19.7451139,32.7691 19.8734177,32.533 C19.4919494,13.3902 11.0219747,11.3641 8.39149367,11.3122 Z" id="路径"></path>
                </g>
            </g>
        </g>
    </g>
</svg>