<?xml version="1.0" encoding="UTF-8"?>
<svg width="47px" height="47px" viewBox="0 0 47 47" version="1.1" xmlns="http://www.w3.org/2000/svg" xmlns:xlink="http://www.w3.org/1999/xlink">
    <!-- Generator: Sketch 63.1 (92452) - https://sketch.com -->
    <title>icon_soybeans备份</title>
    <desc>Created with Sketch.</desc>
    <g id="页面-1" stroke="none" stroke-width="1" fill="none" fill-rule="evenodd">
        <g id="02-农场-可视农场-作物信息" transform="translate(-224.000000, -368.000000)" fill-rule="nonzero">
            <g id="icon_soybeans备份" transform="translate(224.000000, 368.000000)">
                <g id="编组" fill="#FFC66C">
                    <path d="M9.56893445,23.561621 C9.56893445,21.1465642 7.42678331,19.1887852 4.78446723,19.1887852 C2.14215115,19.1887852 0,21.1465642 0,23.561621 C0,25.9766778 2.14215115,27.9344568 4.78446723,27.9344568 C7.42678331,27.9344568 9.56893445,25.9766778 9.56893445,23.561621 L9.56893445,23.561621 Z" id="路径"></path>
                    <path d="M22.7227009,6.9188113 C20.9913316,5.21124087 18.0728789,5.32077746 16.2045823,7.163393 C14.3359054,9.00638365 14.2248421,11.8847202 15.9565918,13.5922906 C17.6879611,15.299861 20.6064138,15.1903245 22.4747104,13.347709 C24.3433873,11.5050934 24.4544507,8.62675683 22.7227009,6.9188113 Z" id="路径"></path>
                    <path d="M1.22930265,7.93052425 C2.9610523,9.63846988 5.87912467,9.52893319 7.7478016,7.68594254 C9.6160982,5.843327 9.72716153,2.96499049 7.9957922,1.25742005 C6.26404246,-0.450525479 3.34597008,-0.340988887 1.47729316,1.50200176 C-0.391003441,3.3446173 -0.502066675,6.22295382 1.22930265,7.93052425 Z" id="路径"></path>
                </g>
                <path d="M23.6202152,23.1623248 C26.9607589,19.822183 29.7079607,20.9294454 31.172211,18.8209272 C32.6360869,16.7127834 32.4019716,13.5501933 35.3300978,10.4464125 C38.2582239,7.34263156 43.4705656,8.57238208 45.1101215,5 C48.3311726,8.39670346 46.6991085,14.6803051 45.57573,17.1034718 C43.6709683,21.2118798 41.9868369,21.7917317 40.0153992,24.5602622 C38.4125527,26.8103722 39.8206154,30.6685599 35.2446925,35.2444454 C30.6683951,39.8207055 26.8105505,38.4126543 24.5604221,40.0151131 C21.7918689,41.9869092 21.2120122,43.6706523 17.1035707,45.5753983 C14.6803843,46.6991423 8.39673122,48.3311932 5,45.1101684 C8.57241127,43.4702513 7.34265071,38.2583267 10.446457,35.3298499 C13.5502633,32.4017477 16.7128792,32.635861 18.8210401,31.1719972 C20.929201,29.7077588 20.5141615,26.2687277 23.8543305,22.9282114" id="路径" fill="#A0E557"></path>
                <path d="M25.8163713,27.3026176 C25.571247,26.8991275 25.1739004,26.8991275 24.9287761,27.3026176 C23.690408,29.3414536 23.690408,32.6585464 24.9287761,34.6973823 C25.0513382,34.8991274 25.2118947,35 25.3724511,35 C25.5330075,35 25.6935639,34.8991274 25.8161261,34.6973823 C26.0612504,34.2942956 26.0612504,33.640238 25.8161261,33.2367478 C25.0670262,32.0032784 25.0670262,29.9967217 25.8161261,28.7632521 C26.0612504,28.3597619 26.0612504,27.7057044 25.8163713,27.3026176 L25.8163713,27.3026176 Z" id="路径" fill="#2E6A31"></path>
                <path d="M12.7944258,38.2405542 C12.5200068,37.9198153 12.0751736,37.9198153 11.8007546,38.2405542 C11.284298,38.844185 11,39.6463532 11,40.5001604 C11,41.3536468 11.2845725,42.1561358 11.8007546,42.7597665 C11.9379641,42.9198153 12.1177086,43 12.2974531,43 C12.4771975,43 12.6569419,42.9198153 12.7941514,42.7597665 C13.0685704,42.4390275 13.0685704,41.9191097 12.7941514,41.5983707 C12.2760483,40.9928155 12.2760483,40.0075053 12.7941514,39.4016294 C13.0685704,39.0808904 13.0685704,38.5609724 12.7944258,38.2405542 L12.7944258,38.2405542 Z" id="路径" fill="#2E6A31"></path>
                <path d="M37.7858367,13.2637873 C37.5002856,12.9120709 37.0376928,12.9120709 36.7521417,13.2637873 C36.2669903,13.8610017 36,14.6551773 36,15.5 C36,16.3448228 36.2669903,17.1389983 36.7521417,17.7365645 C36.8949172,17.9124226 37.0819532,18 37.2689892,18 C37.4560251,18 37.6430611,17.9124226 37.7858367,17.7365645 C38.0711022,17.3848481 38.0711022,16.8147158 37.7858367,16.4629995 C37.5768133,16.2058948 37.4620217,15.8640265 37.4620217,15.5 C37.4620217,15.1363253 37.5768133,14.794457 37.7858367,14.5370006 C38.0713878,14.1852842 38.0713878,13.6155037 37.7858367,13.2637873 Z" id="路径" fill="#2E6A31"></path>
            </g>
        </g>
    </g>
</svg>