<?xml version="1.0" encoding="UTF-8"?>
<svg width="31px" height="25px" viewBox="0 0 31 25" version="1.1" xmlns="http://www.w3.org/2000/svg" xmlns:xlink="http://www.w3.org/1999/xlink">
    <!-- Generator: Sketch 63.1 (92452) - https://sketch.com -->
    <title>icon_farm备份</title>
    <desc>Created with Sketch.</desc>
    <g id="页面-1" stroke="none" stroke-width="1" fill="none" fill-rule="evenodd">
        <g id="02-农场-可视农场-基本信息" transform="translate(-647.000000, -27.000000)" fill="#9AC4EF" fill-rule="nonzero">
            <g id="FARM-TITLE" transform="translate(602.000000, 10.000000)">
                <g id="icon_farm备份" transform="translate(45.000000, 17.000000)">
                    <path d="M8,11 C4.14020181,11 1,14.1402018 1,18 C1,21.8597982 4.14020181,25 8,25 C11.8597982,25 15,21.8597982 15,18 C15,14.1402018 11.8597982,11 8,11 Z M8,23.25 C5.10520833,23.25 2.75,20.8947917 2.75,18 C2.75,15.1052083 5.10520833,12.75 8,12.75 C10.8947917,12.75 13.25,15.1052083 13.25,18 C13.25,20.8947917 10.8947917,23.25 8,23.25 Z" id="形状"></path>
                    <path d="M8,16 C6.89722222,16 6,16.8972222 6,18 C6,19.1027778 6.89722222,20 8,20 C9.10277778,20 10,19.1027778 10,18 C10,16.8972222 9.10277778,16 8,16 Z" id="路径"></path>
                    <path d="M29.2232778,15.6535993 L29.2232778,12.5 C29.2232778,10.5305989 27.6293175,8.92857143 25.6698335,8.92857143 L23.8931113,8.92857143 L23.8931113,4.46428571 C23.8931113,3.97205173 24.2917171,3.57142857 24.7814724,3.57142857 L24.7814724,1.78571429 C23.3119751,1.78571429 22.1163892,2.98735119 22.1163892,4.46428571 L22.1163892,8.92857143 L18.2170855,8.92857143 L16.0850189,1.78571429 L16.6632785,1.78571429 C17.1563899,1.78571429 17.5561356,1.38596853 17.5561356,0.892857143 C17.5561356,0.399745759 17.1563899,5.12746512e-15 16.6632785,0 L4.23521545,0 C3.74210407,4.23649999e-16 3.34235831,0.399745759 3.34235831,0.892857143 C3.34235831,1.38596853 3.74210407,1.78571429 4.23521545,1.78571429 L5.11908047,1.78571429 L5.11908047,1.78571429 L5.11908047,7.48442149 C4.06371187,7.75871204 2.70937153,8.43463426 1.81744385,8.98730469 C1.44066392,9.22077106 1.15664673,9.43154907 1,9.59216893 C0.508724521,10.0959049 0.505918226,10.7016757 0.764984131,11 C1.19369507,11.493677 2.01358032,11.0715332 2.13127229,10.969122 C2.24896425,10.8667108 2.18140605,10.9277479 2.20662914,10.9072821 C3.78003757,9.63063065 5.7567772,8.92857143 7.78416372,8.92857143 C12.6826423,8.92857143 16.6677745,12.9338727 16.6677745,17.8571429 L16.6677745,19.5357143 C16.6677745,20.087999 17.1154898,20.5357143 17.6677745,20.5357143 L20.4141598,20.5357143 L20.4141598,20.5357143 C20.8384447,23.0661738 23.0334369,25 25.6698335,25 C28.6088281,25 31,22.5967262 31,19.6428571 C31,18.0598958 30.3131396,16.6352771 29.2232778,15.6535993 Z M6.89580264,7.18075708 L6.89580264,1.78571429 L14.2301025,1.78571429 L16.3621691,8.92857143 L13.6700185,8.92857143 C11.9821325,7.80087429 9.95833496,7.14285714 7.78416372,7.14285714 C7.48688665,7.14285714 7.1905349,7.15587798 6.89580264,7.18075708 Z M15.7225028,10.7142857 L25.6698335,10.7142857 C26.6495755,10.7142857 27.4465557,11.5152995 27.4465557,12.5 L27.4465557,14.5921689 C26.8906359,14.3940662 26.2926116,14.2857143 25.6698335,14.2857143 L17.8346738,14.2857143 C17.3652768,12.9554967 16.641864,11.7452567 15.7225028,10.7142857 Z M18.2955111,16.0714286 L21.700664,16.0714286 C21.0424902,16.8094308 20.5848917,17.7313523 20.4141598,18.75 L18.4444967,18.75 L18.4444967,17.8571429 C18.4444967,17.2488839 18.3931383,16.6524833 18.2955111,16.0714286 L18.2955111,16.0714286 Z M25.6698335,23.2142857 C23.7103495,23.2142857 22.1163892,21.6122582 22.1163892,19.6428571 C22.1163892,17.6734561 23.7103495,16.0714286 25.6698335,16.0714286 C27.6293175,16.0714286 29.2232778,17.6734561 29.2232778,19.6428571 C29.2232778,21.6122582 27.6293175,23.2142857 25.6698335,23.2142857 Z" id="形状"></path>
                </g>
            </g>
        </g>
    </g>
</svg>