<?xml version="1.0" encoding="UTF-8"?>
<svg width="19px" height="19px" viewBox="0 0 19 19" version="1.1" xmlns="http://www.w3.org/2000/svg" xmlns:xlink="http://www.w3.org/1999/xlink">
    <!-- Generator: Sketch 53.2 (72643) - https://sketchapp.com -->
    <title>土地-icon</title>
    <desc>Created with Sketch.</desc>
    <defs>
        <polygon id="path-1" points="0 0 19 0 19 18.9999674 0 18.9999674"></polygon>
    </defs>
    <g id="页面-1" stroke="none" stroke-width="1" fill="none" fill-rule="evenodd">
        <g id="农场详情" transform="translate(-699.000000, -548.000000)">
            <g id="编组-4备份" transform="translate(679.000000, 527.000000)">
                <g id="土地-icon" transform="translate(20.000000, 21.000000)">
                    <mask id="mask-2" fill="white">
                        <use xlink:href="#path-1"></use>
                    </mask>
                    <g id="Clip-2"></g>
                    <path d="M16.15,17.1021389 L2.85,17.1021389 C2.36012571,17.1021389 1.95515429,16.7288703 1.90423429,16.2518074 L3.45854286,10.1573674 C3.63464571,9.41517314 4.10530286,8.98892171 4.75,8.98892171 L4.90058857,8.98892171 C6.30224571,11.6353503 8.72393143,13.8641046 8.85964571,13.987116 L9.5,14.5702531 L10.1403543,13.9849446 C10.2760686,13.8619331 12.6892857,11.6332874 14.0909429,8.98892171 L14.5659429,8.98892171 C14.9815543,8.98892171 15.2338743,8.98892171 15.5456914,10.1722417 L17.0935943,16.2518074 C17.0448457,16.7288703 16.6398743,17.1021389 16.15,17.1021389 L16.15,17.1021389 Z M6.53969143,2.99002457 C7.16528,2.27540743 8.18954286,1.89790457 9.5,1.89790457 C10.8168629,1.89790457 11.84536,2.27747029 12.4730114,2.99849314 C13.0921943,3.708876 13.3275771,4.76060743 13.1494114,6.03925314 C12.8441086,8.25107029 10.6195886,10.793596 9.49782857,11.9514017 C8.37606857,10.793596 6.14536,8.25107029 5.85058857,6.04142457 C5.67882857,4.75637314 5.91627429,3.70040743 6.53969143,2.99002457 L6.53969143,2.99002457 Z M17.3841314,9.69507029 C17.0617829,8.477876 16.5062229,7.235276 14.8607143,7.103796 C14.9349771,6.83453886 14.9942571,6.56517314 15.0303029,6.29797886 C15.2847943,4.45953886 14.8945886,2.88818457 13.9043086,1.75155029 C12.90556,0.604384571 11.3830629,-3.25714286e-05 9.5,-3.25714286e-05 C7.62540571,-3.25714286e-05 6.10497143,0.602213143 5.10839429,1.74101886 C4.11388,2.87548171 3.71944,4.44889886 3.96752571,6.29374457 C4.00574286,6.577876 4.06925714,6.862116 4.14775429,7.14831029 C2.90298286,7.38163029 1.93821714,8.33586457 1.61163429,9.70353886 L0,16.0333617 L0,16.1521389 C0,17.7213217 1.27864571,18.9999674 2.85,18.9999674 L16.15,18.9999674 C17.7213543,18.9999674 19,17.7234931 19,16.1521389 L19,16.0333617 L17.3841314,9.69507029 Z" id="Fill-1" fill="#48A4FF" mask="url(#mask-2)"></path>
                </g>
            </g>
        </g>
    </g>
</svg>