<?xml version="1.0" encoding="UTF-8"?>
<svg width="18px" height="18px" viewBox="0 0 18 18" version="1.1" xmlns="http://www.w3.org/2000/svg" xmlns:xlink="http://www.w3.org/1999/xlink">
    <!-- Generator: Sketch 53.2 (72643) - https://sketchapp.com -->
    <title>物联网-icon</title>
    <desc>Created with Sketch.</desc>
    <defs>
        <polygon id="path-1" points="0 9.83606557e-06 17.9194248 9.83606557e-06 17.9194248 17.9901639 0 17.9901639"></polygon>
    </defs>
    <g id="页面-1" stroke="none" stroke-width="1" fill="none" fill-rule="evenodd">
        <g id="农场详情" transform="translate(-1080.000000, -764.000000)">
            <g id="编组-4备份-3" transform="translate(1060.000000, 742.000000)">
                <g id="物联网-icon" transform="translate(20.000000, 22.000000)">
                    <mask id="mask-2" fill="white">
                        <use xlink:href="#path-1"></use>
                    </mask>
                    <g id="Clip-2"></g>
                    <path d="M16.3131017,14.1836164 C16.230816,14.2228623 16.0971017,14.2623049 15.9736731,14.2623049 C15.582816,14.2623049 15.2845303,14.0164033 15.2022446,13.6918131 L15.2022446,13.5246 C15.2022446,13.2000098 15.4183474,12.9147639 15.7165303,12.8262393 C15.798816,12.7868951 15.8913874,12.7868951 15.9736731,12.7868951 C16.4056731,12.7868951 16.7451017,13.1114852 16.7451017,13.4851574 L16.7451017,13.5246 C16.7349189,13.819682 16.5702446,14.0557475 16.3131017,14.1836164 L16.3131017,14.1836164 Z M17.3006331,12.1377148 C17.382816,11.8524689 17.4754903,11.5671246 17.5165303,11.2720426 C17.598816,10.7409934 17.6913874,10.2098459 17.6913874,9.67869836 C17.6913874,8.16394426 17.2593874,6.72787869 16.4879589,5.49837049 C15.4593874,3.77705902 13.7416731,2.42951803 11.7771017,1.77050164 L11.7771017,1.93771475 C11.7771017,2.31148525 11.6949189,2.63607541 11.5612046,2.96066557 C13.1863474,3.53115738 14.5645303,4.68197705 15.4183474,6.11804262 C16.0559589,7.1803377 16.4469189,8.4098459 16.4469189,9.72787869 C16.4469189,10.1408951 16.4056731,10.5049279 16.3645303,10.8786 C16.3234903,11.1639443 16.2412046,11.4098459 16.189776,11.6950918 C16.1073874,11.6950918 16.0149189,11.6557475 15.9326331,11.6557475 C14.8216731,11.6557475 13.9165303,12.5114852 13.9165303,13.583518 C13.9165303,13.9967311 14.0913874,14.4000098 14.3073874,14.7344361 C14.5645303,15.0589279 14.9040617,15.3048295 15.2949189,15.4327967 C15.469776,15.472141 15.6856731,15.5114852 15.8913874,15.5114852 C17.0022446,15.5114852 17.9073874,14.6459115 17.9073874,13.583518 C17.9793874,12.9541082 17.7222446,12.4623049 17.3006331,12.1377148 L17.3006331,12.1377148 Z M2.72567314,13.6918131 C2.64349029,14.0164033 2.33491886,14.2623049 1.95424457,14.2623049 C1.830816,14.2623049 1.69710171,14.2228623 1.56349029,14.1836164 C1.34738743,14.0655836 1.17253029,13.8098459 1.17253029,13.5246 C1.17253029,13.1114852 1.51206171,12.7868951 1.94395886,12.7868951 C2.02634743,12.7868951 2.118816,12.7868951 2.15995886,12.8262393 C2.45824457,12.9049279 2.71538743,13.2000098 2.71538743,13.5246 L2.71538743,13.6918131 L2.72567314,13.6918131 Z M13.7416731,15.2064689 C12.4559589,16.229518 10.7793874,16.8491902 8.98967314,16.8491902 C7.19995886,16.8491902 5.51310171,16.2392557 4.237776,15.2064689 C4.02167314,15.0393541 3.80567314,14.8327967 3.59995886,14.6360754 C3.85710171,14.3114852 4.03206171,13.9377148 4.03206171,13.4851574 C4.03206171,12.4229607 3.126816,11.5573869 2.01595886,11.5573869 C1.93367314,11.5573869 1.84110171,11.5573869 1.758816,11.5967311 C1.326816,11.6360754 0.946347429,11.8426328 0.647958857,12.0885344 C0.257101714,12.4623049 -4.11428571e-05,12.9541082 -4.11428571e-05,13.4851574 C-4.11428571e-05,14.5475508 0.894918857,15.4131246 2.01595886,15.4131246 C2.23206171,15.4131246 2.406816,15.3737803 2.57138743,15.3344361 C2.78738743,15.5409934 3.00349029,15.7474525 3.26063314,15.9441738 C4.80349029,17.2131246 6.81938743,17.9901738 8.99995886,17.9901738 C11.1806331,17.9901738 13.1965303,17.2131246 14.7393874,15.8949934 C14.3383474,15.7868951 13.998816,15.5311574 13.7416731,15.2064689 L13.7416731,15.2064689 Z M8.50634743,1.31804262 C8.62967314,1.2393541 8.76349029,1.20000984 8.93824457,1.20000984 C9.11310171,1.20000984 9.23653029,1.2393541 9.37024457,1.31804262 C9.58634743,1.44591148 9.709776,1.69181311 9.709776,1.92787869 C9.709776,2.13443607 9.62738743,2.34099344 9.45263314,2.49837049 C9.318816,2.61640328 9.15424457,2.70492787 8.93824457,2.70492787 C8.72224457,2.70492787 8.54749029,2.62623934 8.42395886,2.49837049 C8.24920457,2.3803377 8.166816,2.17378033 8.166816,1.92787869 C8.166816,1.64263279 8.30063314,1.43607541 8.50634743,1.31804262 L8.50634743,1.31804262 Z M1.52224457,10.819682 C1.43995886,10.4459115 1.43995886,10.0425344 1.43995886,9.62951803 C1.43995886,8.32132131 1.830816,7.09181311 2.46853029,6.01968197 C3.32224457,4.59345246 4.70063314,3.49181311 6.32567314,2.87214098 C6.582816,2.79345246 6.88110171,2.70492787 7.13824457,2.62623934 C7.43653029,3.3246 8.166816,3.77705902 8.97938743,3.77705902 C9.79206171,3.77705902 10.5222446,3.28525574 10.8206331,2.62623934 C10.902816,2.3803377 10.9954903,2.13443607 10.9954903,1.88853443 C10.9954903,1.72132131 10.9954903,1.60328852 10.9542446,1.47541967 C10.6971017,0.65902623 9.92567314,9.83606557e-06 8.93824457,9.83606557e-06 C7.99206171,9.83606557e-06 7.17938743,0.65902623 7.00463314,1.47541967 L6.10967314,1.72132131 C4.09367314,2.3803377 2.42738743,3.72787869 1.398816,5.44919016 C0.668530286,6.67869836 0.195387429,8.11476393 0.195387429,9.62951803 C0.195387429,10.1606656 0.236530286,10.6918131 0.370244571,11.2228623 C0.709673143,11.026141 1.10063314,10.9082066 1.52224457,10.819682 L1.52224457,10.819682 Z" id="Fill-1" fill="#48A4FF" mask="url(#mask-2)"></path>
                </g>
            </g>
        </g>
    </g>
</svg>