<?xml version="1.0" encoding="UTF-8"?>
<svg width="19px" height="20px" viewBox="0 0 19 20" version="1.1" xmlns="http://www.w3.org/2000/svg" xmlns:xlink="http://www.w3.org/1999/xlink">
    <!-- Generator: Sketch 53.2 (72643) - https://sketchapp.com -->
    <title>种植-icon</title>
    <desc>Created with Sketch.</desc>
    <defs>
        <polygon id="path-1" points="0.0791322528 0.041768464 9.54791708 0.041768464 9.54791708 15.1243781 0.0791322528 15.1243781"></polygon>
        <polygon id="path-3" points="0.0559131495 0.00407960199 13.9447546 0.00407960199 13.9447546 17.1044279 0.0559131495 17.1044279"></polygon>
        <polygon id="path-5" points="0 0.0162536459 10.1853258 0.0162536459 10.1853258 12.7661592 0 12.7661592"></polygon>
    </defs>
    <g id="页面-1" stroke="none" stroke-width="1" fill="none" fill-rule="evenodd">
        <g id="农场详情" transform="translate(-318.000000, -763.000000)">
            <g id="编组-4备份-5" transform="translate(298.000000, 742.000000)">
                <g id="种植-icon" transform="translate(20.000000, 21.000000)">
                    <g id="分组" transform="translate(3.132979, 4.871542)">
                        <mask id="mask-2" fill="white">
                            <use xlink:href="#path-1"></use>
                        </mask>
                        <g id="Clip-2"></g>
                        <path d="M0.716926596,15.1243881 L0.666394681,15.1243881 C0.32277766,15.0945373 0.0600117021,14.8059801 0.0802244681,14.4577214 C0.0903308511,14.3781194 0.241926596,12.3780199 1.36373511,9.61195025 C2.39458617,7.07463682 4.47650106,3.37314428 8.51905426,0.179114428 C8.7919266,-0.0397910448 9.18607553,0.009960199 9.40841596,0.278616915 C9.63075638,0.547273632 9.58022447,0.935333333 9.30735213,1.15423881 C1.98022447,6.93533333 1.34352234,14.4776219 1.33341596,14.5472736 C1.32330957,14.8756318 1.04033085,15.1243881 0.716926596,15.1243881" id="Fill-1" fill="#48A4FF" mask="url(#mask-2)"></path>
                    </g>
                    <g id="分组" transform="translate(5.053191, 0.095423)">
                        <mask id="mask-4" fill="white">
                            <use xlink:href="#path-3"></use>
                        </mask>
                        <g id="Clip-4"></g>
                        <path d="M2.93021436,13.6218408 C2.64723564,13.6218408 2.3743633,13.6417413 2.14191649,13.6816418 C1.56585266,13.7811443 1.33340585,13.9700995 1.32329947,14.049801 C1.3030867,14.129403 1.4243633,14.38801 1.8993633,14.7362687 C2.44510798,15.1244279 3.27383138,15.4726866 4.1530867,15.6716915 C6.15415053,16.1293035 7.36691649,15.6716915 7.4174484,15.4428358 C7.46798032,15.2039303 6.588725,14.2786567 4.58766117,13.8308955 C4.02170372,13.6914925 3.44563989,13.6218408 2.93021436,13.6218408 M5.80042713,17.1044279 C5.17383138,17.1044279 4.51691649,17.0248259 3.87010798,16.8755721 C2.80893777,16.6368657 1.84883138,16.228806 1.15149096,15.7413433 C0.00946968085,14.9254229 -0.000636702128,14.1591542 0.0903207447,13.7710945 C0.181278191,13.3831343 0.535001596,12.6964677 1.91957606,12.4577612 C2.75840585,12.3085075 3.80946968,12.3582587 4.87063989,12.6070149 C7.0030867,13.0846269 8.98393777,14.308408 8.65042713,15.711393 C8.4280867,16.6964677 7.22542713,17.1044279 5.80042713,17.1044279 M6.29563989,8.60701493 C5.77010798,8.60701493 5.2850016,8.66671642 4.89085266,8.76621891 C4.32489521,8.91547264 4.12276755,9.13427861 4.11266117,9.20402985 C4.10255479,9.28353234 4.24404415,9.53228856 4.7493633,9.83079602 C5.33553351,10.169204 6.18446968,10.4377612 7.08393777,10.5473134 C9.12542713,10.8159701 10.2775548,10.2586567 10.3179803,10.01 C10.3482995,9.77109453 9.3780867,8.92532338 7.33659734,8.66671642 C6.98287394,8.62681592 6.62915053,8.60701493 6.29563989,8.60701493 M8.11478883,11.870597 C7.72063989,11.870597 7.31638457,11.8408458 6.91212926,11.7910945 C5.83074628,11.6516915 4.83021436,11.3332836 4.10255479,10.9054229 C2.88978883,10.1990547 2.79883138,9.43278607 2.8493633,9.04472637 C2.89989521,8.64671642 3.19298032,7.94024876 4.54723564,7.57218905 C5.37595904,7.35318408 6.41691649,7.30343284 7.49829947,7.44273632 C9.66106543,7.72144279 11.7530867,8.75626866 11.5610654,10.189005 C11.4094697,11.3531841 9.86319309,11.870597 8.11478883,11.870597 M12.2584059,1.24383085 C12.1270229,1.24383085 11.9653207,1.26363184 11.7631931,1.30353234 C11.0961718,1.44283582 10.2876612,1.81089552 9.53978883,2.32830846 C8.79191649,2.83587065 8.15521436,3.45268657 7.80149096,4.01985075 C7.48819309,4.50741294 7.4780867,4.79597015 7.52861862,4.86562189 C7.67010798,5.06462687 8.963725,5.03487562 10.651491,3.88064677 C12.3392569,2.72631841 12.8142569,1.54233831 12.6727676,1.34333333 C12.632342,1.29358209 12.5110654,1.24383085 12.2584059,1.24383085 M7.92276755,6.19895522 C7.31638457,6.19895522 6.80095904,6.0099005 6.48766117,5.57218905 C6.25521436,5.24373134 5.98234202,4.52741294 6.73021436,3.35318408 C7.1850016,2.63686567 7.93287394,1.91039801 8.82223564,1.30353234 C9.71159734,0.696567164 10.6717037,0.258756219 11.5004271,0.0895024876 C12.8748952,-0.198955224 13.4711718,0.308507463 13.6935122,0.636766169 C14.532342,1.82084577 13.1477676,3.68164179 11.3589378,4.90542289 C10.2472356,5.67169154 8.94351223,6.19895522 7.92276755,6.19895522" id="Fill-3" fill="#48A4FF" mask="url(#mask-4)"></path>
                    </g>
                    <g id="分组" transform="translate(0.000000, 0.692438)">
                        <mask id="mask-6" fill="white">
                            <use xlink:href="#path-5"></use>
                        </mask>
                        <g id="Clip-6"></g>
                        <path d="M1.46478883,6.79600995 C1.39404415,6.79600995 1.34351223,6.8059602 1.31319309,6.83581095 C1.25255479,6.88556219 1.19191649,7.1741194 1.37383138,7.72138308 C1.58606543,8.358199 2.05095904,9.10446766 2.64723564,9.78108458 C4.00149096,11.3034726 5.24457606,11.6417811 5.42649096,11.4825771 C5.60840585,11.3233731 5.44670372,10.0596915 4.0924484,8.53730348 C2.95042713,7.2338209 1.86904415,6.79600995 1.46478883,6.79600995 L1.46478883,6.79600995 Z M5.2850016,12.7661592 C4.18340585,12.7661592 2.76851223,11.8208856 1.69723564,10.6069552 C0.979682447,9.80098507 0.444044149,8.91541294 0.181278191,8.11939303 C-0.253296277,6.8059602 0.191384574,6.16914428 0.494576064,5.91043781 C1.59617181,4.96516418 3.62755479,6.10944279 5.06266117,7.73133333 C6.49776755,9.35322388 7.37702287,11.4925274 6.27542713,12.437801 C5.98234202,12.6567065 5.64883138,12.7661592 5.2850016,12.7661592 L5.2850016,12.7661592 Z M7.70042713,1.26367164 C7.70042713,1.26367164 7.69032074,1.26367164 7.70042713,1.26367164 C7.61957606,1.27362189 7.39723564,1.46267662 7.20521436,2.0099403 C6.99298032,2.64675622 6.91212926,3.52237811 6.98287394,4.40795025 C7.05361862,5.30347264 7.27595904,6.14924378 7.58925691,6.74625871 C7.86212926,7.26367164 8.11478883,7.41292537 8.19563989,7.40297512 C8.43819309,7.38307463 9.07489521,6.26864677 8.9030867,4.25869652 C8.83234202,3.36317413 8.6100016,2.51740299 8.29670372,1.92038806 C8.02383138,1.41292537 7.78127819,1.26367164 7.70042713,1.26367164 L7.70042713,1.26367164 Z M8.19563989,8.64675622 C7.77117181,8.64675622 7.07383138,8.44775124 6.47755479,7.32337313 C6.08340585,6.57710448 5.82063989,5.5820796 5.72968245,4.50745274 C5.638725,3.44277612 5.73978883,2.40795025 6.01266117,1.61193035 C6.44723564,0.298497512 7.1850016,0.0497412935 7.58925691,0.0198905473 C7.99351223,-0.009960199 8.76159734,0.119393035 9.40840585,1.34327363 C9.80255479,2.08954229 10.0653207,3.08456716 10.1562782,4.15919403 C10.3280867,6.29849751 9.74191649,8.52735323 8.28659734,8.64675622 L8.19563989,8.64675622 Z" id="Fill-5" fill="#48A4FF" mask="url(#mask-6)"></path>
                    </g>
                </g>
            </g>
        </g>
    </g>
</svg>